%TF.GenerationSoftware,KiCad,Pcbnew,9.0.0*%
%TF.CreationDate,2025-03-27T16:23:26+02:00*%
%TF.ProjectId,MMPOwerBoardKiCAD9Version,4d4d504f-7765-4724-926f-6172644b6943,rev?*%
%TF.SameCoordinates,Original*%
%TF.FileFunction,Soldermask,Top*%
%TF.FilePolarity,Negative*%
%FSLAX46Y46*%
G04 Gerber Fmt 4.6, Leading zero omitted, Abs format (unit mm)*
G04 Created by KiCad (PCBNEW 9.0.0) date 2025-03-27 16:23:26*
%MOMM*%
%LPD*%
G01*
G04 APERTURE LIST*
G04 Aperture macros list*
%AMRoundRect*
0 Rectangle with rounded corners*
0 $1 Rounding radius*
0 $2 $3 $4 $5 $6 $7 $8 $9 X,Y pos of 4 corners*
0 Add a 4 corners polygon primitive as box body*
4,1,4,$2,$3,$4,$5,$6,$7,$8,$9,$2,$3,0*
0 Add four circle primitives for the rounded corners*
1,1,$1+$1,$2,$3*
1,1,$1+$1,$4,$5*
1,1,$1+$1,$6,$7*
1,1,$1+$1,$8,$9*
0 Add four rect primitives between the rounded corners*
20,1,$1+$1,$2,$3,$4,$5,0*
20,1,$1+$1,$4,$5,$6,$7,0*
20,1,$1+$1,$6,$7,$8,$9,0*
20,1,$1+$1,$8,$9,$2,$3,0*%
G04 Aperture macros list end*
%ADD10C,0.010000*%
%ADD11RoundRect,0.250000X-0.625000X0.312500X-0.625000X-0.312500X0.625000X-0.312500X0.625000X0.312500X0*%
%ADD12RoundRect,0.250000X-0.312500X-0.625000X0.312500X-0.625000X0.312500X0.625000X-0.312500X0.625000X0*%
%ADD13RoundRect,0.200000X0.200000X0.275000X-0.200000X0.275000X-0.200000X-0.275000X0.200000X-0.275000X0*%
%ADD14RoundRect,0.250000X0.625000X-0.312500X0.625000X0.312500X-0.625000X0.312500X-0.625000X-0.312500X0*%
%ADD15R,1.500000X1.500000*%
%ADD16RoundRect,0.200000X-0.200000X-0.275000X0.200000X-0.275000X0.200000X0.275000X-0.200000X0.275000X0*%
%ADD17RoundRect,0.243750X0.456250X-0.243750X0.456250X0.243750X-0.456250X0.243750X-0.456250X-0.243750X0*%
%ADD18R,1.000000X1.500000*%
%ADD19RoundRect,0.250000X-0.450000X0.262500X-0.450000X-0.262500X0.450000X-0.262500X0.450000X0.262500X0*%
%ADD20RoundRect,0.102000X-0.150000X-0.450000X0.150000X-0.450000X0.150000X0.450000X-0.150000X0.450000X0*%
%ADD21C,0.844000*%
%ADD22RoundRect,0.102000X-0.250000X-0.150000X0.250000X-0.150000X0.250000X0.150000X-0.250000X0.150000X0*%
%ADD23O,1.054000X1.904000*%
%ADD24RoundRect,0.225000X0.250000X-0.225000X0.250000X0.225000X-0.250000X0.225000X-0.250000X-0.225000X0*%
%ADD25RoundRect,0.237500X0.237500X-0.250000X0.237500X0.250000X-0.237500X0.250000X-0.237500X-0.250000X0*%
%ADD26RoundRect,0.237500X0.250000X0.237500X-0.250000X0.237500X-0.250000X-0.237500X0.250000X-0.237500X0*%
%ADD27RoundRect,0.150000X-0.587500X-0.150000X0.587500X-0.150000X0.587500X0.150000X-0.587500X0.150000X0*%
%ADD28RoundRect,0.225000X0.225000X0.250000X-0.225000X0.250000X-0.225000X-0.250000X0.225000X-0.250000X0*%
%ADD29RoundRect,0.250000X0.312500X0.625000X-0.312500X0.625000X-0.312500X-0.625000X0.312500X-0.625000X0*%
%ADD30R,1.500000X2.500000*%
%ADD31RoundRect,0.250000X0.475000X-0.250000X0.475000X0.250000X-0.475000X0.250000X-0.475000X-0.250000X0*%
%ADD32R,0.350000X0.500000*%
%ADD33R,1.600000X1.000000*%
%ADD34RoundRect,0.140000X0.140000X0.170000X-0.140000X0.170000X-0.140000X-0.170000X0.140000X-0.170000X0*%
%ADD35RoundRect,0.098000X-0.609000X-0.294000X0.609000X-0.294000X0.609000X0.294000X-0.609000X0.294000X0*%
%ADD36RoundRect,0.140000X0.170000X-0.140000X0.170000X0.140000X-0.170000X0.140000X-0.170000X-0.140000X0*%
%ADD37C,2.300000*%
%ADD38RoundRect,0.100500X0.986500X0.301500X-0.986500X0.301500X-0.986500X-0.301500X0.986500X-0.301500X0*%
%ADD39RoundRect,0.250000X-0.350000X-0.625000X0.350000X-0.625000X0.350000X0.625000X-0.350000X0.625000X0*%
%ADD40O,1.200000X1.750000*%
%ADD41R,1.700000X1.700000*%
%ADD42O,1.700000X1.700000*%
%ADD43R,0.800000X0.864000*%
%ADD44RoundRect,0.225000X-0.250000X0.225000X-0.250000X-0.225000X0.250000X-0.225000X0.250000X0.225000X0*%
%ADD45RoundRect,0.225000X-0.225000X-0.250000X0.225000X-0.250000X0.225000X0.250000X-0.225000X0.250000X0*%
%ADD46RoundRect,0.218750X-0.381250X0.218750X-0.381250X-0.218750X0.381250X-0.218750X0.381250X0.218750X0*%
%ADD47R,1.050000X2.465000*%
%ADD48R,3.540000X2.465000*%
%ADD49RoundRect,0.102000X-0.985000X-0.300000X0.985000X-0.300000X0.985000X0.300000X-0.985000X0.300000X0*%
%ADD50RoundRect,0.102000X-1.206500X-1.651000X1.206500X-1.651000X1.206500X1.651000X-1.206500X1.651000X0*%
%ADD51RoundRect,0.200000X0.275000X-0.200000X0.275000X0.200000X-0.275000X0.200000X-0.275000X-0.200000X0*%
%ADD52RoundRect,0.250000X0.450000X-0.350000X0.450000X0.350000X-0.450000X0.350000X-0.450000X-0.350000X0*%
%ADD53R,1.500000X1.000000*%
%ADD54RoundRect,0.250000X0.350000X0.450000X-0.350000X0.450000X-0.350000X-0.450000X0.350000X-0.450000X0*%
%ADD55RoundRect,0.081750X-0.770250X-0.245250X0.770250X-0.245250X0.770250X0.245250X-0.770250X0.245250X0*%
%ADD56RoundRect,0.237500X-0.250000X-0.237500X0.250000X-0.237500X0.250000X0.237500X-0.250000X0.237500X0*%
G04 APERTURE END LIST*
%TO.C,JP6*%
G36*
X155350000Y62700000D02*
G01*
X155650000Y62700000D01*
X155650000Y61200000D01*
X155350000Y61200000D01*
X155350000Y62700000D01*
G37*
%TO.C,JP1*%
G36*
X291350000Y-600000D02*
G01*
X291650000Y-600000D01*
X291650000Y-2100000D01*
X291350000Y-2100000D01*
X291350000Y-600000D01*
G37*
%TO.C,JP3*%
G36*
X73731834Y12440000D02*
G01*
X74031834Y12440000D01*
X74031834Y10940000D01*
X73731834Y10940000D01*
X73731834Y12440000D01*
G37*
%TO.C,JP4*%
G36*
X291350000Y-11250000D02*
G01*
X291650000Y-11250000D01*
X291650000Y-12750000D01*
X291350000Y-12750000D01*
X291350000Y-11250000D01*
G37*
%TO.C,JP5*%
G36*
X155350000Y66250000D02*
G01*
X155650000Y66250000D01*
X155650000Y64750000D01*
X155350000Y64750000D01*
X155350000Y66250000D01*
G37*
D10*
%TO.C,U4*%
X57263000Y-57806000D02*
X57269000Y-57806000D01*
X57275000Y-57808000D01*
X57281000Y-57809000D01*
X57287000Y-57811000D01*
X57293000Y-57813000D01*
X57299000Y-57815000D01*
X57304000Y-57818000D01*
X57310000Y-57821000D01*
X57315000Y-57824000D01*
X57321000Y-57828000D01*
X57326000Y-57832000D01*
X57330000Y-57836000D01*
X57335000Y-57840000D01*
X57339000Y-57845000D01*
X57343000Y-57849000D01*
X57347000Y-57854000D01*
X57351000Y-57860000D01*
X57354000Y-57865000D01*
X57357000Y-57871000D01*
X57360000Y-57876000D01*
X57362000Y-57882000D01*
X57364000Y-57888000D01*
X57366000Y-57894000D01*
X57367000Y-57900000D01*
X57369000Y-57906000D01*
X57369000Y-57912000D01*
X57370000Y-57919000D01*
X57370000Y-57925000D01*
X57370000Y-58075000D01*
X57370000Y-58081000D01*
X57369000Y-58088000D01*
X57369000Y-58094000D01*
X57367000Y-58100000D01*
X57366000Y-58106000D01*
X57364000Y-58112000D01*
X57362000Y-58118000D01*
X57360000Y-58124000D01*
X57357000Y-58129000D01*
X57354000Y-58135000D01*
X57351000Y-58140000D01*
X57347000Y-58146000D01*
X57343000Y-58151000D01*
X57339000Y-58155000D01*
X57335000Y-58160000D01*
X57330000Y-58164000D01*
X57326000Y-58168000D01*
X57321000Y-58172000D01*
X57315000Y-58176000D01*
X57310000Y-58179000D01*
X57304000Y-58182000D01*
X57299000Y-58185000D01*
X57293000Y-58187000D01*
X57287000Y-58189000D01*
X57281000Y-58191000D01*
X57275000Y-58192000D01*
X57269000Y-58194000D01*
X57263000Y-58194000D01*
X57256000Y-58195000D01*
X57250000Y-58195000D01*
X56750000Y-58195000D01*
X56744000Y-58195000D01*
X56737000Y-58194000D01*
X56731000Y-58194000D01*
X56725000Y-58192000D01*
X56719000Y-58191000D01*
X56713000Y-58189000D01*
X56707000Y-58187000D01*
X56701000Y-58185000D01*
X56696000Y-58182000D01*
X56690000Y-58179000D01*
X56685000Y-58176000D01*
X56679000Y-58172000D01*
X56674000Y-58168000D01*
X56670000Y-58164000D01*
X56665000Y-58160000D01*
X56661000Y-58155000D01*
X56657000Y-58151000D01*
X56653000Y-58146000D01*
X56649000Y-58140000D01*
X56646000Y-58135000D01*
X56643000Y-58129000D01*
X56640000Y-58124000D01*
X56638000Y-58118000D01*
X56636000Y-58112000D01*
X56634000Y-58106000D01*
X56633000Y-58100000D01*
X56631000Y-58094000D01*
X56631000Y-58088000D01*
X56630000Y-58081000D01*
X56630000Y-58075000D01*
X56630000Y-57925000D01*
X56630000Y-57919000D01*
X56631000Y-57912000D01*
X56631000Y-57906000D01*
X56633000Y-57900000D01*
X56634000Y-57894000D01*
X56636000Y-57888000D01*
X56638000Y-57882000D01*
X56640000Y-57876000D01*
X56643000Y-57871000D01*
X56646000Y-57865000D01*
X56649000Y-57860000D01*
X56653000Y-57854000D01*
X56657000Y-57849000D01*
X56661000Y-57845000D01*
X56665000Y-57840000D01*
X56670000Y-57836000D01*
X56674000Y-57832000D01*
X56679000Y-57828000D01*
X56685000Y-57824000D01*
X56690000Y-57821000D01*
X56696000Y-57818000D01*
X56701000Y-57815000D01*
X56707000Y-57813000D01*
X56713000Y-57811000D01*
X56719000Y-57809000D01*
X56725000Y-57808000D01*
X56731000Y-57806000D01*
X56737000Y-57806000D01*
X56744000Y-57805000D01*
X56750000Y-57805000D01*
X57250000Y-57805000D01*
X57256000Y-57805000D01*
X57263000Y-57806000D01*
G36*
X57263000Y-57806000D02*
G01*
X57269000Y-57806000D01*
X57275000Y-57808000D01*
X57281000Y-57809000D01*
X57287000Y-57811000D01*
X57293000Y-57813000D01*
X57299000Y-57815000D01*
X57304000Y-57818000D01*
X57310000Y-57821000D01*
X57315000Y-57824000D01*
X57321000Y-57828000D01*
X57326000Y-57832000D01*
X57330000Y-57836000D01*
X57335000Y-57840000D01*
X57339000Y-57845000D01*
X57343000Y-57849000D01*
X57347000Y-57854000D01*
X57351000Y-57860000D01*
X57354000Y-57865000D01*
X57357000Y-57871000D01*
X57360000Y-57876000D01*
X57362000Y-57882000D01*
X57364000Y-57888000D01*
X57366000Y-57894000D01*
X57367000Y-57900000D01*
X57369000Y-57906000D01*
X57369000Y-57912000D01*
X57370000Y-57919000D01*
X57370000Y-57925000D01*
X57370000Y-58075000D01*
X57370000Y-58081000D01*
X57369000Y-58088000D01*
X57369000Y-58094000D01*
X57367000Y-58100000D01*
X57366000Y-58106000D01*
X57364000Y-58112000D01*
X57362000Y-58118000D01*
X57360000Y-58124000D01*
X57357000Y-58129000D01*
X57354000Y-58135000D01*
X57351000Y-58140000D01*
X57347000Y-58146000D01*
X57343000Y-58151000D01*
X57339000Y-58155000D01*
X57335000Y-58160000D01*
X57330000Y-58164000D01*
X57326000Y-58168000D01*
X57321000Y-58172000D01*
X57315000Y-58176000D01*
X57310000Y-58179000D01*
X57304000Y-58182000D01*
X57299000Y-58185000D01*
X57293000Y-58187000D01*
X57287000Y-58189000D01*
X57281000Y-58191000D01*
X57275000Y-58192000D01*
X57269000Y-58194000D01*
X57263000Y-58194000D01*
X57256000Y-58195000D01*
X57250000Y-58195000D01*
X56750000Y-58195000D01*
X56744000Y-58195000D01*
X56737000Y-58194000D01*
X56731000Y-58194000D01*
X56725000Y-58192000D01*
X56719000Y-58191000D01*
X56713000Y-58189000D01*
X56707000Y-58187000D01*
X56701000Y-58185000D01*
X56696000Y-58182000D01*
X56690000Y-58179000D01*
X56685000Y-58176000D01*
X56679000Y-58172000D01*
X56674000Y-58168000D01*
X56670000Y-58164000D01*
X56665000Y-58160000D01*
X56661000Y-58155000D01*
X56657000Y-58151000D01*
X56653000Y-58146000D01*
X56649000Y-58140000D01*
X56646000Y-58135000D01*
X56643000Y-58129000D01*
X56640000Y-58124000D01*
X56638000Y-58118000D01*
X56636000Y-58112000D01*
X56634000Y-58106000D01*
X56633000Y-58100000D01*
X56631000Y-58094000D01*
X56631000Y-58088000D01*
X56630000Y-58081000D01*
X56630000Y-58075000D01*
X56630000Y-57925000D01*
X56630000Y-57919000D01*
X56631000Y-57912000D01*
X56631000Y-57906000D01*
X56633000Y-57900000D01*
X56634000Y-57894000D01*
X56636000Y-57888000D01*
X56638000Y-57882000D01*
X56640000Y-57876000D01*
X56643000Y-57871000D01*
X56646000Y-57865000D01*
X56649000Y-57860000D01*
X56653000Y-57854000D01*
X56657000Y-57849000D01*
X56661000Y-57845000D01*
X56665000Y-57840000D01*
X56670000Y-57836000D01*
X56674000Y-57832000D01*
X56679000Y-57828000D01*
X56685000Y-57824000D01*
X56690000Y-57821000D01*
X56696000Y-57818000D01*
X56701000Y-57815000D01*
X56707000Y-57813000D01*
X56713000Y-57811000D01*
X56719000Y-57809000D01*
X56725000Y-57808000D01*
X56731000Y-57806000D01*
X56737000Y-57806000D01*
X56744000Y-57805000D01*
X56750000Y-57805000D01*
X57250000Y-57805000D01*
X57256000Y-57805000D01*
X57263000Y-57806000D01*
G37*
X57263000Y-58306000D02*
X57269000Y-58306000D01*
X57275000Y-58308000D01*
X57281000Y-58309000D01*
X57287000Y-58311000D01*
X57293000Y-58313000D01*
X57299000Y-58315000D01*
X57304000Y-58318000D01*
X57310000Y-58321000D01*
X57315000Y-58324000D01*
X57321000Y-58328000D01*
X57326000Y-58332000D01*
X57330000Y-58336000D01*
X57335000Y-58340000D01*
X57339000Y-58345000D01*
X57343000Y-58349000D01*
X57347000Y-58354000D01*
X57351000Y-58360000D01*
X57354000Y-58365000D01*
X57357000Y-58371000D01*
X57360000Y-58376000D01*
X57362000Y-58382000D01*
X57364000Y-58388000D01*
X57366000Y-58394000D01*
X57367000Y-58400000D01*
X57369000Y-58406000D01*
X57369000Y-58412000D01*
X57370000Y-58419000D01*
X57370000Y-58425000D01*
X57370000Y-58575000D01*
X57370000Y-58581000D01*
X57369000Y-58588000D01*
X57369000Y-58594000D01*
X57367000Y-58600000D01*
X57366000Y-58606000D01*
X57364000Y-58612000D01*
X57362000Y-58618000D01*
X57360000Y-58624000D01*
X57357000Y-58629000D01*
X57354000Y-58635000D01*
X57351000Y-58640000D01*
X57347000Y-58646000D01*
X57343000Y-58651000D01*
X57339000Y-58655000D01*
X57335000Y-58660000D01*
X57330000Y-58664000D01*
X57326000Y-58668000D01*
X57321000Y-58672000D01*
X57315000Y-58676000D01*
X57310000Y-58679000D01*
X57304000Y-58682000D01*
X57299000Y-58685000D01*
X57293000Y-58687000D01*
X57287000Y-58689000D01*
X57281000Y-58691000D01*
X57275000Y-58692000D01*
X57269000Y-58694000D01*
X57263000Y-58694000D01*
X57256000Y-58695000D01*
X57250000Y-58695000D01*
X56750000Y-58695000D01*
X56744000Y-58695000D01*
X56737000Y-58694000D01*
X56731000Y-58694000D01*
X56725000Y-58692000D01*
X56719000Y-58691000D01*
X56713000Y-58689000D01*
X56707000Y-58687000D01*
X56701000Y-58685000D01*
X56696000Y-58682000D01*
X56690000Y-58679000D01*
X56685000Y-58676000D01*
X56679000Y-58672000D01*
X56674000Y-58668000D01*
X56670000Y-58664000D01*
X56665000Y-58660000D01*
X56661000Y-58655000D01*
X56657000Y-58651000D01*
X56653000Y-58646000D01*
X56649000Y-58640000D01*
X56646000Y-58635000D01*
X56643000Y-58629000D01*
X56640000Y-58624000D01*
X56638000Y-58618000D01*
X56636000Y-58612000D01*
X56634000Y-58606000D01*
X56633000Y-58600000D01*
X56631000Y-58594000D01*
X56631000Y-58588000D01*
X56630000Y-58581000D01*
X56630000Y-58575000D01*
X56630000Y-58425000D01*
X56630000Y-58419000D01*
X56631000Y-58412000D01*
X56631000Y-58406000D01*
X56633000Y-58400000D01*
X56634000Y-58394000D01*
X56636000Y-58388000D01*
X56638000Y-58382000D01*
X56640000Y-58376000D01*
X56643000Y-58371000D01*
X56646000Y-58365000D01*
X56649000Y-58360000D01*
X56653000Y-58354000D01*
X56657000Y-58349000D01*
X56661000Y-58345000D01*
X56665000Y-58340000D01*
X56670000Y-58336000D01*
X56674000Y-58332000D01*
X56679000Y-58328000D01*
X56685000Y-58324000D01*
X56690000Y-58321000D01*
X56696000Y-58318000D01*
X56701000Y-58315000D01*
X56707000Y-58313000D01*
X56713000Y-58311000D01*
X56719000Y-58309000D01*
X56725000Y-58308000D01*
X56731000Y-58306000D01*
X56737000Y-58306000D01*
X56744000Y-58305000D01*
X56750000Y-58305000D01*
X57250000Y-58305000D01*
X57256000Y-58305000D01*
X57263000Y-58306000D01*
G36*
X57263000Y-58306000D02*
G01*
X57269000Y-58306000D01*
X57275000Y-58308000D01*
X57281000Y-58309000D01*
X57287000Y-58311000D01*
X57293000Y-58313000D01*
X57299000Y-58315000D01*
X57304000Y-58318000D01*
X57310000Y-58321000D01*
X57315000Y-58324000D01*
X57321000Y-58328000D01*
X57326000Y-58332000D01*
X57330000Y-58336000D01*
X57335000Y-58340000D01*
X57339000Y-58345000D01*
X57343000Y-58349000D01*
X57347000Y-58354000D01*
X57351000Y-58360000D01*
X57354000Y-58365000D01*
X57357000Y-58371000D01*
X57360000Y-58376000D01*
X57362000Y-58382000D01*
X57364000Y-58388000D01*
X57366000Y-58394000D01*
X57367000Y-58400000D01*
X57369000Y-58406000D01*
X57369000Y-58412000D01*
X57370000Y-58419000D01*
X57370000Y-58425000D01*
X57370000Y-58575000D01*
X57370000Y-58581000D01*
X57369000Y-58588000D01*
X57369000Y-58594000D01*
X57367000Y-58600000D01*
X57366000Y-58606000D01*
X57364000Y-58612000D01*
X57362000Y-58618000D01*
X57360000Y-58624000D01*
X57357000Y-58629000D01*
X57354000Y-58635000D01*
X57351000Y-58640000D01*
X57347000Y-58646000D01*
X57343000Y-58651000D01*
X57339000Y-58655000D01*
X57335000Y-58660000D01*
X57330000Y-58664000D01*
X57326000Y-58668000D01*
X57321000Y-58672000D01*
X57315000Y-58676000D01*
X57310000Y-58679000D01*
X57304000Y-58682000D01*
X57299000Y-58685000D01*
X57293000Y-58687000D01*
X57287000Y-58689000D01*
X57281000Y-58691000D01*
X57275000Y-58692000D01*
X57269000Y-58694000D01*
X57263000Y-58694000D01*
X57256000Y-58695000D01*
X57250000Y-58695000D01*
X56750000Y-58695000D01*
X56744000Y-58695000D01*
X56737000Y-58694000D01*
X56731000Y-58694000D01*
X56725000Y-58692000D01*
X56719000Y-58691000D01*
X56713000Y-58689000D01*
X56707000Y-58687000D01*
X56701000Y-58685000D01*
X56696000Y-58682000D01*
X56690000Y-58679000D01*
X56685000Y-58676000D01*
X56679000Y-58672000D01*
X56674000Y-58668000D01*
X56670000Y-58664000D01*
X56665000Y-58660000D01*
X56661000Y-58655000D01*
X56657000Y-58651000D01*
X56653000Y-58646000D01*
X56649000Y-58640000D01*
X56646000Y-58635000D01*
X56643000Y-58629000D01*
X56640000Y-58624000D01*
X56638000Y-58618000D01*
X56636000Y-58612000D01*
X56634000Y-58606000D01*
X56633000Y-58600000D01*
X56631000Y-58594000D01*
X56631000Y-58588000D01*
X56630000Y-58581000D01*
X56630000Y-58575000D01*
X56630000Y-58425000D01*
X56630000Y-58419000D01*
X56631000Y-58412000D01*
X56631000Y-58406000D01*
X56633000Y-58400000D01*
X56634000Y-58394000D01*
X56636000Y-58388000D01*
X56638000Y-58382000D01*
X56640000Y-58376000D01*
X56643000Y-58371000D01*
X56646000Y-58365000D01*
X56649000Y-58360000D01*
X56653000Y-58354000D01*
X56657000Y-58349000D01*
X56661000Y-58345000D01*
X56665000Y-58340000D01*
X56670000Y-58336000D01*
X56674000Y-58332000D01*
X56679000Y-58328000D01*
X56685000Y-58324000D01*
X56690000Y-58321000D01*
X56696000Y-58318000D01*
X56701000Y-58315000D01*
X56707000Y-58313000D01*
X56713000Y-58311000D01*
X56719000Y-58309000D01*
X56725000Y-58308000D01*
X56731000Y-58306000D01*
X56737000Y-58306000D01*
X56744000Y-58305000D01*
X56750000Y-58305000D01*
X57250000Y-58305000D01*
X57256000Y-58305000D01*
X57263000Y-58306000D01*
G37*
X57263000Y-58806000D02*
X57269000Y-58806000D01*
X57275000Y-58808000D01*
X57281000Y-58809000D01*
X57287000Y-58811000D01*
X57293000Y-58813000D01*
X57299000Y-58815000D01*
X57304000Y-58818000D01*
X57310000Y-58821000D01*
X57315000Y-58824000D01*
X57321000Y-58828000D01*
X57326000Y-58832000D01*
X57330000Y-58836000D01*
X57335000Y-58840000D01*
X57339000Y-58845000D01*
X57343000Y-58849000D01*
X57347000Y-58854000D01*
X57351000Y-58860000D01*
X57354000Y-58865000D01*
X57357000Y-58871000D01*
X57360000Y-58876000D01*
X57362000Y-58882000D01*
X57364000Y-58888000D01*
X57366000Y-58894000D01*
X57367000Y-58900000D01*
X57369000Y-58906000D01*
X57369000Y-58912000D01*
X57370000Y-58919000D01*
X57370000Y-58925000D01*
X57370000Y-59075000D01*
X57370000Y-59081000D01*
X57369000Y-59088000D01*
X57369000Y-59094000D01*
X57367000Y-59100000D01*
X57366000Y-59106000D01*
X57364000Y-59112000D01*
X57362000Y-59118000D01*
X57360000Y-59124000D01*
X57357000Y-59129000D01*
X57354000Y-59135000D01*
X57351000Y-59140000D01*
X57347000Y-59146000D01*
X57343000Y-59151000D01*
X57339000Y-59155000D01*
X57335000Y-59160000D01*
X57330000Y-59164000D01*
X57326000Y-59168000D01*
X57321000Y-59172000D01*
X57315000Y-59176000D01*
X57310000Y-59179000D01*
X57304000Y-59182000D01*
X57299000Y-59185000D01*
X57293000Y-59187000D01*
X57287000Y-59189000D01*
X57281000Y-59191000D01*
X57275000Y-59192000D01*
X57269000Y-59194000D01*
X57263000Y-59194000D01*
X57256000Y-59195000D01*
X57250000Y-59195000D01*
X56750000Y-59195000D01*
X56744000Y-59195000D01*
X56737000Y-59194000D01*
X56731000Y-59194000D01*
X56725000Y-59192000D01*
X56719000Y-59191000D01*
X56713000Y-59189000D01*
X56707000Y-59187000D01*
X56701000Y-59185000D01*
X56696000Y-59182000D01*
X56690000Y-59179000D01*
X56685000Y-59176000D01*
X56679000Y-59172000D01*
X56674000Y-59168000D01*
X56670000Y-59164000D01*
X56665000Y-59160000D01*
X56661000Y-59155000D01*
X56657000Y-59151000D01*
X56653000Y-59146000D01*
X56649000Y-59140000D01*
X56646000Y-59135000D01*
X56643000Y-59129000D01*
X56640000Y-59124000D01*
X56638000Y-59118000D01*
X56636000Y-59112000D01*
X56634000Y-59106000D01*
X56633000Y-59100000D01*
X56631000Y-59094000D01*
X56631000Y-59088000D01*
X56630000Y-59081000D01*
X56630000Y-59075000D01*
X56630000Y-58925000D01*
X56630000Y-58919000D01*
X56631000Y-58912000D01*
X56631000Y-58906000D01*
X56633000Y-58900000D01*
X56634000Y-58894000D01*
X56636000Y-58888000D01*
X56638000Y-58882000D01*
X56640000Y-58876000D01*
X56643000Y-58871000D01*
X56646000Y-58865000D01*
X56649000Y-58860000D01*
X56653000Y-58854000D01*
X56657000Y-58849000D01*
X56661000Y-58845000D01*
X56665000Y-58840000D01*
X56670000Y-58836000D01*
X56674000Y-58832000D01*
X56679000Y-58828000D01*
X56685000Y-58824000D01*
X56690000Y-58821000D01*
X56696000Y-58818000D01*
X56701000Y-58815000D01*
X56707000Y-58813000D01*
X56713000Y-58811000D01*
X56719000Y-58809000D01*
X56725000Y-58808000D01*
X56731000Y-58806000D01*
X56737000Y-58806000D01*
X56744000Y-58805000D01*
X56750000Y-58805000D01*
X57250000Y-58805000D01*
X57256000Y-58805000D01*
X57263000Y-58806000D01*
G36*
X57263000Y-58806000D02*
G01*
X57269000Y-58806000D01*
X57275000Y-58808000D01*
X57281000Y-58809000D01*
X57287000Y-58811000D01*
X57293000Y-58813000D01*
X57299000Y-58815000D01*
X57304000Y-58818000D01*
X57310000Y-58821000D01*
X57315000Y-58824000D01*
X57321000Y-58828000D01*
X57326000Y-58832000D01*
X57330000Y-58836000D01*
X57335000Y-58840000D01*
X57339000Y-58845000D01*
X57343000Y-58849000D01*
X57347000Y-58854000D01*
X57351000Y-58860000D01*
X57354000Y-58865000D01*
X57357000Y-58871000D01*
X57360000Y-58876000D01*
X57362000Y-58882000D01*
X57364000Y-58888000D01*
X57366000Y-58894000D01*
X57367000Y-58900000D01*
X57369000Y-58906000D01*
X57369000Y-58912000D01*
X57370000Y-58919000D01*
X57370000Y-58925000D01*
X57370000Y-59075000D01*
X57370000Y-59081000D01*
X57369000Y-59088000D01*
X57369000Y-59094000D01*
X57367000Y-59100000D01*
X57366000Y-59106000D01*
X57364000Y-59112000D01*
X57362000Y-59118000D01*
X57360000Y-59124000D01*
X57357000Y-59129000D01*
X57354000Y-59135000D01*
X57351000Y-59140000D01*
X57347000Y-59146000D01*
X57343000Y-59151000D01*
X57339000Y-59155000D01*
X57335000Y-59160000D01*
X57330000Y-59164000D01*
X57326000Y-59168000D01*
X57321000Y-59172000D01*
X57315000Y-59176000D01*
X57310000Y-59179000D01*
X57304000Y-59182000D01*
X57299000Y-59185000D01*
X57293000Y-59187000D01*
X57287000Y-59189000D01*
X57281000Y-59191000D01*
X57275000Y-59192000D01*
X57269000Y-59194000D01*
X57263000Y-59194000D01*
X57256000Y-59195000D01*
X57250000Y-59195000D01*
X56750000Y-59195000D01*
X56744000Y-59195000D01*
X56737000Y-59194000D01*
X56731000Y-59194000D01*
X56725000Y-59192000D01*
X56719000Y-59191000D01*
X56713000Y-59189000D01*
X56707000Y-59187000D01*
X56701000Y-59185000D01*
X56696000Y-59182000D01*
X56690000Y-59179000D01*
X56685000Y-59176000D01*
X56679000Y-59172000D01*
X56674000Y-59168000D01*
X56670000Y-59164000D01*
X56665000Y-59160000D01*
X56661000Y-59155000D01*
X56657000Y-59151000D01*
X56653000Y-59146000D01*
X56649000Y-59140000D01*
X56646000Y-59135000D01*
X56643000Y-59129000D01*
X56640000Y-59124000D01*
X56638000Y-59118000D01*
X56636000Y-59112000D01*
X56634000Y-59106000D01*
X56633000Y-59100000D01*
X56631000Y-59094000D01*
X56631000Y-59088000D01*
X56630000Y-59081000D01*
X56630000Y-59075000D01*
X56630000Y-58925000D01*
X56630000Y-58919000D01*
X56631000Y-58912000D01*
X56631000Y-58906000D01*
X56633000Y-58900000D01*
X56634000Y-58894000D01*
X56636000Y-58888000D01*
X56638000Y-58882000D01*
X56640000Y-58876000D01*
X56643000Y-58871000D01*
X56646000Y-58865000D01*
X56649000Y-58860000D01*
X56653000Y-58854000D01*
X56657000Y-58849000D01*
X56661000Y-58845000D01*
X56665000Y-58840000D01*
X56670000Y-58836000D01*
X56674000Y-58832000D01*
X56679000Y-58828000D01*
X56685000Y-58824000D01*
X56690000Y-58821000D01*
X56696000Y-58818000D01*
X56701000Y-58815000D01*
X56707000Y-58813000D01*
X56713000Y-58811000D01*
X56719000Y-58809000D01*
X56725000Y-58808000D01*
X56731000Y-58806000D01*
X56737000Y-58806000D01*
X56744000Y-58805000D01*
X56750000Y-58805000D01*
X57250000Y-58805000D01*
X57256000Y-58805000D01*
X57263000Y-58806000D01*
G37*
X57263000Y-59306000D02*
X57269000Y-59306000D01*
X57275000Y-59308000D01*
X57281000Y-59309000D01*
X57287000Y-59311000D01*
X57293000Y-59313000D01*
X57299000Y-59315000D01*
X57304000Y-59318000D01*
X57310000Y-59321000D01*
X57315000Y-59324000D01*
X57321000Y-59328000D01*
X57326000Y-59332000D01*
X57330000Y-59336000D01*
X57335000Y-59340000D01*
X57339000Y-59345000D01*
X57343000Y-59349000D01*
X57347000Y-59354000D01*
X57351000Y-59360000D01*
X57354000Y-59365000D01*
X57357000Y-59371000D01*
X57360000Y-59376000D01*
X57362000Y-59382000D01*
X57364000Y-59388000D01*
X57366000Y-59394000D01*
X57367000Y-59400000D01*
X57369000Y-59406000D01*
X57369000Y-59412000D01*
X57370000Y-59419000D01*
X57370000Y-59425000D01*
X57370000Y-59575000D01*
X57370000Y-59581000D01*
X57369000Y-59588000D01*
X57369000Y-59594000D01*
X57367000Y-59600000D01*
X57366000Y-59606000D01*
X57364000Y-59612000D01*
X57362000Y-59618000D01*
X57360000Y-59624000D01*
X57357000Y-59629000D01*
X57354000Y-59635000D01*
X57351000Y-59640000D01*
X57347000Y-59646000D01*
X57343000Y-59651000D01*
X57339000Y-59655000D01*
X57335000Y-59660000D01*
X57330000Y-59664000D01*
X57326000Y-59668000D01*
X57321000Y-59672000D01*
X57315000Y-59676000D01*
X57310000Y-59679000D01*
X57304000Y-59682000D01*
X57299000Y-59685000D01*
X57293000Y-59687000D01*
X57287000Y-59689000D01*
X57281000Y-59691000D01*
X57275000Y-59692000D01*
X57269000Y-59694000D01*
X57263000Y-59694000D01*
X57256000Y-59695000D01*
X57250000Y-59695000D01*
X56750000Y-59695000D01*
X56744000Y-59695000D01*
X56737000Y-59694000D01*
X56731000Y-59694000D01*
X56725000Y-59692000D01*
X56719000Y-59691000D01*
X56713000Y-59689000D01*
X56707000Y-59687000D01*
X56701000Y-59685000D01*
X56696000Y-59682000D01*
X56690000Y-59679000D01*
X56685000Y-59676000D01*
X56679000Y-59672000D01*
X56674000Y-59668000D01*
X56670000Y-59664000D01*
X56665000Y-59660000D01*
X56661000Y-59655000D01*
X56657000Y-59651000D01*
X56653000Y-59646000D01*
X56649000Y-59640000D01*
X56646000Y-59635000D01*
X56643000Y-59629000D01*
X56640000Y-59624000D01*
X56638000Y-59618000D01*
X56636000Y-59612000D01*
X56634000Y-59606000D01*
X56633000Y-59600000D01*
X56631000Y-59594000D01*
X56631000Y-59588000D01*
X56630000Y-59581000D01*
X56630000Y-59575000D01*
X56630000Y-59425000D01*
X56630000Y-59419000D01*
X56631000Y-59412000D01*
X56631000Y-59406000D01*
X56633000Y-59400000D01*
X56634000Y-59394000D01*
X56636000Y-59388000D01*
X56638000Y-59382000D01*
X56640000Y-59376000D01*
X56643000Y-59371000D01*
X56646000Y-59365000D01*
X56649000Y-59360000D01*
X56653000Y-59354000D01*
X56657000Y-59349000D01*
X56661000Y-59345000D01*
X56665000Y-59340000D01*
X56670000Y-59336000D01*
X56674000Y-59332000D01*
X56679000Y-59328000D01*
X56685000Y-59324000D01*
X56690000Y-59321000D01*
X56696000Y-59318000D01*
X56701000Y-59315000D01*
X56707000Y-59313000D01*
X56713000Y-59311000D01*
X56719000Y-59309000D01*
X56725000Y-59308000D01*
X56731000Y-59306000D01*
X56737000Y-59306000D01*
X56744000Y-59305000D01*
X56750000Y-59305000D01*
X57250000Y-59305000D01*
X57256000Y-59305000D01*
X57263000Y-59306000D01*
G36*
X57263000Y-59306000D02*
G01*
X57269000Y-59306000D01*
X57275000Y-59308000D01*
X57281000Y-59309000D01*
X57287000Y-59311000D01*
X57293000Y-59313000D01*
X57299000Y-59315000D01*
X57304000Y-59318000D01*
X57310000Y-59321000D01*
X57315000Y-59324000D01*
X57321000Y-59328000D01*
X57326000Y-59332000D01*
X57330000Y-59336000D01*
X57335000Y-59340000D01*
X57339000Y-59345000D01*
X57343000Y-59349000D01*
X57347000Y-59354000D01*
X57351000Y-59360000D01*
X57354000Y-59365000D01*
X57357000Y-59371000D01*
X57360000Y-59376000D01*
X57362000Y-59382000D01*
X57364000Y-59388000D01*
X57366000Y-59394000D01*
X57367000Y-59400000D01*
X57369000Y-59406000D01*
X57369000Y-59412000D01*
X57370000Y-59419000D01*
X57370000Y-59425000D01*
X57370000Y-59575000D01*
X57370000Y-59581000D01*
X57369000Y-59588000D01*
X57369000Y-59594000D01*
X57367000Y-59600000D01*
X57366000Y-59606000D01*
X57364000Y-59612000D01*
X57362000Y-59618000D01*
X57360000Y-59624000D01*
X57357000Y-59629000D01*
X57354000Y-59635000D01*
X57351000Y-59640000D01*
X57347000Y-59646000D01*
X57343000Y-59651000D01*
X57339000Y-59655000D01*
X57335000Y-59660000D01*
X57330000Y-59664000D01*
X57326000Y-59668000D01*
X57321000Y-59672000D01*
X57315000Y-59676000D01*
X57310000Y-59679000D01*
X57304000Y-59682000D01*
X57299000Y-59685000D01*
X57293000Y-59687000D01*
X57287000Y-59689000D01*
X57281000Y-59691000D01*
X57275000Y-59692000D01*
X57269000Y-59694000D01*
X57263000Y-59694000D01*
X57256000Y-59695000D01*
X57250000Y-59695000D01*
X56750000Y-59695000D01*
X56744000Y-59695000D01*
X56737000Y-59694000D01*
X56731000Y-59694000D01*
X56725000Y-59692000D01*
X56719000Y-59691000D01*
X56713000Y-59689000D01*
X56707000Y-59687000D01*
X56701000Y-59685000D01*
X56696000Y-59682000D01*
X56690000Y-59679000D01*
X56685000Y-59676000D01*
X56679000Y-59672000D01*
X56674000Y-59668000D01*
X56670000Y-59664000D01*
X56665000Y-59660000D01*
X56661000Y-59655000D01*
X56657000Y-59651000D01*
X56653000Y-59646000D01*
X56649000Y-59640000D01*
X56646000Y-59635000D01*
X56643000Y-59629000D01*
X56640000Y-59624000D01*
X56638000Y-59618000D01*
X56636000Y-59612000D01*
X56634000Y-59606000D01*
X56633000Y-59600000D01*
X56631000Y-59594000D01*
X56631000Y-59588000D01*
X56630000Y-59581000D01*
X56630000Y-59575000D01*
X56630000Y-59425000D01*
X56630000Y-59419000D01*
X56631000Y-59412000D01*
X56631000Y-59406000D01*
X56633000Y-59400000D01*
X56634000Y-59394000D01*
X56636000Y-59388000D01*
X56638000Y-59382000D01*
X56640000Y-59376000D01*
X56643000Y-59371000D01*
X56646000Y-59365000D01*
X56649000Y-59360000D01*
X56653000Y-59354000D01*
X56657000Y-59349000D01*
X56661000Y-59345000D01*
X56665000Y-59340000D01*
X56670000Y-59336000D01*
X56674000Y-59332000D01*
X56679000Y-59328000D01*
X56685000Y-59324000D01*
X56690000Y-59321000D01*
X56696000Y-59318000D01*
X56701000Y-59315000D01*
X56707000Y-59313000D01*
X56713000Y-59311000D01*
X56719000Y-59309000D01*
X56725000Y-59308000D01*
X56731000Y-59306000D01*
X56737000Y-59306000D01*
X56744000Y-59305000D01*
X56750000Y-59305000D01*
X57250000Y-59305000D01*
X57256000Y-59305000D01*
X57263000Y-59306000D01*
G37*
X57263000Y-59806000D02*
X57269000Y-59806000D01*
X57275000Y-59808000D01*
X57281000Y-59809000D01*
X57287000Y-59811000D01*
X57293000Y-59813000D01*
X57299000Y-59815000D01*
X57304000Y-59818000D01*
X57310000Y-59821000D01*
X57315000Y-59824000D01*
X57321000Y-59828000D01*
X57326000Y-59832000D01*
X57330000Y-59836000D01*
X57335000Y-59840000D01*
X57339000Y-59845000D01*
X57343000Y-59849000D01*
X57347000Y-59854000D01*
X57351000Y-59860000D01*
X57354000Y-59865000D01*
X57357000Y-59871000D01*
X57360000Y-59876000D01*
X57362000Y-59882000D01*
X57364000Y-59888000D01*
X57366000Y-59894000D01*
X57367000Y-59900000D01*
X57369000Y-59906000D01*
X57369000Y-59912000D01*
X57370000Y-59919000D01*
X57370000Y-59925000D01*
X57370000Y-60075000D01*
X57370000Y-60081000D01*
X57369000Y-60088000D01*
X57369000Y-60094000D01*
X57367000Y-60100000D01*
X57366000Y-60106000D01*
X57364000Y-60112000D01*
X57362000Y-60118000D01*
X57360000Y-60124000D01*
X57357000Y-60129000D01*
X57354000Y-60135000D01*
X57351000Y-60140000D01*
X57347000Y-60146000D01*
X57343000Y-60151000D01*
X57339000Y-60155000D01*
X57335000Y-60160000D01*
X57330000Y-60164000D01*
X57326000Y-60168000D01*
X57321000Y-60172000D01*
X57315000Y-60176000D01*
X57310000Y-60179000D01*
X57304000Y-60182000D01*
X57299000Y-60185000D01*
X57293000Y-60187000D01*
X57287000Y-60189000D01*
X57281000Y-60191000D01*
X57275000Y-60192000D01*
X57269000Y-60194000D01*
X57263000Y-60194000D01*
X57256000Y-60195000D01*
X57250000Y-60195000D01*
X56750000Y-60195000D01*
X56744000Y-60195000D01*
X56737000Y-60194000D01*
X56731000Y-60194000D01*
X56725000Y-60192000D01*
X56719000Y-60191000D01*
X56713000Y-60189000D01*
X56707000Y-60187000D01*
X56701000Y-60185000D01*
X56696000Y-60182000D01*
X56690000Y-60179000D01*
X56685000Y-60176000D01*
X56679000Y-60172000D01*
X56674000Y-60168000D01*
X56670000Y-60164000D01*
X56665000Y-60160000D01*
X56661000Y-60155000D01*
X56657000Y-60151000D01*
X56653000Y-60146000D01*
X56649000Y-60140000D01*
X56646000Y-60135000D01*
X56643000Y-60129000D01*
X56640000Y-60124000D01*
X56638000Y-60118000D01*
X56636000Y-60112000D01*
X56634000Y-60106000D01*
X56633000Y-60100000D01*
X56631000Y-60094000D01*
X56631000Y-60088000D01*
X56630000Y-60081000D01*
X56630000Y-60075000D01*
X56630000Y-59925000D01*
X56630000Y-59919000D01*
X56631000Y-59912000D01*
X56631000Y-59906000D01*
X56633000Y-59900000D01*
X56634000Y-59894000D01*
X56636000Y-59888000D01*
X56638000Y-59882000D01*
X56640000Y-59876000D01*
X56643000Y-59871000D01*
X56646000Y-59865000D01*
X56649000Y-59860000D01*
X56653000Y-59854000D01*
X56657000Y-59849000D01*
X56661000Y-59845000D01*
X56665000Y-59840000D01*
X56670000Y-59836000D01*
X56674000Y-59832000D01*
X56679000Y-59828000D01*
X56685000Y-59824000D01*
X56690000Y-59821000D01*
X56696000Y-59818000D01*
X56701000Y-59815000D01*
X56707000Y-59813000D01*
X56713000Y-59811000D01*
X56719000Y-59809000D01*
X56725000Y-59808000D01*
X56731000Y-59806000D01*
X56737000Y-59806000D01*
X56744000Y-59805000D01*
X56750000Y-59805000D01*
X57250000Y-59805000D01*
X57256000Y-59805000D01*
X57263000Y-59806000D01*
G36*
X57263000Y-59806000D02*
G01*
X57269000Y-59806000D01*
X57275000Y-59808000D01*
X57281000Y-59809000D01*
X57287000Y-59811000D01*
X57293000Y-59813000D01*
X57299000Y-59815000D01*
X57304000Y-59818000D01*
X57310000Y-59821000D01*
X57315000Y-59824000D01*
X57321000Y-59828000D01*
X57326000Y-59832000D01*
X57330000Y-59836000D01*
X57335000Y-59840000D01*
X57339000Y-59845000D01*
X57343000Y-59849000D01*
X57347000Y-59854000D01*
X57351000Y-59860000D01*
X57354000Y-59865000D01*
X57357000Y-59871000D01*
X57360000Y-59876000D01*
X57362000Y-59882000D01*
X57364000Y-59888000D01*
X57366000Y-59894000D01*
X57367000Y-59900000D01*
X57369000Y-59906000D01*
X57369000Y-59912000D01*
X57370000Y-59919000D01*
X57370000Y-59925000D01*
X57370000Y-60075000D01*
X57370000Y-60081000D01*
X57369000Y-60088000D01*
X57369000Y-60094000D01*
X57367000Y-60100000D01*
X57366000Y-60106000D01*
X57364000Y-60112000D01*
X57362000Y-60118000D01*
X57360000Y-60124000D01*
X57357000Y-60129000D01*
X57354000Y-60135000D01*
X57351000Y-60140000D01*
X57347000Y-60146000D01*
X57343000Y-60151000D01*
X57339000Y-60155000D01*
X57335000Y-60160000D01*
X57330000Y-60164000D01*
X57326000Y-60168000D01*
X57321000Y-60172000D01*
X57315000Y-60176000D01*
X57310000Y-60179000D01*
X57304000Y-60182000D01*
X57299000Y-60185000D01*
X57293000Y-60187000D01*
X57287000Y-60189000D01*
X57281000Y-60191000D01*
X57275000Y-60192000D01*
X57269000Y-60194000D01*
X57263000Y-60194000D01*
X57256000Y-60195000D01*
X57250000Y-60195000D01*
X56750000Y-60195000D01*
X56744000Y-60195000D01*
X56737000Y-60194000D01*
X56731000Y-60194000D01*
X56725000Y-60192000D01*
X56719000Y-60191000D01*
X56713000Y-60189000D01*
X56707000Y-60187000D01*
X56701000Y-60185000D01*
X56696000Y-60182000D01*
X56690000Y-60179000D01*
X56685000Y-60176000D01*
X56679000Y-60172000D01*
X56674000Y-60168000D01*
X56670000Y-60164000D01*
X56665000Y-60160000D01*
X56661000Y-60155000D01*
X56657000Y-60151000D01*
X56653000Y-60146000D01*
X56649000Y-60140000D01*
X56646000Y-60135000D01*
X56643000Y-60129000D01*
X56640000Y-60124000D01*
X56638000Y-60118000D01*
X56636000Y-60112000D01*
X56634000Y-60106000D01*
X56633000Y-60100000D01*
X56631000Y-60094000D01*
X56631000Y-60088000D01*
X56630000Y-60081000D01*
X56630000Y-60075000D01*
X56630000Y-59925000D01*
X56630000Y-59919000D01*
X56631000Y-59912000D01*
X56631000Y-59906000D01*
X56633000Y-59900000D01*
X56634000Y-59894000D01*
X56636000Y-59888000D01*
X56638000Y-59882000D01*
X56640000Y-59876000D01*
X56643000Y-59871000D01*
X56646000Y-59865000D01*
X56649000Y-59860000D01*
X56653000Y-59854000D01*
X56657000Y-59849000D01*
X56661000Y-59845000D01*
X56665000Y-59840000D01*
X56670000Y-59836000D01*
X56674000Y-59832000D01*
X56679000Y-59828000D01*
X56685000Y-59824000D01*
X56690000Y-59821000D01*
X56696000Y-59818000D01*
X56701000Y-59815000D01*
X56707000Y-59813000D01*
X56713000Y-59811000D01*
X56719000Y-59809000D01*
X56725000Y-59808000D01*
X56731000Y-59806000D01*
X56737000Y-59806000D01*
X56744000Y-59805000D01*
X56750000Y-59805000D01*
X57250000Y-59805000D01*
X57256000Y-59805000D01*
X57263000Y-59806000D01*
G37*
X59063000Y-57806000D02*
X59069000Y-57806000D01*
X59075000Y-57808000D01*
X59081000Y-57809000D01*
X59087000Y-57811000D01*
X59093000Y-57813000D01*
X59099000Y-57815000D01*
X59104000Y-57818000D01*
X59110000Y-57821000D01*
X59115000Y-57824000D01*
X59121000Y-57828000D01*
X59126000Y-57832000D01*
X59130000Y-57836000D01*
X59135000Y-57840000D01*
X59139000Y-57845000D01*
X59143000Y-57849000D01*
X59147000Y-57854000D01*
X59151000Y-57860000D01*
X59154000Y-57865000D01*
X59157000Y-57871000D01*
X59160000Y-57876000D01*
X59162000Y-57882000D01*
X59164000Y-57888000D01*
X59166000Y-57894000D01*
X59167000Y-57900000D01*
X59169000Y-57906000D01*
X59169000Y-57912000D01*
X59170000Y-57919000D01*
X59170000Y-57925000D01*
X59170000Y-58075000D01*
X59170000Y-58081000D01*
X59169000Y-58088000D01*
X59169000Y-58094000D01*
X59167000Y-58100000D01*
X59166000Y-58106000D01*
X59164000Y-58112000D01*
X59162000Y-58118000D01*
X59160000Y-58124000D01*
X59157000Y-58129000D01*
X59154000Y-58135000D01*
X59151000Y-58140000D01*
X59147000Y-58146000D01*
X59143000Y-58151000D01*
X59139000Y-58155000D01*
X59135000Y-58160000D01*
X59130000Y-58164000D01*
X59126000Y-58168000D01*
X59121000Y-58172000D01*
X59115000Y-58176000D01*
X59110000Y-58179000D01*
X59104000Y-58182000D01*
X59099000Y-58185000D01*
X59093000Y-58187000D01*
X59087000Y-58189000D01*
X59081000Y-58191000D01*
X59075000Y-58192000D01*
X59069000Y-58194000D01*
X59063000Y-58194000D01*
X59056000Y-58195000D01*
X59050000Y-58195000D01*
X58250000Y-58195000D01*
X58244000Y-58195000D01*
X58237000Y-58194000D01*
X58231000Y-58194000D01*
X58225000Y-58192000D01*
X58219000Y-58191000D01*
X58213000Y-58189000D01*
X58207000Y-58187000D01*
X58201000Y-58185000D01*
X58196000Y-58182000D01*
X58190000Y-58179000D01*
X58185000Y-58176000D01*
X58179000Y-58172000D01*
X58174000Y-58168000D01*
X58170000Y-58164000D01*
X58165000Y-58160000D01*
X58161000Y-58155000D01*
X58157000Y-58151000D01*
X58153000Y-58146000D01*
X58149000Y-58140000D01*
X58146000Y-58135000D01*
X58143000Y-58129000D01*
X58140000Y-58124000D01*
X58138000Y-58118000D01*
X58136000Y-58112000D01*
X58134000Y-58106000D01*
X58133000Y-58100000D01*
X58131000Y-58094000D01*
X58131000Y-58088000D01*
X58130000Y-58081000D01*
X58130000Y-58075000D01*
X58130000Y-57925000D01*
X58130000Y-57919000D01*
X58131000Y-57912000D01*
X58131000Y-57906000D01*
X58133000Y-57900000D01*
X58134000Y-57894000D01*
X58136000Y-57888000D01*
X58138000Y-57882000D01*
X58140000Y-57876000D01*
X58143000Y-57871000D01*
X58146000Y-57865000D01*
X58149000Y-57860000D01*
X58153000Y-57854000D01*
X58157000Y-57849000D01*
X58161000Y-57845000D01*
X58165000Y-57840000D01*
X58170000Y-57836000D01*
X58174000Y-57832000D01*
X58179000Y-57828000D01*
X58185000Y-57824000D01*
X58190000Y-57821000D01*
X58196000Y-57818000D01*
X58201000Y-57815000D01*
X58207000Y-57813000D01*
X58213000Y-57811000D01*
X58219000Y-57809000D01*
X58225000Y-57808000D01*
X58231000Y-57806000D01*
X58237000Y-57806000D01*
X58244000Y-57805000D01*
X58250000Y-57805000D01*
X59050000Y-57805000D01*
X59056000Y-57805000D01*
X59063000Y-57806000D01*
G36*
X59063000Y-57806000D02*
G01*
X59069000Y-57806000D01*
X59075000Y-57808000D01*
X59081000Y-57809000D01*
X59087000Y-57811000D01*
X59093000Y-57813000D01*
X59099000Y-57815000D01*
X59104000Y-57818000D01*
X59110000Y-57821000D01*
X59115000Y-57824000D01*
X59121000Y-57828000D01*
X59126000Y-57832000D01*
X59130000Y-57836000D01*
X59135000Y-57840000D01*
X59139000Y-57845000D01*
X59143000Y-57849000D01*
X59147000Y-57854000D01*
X59151000Y-57860000D01*
X59154000Y-57865000D01*
X59157000Y-57871000D01*
X59160000Y-57876000D01*
X59162000Y-57882000D01*
X59164000Y-57888000D01*
X59166000Y-57894000D01*
X59167000Y-57900000D01*
X59169000Y-57906000D01*
X59169000Y-57912000D01*
X59170000Y-57919000D01*
X59170000Y-57925000D01*
X59170000Y-58075000D01*
X59170000Y-58081000D01*
X59169000Y-58088000D01*
X59169000Y-58094000D01*
X59167000Y-58100000D01*
X59166000Y-58106000D01*
X59164000Y-58112000D01*
X59162000Y-58118000D01*
X59160000Y-58124000D01*
X59157000Y-58129000D01*
X59154000Y-58135000D01*
X59151000Y-58140000D01*
X59147000Y-58146000D01*
X59143000Y-58151000D01*
X59139000Y-58155000D01*
X59135000Y-58160000D01*
X59130000Y-58164000D01*
X59126000Y-58168000D01*
X59121000Y-58172000D01*
X59115000Y-58176000D01*
X59110000Y-58179000D01*
X59104000Y-58182000D01*
X59099000Y-58185000D01*
X59093000Y-58187000D01*
X59087000Y-58189000D01*
X59081000Y-58191000D01*
X59075000Y-58192000D01*
X59069000Y-58194000D01*
X59063000Y-58194000D01*
X59056000Y-58195000D01*
X59050000Y-58195000D01*
X58250000Y-58195000D01*
X58244000Y-58195000D01*
X58237000Y-58194000D01*
X58231000Y-58194000D01*
X58225000Y-58192000D01*
X58219000Y-58191000D01*
X58213000Y-58189000D01*
X58207000Y-58187000D01*
X58201000Y-58185000D01*
X58196000Y-58182000D01*
X58190000Y-58179000D01*
X58185000Y-58176000D01*
X58179000Y-58172000D01*
X58174000Y-58168000D01*
X58170000Y-58164000D01*
X58165000Y-58160000D01*
X58161000Y-58155000D01*
X58157000Y-58151000D01*
X58153000Y-58146000D01*
X58149000Y-58140000D01*
X58146000Y-58135000D01*
X58143000Y-58129000D01*
X58140000Y-58124000D01*
X58138000Y-58118000D01*
X58136000Y-58112000D01*
X58134000Y-58106000D01*
X58133000Y-58100000D01*
X58131000Y-58094000D01*
X58131000Y-58088000D01*
X58130000Y-58081000D01*
X58130000Y-58075000D01*
X58130000Y-57925000D01*
X58130000Y-57919000D01*
X58131000Y-57912000D01*
X58131000Y-57906000D01*
X58133000Y-57900000D01*
X58134000Y-57894000D01*
X58136000Y-57888000D01*
X58138000Y-57882000D01*
X58140000Y-57876000D01*
X58143000Y-57871000D01*
X58146000Y-57865000D01*
X58149000Y-57860000D01*
X58153000Y-57854000D01*
X58157000Y-57849000D01*
X58161000Y-57845000D01*
X58165000Y-57840000D01*
X58170000Y-57836000D01*
X58174000Y-57832000D01*
X58179000Y-57828000D01*
X58185000Y-57824000D01*
X58190000Y-57821000D01*
X58196000Y-57818000D01*
X58201000Y-57815000D01*
X58207000Y-57813000D01*
X58213000Y-57811000D01*
X58219000Y-57809000D01*
X58225000Y-57808000D01*
X58231000Y-57806000D01*
X58237000Y-57806000D01*
X58244000Y-57805000D01*
X58250000Y-57805000D01*
X59050000Y-57805000D01*
X59056000Y-57805000D01*
X59063000Y-57806000D01*
G37*
X59063000Y-58306000D02*
X59069000Y-58306000D01*
X59075000Y-58308000D01*
X59081000Y-58309000D01*
X59087000Y-58311000D01*
X59093000Y-58313000D01*
X59099000Y-58315000D01*
X59104000Y-58318000D01*
X59110000Y-58321000D01*
X59115000Y-58324000D01*
X59121000Y-58328000D01*
X59126000Y-58332000D01*
X59130000Y-58336000D01*
X59135000Y-58340000D01*
X59139000Y-58345000D01*
X59143000Y-58349000D01*
X59147000Y-58354000D01*
X59151000Y-58360000D01*
X59154000Y-58365000D01*
X59157000Y-58371000D01*
X59160000Y-58376000D01*
X59162000Y-58382000D01*
X59164000Y-58388000D01*
X59166000Y-58394000D01*
X59167000Y-58400000D01*
X59169000Y-58406000D01*
X59169000Y-58412000D01*
X59170000Y-58419000D01*
X59170000Y-58425000D01*
X59170000Y-58575000D01*
X59170000Y-58581000D01*
X59169000Y-58588000D01*
X59169000Y-58594000D01*
X59167000Y-58600000D01*
X59166000Y-58606000D01*
X59164000Y-58612000D01*
X59162000Y-58618000D01*
X59160000Y-58624000D01*
X59157000Y-58629000D01*
X59154000Y-58635000D01*
X59151000Y-58640000D01*
X59147000Y-58646000D01*
X59143000Y-58651000D01*
X59139000Y-58655000D01*
X59135000Y-58660000D01*
X59130000Y-58664000D01*
X59126000Y-58668000D01*
X59121000Y-58672000D01*
X59115000Y-58676000D01*
X59110000Y-58679000D01*
X59104000Y-58682000D01*
X59099000Y-58685000D01*
X59093000Y-58687000D01*
X59087000Y-58689000D01*
X59081000Y-58691000D01*
X59075000Y-58692000D01*
X59069000Y-58694000D01*
X59063000Y-58694000D01*
X59056000Y-58695000D01*
X59050000Y-58695000D01*
X58250000Y-58695000D01*
X58244000Y-58695000D01*
X58237000Y-58694000D01*
X58231000Y-58694000D01*
X58225000Y-58692000D01*
X58219000Y-58691000D01*
X58213000Y-58689000D01*
X58207000Y-58687000D01*
X58201000Y-58685000D01*
X58196000Y-58682000D01*
X58190000Y-58679000D01*
X58185000Y-58676000D01*
X58179000Y-58672000D01*
X58174000Y-58668000D01*
X58170000Y-58664000D01*
X58165000Y-58660000D01*
X58161000Y-58655000D01*
X58157000Y-58651000D01*
X58153000Y-58646000D01*
X58149000Y-58640000D01*
X58146000Y-58635000D01*
X58143000Y-58629000D01*
X58140000Y-58624000D01*
X58138000Y-58618000D01*
X58136000Y-58612000D01*
X58134000Y-58606000D01*
X58133000Y-58600000D01*
X58131000Y-58594000D01*
X58131000Y-58588000D01*
X58130000Y-58581000D01*
X58130000Y-58575000D01*
X58130000Y-58425000D01*
X58130000Y-58419000D01*
X58131000Y-58412000D01*
X58131000Y-58406000D01*
X58133000Y-58400000D01*
X58134000Y-58394000D01*
X58136000Y-58388000D01*
X58138000Y-58382000D01*
X58140000Y-58376000D01*
X58143000Y-58371000D01*
X58146000Y-58365000D01*
X58149000Y-58360000D01*
X58153000Y-58354000D01*
X58157000Y-58349000D01*
X58161000Y-58345000D01*
X58165000Y-58340000D01*
X58170000Y-58336000D01*
X58174000Y-58332000D01*
X58179000Y-58328000D01*
X58185000Y-58324000D01*
X58190000Y-58321000D01*
X58196000Y-58318000D01*
X58201000Y-58315000D01*
X58207000Y-58313000D01*
X58213000Y-58311000D01*
X58219000Y-58309000D01*
X58225000Y-58308000D01*
X58231000Y-58306000D01*
X58237000Y-58306000D01*
X58244000Y-58305000D01*
X58250000Y-58305000D01*
X59050000Y-58305000D01*
X59056000Y-58305000D01*
X59063000Y-58306000D01*
G36*
X59063000Y-58306000D02*
G01*
X59069000Y-58306000D01*
X59075000Y-58308000D01*
X59081000Y-58309000D01*
X59087000Y-58311000D01*
X59093000Y-58313000D01*
X59099000Y-58315000D01*
X59104000Y-58318000D01*
X59110000Y-58321000D01*
X59115000Y-58324000D01*
X59121000Y-58328000D01*
X59126000Y-58332000D01*
X59130000Y-58336000D01*
X59135000Y-58340000D01*
X59139000Y-58345000D01*
X59143000Y-58349000D01*
X59147000Y-58354000D01*
X59151000Y-58360000D01*
X59154000Y-58365000D01*
X59157000Y-58371000D01*
X59160000Y-58376000D01*
X59162000Y-58382000D01*
X59164000Y-58388000D01*
X59166000Y-58394000D01*
X59167000Y-58400000D01*
X59169000Y-58406000D01*
X59169000Y-58412000D01*
X59170000Y-58419000D01*
X59170000Y-58425000D01*
X59170000Y-58575000D01*
X59170000Y-58581000D01*
X59169000Y-58588000D01*
X59169000Y-58594000D01*
X59167000Y-58600000D01*
X59166000Y-58606000D01*
X59164000Y-58612000D01*
X59162000Y-58618000D01*
X59160000Y-58624000D01*
X59157000Y-58629000D01*
X59154000Y-58635000D01*
X59151000Y-58640000D01*
X59147000Y-58646000D01*
X59143000Y-58651000D01*
X59139000Y-58655000D01*
X59135000Y-58660000D01*
X59130000Y-58664000D01*
X59126000Y-58668000D01*
X59121000Y-58672000D01*
X59115000Y-58676000D01*
X59110000Y-58679000D01*
X59104000Y-58682000D01*
X59099000Y-58685000D01*
X59093000Y-58687000D01*
X59087000Y-58689000D01*
X59081000Y-58691000D01*
X59075000Y-58692000D01*
X59069000Y-58694000D01*
X59063000Y-58694000D01*
X59056000Y-58695000D01*
X59050000Y-58695000D01*
X58250000Y-58695000D01*
X58244000Y-58695000D01*
X58237000Y-58694000D01*
X58231000Y-58694000D01*
X58225000Y-58692000D01*
X58219000Y-58691000D01*
X58213000Y-58689000D01*
X58207000Y-58687000D01*
X58201000Y-58685000D01*
X58196000Y-58682000D01*
X58190000Y-58679000D01*
X58185000Y-58676000D01*
X58179000Y-58672000D01*
X58174000Y-58668000D01*
X58170000Y-58664000D01*
X58165000Y-58660000D01*
X58161000Y-58655000D01*
X58157000Y-58651000D01*
X58153000Y-58646000D01*
X58149000Y-58640000D01*
X58146000Y-58635000D01*
X58143000Y-58629000D01*
X58140000Y-58624000D01*
X58138000Y-58618000D01*
X58136000Y-58612000D01*
X58134000Y-58606000D01*
X58133000Y-58600000D01*
X58131000Y-58594000D01*
X58131000Y-58588000D01*
X58130000Y-58581000D01*
X58130000Y-58575000D01*
X58130000Y-58425000D01*
X58130000Y-58419000D01*
X58131000Y-58412000D01*
X58131000Y-58406000D01*
X58133000Y-58400000D01*
X58134000Y-58394000D01*
X58136000Y-58388000D01*
X58138000Y-58382000D01*
X58140000Y-58376000D01*
X58143000Y-58371000D01*
X58146000Y-58365000D01*
X58149000Y-58360000D01*
X58153000Y-58354000D01*
X58157000Y-58349000D01*
X58161000Y-58345000D01*
X58165000Y-58340000D01*
X58170000Y-58336000D01*
X58174000Y-58332000D01*
X58179000Y-58328000D01*
X58185000Y-58324000D01*
X58190000Y-58321000D01*
X58196000Y-58318000D01*
X58201000Y-58315000D01*
X58207000Y-58313000D01*
X58213000Y-58311000D01*
X58219000Y-58309000D01*
X58225000Y-58308000D01*
X58231000Y-58306000D01*
X58237000Y-58306000D01*
X58244000Y-58305000D01*
X58250000Y-58305000D01*
X59050000Y-58305000D01*
X59056000Y-58305000D01*
X59063000Y-58306000D01*
G37*
X59063000Y-58806000D02*
X59069000Y-58806000D01*
X59075000Y-58808000D01*
X59081000Y-58809000D01*
X59087000Y-58811000D01*
X59093000Y-58813000D01*
X59099000Y-58815000D01*
X59104000Y-58818000D01*
X59110000Y-58821000D01*
X59115000Y-58824000D01*
X59121000Y-58828000D01*
X59126000Y-58832000D01*
X59130000Y-58836000D01*
X59135000Y-58840000D01*
X59139000Y-58845000D01*
X59143000Y-58849000D01*
X59147000Y-58854000D01*
X59151000Y-58860000D01*
X59154000Y-58865000D01*
X59157000Y-58871000D01*
X59160000Y-58876000D01*
X59162000Y-58882000D01*
X59164000Y-58888000D01*
X59166000Y-58894000D01*
X59167000Y-58900000D01*
X59169000Y-58906000D01*
X59169000Y-58912000D01*
X59170000Y-58919000D01*
X59170000Y-58925000D01*
X59170000Y-59075000D01*
X59170000Y-59081000D01*
X59169000Y-59088000D01*
X59169000Y-59094000D01*
X59167000Y-59100000D01*
X59166000Y-59106000D01*
X59164000Y-59112000D01*
X59162000Y-59118000D01*
X59160000Y-59124000D01*
X59157000Y-59129000D01*
X59154000Y-59135000D01*
X59151000Y-59140000D01*
X59147000Y-59146000D01*
X59143000Y-59151000D01*
X59139000Y-59155000D01*
X59135000Y-59160000D01*
X59130000Y-59164000D01*
X59126000Y-59168000D01*
X59121000Y-59172000D01*
X59115000Y-59176000D01*
X59110000Y-59179000D01*
X59104000Y-59182000D01*
X59099000Y-59185000D01*
X59093000Y-59187000D01*
X59087000Y-59189000D01*
X59081000Y-59191000D01*
X59075000Y-59192000D01*
X59069000Y-59194000D01*
X59063000Y-59194000D01*
X59056000Y-59195000D01*
X59050000Y-59195000D01*
X57850000Y-59195000D01*
X57844000Y-59195000D01*
X57837000Y-59194000D01*
X57831000Y-59194000D01*
X57825000Y-59192000D01*
X57819000Y-59191000D01*
X57813000Y-59189000D01*
X57807000Y-59187000D01*
X57801000Y-59185000D01*
X57796000Y-59182000D01*
X57790000Y-59179000D01*
X57785000Y-59176000D01*
X57779000Y-59172000D01*
X57774000Y-59168000D01*
X57770000Y-59164000D01*
X57765000Y-59160000D01*
X57761000Y-59155000D01*
X57757000Y-59151000D01*
X57753000Y-59146000D01*
X57749000Y-59140000D01*
X57746000Y-59135000D01*
X57743000Y-59129000D01*
X57740000Y-59124000D01*
X57738000Y-59118000D01*
X57736000Y-59112000D01*
X57734000Y-59106000D01*
X57733000Y-59100000D01*
X57731000Y-59094000D01*
X57731000Y-59088000D01*
X57730000Y-59081000D01*
X57730000Y-59075000D01*
X57730000Y-58925000D01*
X57730000Y-58919000D01*
X57731000Y-58912000D01*
X57731000Y-58906000D01*
X57733000Y-58900000D01*
X57734000Y-58894000D01*
X57736000Y-58888000D01*
X57738000Y-58882000D01*
X57740000Y-58876000D01*
X57743000Y-58871000D01*
X57746000Y-58865000D01*
X57749000Y-58860000D01*
X57753000Y-58854000D01*
X57757000Y-58849000D01*
X57761000Y-58845000D01*
X57765000Y-58840000D01*
X57770000Y-58836000D01*
X57774000Y-58832000D01*
X57779000Y-58828000D01*
X57785000Y-58824000D01*
X57790000Y-58821000D01*
X57796000Y-58818000D01*
X57801000Y-58815000D01*
X57807000Y-58813000D01*
X57813000Y-58811000D01*
X57819000Y-58809000D01*
X57825000Y-58808000D01*
X57831000Y-58806000D01*
X57837000Y-58806000D01*
X57844000Y-58805000D01*
X57850000Y-58805000D01*
X59050000Y-58805000D01*
X59056000Y-58805000D01*
X59063000Y-58806000D01*
G36*
X59063000Y-58806000D02*
G01*
X59069000Y-58806000D01*
X59075000Y-58808000D01*
X59081000Y-58809000D01*
X59087000Y-58811000D01*
X59093000Y-58813000D01*
X59099000Y-58815000D01*
X59104000Y-58818000D01*
X59110000Y-58821000D01*
X59115000Y-58824000D01*
X59121000Y-58828000D01*
X59126000Y-58832000D01*
X59130000Y-58836000D01*
X59135000Y-58840000D01*
X59139000Y-58845000D01*
X59143000Y-58849000D01*
X59147000Y-58854000D01*
X59151000Y-58860000D01*
X59154000Y-58865000D01*
X59157000Y-58871000D01*
X59160000Y-58876000D01*
X59162000Y-58882000D01*
X59164000Y-58888000D01*
X59166000Y-58894000D01*
X59167000Y-58900000D01*
X59169000Y-58906000D01*
X59169000Y-58912000D01*
X59170000Y-58919000D01*
X59170000Y-58925000D01*
X59170000Y-59075000D01*
X59170000Y-59081000D01*
X59169000Y-59088000D01*
X59169000Y-59094000D01*
X59167000Y-59100000D01*
X59166000Y-59106000D01*
X59164000Y-59112000D01*
X59162000Y-59118000D01*
X59160000Y-59124000D01*
X59157000Y-59129000D01*
X59154000Y-59135000D01*
X59151000Y-59140000D01*
X59147000Y-59146000D01*
X59143000Y-59151000D01*
X59139000Y-59155000D01*
X59135000Y-59160000D01*
X59130000Y-59164000D01*
X59126000Y-59168000D01*
X59121000Y-59172000D01*
X59115000Y-59176000D01*
X59110000Y-59179000D01*
X59104000Y-59182000D01*
X59099000Y-59185000D01*
X59093000Y-59187000D01*
X59087000Y-59189000D01*
X59081000Y-59191000D01*
X59075000Y-59192000D01*
X59069000Y-59194000D01*
X59063000Y-59194000D01*
X59056000Y-59195000D01*
X59050000Y-59195000D01*
X57850000Y-59195000D01*
X57844000Y-59195000D01*
X57837000Y-59194000D01*
X57831000Y-59194000D01*
X57825000Y-59192000D01*
X57819000Y-59191000D01*
X57813000Y-59189000D01*
X57807000Y-59187000D01*
X57801000Y-59185000D01*
X57796000Y-59182000D01*
X57790000Y-59179000D01*
X57785000Y-59176000D01*
X57779000Y-59172000D01*
X57774000Y-59168000D01*
X57770000Y-59164000D01*
X57765000Y-59160000D01*
X57761000Y-59155000D01*
X57757000Y-59151000D01*
X57753000Y-59146000D01*
X57749000Y-59140000D01*
X57746000Y-59135000D01*
X57743000Y-59129000D01*
X57740000Y-59124000D01*
X57738000Y-59118000D01*
X57736000Y-59112000D01*
X57734000Y-59106000D01*
X57733000Y-59100000D01*
X57731000Y-59094000D01*
X57731000Y-59088000D01*
X57730000Y-59081000D01*
X57730000Y-59075000D01*
X57730000Y-58925000D01*
X57730000Y-58919000D01*
X57731000Y-58912000D01*
X57731000Y-58906000D01*
X57733000Y-58900000D01*
X57734000Y-58894000D01*
X57736000Y-58888000D01*
X57738000Y-58882000D01*
X57740000Y-58876000D01*
X57743000Y-58871000D01*
X57746000Y-58865000D01*
X57749000Y-58860000D01*
X57753000Y-58854000D01*
X57757000Y-58849000D01*
X57761000Y-58845000D01*
X57765000Y-58840000D01*
X57770000Y-58836000D01*
X57774000Y-58832000D01*
X57779000Y-58828000D01*
X57785000Y-58824000D01*
X57790000Y-58821000D01*
X57796000Y-58818000D01*
X57801000Y-58815000D01*
X57807000Y-58813000D01*
X57813000Y-58811000D01*
X57819000Y-58809000D01*
X57825000Y-58808000D01*
X57831000Y-58806000D01*
X57837000Y-58806000D01*
X57844000Y-58805000D01*
X57850000Y-58805000D01*
X59050000Y-58805000D01*
X59056000Y-58805000D01*
X59063000Y-58806000D01*
G37*
X59063000Y-59306000D02*
X59069000Y-59306000D01*
X59075000Y-59308000D01*
X59081000Y-59309000D01*
X59087000Y-59311000D01*
X59093000Y-59313000D01*
X59099000Y-59315000D01*
X59104000Y-59318000D01*
X59110000Y-59321000D01*
X59115000Y-59324000D01*
X59121000Y-59328000D01*
X59126000Y-59332000D01*
X59130000Y-59336000D01*
X59135000Y-59340000D01*
X59139000Y-59345000D01*
X59143000Y-59349000D01*
X59147000Y-59354000D01*
X59151000Y-59360000D01*
X59154000Y-59365000D01*
X59157000Y-59371000D01*
X59160000Y-59376000D01*
X59162000Y-59382000D01*
X59164000Y-59388000D01*
X59166000Y-59394000D01*
X59167000Y-59400000D01*
X59169000Y-59406000D01*
X59169000Y-59412000D01*
X59170000Y-59419000D01*
X59170000Y-59425000D01*
X59170000Y-59575000D01*
X59170000Y-59581000D01*
X59169000Y-59588000D01*
X59169000Y-59594000D01*
X59167000Y-59600000D01*
X59166000Y-59606000D01*
X59164000Y-59612000D01*
X59162000Y-59618000D01*
X59160000Y-59624000D01*
X59157000Y-59629000D01*
X59154000Y-59635000D01*
X59151000Y-59640000D01*
X59147000Y-59646000D01*
X59143000Y-59651000D01*
X59139000Y-59655000D01*
X59135000Y-59660000D01*
X59130000Y-59664000D01*
X59126000Y-59668000D01*
X59121000Y-59672000D01*
X59115000Y-59676000D01*
X59110000Y-59679000D01*
X59104000Y-59682000D01*
X59099000Y-59685000D01*
X59093000Y-59687000D01*
X59087000Y-59689000D01*
X59081000Y-59691000D01*
X59075000Y-59692000D01*
X59069000Y-59694000D01*
X59063000Y-59694000D01*
X59056000Y-59695000D01*
X59050000Y-59695000D01*
X58250000Y-59695000D01*
X58244000Y-59695000D01*
X58237000Y-59694000D01*
X58231000Y-59694000D01*
X58225000Y-59692000D01*
X58219000Y-59691000D01*
X58213000Y-59689000D01*
X58207000Y-59687000D01*
X58201000Y-59685000D01*
X58196000Y-59682000D01*
X58190000Y-59679000D01*
X58185000Y-59676000D01*
X58179000Y-59672000D01*
X58174000Y-59668000D01*
X58170000Y-59664000D01*
X58165000Y-59660000D01*
X58161000Y-59655000D01*
X58157000Y-59651000D01*
X58153000Y-59646000D01*
X58149000Y-59640000D01*
X58146000Y-59635000D01*
X58143000Y-59629000D01*
X58140000Y-59624000D01*
X58138000Y-59618000D01*
X58136000Y-59612000D01*
X58134000Y-59606000D01*
X58133000Y-59600000D01*
X58131000Y-59594000D01*
X58131000Y-59588000D01*
X58130000Y-59581000D01*
X58130000Y-59575000D01*
X58130000Y-59425000D01*
X58130000Y-59419000D01*
X58131000Y-59412000D01*
X58131000Y-59406000D01*
X58133000Y-59400000D01*
X58134000Y-59394000D01*
X58136000Y-59388000D01*
X58138000Y-59382000D01*
X58140000Y-59376000D01*
X58143000Y-59371000D01*
X58146000Y-59365000D01*
X58149000Y-59360000D01*
X58153000Y-59354000D01*
X58157000Y-59349000D01*
X58161000Y-59345000D01*
X58165000Y-59340000D01*
X58170000Y-59336000D01*
X58174000Y-59332000D01*
X58179000Y-59328000D01*
X58185000Y-59324000D01*
X58190000Y-59321000D01*
X58196000Y-59318000D01*
X58201000Y-59315000D01*
X58207000Y-59313000D01*
X58213000Y-59311000D01*
X58219000Y-59309000D01*
X58225000Y-59308000D01*
X58231000Y-59306000D01*
X58237000Y-59306000D01*
X58244000Y-59305000D01*
X58250000Y-59305000D01*
X59050000Y-59305000D01*
X59056000Y-59305000D01*
X59063000Y-59306000D01*
G36*
X59063000Y-59306000D02*
G01*
X59069000Y-59306000D01*
X59075000Y-59308000D01*
X59081000Y-59309000D01*
X59087000Y-59311000D01*
X59093000Y-59313000D01*
X59099000Y-59315000D01*
X59104000Y-59318000D01*
X59110000Y-59321000D01*
X59115000Y-59324000D01*
X59121000Y-59328000D01*
X59126000Y-59332000D01*
X59130000Y-59336000D01*
X59135000Y-59340000D01*
X59139000Y-59345000D01*
X59143000Y-59349000D01*
X59147000Y-59354000D01*
X59151000Y-59360000D01*
X59154000Y-59365000D01*
X59157000Y-59371000D01*
X59160000Y-59376000D01*
X59162000Y-59382000D01*
X59164000Y-59388000D01*
X59166000Y-59394000D01*
X59167000Y-59400000D01*
X59169000Y-59406000D01*
X59169000Y-59412000D01*
X59170000Y-59419000D01*
X59170000Y-59425000D01*
X59170000Y-59575000D01*
X59170000Y-59581000D01*
X59169000Y-59588000D01*
X59169000Y-59594000D01*
X59167000Y-59600000D01*
X59166000Y-59606000D01*
X59164000Y-59612000D01*
X59162000Y-59618000D01*
X59160000Y-59624000D01*
X59157000Y-59629000D01*
X59154000Y-59635000D01*
X59151000Y-59640000D01*
X59147000Y-59646000D01*
X59143000Y-59651000D01*
X59139000Y-59655000D01*
X59135000Y-59660000D01*
X59130000Y-59664000D01*
X59126000Y-59668000D01*
X59121000Y-59672000D01*
X59115000Y-59676000D01*
X59110000Y-59679000D01*
X59104000Y-59682000D01*
X59099000Y-59685000D01*
X59093000Y-59687000D01*
X59087000Y-59689000D01*
X59081000Y-59691000D01*
X59075000Y-59692000D01*
X59069000Y-59694000D01*
X59063000Y-59694000D01*
X59056000Y-59695000D01*
X59050000Y-59695000D01*
X58250000Y-59695000D01*
X58244000Y-59695000D01*
X58237000Y-59694000D01*
X58231000Y-59694000D01*
X58225000Y-59692000D01*
X58219000Y-59691000D01*
X58213000Y-59689000D01*
X58207000Y-59687000D01*
X58201000Y-59685000D01*
X58196000Y-59682000D01*
X58190000Y-59679000D01*
X58185000Y-59676000D01*
X58179000Y-59672000D01*
X58174000Y-59668000D01*
X58170000Y-59664000D01*
X58165000Y-59660000D01*
X58161000Y-59655000D01*
X58157000Y-59651000D01*
X58153000Y-59646000D01*
X58149000Y-59640000D01*
X58146000Y-59635000D01*
X58143000Y-59629000D01*
X58140000Y-59624000D01*
X58138000Y-59618000D01*
X58136000Y-59612000D01*
X58134000Y-59606000D01*
X58133000Y-59600000D01*
X58131000Y-59594000D01*
X58131000Y-59588000D01*
X58130000Y-59581000D01*
X58130000Y-59575000D01*
X58130000Y-59425000D01*
X58130000Y-59419000D01*
X58131000Y-59412000D01*
X58131000Y-59406000D01*
X58133000Y-59400000D01*
X58134000Y-59394000D01*
X58136000Y-59388000D01*
X58138000Y-59382000D01*
X58140000Y-59376000D01*
X58143000Y-59371000D01*
X58146000Y-59365000D01*
X58149000Y-59360000D01*
X58153000Y-59354000D01*
X58157000Y-59349000D01*
X58161000Y-59345000D01*
X58165000Y-59340000D01*
X58170000Y-59336000D01*
X58174000Y-59332000D01*
X58179000Y-59328000D01*
X58185000Y-59324000D01*
X58190000Y-59321000D01*
X58196000Y-59318000D01*
X58201000Y-59315000D01*
X58207000Y-59313000D01*
X58213000Y-59311000D01*
X58219000Y-59309000D01*
X58225000Y-59308000D01*
X58231000Y-59306000D01*
X58237000Y-59306000D01*
X58244000Y-59305000D01*
X58250000Y-59305000D01*
X59050000Y-59305000D01*
X59056000Y-59305000D01*
X59063000Y-59306000D01*
G37*
X59063000Y-59806000D02*
X59069000Y-59806000D01*
X59075000Y-59808000D01*
X59081000Y-59809000D01*
X59087000Y-59811000D01*
X59093000Y-59813000D01*
X59099000Y-59815000D01*
X59104000Y-59818000D01*
X59110000Y-59821000D01*
X59115000Y-59824000D01*
X59121000Y-59828000D01*
X59126000Y-59832000D01*
X59130000Y-59836000D01*
X59135000Y-59840000D01*
X59139000Y-59845000D01*
X59143000Y-59849000D01*
X59147000Y-59854000D01*
X59151000Y-59860000D01*
X59154000Y-59865000D01*
X59157000Y-59871000D01*
X59160000Y-59876000D01*
X59162000Y-59882000D01*
X59164000Y-59888000D01*
X59166000Y-59894000D01*
X59167000Y-59900000D01*
X59169000Y-59906000D01*
X59169000Y-59912000D01*
X59170000Y-59919000D01*
X59170000Y-59925000D01*
X59170000Y-60075000D01*
X59170000Y-60081000D01*
X59169000Y-60088000D01*
X59169000Y-60094000D01*
X59167000Y-60100000D01*
X59166000Y-60106000D01*
X59164000Y-60112000D01*
X59162000Y-60118000D01*
X59160000Y-60124000D01*
X59157000Y-60129000D01*
X59154000Y-60135000D01*
X59151000Y-60140000D01*
X59147000Y-60146000D01*
X59143000Y-60151000D01*
X59139000Y-60155000D01*
X59135000Y-60160000D01*
X59130000Y-60164000D01*
X59126000Y-60168000D01*
X59121000Y-60172000D01*
X59115000Y-60176000D01*
X59110000Y-60179000D01*
X59104000Y-60182000D01*
X59099000Y-60185000D01*
X59093000Y-60187000D01*
X59087000Y-60189000D01*
X59081000Y-60191000D01*
X59075000Y-60192000D01*
X59069000Y-60194000D01*
X59063000Y-60194000D01*
X59056000Y-60195000D01*
X59050000Y-60195000D01*
X58250000Y-60195000D01*
X58244000Y-60195000D01*
X58237000Y-60194000D01*
X58231000Y-60194000D01*
X58225000Y-60192000D01*
X58219000Y-60191000D01*
X58213000Y-60189000D01*
X58207000Y-60187000D01*
X58201000Y-60185000D01*
X58196000Y-60182000D01*
X58190000Y-60179000D01*
X58185000Y-60176000D01*
X58179000Y-60172000D01*
X58174000Y-60168000D01*
X58170000Y-60164000D01*
X58165000Y-60160000D01*
X58161000Y-60155000D01*
X58157000Y-60151000D01*
X58153000Y-60146000D01*
X58149000Y-60140000D01*
X58146000Y-60135000D01*
X58143000Y-60129000D01*
X58140000Y-60124000D01*
X58138000Y-60118000D01*
X58136000Y-60112000D01*
X58134000Y-60106000D01*
X58133000Y-60100000D01*
X58131000Y-60094000D01*
X58131000Y-60088000D01*
X58130000Y-60081000D01*
X58130000Y-60075000D01*
X58130000Y-59925000D01*
X58130000Y-59919000D01*
X58131000Y-59912000D01*
X58131000Y-59906000D01*
X58133000Y-59900000D01*
X58134000Y-59894000D01*
X58136000Y-59888000D01*
X58138000Y-59882000D01*
X58140000Y-59876000D01*
X58143000Y-59871000D01*
X58146000Y-59865000D01*
X58149000Y-59860000D01*
X58153000Y-59854000D01*
X58157000Y-59849000D01*
X58161000Y-59845000D01*
X58165000Y-59840000D01*
X58170000Y-59836000D01*
X58174000Y-59832000D01*
X58179000Y-59828000D01*
X58185000Y-59824000D01*
X58190000Y-59821000D01*
X58196000Y-59818000D01*
X58201000Y-59815000D01*
X58207000Y-59813000D01*
X58213000Y-59811000D01*
X58219000Y-59809000D01*
X58225000Y-59808000D01*
X58231000Y-59806000D01*
X58237000Y-59806000D01*
X58244000Y-59805000D01*
X58250000Y-59805000D01*
X59050000Y-59805000D01*
X59056000Y-59805000D01*
X59063000Y-59806000D01*
G36*
X59063000Y-59806000D02*
G01*
X59069000Y-59806000D01*
X59075000Y-59808000D01*
X59081000Y-59809000D01*
X59087000Y-59811000D01*
X59093000Y-59813000D01*
X59099000Y-59815000D01*
X59104000Y-59818000D01*
X59110000Y-59821000D01*
X59115000Y-59824000D01*
X59121000Y-59828000D01*
X59126000Y-59832000D01*
X59130000Y-59836000D01*
X59135000Y-59840000D01*
X59139000Y-59845000D01*
X59143000Y-59849000D01*
X59147000Y-59854000D01*
X59151000Y-59860000D01*
X59154000Y-59865000D01*
X59157000Y-59871000D01*
X59160000Y-59876000D01*
X59162000Y-59882000D01*
X59164000Y-59888000D01*
X59166000Y-59894000D01*
X59167000Y-59900000D01*
X59169000Y-59906000D01*
X59169000Y-59912000D01*
X59170000Y-59919000D01*
X59170000Y-59925000D01*
X59170000Y-60075000D01*
X59170000Y-60081000D01*
X59169000Y-60088000D01*
X59169000Y-60094000D01*
X59167000Y-60100000D01*
X59166000Y-60106000D01*
X59164000Y-60112000D01*
X59162000Y-60118000D01*
X59160000Y-60124000D01*
X59157000Y-60129000D01*
X59154000Y-60135000D01*
X59151000Y-60140000D01*
X59147000Y-60146000D01*
X59143000Y-60151000D01*
X59139000Y-60155000D01*
X59135000Y-60160000D01*
X59130000Y-60164000D01*
X59126000Y-60168000D01*
X59121000Y-60172000D01*
X59115000Y-60176000D01*
X59110000Y-60179000D01*
X59104000Y-60182000D01*
X59099000Y-60185000D01*
X59093000Y-60187000D01*
X59087000Y-60189000D01*
X59081000Y-60191000D01*
X59075000Y-60192000D01*
X59069000Y-60194000D01*
X59063000Y-60194000D01*
X59056000Y-60195000D01*
X59050000Y-60195000D01*
X58250000Y-60195000D01*
X58244000Y-60195000D01*
X58237000Y-60194000D01*
X58231000Y-60194000D01*
X58225000Y-60192000D01*
X58219000Y-60191000D01*
X58213000Y-60189000D01*
X58207000Y-60187000D01*
X58201000Y-60185000D01*
X58196000Y-60182000D01*
X58190000Y-60179000D01*
X58185000Y-60176000D01*
X58179000Y-60172000D01*
X58174000Y-60168000D01*
X58170000Y-60164000D01*
X58165000Y-60160000D01*
X58161000Y-60155000D01*
X58157000Y-60151000D01*
X58153000Y-60146000D01*
X58149000Y-60140000D01*
X58146000Y-60135000D01*
X58143000Y-60129000D01*
X58140000Y-60124000D01*
X58138000Y-60118000D01*
X58136000Y-60112000D01*
X58134000Y-60106000D01*
X58133000Y-60100000D01*
X58131000Y-60094000D01*
X58131000Y-60088000D01*
X58130000Y-60081000D01*
X58130000Y-60075000D01*
X58130000Y-59925000D01*
X58130000Y-59919000D01*
X58131000Y-59912000D01*
X58131000Y-59906000D01*
X58133000Y-59900000D01*
X58134000Y-59894000D01*
X58136000Y-59888000D01*
X58138000Y-59882000D01*
X58140000Y-59876000D01*
X58143000Y-59871000D01*
X58146000Y-59865000D01*
X58149000Y-59860000D01*
X58153000Y-59854000D01*
X58157000Y-59849000D01*
X58161000Y-59845000D01*
X58165000Y-59840000D01*
X58170000Y-59836000D01*
X58174000Y-59832000D01*
X58179000Y-59828000D01*
X58185000Y-59824000D01*
X58190000Y-59821000D01*
X58196000Y-59818000D01*
X58201000Y-59815000D01*
X58207000Y-59813000D01*
X58213000Y-59811000D01*
X58219000Y-59809000D01*
X58225000Y-59808000D01*
X58231000Y-59806000D01*
X58237000Y-59806000D01*
X58244000Y-59805000D01*
X58250000Y-59805000D01*
X59050000Y-59805000D01*
X59056000Y-59805000D01*
X59063000Y-59806000D01*
G37*
%TO.C,U6*%
X83720000Y-60671834D02*
X82975840Y-60671834D01*
X82975840Y-60280000D01*
X83720000Y-60280000D01*
X83720000Y-60671834D01*
G36*
X83720000Y-60671834D02*
G01*
X82975840Y-60671834D01*
X82975840Y-60280000D01*
X83720000Y-60280000D01*
X83720000Y-60671834D01*
G37*
X85950000Y-59979964D02*
X83047410Y-59979964D01*
X83047410Y-59680000D01*
X85950000Y-59680000D01*
X85950000Y-59979964D01*
G36*
X85950000Y-59979964D02*
G01*
X83047410Y-59979964D01*
X83047410Y-59680000D01*
X85950000Y-59680000D01*
X85950000Y-59979964D01*
G37*
X84150000Y-59379000D02*
X83047660Y-59379000D01*
X83047660Y-59080000D01*
X84150000Y-59080000D01*
X84150000Y-59379000D01*
G36*
X84150000Y-59379000D02*
G01*
X83047660Y-59379000D01*
X83047660Y-59080000D01*
X84150000Y-59080000D01*
X84150000Y-59379000D01*
G37*
X83945000Y-61522480D02*
X83553457Y-61522480D01*
X83553457Y-60780000D01*
X83945000Y-60780000D01*
X83945000Y-61522480D01*
G36*
X83945000Y-61522480D02*
G01*
X83553457Y-61522480D01*
X83553457Y-60780000D01*
X83945000Y-60780000D01*
X83945000Y-61522480D01*
G37*
X84987500Y-60130344D02*
X84011210Y-60130344D01*
X84011210Y-59980000D01*
X84987500Y-59980000D01*
X84987500Y-60130344D01*
G36*
X84987500Y-60130344D02*
G01*
X84011210Y-60130344D01*
X84011210Y-59980000D01*
X84987500Y-59980000D01*
X84987500Y-60130344D01*
G37*
X84445000Y-61522310D02*
X84054324Y-61522310D01*
X84054324Y-60780000D01*
X84445000Y-60780000D01*
X84445000Y-61522310D01*
G36*
X84445000Y-61522310D02*
G01*
X84054324Y-61522310D01*
X84054324Y-60780000D01*
X84445000Y-60780000D01*
X84445000Y-61522310D01*
G37*
X85950000Y-59378233D02*
X84500000Y-59378233D01*
X84500000Y-59080000D01*
X85950000Y-59080000D01*
X85950000Y-59378233D01*
G36*
X85950000Y-59378233D02*
G01*
X84500000Y-59378233D01*
X84500000Y-59080000D01*
X85950000Y-59080000D01*
X85950000Y-59378233D01*
G37*
X84945000Y-61524640D02*
X84555168Y-61524640D01*
X84555168Y-60780000D01*
X84945000Y-60780000D01*
X84945000Y-61524640D01*
G36*
X84945000Y-61524640D02*
G01*
X84555168Y-61524640D01*
X84555168Y-60780000D01*
X84945000Y-60780000D01*
X84945000Y-61524640D01*
G37*
X85445000Y-61523330D02*
X85056216Y-61523330D01*
X85056216Y-60780000D01*
X85445000Y-60780000D01*
X85445000Y-61523330D01*
G36*
X85445000Y-61523330D02*
G01*
X85056216Y-61523330D01*
X85056216Y-60780000D01*
X85445000Y-60780000D01*
X85445000Y-61523330D01*
G37*
X86020000Y-60670934D02*
X85281087Y-60670934D01*
X85281087Y-60280000D01*
X86020000Y-60280000D01*
X86020000Y-60670934D01*
G36*
X86020000Y-60670934D02*
G01*
X85281087Y-60670934D01*
X85281087Y-60280000D01*
X86020000Y-60280000D01*
X86020000Y-60670934D01*
G37*
%TO.C,JP2*%
G36*
X291350000Y-4150000D02*
G01*
X291650000Y-4150000D01*
X291650000Y-5650000D01*
X291350000Y-5650000D01*
X291350000Y-4150000D01*
G37*
%TO.C,JP7*%
G36*
X205750000Y-121350000D02*
G01*
X204250000Y-121350000D01*
X204250000Y-121650000D01*
X205750000Y-121650000D01*
X205750000Y-121350000D01*
G37*
%TO.C,U9*%
X318230000Y46820000D02*
X315770000Y46820000D01*
X315770000Y49130000D01*
X318230000Y49130000D01*
X318230000Y46820000D01*
G36*
X318230000Y46820000D02*
G01*
X315770000Y46820000D01*
X315770000Y49130000D01*
X318230000Y49130000D01*
X318230000Y46820000D01*
G37*
%TO.C,U3*%
X192191834Y27845000D02*
X189731834Y27845000D01*
X189731834Y30155000D01*
X192191834Y30155000D01*
X192191834Y27845000D01*
G36*
X192191834Y27845000D02*
G01*
X189731834Y27845000D01*
X189731834Y30155000D01*
X192191834Y30155000D01*
X192191834Y27845000D01*
G37*
%TD*%
D11*
%TO.C,R2*%
X183000000Y27037500D03*
X183000000Y29962500D03*
%TD*%
%TO.C,R2*%
X147182500Y94075000D03*
X147182500Y97000000D03*
%TD*%
D12*
%TO.C,R3*%
X311462500Y49500000D03*
X308537500Y49500000D03*
%TD*%
%TO.C,R8*%
X311425000Y41500000D03*
X308500000Y41500000D03*
%TD*%
%TO.C,R5*%
X311500000Y54500000D03*
X308575000Y54500000D03*
%TD*%
%TO.C,R7*%
X311462500Y46500000D03*
X308537500Y46500000D03*
%TD*%
%TO.C,R4*%
X311462500Y52000000D03*
X308537500Y52000000D03*
%TD*%
%TO.C,R6*%
X311425000Y44000000D03*
X308500000Y44000000D03*
%TD*%
%TO.C,R34*%
X316462500Y41500000D03*
X313537500Y41500000D03*
%TD*%
%TO.C,R35*%
X316500000Y54500000D03*
X313575000Y54500000D03*
%TD*%
D11*
%TO.C,R37*%
X202537500Y-124445000D03*
X202537500Y-127370000D03*
%TD*%
%TO.C,R24*%
X205000000Y-124575000D03*
X205000000Y-127500000D03*
%TD*%
%TO.C,R23*%
X207500000Y-124575000D03*
X207500000Y-127500000D03*
%TD*%
D13*
%TO.C,R20*%
X118000000Y-99000000D03*
X116350000Y-99000000D03*
%TD*%
D14*
%TO.C,R32*%
X59000000Y-89000000D03*
X59000000Y-86075000D03*
%TD*%
D15*
%TO.C,TP12*%
X286825000Y-36540000D03*
%TD*%
D16*
%TO.C,R21*%
X126500000Y-97500000D03*
X128150000Y-97500000D03*
%TD*%
D17*
%TO.C,D1*%
X221500000Y-121500000D03*
X221500000Y-119625000D03*
%TD*%
D18*
%TO.C,JP6*%
X154850000Y61950000D03*
X156150000Y61950000D03*
%TD*%
D19*
%TO.C,R25*%
X207500000Y-120675000D03*
X207500000Y-122500000D03*
%TD*%
D14*
%TO.C,R30*%
X54000000Y-88962500D03*
X54000000Y-86037500D03*
%TD*%
D20*
%TO.C,J1*%
X121250000Y-99947500D03*
X121750000Y-99947500D03*
X122250000Y-99947500D03*
X122750000Y-99947500D03*
X123250000Y-99947500D03*
X123750000Y-99947500D03*
X124250000Y-99947500D03*
X124750000Y-99947500D03*
X125250000Y-99947500D03*
X125750000Y-99947500D03*
X126250000Y-99947500D03*
X126750000Y-99947500D03*
D21*
X126800000Y-101157500D03*
X126400000Y-101857500D03*
X125600000Y-101857500D03*
X125200000Y-101157500D03*
X124800000Y-101857500D03*
X124400000Y-101157500D03*
X123600000Y-101157500D03*
X123200000Y-101857500D03*
X122800000Y-101157500D03*
X122400000Y-101857500D03*
X121600000Y-101857500D03*
X121200000Y-101157500D03*
D22*
X120630000Y-98957500D03*
X122750000Y-98957500D03*
X125250000Y-98957500D03*
X127380000Y-98957500D03*
D23*
X119880000Y-101747500D03*
X128120000Y-101747500D03*
X119510000Y-106147500D03*
X128480000Y-106147500D03*
%TD*%
D24*
%TO.C,C5*%
X322100000Y46800000D03*
X322100000Y48350000D03*
%TD*%
D25*
%TO.C,R26*%
X202500000Y-122500000D03*
X202500000Y-120675000D03*
%TD*%
D14*
%TO.C,R31*%
X56500000Y-88962500D03*
X56500000Y-86037500D03*
%TD*%
D18*
%TO.C,JP1*%
X290850000Y-1350000D03*
X292150000Y-1350000D03*
%TD*%
%TO.C,JP3*%
X73231834Y11690000D03*
X74531834Y11690000D03*
%TD*%
D26*
%TO.C,R14*%
X56912500Y-61500000D03*
X55087500Y-61500000D03*
%TD*%
D18*
%TO.C,JP4*%
X290850000Y-12000000D03*
X292150000Y-12000000D03*
%TD*%
D17*
%TO.C,D2*%
X219000000Y-121500000D03*
X219000000Y-119625000D03*
%TD*%
D15*
%TO.C,TP2*%
X279725000Y-36540000D03*
%TD*%
D27*
%TO.C,Q1*%
X198125000Y-120550000D03*
X198125000Y-122450000D03*
X200000000Y-121500000D03*
%TD*%
D28*
%TO.C,C12*%
X85500000Y-57500000D03*
X83950000Y-57500000D03*
%TD*%
D29*
%TO.C,R28*%
X220962500Y-123500000D03*
X218037500Y-123500000D03*
%TD*%
D16*
%TO.C,R36*%
X86262500Y-63000000D03*
X87912500Y-63000000D03*
%TD*%
D28*
%TO.C,C15*%
X118115000Y-100490000D03*
X116565000Y-100490000D03*
%TD*%
D30*
%TO.C,L3*%
X62000000Y-63000000D03*
X65700000Y-63000000D03*
%TD*%
D31*
%TO.C,C3*%
X198000000Y27000000D03*
X198000000Y28900000D03*
%TD*%
D18*
%TO.C,JP5*%
X154850000Y65500000D03*
X156150000Y65500000D03*
%TD*%
D15*
%TO.C,TP6*%
X152400000Y54600000D03*
%TD*%
D32*
%TO.C,U1*%
X124800000Y-96000000D03*
X124150000Y-96000000D03*
X123500000Y-96000000D03*
X123500000Y-98000000D03*
X124150000Y-98000000D03*
X124800000Y-98000000D03*
D33*
X124150000Y-97000000D03*
%TD*%
D15*
%TO.C,TP11*%
X286825000Y-32990000D03*
%TD*%
D34*
%TO.C,C16*%
X121500000Y-95500000D03*
X120540000Y-95500000D03*
%TD*%
D35*
%TO.C,U10*%
X107745000Y-57550000D03*
X107745000Y-58500000D03*
X107745000Y-59450000D03*
X110255000Y-59450000D03*
X110255000Y-58500000D03*
X110255000Y-57550000D03*
%TD*%
D36*
%TO.C,C9*%
X82000000Y-61000000D03*
X82000000Y-60040000D03*
%TD*%
D37*
%TO.C,SW1*%
X60200000Y-106200000D03*
X60200000Y-101500000D03*
X60200000Y-96800000D03*
X51800000Y-94900000D03*
X51800000Y-108100000D03*
%TD*%
D14*
%TO.C,R15*%
X55000000Y-59462500D03*
X55000000Y-56537500D03*
%TD*%
D38*
%TO.C,U7*%
X69470000Y-87905000D03*
X69470000Y-86635000D03*
X69470000Y-85365000D03*
X69470000Y-84095000D03*
X64530000Y-84095000D03*
X64530000Y-85365000D03*
X64530000Y-86635000D03*
X64530000Y-87905000D03*
%TD*%
D39*
%TO.C,J3*%
X65000000Y-98950000D03*
D40*
X67000000Y-98950000D03*
%TD*%
D41*
%TO.C,J2*%
X108040000Y-104460000D03*
D42*
X108040000Y-107000000D03*
X105500000Y-104460000D03*
X105500000Y-107000000D03*
X102960000Y-104460000D03*
X102960000Y-107000000D03*
X100420000Y-104460000D03*
X100420000Y-107000000D03*
X97880000Y-104460000D03*
X97880000Y-107000000D03*
X95340000Y-104460000D03*
X95340000Y-107000000D03*
X92800000Y-104460000D03*
X92800000Y-107000000D03*
X90260000Y-104460000D03*
X90260000Y-107000000D03*
X87720000Y-104460000D03*
X87720000Y-107000000D03*
X85180000Y-104460000D03*
X85180000Y-107000000D03*
X82640000Y-104460000D03*
X82640000Y-107000000D03*
X80100000Y-104460000D03*
X80100000Y-107000000D03*
X77560000Y-104460000D03*
X77560000Y-107000000D03*
X75020000Y-104460000D03*
X75020000Y-107000000D03*
X72480000Y-104460000D03*
X72480000Y-107000000D03*
X69940000Y-104460000D03*
X69940000Y-107000000D03*
%TD*%
D15*
%TO.C,TP16*%
X251256834Y60520000D03*
%TD*%
D11*
%TO.C,R1*%
X185500000Y29925000D03*
X185500000Y27000000D03*
%TD*%
D29*
%TO.C,R16*%
X59962500Y-54500000D03*
X57037500Y-54500000D03*
%TD*%
D18*
%TO.C,JP2*%
X290850000Y-4900000D03*
X292150000Y-4900000D03*
%TD*%
D15*
%TO.C,TP10*%
X283275000Y-47190000D03*
%TD*%
D43*
%TO.C,FB1*%
X71600000Y-66000000D03*
X73000000Y-66000000D03*
%TD*%
D14*
%TO.C,R17*%
X97000000Y-59462500D03*
X97000000Y-56537500D03*
%TD*%
D15*
%TO.C,TP5*%
X148850000Y40400000D03*
%TD*%
D28*
%TO.C,C11*%
X85500000Y-56000000D03*
X83950000Y-56000000D03*
%TD*%
%TO.C,C10*%
X85500000Y-54500000D03*
X83950000Y-54500000D03*
%TD*%
D44*
%TO.C,C13*%
X60000000Y-58000000D03*
X60000000Y-59550000D03*
%TD*%
D45*
%TO.C,C14*%
X58725000Y-61500000D03*
X60275000Y-61500000D03*
%TD*%
D15*
%TO.C,TP4*%
X118000000Y13500000D03*
%TD*%
D46*
%TO.C,L1*%
X82000000Y-55437500D03*
X82000000Y-57562500D03*
%TD*%
D19*
%TO.C,R10*%
X74000000Y-83587500D03*
X74000000Y-85412500D03*
%TD*%
D47*
%TO.C,U11*%
X114800000Y-87142500D03*
X112500000Y-87142500D03*
X110200000Y-87142500D03*
D48*
X112500000Y-92857500D03*
%TD*%
D15*
%TO.C,TP19*%
X251256834Y49870000D03*
%TD*%
D14*
%TO.C,R18*%
X105245000Y-59500000D03*
X105245000Y-56575000D03*
%TD*%
D49*
%TO.C,U2*%
X210525000Y-123095000D03*
X210525000Y-124365000D03*
X210525000Y-125635000D03*
X210525000Y-126905000D03*
X215475000Y-126905000D03*
X215475000Y-125635000D03*
X215475000Y-124365000D03*
X215475000Y-123095000D03*
D50*
X213000000Y-125000000D03*
%TD*%
D30*
%TO.C,L2*%
X65700000Y-58500000D03*
X62000000Y-58500000D03*
%TD*%
D51*
%TO.C,R22*%
X118000000Y-105150000D03*
X118000000Y-103500000D03*
%TD*%
D29*
%TO.C,R29*%
X220962500Y-126000000D03*
X218037500Y-126000000D03*
%TD*%
D44*
%TO.C,C7*%
X62000000Y-82725000D03*
X62000000Y-84275000D03*
%TD*%
D31*
%TO.C,C4*%
X324100000Y46800000D03*
X324100000Y48700000D03*
%TD*%
D24*
%TO.C,C2*%
X196000000Y27500000D03*
X196000000Y29050000D03*
%TD*%
D15*
%TO.C,TP7*%
X83500000Y14050000D03*
%TD*%
D14*
%TO.C,R33*%
X61500000Y-88962500D03*
X61500000Y-86037500D03*
%TD*%
D19*
%TO.C,R11*%
X72000000Y-83587500D03*
X72000000Y-85412500D03*
%TD*%
D15*
%TO.C,TP17*%
X348829334Y122760000D03*
%TD*%
D52*
%TO.C,R27*%
X196000000Y-122500000D03*
X196000000Y-120500000D03*
%TD*%
D15*
%TO.C,TP15*%
X247706834Y46320000D03*
%TD*%
%TO.C,TP8*%
X83500000Y10500000D03*
%TD*%
D53*
%TO.C,JP7*%
X205000000Y-120850000D03*
X205000000Y-122150000D03*
%TD*%
D54*
%TO.C,R19*%
X122000000Y-97500000D03*
X120000000Y-97500000D03*
%TD*%
D44*
%TO.C,C18*%
X108000000Y-89225000D03*
X108000000Y-90775000D03*
%TD*%
D14*
%TO.C,R9*%
X51500000Y-88962500D03*
X51500000Y-86037500D03*
%TD*%
D15*
%TO.C,TP18*%
X159500000Y47500000D03*
%TD*%
D44*
%TO.C,C1*%
X196000000Y32050000D03*
X196000000Y30500000D03*
%TD*%
D45*
%TO.C,C20*%
X210725000Y-128500000D03*
X212275000Y-128500000D03*
%TD*%
D55*
%TO.C,U9*%
X314100000Y50250000D03*
X314100000Y49600000D03*
X314100000Y48950000D03*
X314100000Y48300000D03*
X314100000Y47650000D03*
X314100000Y47000000D03*
X314100000Y46350000D03*
X314100000Y45700000D03*
X319900000Y45700000D03*
X319900000Y46350000D03*
X319900000Y47000000D03*
X319900000Y47650000D03*
X319900000Y48300000D03*
X319900000Y48950000D03*
X319900000Y49600000D03*
X319900000Y50250000D03*
%TD*%
D45*
%TO.C,C19*%
X113000000Y-84000000D03*
X114550000Y-84000000D03*
%TD*%
D15*
%TO.C,TP3*%
X129000000Y14500000D03*
%TD*%
D24*
%TO.C,C8*%
X80500000Y-61550000D03*
X80500000Y-60000000D03*
%TD*%
D15*
%TO.C,TP9*%
X83500000Y6950000D03*
%TD*%
D28*
%TO.C,C21*%
X215500000Y-128500000D03*
X213950000Y-128500000D03*
%TD*%
D44*
%TO.C,C6*%
X322100000Y51575000D03*
X322100000Y50025000D03*
%TD*%
D15*
%TO.C,TP1*%
X279725000Y-32990000D03*
%TD*%
D51*
%TO.C,R12*%
X87500000Y-61325000D03*
X87500000Y-59675000D03*
%TD*%
D35*
%TO.C,U5*%
X99245000Y-57550000D03*
X99245000Y-58500000D03*
X99245000Y-59450000D03*
X101755000Y-59450000D03*
X101755000Y-58500000D03*
X101755000Y-57550000D03*
%TD*%
D15*
%TO.C,TP13*%
X286825000Y-40090000D03*
%TD*%
D56*
%TO.C,R13*%
X82675000Y-63000000D03*
X84500000Y-63000000D03*
%TD*%
D15*
%TO.C,TP14*%
X286825000Y-43640000D03*
%TD*%
D55*
%TO.C,U3*%
X188061834Y31275000D03*
X188061834Y30625000D03*
X188061834Y29975000D03*
X188061834Y29325000D03*
X188061834Y28675000D03*
X188061834Y28025000D03*
X188061834Y27375000D03*
X188061834Y26725000D03*
X193861834Y26725000D03*
X193861834Y27375000D03*
X193861834Y28025000D03*
X193861834Y28675000D03*
X193861834Y29325000D03*
X193861834Y29975000D03*
X193861834Y30625000D03*
X193861834Y31275000D03*
%TD*%
M02*
