%TF.GenerationSoftware,KiCad,Pcbnew,9.0.0*%
%TF.CreationDate,2025-03-28T00:39:15+02:00*%
%TF.ProjectId,MMPOwerBoardKiCAD9Version,4d4d504f-7765-4724-926f-6172644b6943,rev?*%
%TF.SameCoordinates,Original*%
%TF.FileFunction,Soldermask,Bot*%
%TF.FilePolarity,Negative*%
%FSLAX46Y46*%
G04 Gerber Fmt 4.6, Leading zero omitted, Abs format (unit mm)*
G04 Created by KiCad (PCBNEW 9.0.0) date 2025-03-28 00:39:15*
%MOMM*%
%LPD*%
G01*
G04 APERTURE LIST*
G04 Aperture macros list*
%AMRoundRect*
0 Rectangle with rounded corners*
0 $1 Rounding radius*
0 $2 $3 $4 $5 $6 $7 $8 $9 X,Y pos of 4 corners*
0 Add a 4 corners polygon primitive as box body*
4,1,4,$2,$3,$4,$5,$6,$7,$8,$9,$2,$3,0*
0 Add four circle primitives for the rounded corners*
1,1,$1+$1,$2,$3*
1,1,$1+$1,$4,$5*
1,1,$1+$1,$6,$7*
1,1,$1+$1,$8,$9*
0 Add four rect primitives between the rounded corners*
20,1,$1+$1,$2,$3,$4,$5,0*
20,1,$1+$1,$4,$5,$6,$7,0*
20,1,$1+$1,$6,$7,$8,$9,0*
20,1,$1+$1,$8,$9,$2,$3,0*%
G04 Aperture macros list end*
%ADD10C,0.675000*%
%ADD11C,0.640000*%
%ADD12O,1.700000X0.850000*%
%ADD13C,2.300000*%
%ADD14RoundRect,0.250000X-0.350000X-0.625000X0.350000X-0.625000X0.350000X0.625000X-0.350000X0.625000X0*%
%ADD15O,1.200000X1.750000*%
%ADD16R,1.700000X1.700000*%
%ADD17O,1.700000X1.700000*%
G04 APERTURE END LIST*
D10*
%TO.C,J1*%
X173992500Y-72900000D03*
X173992500Y-80250000D03*
D11*
X173342500Y-79300000D03*
X172642500Y-78900000D03*
X172642500Y-78100000D03*
X173342500Y-77700000D03*
X172642500Y-77300000D03*
X173342500Y-76900000D03*
X173342500Y-76100000D03*
X172642500Y-75700000D03*
X173342500Y-75300000D03*
X172642500Y-74900000D03*
X172642500Y-74100000D03*
X173342500Y-73700000D03*
D12*
X172752500Y-72380000D03*
X172752500Y-80620000D03*
X168352500Y-72010000D03*
X168352500Y-80980000D03*
%TD*%
D13*
%TO.C,SW1*%
X232136500Y-79300000D03*
X232136500Y-84000000D03*
X232136500Y-88700000D03*
X240536500Y-90600000D03*
X240536500Y-77400000D03*
%TD*%
D14*
%TO.C,J3*%
X227500000Y-93000000D03*
D15*
X229500000Y-93000000D03*
%TD*%
D16*
%TO.C,J2*%
X222660000Y-98500000D03*
D17*
X222660000Y-101040000D03*
X220120000Y-98500000D03*
X220120000Y-101040000D03*
X217580000Y-98500000D03*
X217580000Y-101040000D03*
X215040000Y-98500000D03*
X215040000Y-101040000D03*
X212500000Y-98500000D03*
X212500000Y-101040000D03*
X209960000Y-98500000D03*
X209960000Y-101040000D03*
X207420000Y-98500000D03*
X207420000Y-101040000D03*
X204880000Y-98500000D03*
X204880000Y-101040000D03*
X202340000Y-98500000D03*
X202340000Y-101040000D03*
X199800000Y-98500000D03*
X199800000Y-101040000D03*
X197260000Y-98500000D03*
X197260000Y-101040000D03*
X194720000Y-98500000D03*
X194720000Y-101040000D03*
X192180000Y-98500000D03*
X192180000Y-101040000D03*
X189640000Y-98500000D03*
X189640000Y-101040000D03*
X187100000Y-98500000D03*
X187100000Y-101040000D03*
X184560000Y-98500000D03*
X184560000Y-101040000D03*
%TD*%
M02*
