M48
; DRILL file {KiCad 9.0.0} date 2025-04-09T15:57:12+0200
; FORMAT={-:-/ absolute / inch / decimal}
; #@! TF.CreationDate,2025-04-09T15:57:12+02:00
; #@! TF.GenerationSoftware,Kicad,Pcbnew,9.0.0
; #@! TF.FileFunction,Plated,1,2,PTH
FMAT,2
INCH
; #@! TA.AperFunction,Plated,PTH,ViaDrill
T1C0.0118
; #@! TA.AperFunction,Plated,PTH,ComponentDrill
T2C0.0295
; #@! TA.AperFunction,Plated,PTH,ComponentDrill
T3C0.0315
; #@! TA.AperFunction,Plated,PTH,ComponentDrill
T4C0.0394
; #@! TA.AperFunction,Plated,PTH,ComponentDrill
T5C0.0591
%
G90
G05
T1
X6.6732Y-2.9724
X6.8714Y-3.0292
X6.9685Y-3.189
X6.9685Y-3.4449
X7.0079Y-3.1102
X7.0669Y-3.1024
X7.0669Y-3.6811
X7.1063Y-2.9528
X7.1457Y-3.0512
X7.1457Y-3.4276
X7.1457Y-3.563
X7.1457Y-3.8189
X7.1457Y-4.0354
X7.2047Y-2.1457
X7.2047Y-3.1102
X7.2047Y-3.4449
X7.2244Y-2.0472
X7.378Y-3.5079
X7.4213Y-3.5079
X7.4409Y-3.3661
X7.4606Y-2.815
X7.4606Y-2.8937
X7.4606Y-3.2874
X7.4803Y-2.6083
X7.5Y-2.4016
X7.5591Y-3.5236
X7.5591Y-3.7205
X7.6181Y-3.7598
X7.6378Y-3.3071
X7.6378Y-4.0748
X7.7165Y-3.3071
X7.7169Y-2.1949
X7.7264Y-4.065
X7.7362Y-4.2126
X7.8248Y-3.0118
X7.8543Y-2.2441
X7.874Y-2.126
X7.9507Y-4.1929
X7.9588Y-3.3995
X8.0512Y-3.6417
X8.0906Y-4.1929
X8.0913Y-3.4646
X8.1102Y-2.7756
X8.2087Y-2.4016
X8.2466Y-3.3268
X8.2677Y-3.248
X8.2677Y-3.4449
X8.3071Y-2.3228
X8.3071Y-3.7795
X8.3465Y-3.6811
X8.3661Y-2.3228
X8.3661Y-2.9528
X8.4252Y-3.563
X8.4252Y-3.7402
X8.4449Y-2.3228
X8.4449Y-3.189
X8.4646Y-3.1102
X8.4646Y-3.3947
X8.5039Y-3.3947
X8.5236Y-3.2283
X8.58Y-3.7572
X8.622Y-3.2677
X8.6614Y-2.0276
X8.7008Y-3.3268
X8.7992Y-3.2874
X8.8287Y-4.1043
X8.8386Y-2.6378
X8.8583Y-3.0512
X8.8976Y-3.189
X9.0551Y-2.5394
X9.0748Y-2.0276
X9.0748Y-2.2835
X9.0748Y-3.8386
X9.1732Y-2.126
X9.1732Y-3.6417
X9.2913Y-2.2638
X9.2913Y-2.4016
X9.311Y-2.8043
X9.3386Y-2.8691
X9.3504Y-2.1063
X9.3504Y-2.6772
T2
X8.9567Y-3.6614
X9.0354Y-3.6614
T4
X7.2661Y-3.878
X7.2661Y-3.978
X7.3661Y-3.878
X7.3661Y-3.978
X7.4661Y-3.878
X7.4661Y-3.978
X7.5661Y-3.878
X7.5661Y-3.978
X7.6661Y-3.878
X7.6661Y-3.978
X7.7661Y-3.878
X7.7661Y-3.978
X7.8661Y-3.878
X7.8661Y-3.978
X7.9661Y-3.878
X7.9661Y-3.978
X8.0661Y-3.878
X8.0661Y-3.978
X8.1661Y-3.878
X8.1661Y-3.978
X8.2661Y-3.878
X8.2661Y-3.978
X8.3661Y-3.878
X8.3661Y-3.978
X8.4661Y-3.878
X8.4661Y-3.978
X8.5661Y-3.878
X8.5661Y-3.978
X8.6661Y-3.878
X8.6661Y-3.978
X8.7661Y-3.878
X8.7661Y-3.978
T5
X9.1392Y-3.122
X9.1392Y-3.3071
X9.1392Y-3.4921
X9.4699Y-3.0472
X9.4699Y-3.5669
T3
G00X6.5699Y-2.8219
M15
G01X6.5462Y-2.8219
M16
G05
G00X6.5699Y-3.1624
M15
G01X6.5462Y-3.1624
M16
G05
G00X6.7384Y-2.8219
M15
G01X6.7069Y-2.8219
M16
G05
G00X6.7384Y-3.1624
M15
G01X6.7069Y-3.1624
M16
G05
M30
