M48
; DRILL file {KiCad 9.0.0} date 2025-03-27T16:23:26+0200
; FORMAT={-:-/ absolute / inch / decimal}
; #@! TF.CreationDate,2025-03-27T16:23:26+02:00
; #@! TF.GenerationSoftware,Kicad,Pcbnew,9.0.0
; #@! TF.FileFunction,Plated,1,2,PTH
FMAT,2
INCH
; #@! TA.AperFunction,Plated,PTH,ComponentDrill
T1C0.0079
; #@! TA.AperFunction,Plated,PTH,ComponentDrill
T2C0.0157
; #@! TA.AperFunction,Plated,PTH,ComponentDrill
T3C0.0217
; #@! TA.AperFunction,Plated,PTH,ComponentDrill
T4C0.0295
; #@! TA.AperFunction,Plated,PTH,ComponentDrill
T5C0.0394
; #@! TA.AperFunction,Plated,PTH,ComponentDrill
T6C0.0591
%
G90
G05
T1
X7.4788Y1.2126
X7.4788Y1.1654
X7.4788Y1.1181
X7.4788Y1.0709
X7.5182Y1.2126
X7.5182Y1.1654
X7.5182Y1.1181
X7.5182Y1.0709
X7.5576Y1.2126
X7.5576Y1.1654
X7.5576Y1.1181
X7.5576Y1.0709
X12.4409Y1.9596
X12.4409Y1.9124
X12.4409Y1.8652
X12.4409Y1.8179
X12.4803Y1.9596
X12.4803Y1.9124
X12.4803Y1.8652
X12.4803Y1.8179
X12.5197Y1.9596
X12.5197Y1.9124
X12.5197Y1.8652
X12.5197Y1.8179
T2
X4.7717Y-3.9826
X4.7874Y-4.0101
X4.8189Y-4.0101
X4.8346Y-3.9826
X4.8504Y-4.0101
X4.8661Y-3.9826
X4.8976Y-3.9826
X4.9134Y-4.0101
X4.9291Y-3.9826
X4.9449Y-4.0101
X4.9764Y-4.0101
X4.9921Y-3.9826
T4
X2.5591Y-3.8957
X2.6378Y-3.8957
T5
X2.7535Y-4.1126
X2.7535Y-4.2126
X2.8535Y-4.1126
X2.8535Y-4.2126
X2.9535Y-4.1126
X2.9535Y-4.2126
X3.0535Y-4.1126
X3.0535Y-4.2126
X3.1535Y-4.1126
X3.1535Y-4.2126
X3.2535Y-4.1126
X3.2535Y-4.2126
X3.3535Y-4.1126
X3.3535Y-4.2126
X3.4535Y-4.1126
X3.4535Y-4.2126
X3.5535Y-4.1126
X3.5535Y-4.2126
X3.6535Y-4.1126
X3.6535Y-4.2126
X3.7535Y-4.1126
X3.7535Y-4.2126
X3.8535Y-4.1126
X3.8535Y-4.2126
X3.9535Y-4.1126
X3.9535Y-4.2126
X4.0535Y-4.1126
X4.0535Y-4.2126
X4.1535Y-4.1126
X4.1535Y-4.2126
X4.2535Y-4.1126
X4.2535Y-4.2126
T6
X2.0394Y-3.7362
X2.0394Y-4.2559
X2.3701Y-3.811
X2.3701Y-3.9961
X2.3701Y-4.1811
T3
G00X4.7051Y-4.1672
M15
G01X4.7051Y-4.1908
M16
G05
G00X4.7197Y-3.994
M15
G01X4.7197Y-4.0176
M16
G05
G00X5.0441Y-3.994
M15
G01X5.0441Y-4.0176
M16
G05
G00X5.0583Y-4.1672
M15
G01X5.0583Y-4.1908
M16
G05
M30
