%TF.GenerationSoftware,KiCad,Pcbnew,9.0.0*%
%TF.CreationDate,2025-03-27T16:23:26+02:00*%
%TF.ProjectId,MMPOwerBoardKiCAD9Version,4d4d504f-7765-4724-926f-6172644b6943,rev?*%
%TF.SameCoordinates,Original*%
%TF.FileFunction,Copper,L1,Top*%
%TF.FilePolarity,Positive*%
%FSLAX46Y46*%
G04 Gerber Fmt 4.6, Leading zero omitted, Abs format (unit mm)*
G04 Created by KiCad (PCBNEW 9.0.0) date 2025-03-27 16:23:26*
%MOMM*%
%LPD*%
G01*
G04 APERTURE LIST*
G04 Aperture macros list*
%AMRoundRect*
0 Rectangle with rounded corners*
0 $1 Rounding radius*
0 $2 $3 $4 $5 $6 $7 $8 $9 X,Y pos of 4 corners*
0 Add a 4 corners polygon primitive as box body*
4,1,4,$2,$3,$4,$5,$6,$7,$8,$9,$2,$3,0*
0 Add four circle primitives for the rounded corners*
1,1,$1+$1,$2,$3*
1,1,$1+$1,$4,$5*
1,1,$1+$1,$6,$7*
1,1,$1+$1,$8,$9*
0 Add four rect primitives between the rounded corners*
20,1,$1+$1,$2,$3,$4,$5,0*
20,1,$1+$1,$4,$5,$6,$7,0*
20,1,$1+$1,$6,$7,$8,$9,0*
20,1,$1+$1,$8,$9,$2,$3,0*%
G04 Aperture macros list end*
%TA.AperFunction,NonConductor*%
%ADD10C,0.200000*%
%TD*%
%TA.AperFunction,EtchedComponent*%
%ADD11C,0.010000*%
%TD*%
%TA.AperFunction,SMDPad,CuDef*%
%ADD12RoundRect,0.250000X-0.625000X0.312500X-0.625000X-0.312500X0.625000X-0.312500X0.625000X0.312500X0*%
%TD*%
%TA.AperFunction,SMDPad,CuDef*%
%ADD13RoundRect,0.250000X-0.312500X-0.625000X0.312500X-0.625000X0.312500X0.625000X-0.312500X0.625000X0*%
%TD*%
%TA.AperFunction,SMDPad,CuDef*%
%ADD14RoundRect,0.200000X0.200000X0.275000X-0.200000X0.275000X-0.200000X-0.275000X0.200000X-0.275000X0*%
%TD*%
%TA.AperFunction,SMDPad,CuDef*%
%ADD15RoundRect,0.250000X0.625000X-0.312500X0.625000X0.312500X-0.625000X0.312500X-0.625000X-0.312500X0*%
%TD*%
%TA.AperFunction,SMDPad,CuDef*%
%ADD16R,1.500000X1.500000*%
%TD*%
%TA.AperFunction,SMDPad,CuDef*%
%ADD17RoundRect,0.200000X-0.200000X-0.275000X0.200000X-0.275000X0.200000X0.275000X-0.200000X0.275000X0*%
%TD*%
%TA.AperFunction,SMDPad,CuDef*%
%ADD18RoundRect,0.243750X0.456250X-0.243750X0.456250X0.243750X-0.456250X0.243750X-0.456250X-0.243750X0*%
%TD*%
%TA.AperFunction,SMDPad,CuDef*%
%ADD19R,1.000000X1.500000*%
%TD*%
%TA.AperFunction,SMDPad,CuDef*%
%ADD20RoundRect,0.250000X-0.450000X0.262500X-0.450000X-0.262500X0.450000X-0.262500X0.450000X0.262500X0*%
%TD*%
%TA.AperFunction,SMDPad,CuDef*%
%ADD21R,0.300000X0.900000*%
%TD*%
%TA.AperFunction,ComponentPad*%
%ADD22C,0.640000*%
%TD*%
%TA.AperFunction,SMDPad,CuDef*%
%ADD23R,0.500000X0.300000*%
%TD*%
%TA.AperFunction,ComponentPad*%
%ADD24O,0.850000X1.700000*%
%TD*%
%TA.AperFunction,SMDPad,CuDef*%
%ADD25RoundRect,0.225000X0.250000X-0.225000X0.250000X0.225000X-0.250000X0.225000X-0.250000X-0.225000X0*%
%TD*%
%TA.AperFunction,SMDPad,CuDef*%
%ADD26RoundRect,0.237500X0.237500X-0.250000X0.237500X0.250000X-0.237500X0.250000X-0.237500X-0.250000X0*%
%TD*%
%TA.AperFunction,SMDPad,CuDef*%
%ADD27RoundRect,0.237500X0.250000X0.237500X-0.250000X0.237500X-0.250000X-0.237500X0.250000X-0.237500X0*%
%TD*%
%TA.AperFunction,SMDPad,CuDef*%
%ADD28RoundRect,0.150000X-0.587500X-0.150000X0.587500X-0.150000X0.587500X0.150000X-0.587500X0.150000X0*%
%TD*%
%TA.AperFunction,SMDPad,CuDef*%
%ADD29RoundRect,0.225000X0.225000X0.250000X-0.225000X0.250000X-0.225000X-0.250000X0.225000X-0.250000X0*%
%TD*%
%TA.AperFunction,SMDPad,CuDef*%
%ADD30RoundRect,0.250000X0.312500X0.625000X-0.312500X0.625000X-0.312500X-0.625000X0.312500X-0.625000X0*%
%TD*%
%TA.AperFunction,SMDPad,CuDef*%
%ADD31R,1.500000X2.500000*%
%TD*%
%TA.AperFunction,SMDPad,CuDef*%
%ADD32RoundRect,0.250000X0.475000X-0.250000X0.475000X0.250000X-0.475000X0.250000X-0.475000X-0.250000X0*%
%TD*%
%TA.AperFunction,SMDPad,CuDef*%
%ADD33RoundRect,0.050000X-0.250000X-0.075000X0.250000X-0.075000X0.250000X0.075000X-0.250000X0.075000X0*%
%TD*%
%TA.AperFunction,SMDPad,CuDef*%
%ADD34RoundRect,0.050000X-0.400000X-0.075000X0.400000X-0.075000X0.400000X0.075000X-0.400000X0.075000X0*%
%TD*%
%TA.AperFunction,SMDPad,CuDef*%
%ADD35RoundRect,0.050000X-0.600000X-0.075000X0.600000X-0.075000X0.600000X0.075000X-0.600000X0.075000X0*%
%TD*%
%TA.AperFunction,SMDPad,CuDef*%
%ADD36R,0.350000X0.500000*%
%TD*%
%TA.AperFunction,SMDPad,CuDef*%
%ADD37R,1.600000X1.000000*%
%TD*%
%TA.AperFunction,SMDPad,CuDef*%
%ADD38RoundRect,0.140000X0.140000X0.170000X-0.140000X0.170000X-0.140000X-0.170000X0.140000X-0.170000X0*%
%TD*%
%TA.AperFunction,SMDPad,CuDef*%
%ADD39RoundRect,0.072500X-0.532500X-0.217500X0.532500X-0.217500X0.532500X0.217500X-0.532500X0.217500X0*%
%TD*%
%TA.AperFunction,SMDPad,CuDef*%
%ADD40RoundRect,0.140000X0.170000X-0.140000X0.170000X0.140000X-0.170000X0.140000X-0.170000X-0.140000X0*%
%TD*%
%TA.AperFunction,SMDPad,CuDef*%
%ADD41R,1.240000X0.440000*%
%TD*%
%TA.AperFunction,SMDPad,CuDef*%
%ADD42R,3.040000X0.440000*%
%TD*%
%TA.AperFunction,SMDPad,CuDef*%
%ADD43R,0.600000X0.250000*%
%TD*%
%TA.AperFunction,SMDPad,CuDef*%
%ADD44R,0.250000X0.600000*%
%TD*%
%TA.AperFunction,SMDPad,CuDef*%
%ADD45R,1.590000X0.440000*%
%TD*%
%TA.AperFunction,ComponentPad*%
%ADD46C,2.300000*%
%TD*%
%TA.AperFunction,SMDPad,CuDef*%
%ADD47RoundRect,0.075000X0.910000X0.225000X-0.910000X0.225000X-0.910000X-0.225000X0.910000X-0.225000X0*%
%TD*%
%TA.AperFunction,ComponentPad*%
%ADD48RoundRect,0.250000X-0.350000X-0.625000X0.350000X-0.625000X0.350000X0.625000X-0.350000X0.625000X0*%
%TD*%
%TA.AperFunction,ComponentPad*%
%ADD49O,1.200000X1.750000*%
%TD*%
%TA.AperFunction,ComponentPad*%
%ADD50R,1.700000X1.700000*%
%TD*%
%TA.AperFunction,ComponentPad*%
%ADD51O,1.700000X1.700000*%
%TD*%
%TA.AperFunction,SMDPad,CuDef*%
%ADD52R,0.800000X0.864000*%
%TD*%
%TA.AperFunction,SMDPad,CuDef*%
%ADD53RoundRect,0.225000X-0.250000X0.225000X-0.250000X-0.225000X0.250000X-0.225000X0.250000X0.225000X0*%
%TD*%
%TA.AperFunction,SMDPad,CuDef*%
%ADD54RoundRect,0.225000X-0.225000X-0.250000X0.225000X-0.250000X0.225000X0.250000X-0.225000X0.250000X0*%
%TD*%
%TA.AperFunction,SMDPad,CuDef*%
%ADD55RoundRect,0.218750X-0.381250X0.218750X-0.381250X-0.218750X0.381250X-0.218750X0.381250X0.218750X0*%
%TD*%
%TA.AperFunction,SMDPad,CuDef*%
%ADD56R,1.050000X2.465000*%
%TD*%
%TA.AperFunction,SMDPad,CuDef*%
%ADD57R,3.540000X2.465000*%
%TD*%
%TA.AperFunction,SMDPad,CuDef*%
%ADD58R,1.970000X0.600000*%
%TD*%
%TA.AperFunction,SMDPad,CuDef*%
%ADD59R,2.413000X3.302000*%
%TD*%
%TA.AperFunction,SMDPad,CuDef*%
%ADD60RoundRect,0.200000X0.275000X-0.200000X0.275000X0.200000X-0.275000X0.200000X-0.275000X-0.200000X0*%
%TD*%
%TA.AperFunction,SMDPad,CuDef*%
%ADD61RoundRect,0.250000X0.450000X-0.350000X0.450000X0.350000X-0.450000X0.350000X-0.450000X-0.350000X0*%
%TD*%
%TA.AperFunction,SMDPad,CuDef*%
%ADD62R,1.500000X1.000000*%
%TD*%
%TA.AperFunction,SMDPad,CuDef*%
%ADD63RoundRect,0.250000X0.350000X0.450000X-0.350000X0.450000X-0.350000X-0.450000X0.350000X-0.450000X0*%
%TD*%
%TA.AperFunction,SMDPad,CuDef*%
%ADD64RoundRect,0.056250X-0.693750X-0.168750X0.693750X-0.168750X0.693750X0.168750X-0.693750X0.168750X0*%
%TD*%
%TA.AperFunction,SMDPad,CuDef*%
%ADD65R,3.400000X5.000000*%
%TD*%
%TA.AperFunction,ComponentPad*%
%ADD66C,0.300000*%
%TD*%
%TA.AperFunction,SMDPad,CuDef*%
%ADD67RoundRect,0.237500X-0.250000X-0.237500X0.250000X-0.237500X0.250000X0.237500X-0.250000X0.237500X0*%
%TD*%
G04 APERTURE END LIST*
D10*
X50000000Y-49500000D02*
X130000000Y-49500000D01*
X130000000Y-109500000D01*
X50000000Y-109500000D01*
X50000000Y-49500000D01*
D11*
%TO.C,U6*%
X85057500Y-60200484D02*
X83941151Y-60200484D01*
X83941151Y-60040000D01*
X85057500Y-60040000D01*
X85057500Y-60200484D01*
%TA.AperFunction,EtchedComponent*%
G36*
X85057500Y-60200484D02*
G01*
X83941151Y-60200484D01*
X83941151Y-60040000D01*
X85057500Y-60040000D01*
X85057500Y-60200484D01*
G37*
%TD.AperFunction*%
%TD*%
D12*
%TO.P,R2,2*%
%TO.N,GND*%
X183000000Y27037500D03*
%TO.P,R2,1*%
%TO.N,Net-(JP6-A)*%
X183000000Y29962500D03*
%TD*%
%TO.P,R2,2*%
%TO.N,GND*%
X147182500Y94075000D03*
%TO.P,R2,1*%
%TO.N,Net-(JP6-A)*%
X147182500Y97000000D03*
%TD*%
D13*
%TO.P,R3,2*%
%TO.N,Net-(R3-Pad2)*%
X311462500Y49500000D03*
%TO.P,R3,1*%
%TO.N,Net-(U9-AISEN)*%
X308537500Y49500000D03*
%TD*%
%TO.P,R8,2*%
%TO.N,Net-(R34-Pad1)*%
X311425000Y41500000D03*
%TO.P,R8,1*%
%TO.N,Net-(U9-BISEN)*%
X308500000Y41500000D03*
%TD*%
%TO.P,R5,2*%
%TO.N,Net-(R35-Pad1)*%
X311500000Y54500000D03*
%TO.P,R5,1*%
%TO.N,Net-(U9-AISEN)*%
X308575000Y54500000D03*
%TD*%
%TO.P,R7,2*%
%TO.N,GND*%
X311462500Y46500000D03*
%TO.P,R7,1*%
%TO.N,Net-(U9-BISEN)*%
X308537500Y46500000D03*
%TD*%
%TO.P,R4,2*%
%TO.N,GND*%
X311462500Y52000000D03*
%TO.P,R4,1*%
%TO.N,Net-(U9-AISEN)*%
X308537500Y52000000D03*
%TD*%
%TO.P,R6,2*%
%TO.N,Net-(R34-Pad2)*%
X311425000Y44000000D03*
%TO.P,R6,1*%
%TO.N,Net-(U9-BISEN)*%
X308500000Y44000000D03*
%TD*%
%TO.P,R34,2*%
%TO.N,Net-(R34-Pad2)*%
X316462500Y41500000D03*
%TO.P,R34,1*%
%TO.N,Net-(R34-Pad1)*%
X313537500Y41500000D03*
%TD*%
%TO.P,R35,2*%
%TO.N,Net-(R3-Pad2)*%
X316500000Y54500000D03*
%TO.P,R35,1*%
%TO.N,Net-(R35-Pad1)*%
X313575000Y54500000D03*
%TD*%
D12*
%TO.P,R37,1*%
%TO.N,/5V_charge*%
X202537500Y-124445000D03*
%TO.P,R37,2*%
%TO.N,Net-(U2-CE)*%
X202537500Y-127370000D03*
%TD*%
%TO.P,R24,1*%
%TO.N,/5V_charge*%
X205000000Y-124575000D03*
%TO.P,R24,2*%
%TO.N,Net-(U2-CE)*%
X205000000Y-127500000D03*
%TD*%
%TO.P,R23,1*%
%TO.N,/5V_charge*%
X207500000Y-124575000D03*
%TO.P,R23,2*%
%TO.N,Net-(U2-CE)*%
X207500000Y-127500000D03*
%TD*%
D14*
%TO.P,R20,1*%
%TO.N,Net-(C15-Pad1)*%
X118000000Y-99000000D03*
%TO.P,R20,2*%
%TO.N,GND*%
X116350000Y-99000000D03*
%TD*%
D15*
%TO.P,R32,1*%
%TO.N,/FromBattery*%
X59000000Y-89000000D03*
%TO.P,R32,2*%
%TO.N,/LoadCircuit*%
X59000000Y-86075000D03*
%TD*%
D16*
%TO.P,TP12,1,1*%
%TO.N,Net-(JP2-A)*%
X286825000Y-36540000D03*
%TD*%
D17*
%TO.P,R21,1*%
%TO.N,Net-(J1-SUB1)*%
X126500000Y-97500000D03*
%TO.P,R21,2*%
%TO.N,GND*%
X128150000Y-97500000D03*
%TD*%
D18*
%TO.P,D1,1,K*%
%TO.N,Net-(D1-K)*%
X221500000Y-121500000D03*
%TO.P,D1,2,A*%
%TO.N,/5V_charge*%
X221500000Y-119625000D03*
%TD*%
D19*
%TO.P,JP6,1,A*%
%TO.N,Net-(JP6-A)*%
X154850000Y61950000D03*
%TO.P,JP6,2,B*%
%TO.N,GND*%
X156150000Y61950000D03*
%TD*%
D20*
%TO.P,R25,1*%
%TO.N,GND*%
X207500000Y-120675000D03*
%TO.P,R25,2*%
%TO.N,Net-(JP7-B)*%
X207500000Y-122500000D03*
%TD*%
D15*
%TO.P,R30,1*%
%TO.N,/FromBattery*%
X54000000Y-88962500D03*
%TO.P,R30,2*%
%TO.N,/LoadCircuit*%
X54000000Y-86037500D03*
%TD*%
D21*
%TO.P,J1,A1,GND_A*%
%TO.N,GND*%
X121250000Y-99947500D03*
%TO.P,J1,A2,SSTXP1*%
%TO.N,unconnected-(J1-SSTXP1-PadA2)*%
X121750000Y-99947500D03*
%TO.P,J1,A3,SSTXN1*%
%TO.N,unconnected-(J1-SSTXN1-PadA3)*%
X122250000Y-99947500D03*
%TO.P,J1,A4,VBUS_A*%
%TO.N,Net-(JP1-B)*%
X122750000Y-99947500D03*
%TO.P,J1,A5,CC1*%
%TO.N,Net-(J1-CC1)*%
X123250000Y-99947500D03*
%TO.P,J1,A6,DP1*%
%TO.N,Net-(J1-DP1)*%
X123750000Y-99947500D03*
%TO.P,J1,A7,DN1*%
%TO.N,Net-(J1-DN1)*%
X124250000Y-99947500D03*
%TO.P,J1,A8,SUB1*%
%TO.N,Net-(J1-SUB1)*%
X124750000Y-99947500D03*
%TO.P,J1,A9,VBUS_A*%
%TO.N,Net-(JP1-B)*%
X125250000Y-99947500D03*
%TO.P,J1,A10,SSRXN2*%
%TO.N,unconnected-(J1-SSRXN2-PadA10)*%
X125750000Y-99947500D03*
%TO.P,J1,A11,SSRXP2*%
%TO.N,unconnected-(J1-SSRXP2-PadA11)*%
X126250000Y-99947500D03*
%TO.P,J1,A12,GND_A*%
%TO.N,GND*%
X126750000Y-99947500D03*
D22*
%TO.P,J1,B1,GND_B*%
X126800000Y-101157500D03*
%TO.P,J1,B2,SSTXP2*%
%TO.N,unconnected-(J1-SSTXP2-PadB2)*%
X126400000Y-101857500D03*
%TO.P,J1,B3,SSTXN2*%
%TO.N,unconnected-(J1-SSTXN2-PadB3)*%
X125600000Y-101857500D03*
%TO.P,J1,B4,VBUS_B*%
%TO.N,Net-(JP1-B)*%
X125200000Y-101157500D03*
%TO.P,J1,B5,CC2*%
%TO.N,Net-(J1-CC2)*%
X124800000Y-101857500D03*
%TO.P,J1,B6,DP2*%
%TO.N,Net-(J1-DP1)*%
X124400000Y-101157500D03*
%TO.P,J1,B7,DN2*%
%TO.N,Net-(J1-DN1)*%
X123600000Y-101157500D03*
%TO.P,J1,B8,SUB2*%
%TO.N,Net-(J1-SUB2)*%
X123200000Y-101857500D03*
%TO.P,J1,B9,VBUS_B*%
%TO.N,Net-(JP1-B)*%
X122800000Y-101157500D03*
%TO.P,J1,B10,SSRXN1*%
%TO.N,unconnected-(J1-SSRXN1-PadB10)*%
X122400000Y-101857500D03*
%TO.P,J1,B11,SSRXP1*%
%TO.N,unconnected-(J1-SSRXP1-PadB11)*%
X121600000Y-101857500D03*
%TO.P,J1,B12,GND_B*%
%TO.N,GND*%
X121200000Y-101157500D03*
D23*
%TO.P,J1,S1,SHIELD*%
%TO.N,Net-(C15-Pad1)*%
X120630000Y-98957500D03*
%TO.P,J1,S2,SHIELD*%
X122750000Y-98957500D03*
%TO.P,J1,S3,SHIELD*%
X125250000Y-98957500D03*
%TO.P,J1,S4,SHIELD*%
X127380000Y-98957500D03*
D24*
%TO.P,J1,S5,SHIELD*%
X119880000Y-101747500D03*
%TO.P,J1,S6,SHIELD*%
X128120000Y-101747500D03*
%TO.P,J1,S7,SHIELD*%
X119510000Y-106147500D03*
%TO.P,J1,S8,SHIELD*%
X128480000Y-106147500D03*
%TD*%
D25*
%TO.P,C5,1*%
%TO.N,/LoadCircuit*%
X322100000Y46800000D03*
%TO.P,C5,2*%
%TO.N,GND*%
X322100000Y48350000D03*
%TD*%
D26*
%TO.P,R26,1*%
%TO.N,Net-(Q1-C)*%
X202500000Y-122500000D03*
%TO.P,R26,2*%
%TO.N,Net-(JP7-A)*%
X202500000Y-120675000D03*
%TD*%
D15*
%TO.P,R31,1*%
%TO.N,/FromBattery*%
X56500000Y-88962500D03*
%TO.P,R31,2*%
%TO.N,/LoadCircuit*%
X56500000Y-86037500D03*
%TD*%
D19*
%TO.P,JP1,1,A*%
%TO.N,/9V*%
X290850000Y-1350000D03*
%TO.P,JP1,2,B*%
%TO.N,Net-(JP1-B)*%
X292150000Y-1350000D03*
%TD*%
%TO.P,JP3,1,A*%
%TO.N,/5V*%
X73231834Y11690000D03*
%TO.P,JP3,2,B*%
%TO.N,Net-(JP3-B)*%
X74531834Y11690000D03*
%TD*%
D27*
%TO.P,R14,1*%
%TO.N,Net-(JP2-A)*%
X56912500Y-61500000D03*
%TO.P,R14,2*%
X55087500Y-61500000D03*
%TD*%
D19*
%TO.P,JP4,1,A*%
%TO.N,Net-(JP4-A)*%
X290850000Y-12000000D03*
%TO.P,JP4,2,B*%
%TO.N,/5V_charge*%
X292150000Y-12000000D03*
%TD*%
D18*
%TO.P,D2,1,K*%
%TO.N,Net-(D2-K)*%
X219000000Y-121500000D03*
%TO.P,D2,2,A*%
%TO.N,/5V_charge*%
X219000000Y-119625000D03*
%TD*%
D16*
%TO.P,TP2,1,1*%
%TO.N,/LoadCircuit*%
X279725000Y-36540000D03*
%TD*%
D28*
%TO.P,Q1,1,B*%
%TO.N,Net-(Q1-B)*%
X198125000Y-120550000D03*
%TO.P,Q1,2,E*%
%TO.N,GND*%
X198125000Y-122450000D03*
%TO.P,Q1,3,C*%
%TO.N,Net-(Q1-C)*%
X200000000Y-121500000D03*
%TD*%
D29*
%TO.P,C12,1*%
%TO.N,Net-(JP3-B)*%
X85500000Y-57500000D03*
%TO.P,C12,2*%
%TO.N,GND*%
X83950000Y-57500000D03*
%TD*%
D30*
%TO.P,R28,1*%
%TO.N,Net-(D2-K)*%
X220962500Y-123500000D03*
%TO.P,R28,2*%
%TO.N,Net-(U2-~{CHRG})*%
X218037500Y-123500000D03*
%TD*%
D17*
%TO.P,R36,1*%
%TO.N,Net-(R13-Pad2)*%
X86262500Y-63000000D03*
%TO.P,R36,2*%
%TO.N,Net-(U6-FB)*%
X87912500Y-63000000D03*
%TD*%
D29*
%TO.P,C15,1*%
%TO.N,Net-(C15-Pad1)*%
X118115000Y-100490000D03*
%TO.P,C15,2*%
%TO.N,GND*%
X116565000Y-100490000D03*
%TD*%
D31*
%TO.P,L3,1,1*%
%TO.N,Net-(U4-L2)*%
X62000000Y-63000000D03*
%TO.P,L3,2,2*%
%TO.N,Net-(L2-Pad1)*%
X65700000Y-63000000D03*
%TD*%
D32*
%TO.P,C3,1*%
%TO.N,/LoadCircuit*%
X198000000Y27000000D03*
%TO.P,C3,2*%
%TO.N,Net-(U3-VCP)*%
X198000000Y28900000D03*
%TD*%
D19*
%TO.P,JP5,1,A*%
%TO.N,Net-(JP5-A)*%
X154850000Y65500000D03*
%TO.P,JP5,2,B*%
%TO.N,GND*%
X156150000Y65500000D03*
%TD*%
D33*
%TO.P,U4,1,EN*%
%TO.N,/LoadCircuit*%
X57000000Y-58000000D03*
%TO.P,U4,2,MODE*%
%TO.N,GND*%
X57000000Y-58500000D03*
%TO.P,U4,3,AGND*%
%TO.N,GNDA*%
X57000000Y-59000000D03*
%TO.P,U4,4,FB*%
%TO.N,Net-(JP2-A)*%
X57000000Y-59500000D03*
%TO.P,U4,5,PG*%
X57000000Y-60000000D03*
D34*
%TO.P,U4,6,VOUT*%
X58650000Y-60000000D03*
%TO.P,U4,7,L2*%
%TO.N,Net-(U4-L2)*%
X58650000Y-59500000D03*
D35*
%TO.P,U4,8,GND*%
%TO.N,GND*%
X58450000Y-59000000D03*
D34*
%TO.P,U4,9,L1*%
%TO.N,Net-(U4-L1)*%
X58650000Y-58500000D03*
%TO.P,U4,10,VIN*%
%TO.N,/LoadCircuit*%
X58650000Y-58000000D03*
%TD*%
D16*
%TO.P,TP6,1,1*%
%TO.N,/Motor2_A_OUT*%
X152400000Y54600000D03*
%TD*%
D36*
%TO.P,U1,1,CC1*%
%TO.N,Net-(J1-CC1)*%
X124800000Y-96000000D03*
%TO.P,U1,2,VUSB*%
%TO.N,Net-(JP1-B)*%
X124150000Y-96000000D03*
%TO.P,U1,3,VSET*%
%TO.N,Net-(U1-VSET)*%
X123500000Y-96000000D03*
%TO.P,U1,4,D+*%
%TO.N,Net-(J1-DP1)*%
X123500000Y-98000000D03*
%TO.P,U1,5,D-*%
%TO.N,Net-(J1-DN1)*%
X124150000Y-98000000D03*
%TO.P,U1,6,CC2*%
%TO.N,Net-(J1-CC2)*%
X124800000Y-98000000D03*
D37*
%TO.P,U1,7,GND*%
%TO.N,GND*%
X124150000Y-97000000D03*
%TD*%
D16*
%TO.P,TP11,1,1*%
%TO.N,Net-(JP2-A)*%
X286825000Y-32990000D03*
%TD*%
D38*
%TO.P,C16,1*%
%TO.N,Net-(JP1-B)*%
X121500000Y-95500000D03*
%TO.P,C16,2*%
%TO.N,GND*%
X120540000Y-95500000D03*
%TD*%
D39*
%TO.P,U10,1,VIN*%
%TO.N,/5V*%
X107745000Y-57550000D03*
%TO.P,U10,2,GND*%
%TO.N,GND*%
X107745000Y-58500000D03*
%TO.P,U10,3,ON*%
%TO.N,/EXT_LOAD2_CTRL*%
X107745000Y-59450000D03*
%TO.P,U10,4,CT*%
%TO.N,unconnected-(U10-CT-Pad4)*%
X110255000Y-59450000D03*
%TO.P,U10,5,QOD*%
%TO.N,unconnected-(U10-QOD-Pad5)*%
X110255000Y-58500000D03*
%TO.P,U10,6,VOUT*%
%TO.N,/EXT_LOAD2_OUT*%
X110255000Y-57550000D03*
%TD*%
D40*
%TO.P,C9,1*%
%TO.N,/LoadCircuit*%
X82000000Y-61000000D03*
%TO.P,C9,2*%
%TO.N,GND*%
X82000000Y-60040000D03*
%TD*%
D41*
%TO.P,U6,1,PGND*%
%TO.N,GND*%
X83600000Y-59230000D03*
D42*
%TO.P,U6,2,SW*%
%TO.N,Net-(U6-SW)*%
X84500000Y-59830000D03*
D43*
%TO.P,U6,3,VIN*%
%TO.N,/LoadCircuit*%
X83350000Y-60475000D03*
D44*
%TO.P,U6,4,CC*%
%TO.N,GNDA*%
X83750000Y-61150000D03*
%TO.P,U6,5,AGND*%
X84250000Y-61150000D03*
%TO.P,U6,6,FB*%
%TO.N,Net-(U6-FB)*%
X84750000Y-61150000D03*
%TO.P,U6,7,EN*%
%TO.N,/LoadCircuit*%
X85250000Y-61150000D03*
D43*
%TO.P,U6,8,INACT*%
%TO.N,GNDA*%
X85650000Y-60475000D03*
D45*
%TO.P,U6,9,VOUT*%
%TO.N,Net-(JP3-B)*%
X85225000Y-59230000D03*
%TD*%
D46*
%TO.P,SW1,1,1*%
%TO.N,/ChargingCircuit*%
X60200000Y-106200000D03*
%TO.P,SW1,2,2*%
%TO.N,/Battery*%
X60200000Y-101500000D03*
%TO.P,SW1,3,3*%
%TO.N,/FromBattery*%
X60200000Y-96800000D03*
%TO.P,SW1,4,4*%
%TO.N,unconnected-(SW1-Pad4)*%
X51800000Y-94900000D03*
%TO.P,SW1,5,5*%
%TO.N,unconnected-(SW1-Pad5)*%
X51800000Y-108100000D03*
%TD*%
D15*
%TO.P,R15,1*%
%TO.N,Net-(JP2-A)*%
X55000000Y-59462500D03*
%TO.P,R15,2*%
%TO.N,GNDA*%
X55000000Y-56537500D03*
%TD*%
D47*
%TO.P,U7,1,A1*%
%TO.N,/3V3*%
X69470000Y-87905000D03*
%TO.P,U7,2,A0*%
X69470000Y-86635000D03*
%TO.P,U7,3,SDA*%
%TO.N,/I2C1_SDA*%
X69470000Y-85365000D03*
%TO.P,U7,4,SCL*%
%TO.N,/I2C1_SCL*%
X69470000Y-84095000D03*
%TO.P,U7,5,VS*%
%TO.N,/3V3*%
X64530000Y-84095000D03*
%TO.P,U7,6,GND*%
%TO.N,GND*%
X64530000Y-85365000D03*
%TO.P,U7,7,VIN-*%
%TO.N,/LoadCircuit*%
X64530000Y-86635000D03*
%TO.P,U7,8,VIN+*%
%TO.N,/FromBattery*%
X64530000Y-87905000D03*
%TD*%
D48*
%TO.P,J3,1,Pin_1*%
%TO.N,/Battery*%
X65000000Y-98950000D03*
D49*
%TO.P,J3,2,Pin_2*%
%TO.N,GND*%
X67000000Y-98950000D03*
%TD*%
D50*
%TO.P,J2,1,Pin_1*%
%TO.N,/Motor2_B_OUT*%
X108040000Y-104460000D03*
D51*
%TO.P,J2,2,Pin_2*%
%TO.N,/Motor2_A_OUT*%
X108040000Y-107000000D03*
%TO.P,J2,3,Pin_3*%
%TO.N,/Motor4_A_OUT*%
X105500000Y-104460000D03*
%TO.P,J2,4,Pin_4*%
%TO.N,/MOTOR2_CTRL1*%
X105500000Y-107000000D03*
%TO.P,J2,5,Pin_5*%
%TO.N,/Motor4_B_OUT*%
X102960000Y-104460000D03*
%TO.P,J2,6,Pin_6*%
%TO.N,/MOTOR2_CTRL2*%
X102960000Y-107000000D03*
%TO.P,J2,7,Pin_7*%
%TO.N,/EXT_LOAD2_CTRL*%
X100420000Y-104460000D03*
%TO.P,J2,8,Pin_8*%
%TO.N,/MOTOR4_CTRL1*%
X100420000Y-107000000D03*
%TO.P,J2,9,Pin_9*%
%TO.N,unconnected-(J2-Pin_9-Pad9)*%
X97880000Y-104460000D03*
%TO.P,J2,10,Pin_10*%
%TO.N,/MOTOR4_CTRL2*%
X97880000Y-107000000D03*
%TO.P,J2,11,Pin_11*%
%TO.N,/EXT_LOAD2_OUT*%
X95340000Y-104460000D03*
%TO.P,J2,12,Pin_12*%
%TO.N,unconnected-(J2-Pin_12-Pad12)*%
X95340000Y-107000000D03*
%TO.P,J2,13,Pin_13*%
%TO.N,/FAST_CHARGE_CTRL*%
X92800000Y-104460000D03*
%TO.P,J2,14,Pin_14*%
%TO.N,/Battery*%
X92800000Y-107000000D03*
%TO.P,J2,15,Pin_15*%
%TO.N,unconnected-(J2-Pin_15-Pad15)*%
X90260000Y-104460000D03*
%TO.P,J2,16,Pin_16*%
%TO.N,/I2C1_SCL*%
X90260000Y-107000000D03*
%TO.P,J2,17,Pin_17*%
%TO.N,/I2C1_SDA*%
X87720000Y-104460000D03*
%TO.P,J2,18,Pin_18*%
%TO.N,/3V3*%
X87720000Y-107000000D03*
%TO.P,J2,19,Pin_19*%
%TO.N,GND*%
X85180000Y-104460000D03*
%TO.P,J2,20,Pin_20*%
%TO.N,/5V*%
X85180000Y-107000000D03*
%TO.P,J2,21,Pin_21*%
%TO.N,/EXT_LOAD1_OUT*%
X82640000Y-104460000D03*
%TO.P,J2,22,Pin_22*%
%TO.N,/9V*%
X82640000Y-107000000D03*
%TO.P,J2,23,Pin_23*%
%TO.N,GND*%
X80100000Y-104460000D03*
%TO.P,J2,24,Pin_24*%
%TO.N,/MOTOR3_CTRL1*%
X80100000Y-107000000D03*
%TO.P,J2,25,Pin_25*%
%TO.N,/EXT_LOAD1_CTRL*%
X77560000Y-104460000D03*
%TO.P,J2,26,Pin_26*%
%TO.N,/MOTOR3_CTRL2*%
X77560000Y-107000000D03*
%TO.P,J2,27,Pin_27*%
%TO.N,/Motor3_A_OUT*%
X75020000Y-104460000D03*
%TO.P,J2,28,Pin_28*%
%TO.N,/MOTOR1_CTRL1*%
X75020000Y-107000000D03*
%TO.P,J2,29,Pin_29*%
%TO.N,/Motor3_B_OUT*%
X72480000Y-104460000D03*
%TO.P,J2,30,Pin_30*%
%TO.N,/MOTOR1_CTRL2*%
X72480000Y-107000000D03*
%TO.P,J2,31,Pin_31*%
%TO.N,/Motor1_B_OUT*%
X69940000Y-104460000D03*
%TO.P,J2,32,Pin_32*%
%TO.N,/Motor1_A_OUT*%
X69940000Y-107000000D03*
%TD*%
D16*
%TO.P,TP16,1,1*%
%TO.N,/Motor4_A_OUT*%
X251256834Y60520000D03*
%TD*%
D12*
%TO.P,R1,1*%
%TO.N,Net-(JP5-A)*%
X185500000Y29925000D03*
%TO.P,R1,2*%
%TO.N,GND*%
X185500000Y27000000D03*
%TD*%
D30*
%TO.P,R16,1*%
%TO.N,/LoadCircuit*%
X59962500Y-54500000D03*
%TO.P,R16,2*%
%TO.N,Net-(JP2-A)*%
X57037500Y-54500000D03*
%TD*%
D19*
%TO.P,JP2,1,A*%
%TO.N,Net-(JP2-A)*%
X290850000Y-4900000D03*
%TO.P,JP2,2,B*%
%TO.N,/3V3*%
X292150000Y-4900000D03*
%TD*%
D16*
%TO.P,TP10,1,1*%
%TO.N,GNDA*%
X283275000Y-47190000D03*
%TD*%
D52*
%TO.P,FB1,1*%
%TO.N,GNDA*%
X71600000Y-66000000D03*
%TO.P,FB1,2*%
%TO.N,GND*%
X73000000Y-66000000D03*
%TD*%
D15*
%TO.P,R17,1*%
%TO.N,/EXT_LOAD1_CTRL*%
X97000000Y-59462500D03*
%TO.P,R17,2*%
%TO.N,GND*%
X97000000Y-56537500D03*
%TD*%
D16*
%TO.P,TP5,1,1*%
%TO.N,/Motor2_B_OUT*%
X148850000Y40400000D03*
%TD*%
D29*
%TO.P,C11,1*%
%TO.N,Net-(JP3-B)*%
X85500000Y-56000000D03*
%TO.P,C11,2*%
%TO.N,GND*%
X83950000Y-56000000D03*
%TD*%
%TO.P,C10,1*%
%TO.N,Net-(JP3-B)*%
X85500000Y-54500000D03*
%TO.P,C10,2*%
%TO.N,GND*%
X83950000Y-54500000D03*
%TD*%
D53*
%TO.P,C13,1*%
%TO.N,/LoadCircuit*%
X60000000Y-58000000D03*
%TO.P,C13,2*%
%TO.N,GND*%
X60000000Y-59550000D03*
%TD*%
D54*
%TO.P,C14,1*%
%TO.N,Net-(JP2-A)*%
X58725000Y-61500000D03*
%TO.P,C14,2*%
%TO.N,GND*%
X60275000Y-61500000D03*
%TD*%
D16*
%TO.P,TP4,1,1*%
%TO.N,/EXT_LOAD1_OUT*%
X118000000Y13500000D03*
%TD*%
D55*
%TO.P,L1,1,1*%
%TO.N,/LoadCircuit*%
X82000000Y-55437500D03*
%TO.P,L1,2,2*%
%TO.N,Net-(U6-SW)*%
X82000000Y-57562500D03*
%TD*%
D20*
%TO.P,R10,1*%
%TO.N,/3V3*%
X74000000Y-83587500D03*
%TO.P,R10,2*%
%TO.N,/I2C1_SCL*%
X74000000Y-85412500D03*
%TD*%
D56*
%TO.P,U11,1,GND*%
%TO.N,GND*%
X114800000Y-87142500D03*
%TO.P,U11,2,Vout*%
%TO.N,Net-(JP4-A)*%
X112500000Y-87142500D03*
%TO.P,U11,3,Vin*%
%TO.N,/9V*%
X110200000Y-87142500D03*
D57*
%TO.P,U11,4,Vout*%
%TO.N,unconnected-(U11-Vout-Pad4)*%
X112500000Y-92857500D03*
%TD*%
D16*
%TO.P,TP19,1,1*%
%TO.N,Net-(U9-AISEN)*%
X251256834Y49870000D03*
%TD*%
D15*
%TO.P,R18,1*%
%TO.N,/EXT_LOAD2_CTRL*%
X105245000Y-59500000D03*
%TO.P,R18,2*%
%TO.N,GND*%
X105245000Y-56575000D03*
%TD*%
D58*
%TO.P,U2,1,TEMP*%
%TO.N,GND*%
X210525000Y-123095000D03*
%TO.P,U2,2,PROG*%
%TO.N,Net-(JP7-B)*%
X210525000Y-124365000D03*
%TO.P,U2,3,GND*%
%TO.N,GND*%
X210525000Y-125635000D03*
%TO.P,U2,4,VCC*%
%TO.N,Net-(U2-CE)*%
X210525000Y-126905000D03*
%TO.P,U2,5,BAT*%
%TO.N,/ChargingCircuit*%
X215475000Y-126905000D03*
%TO.P,U2,6,~{STDBY}*%
%TO.N,Net-(U2-~{STDBY})*%
X215475000Y-125635000D03*
%TO.P,U2,7,~{CHRG}*%
%TO.N,Net-(U2-~{CHRG})*%
X215475000Y-124365000D03*
%TO.P,U2,8,CE*%
%TO.N,Net-(U2-CE)*%
X215475000Y-123095000D03*
D59*
%TO.P,U2,9,EXP*%
%TO.N,GND*%
X213000000Y-125000000D03*
%TD*%
D31*
%TO.P,L2,1,1*%
%TO.N,Net-(L2-Pad1)*%
X65700000Y-58500000D03*
%TO.P,L2,2,2*%
%TO.N,Net-(U4-L1)*%
X62000000Y-58500000D03*
%TD*%
D60*
%TO.P,R22,1*%
%TO.N,Net-(J1-SUB2)*%
X118000000Y-105150000D03*
%TO.P,R22,2*%
%TO.N,GND*%
X118000000Y-103500000D03*
%TD*%
D30*
%TO.P,R29,1*%
%TO.N,Net-(D1-K)*%
X220962500Y-126000000D03*
%TO.P,R29,2*%
%TO.N,Net-(U2-~{STDBY})*%
X218037500Y-126000000D03*
%TD*%
D53*
%TO.P,C7,1*%
%TO.N,/3V3*%
X62000000Y-82725000D03*
%TO.P,C7,2*%
%TO.N,GND*%
X62000000Y-84275000D03*
%TD*%
D32*
%TO.P,C4,1*%
%TO.N,/LoadCircuit*%
X324100000Y46800000D03*
%TO.P,C4,2*%
%TO.N,Net-(U9-VCP)*%
X324100000Y48700000D03*
%TD*%
D25*
%TO.P,C2,1*%
%TO.N,/LoadCircuit*%
X196000000Y27500000D03*
%TO.P,C2,2*%
%TO.N,GND*%
X196000000Y29050000D03*
%TD*%
D16*
%TO.P,TP7,1,1*%
%TO.N,Net-(JP3-B)*%
X83500000Y14050000D03*
%TD*%
D15*
%TO.P,R33,1*%
%TO.N,/FromBattery*%
X61500000Y-88962500D03*
%TO.P,R33,2*%
%TO.N,/LoadCircuit*%
X61500000Y-86037500D03*
%TD*%
D20*
%TO.P,R11,1*%
%TO.N,/3V3*%
X72000000Y-83587500D03*
%TO.P,R11,2*%
%TO.N,/I2C1_SDA*%
X72000000Y-85412500D03*
%TD*%
D16*
%TO.P,TP17,1,1*%
%TO.N,Net-(U9-BISEN)*%
X348829334Y122760000D03*
%TD*%
D61*
%TO.P,R27,1*%
%TO.N,/FAST_CHARGE_CTRL*%
X196000000Y-122500000D03*
%TO.P,R27,2*%
%TO.N,Net-(Q1-B)*%
X196000000Y-120500000D03*
%TD*%
D16*
%TO.P,TP15,1,1*%
%TO.N,/Motor4_B_OUT*%
X247706834Y46320000D03*
%TD*%
%TO.P,TP8,1,1*%
%TO.N,Net-(U6-FB)*%
X83500000Y10500000D03*
%TD*%
D62*
%TO.P,JP7,1,A*%
%TO.N,Net-(JP7-A)*%
X205000000Y-120850000D03*
%TO.P,JP7,2,B*%
%TO.N,Net-(JP7-B)*%
X205000000Y-122150000D03*
%TD*%
D63*
%TO.P,R19,1*%
%TO.N,Net-(U1-VSET)*%
X122000000Y-97500000D03*
%TO.P,R19,2*%
%TO.N,GND*%
X120000000Y-97500000D03*
%TD*%
D53*
%TO.P,C18,1*%
%TO.N,/9V*%
X108000000Y-89225000D03*
%TO.P,C18,2*%
%TO.N,GND*%
X108000000Y-90775000D03*
%TD*%
D15*
%TO.P,R9,1*%
%TO.N,/FromBattery*%
X51500000Y-88962500D03*
%TO.P,R9,2*%
%TO.N,/LoadCircuit*%
X51500000Y-86037500D03*
%TD*%
D16*
%TO.P,TP18,1,1*%
%TO.N,GND*%
X159500000Y47500000D03*
%TD*%
D53*
%TO.P,C1,1*%
%TO.N,Net-(U3-VINT)*%
X196000000Y32050000D03*
%TO.P,C1,2*%
%TO.N,GND*%
X196000000Y30500000D03*
%TD*%
D54*
%TO.P,C20,1*%
%TO.N,Net-(U2-CE)*%
X210725000Y-128500000D03*
%TO.P,C20,2*%
%TO.N,GND*%
X212275000Y-128500000D03*
%TD*%
D64*
%TO.P,U9,1,NSLEEP*%
%TO.N,/3V3*%
X314100000Y50250000D03*
%TO.P,U9,2,AOUT1*%
%TO.N,/Motor3_A_OUT*%
X314100000Y49600000D03*
%TO.P,U9,3,AISEN*%
%TO.N,Net-(U9-AISEN)*%
X314100000Y48950000D03*
%TO.P,U9,4,AOUT2*%
%TO.N,/Motor3_B_OUT*%
X314100000Y48300000D03*
%TO.P,U9,5,BOUT2*%
%TO.N,/Motor4_B_OUT*%
X314100000Y47650000D03*
%TO.P,U9,6,BISEN*%
%TO.N,Net-(U9-BISEN)*%
X314100000Y47000000D03*
%TO.P,U9,7,BOUT1*%
%TO.N,/Motor4_A_OUT*%
X314100000Y46350000D03*
%TO.P,U9,8,~{NFAULT}*%
%TO.N,unconnected-(U9-~{NFAULT}-Pad8)*%
X314100000Y45700000D03*
%TO.P,U9,9,BIN1*%
%TO.N,/MOTOR4_CTRL1*%
X319900000Y45700000D03*
%TO.P,U9,10,BIN2*%
%TO.N,/MOTOR4_CTRL2*%
X319900000Y46350000D03*
%TO.P,U9,11,VCP*%
%TO.N,Net-(U9-VCP)*%
X319900000Y47000000D03*
%TO.P,U9,12,VM*%
%TO.N,/LoadCircuit*%
X319900000Y47650000D03*
%TO.P,U9,13,GND*%
%TO.N,GND*%
X319900000Y48300000D03*
%TO.P,U9,14,VINT*%
%TO.N,Net-(U9-VINT)*%
X319900000Y48950000D03*
%TO.P,U9,15,AIN2*%
%TO.N,/MOTOR3_CTRL2*%
X319900000Y49600000D03*
%TO.P,U9,16,AIN1*%
%TO.N,/MOTOR3_CTRL1*%
X319900000Y50250000D03*
D65*
%TO.P,U9,17,EXP*%
%TO.N,GND*%
X317000000Y47975000D03*
D66*
%TO.P,U9,18*%
%TO.N,N/C*%
X316000000Y49775000D03*
%TO.P,U9,19*%
X317000000Y49775000D03*
%TO.P,U9,20*%
X318000000Y49775000D03*
%TO.P,U9,21*%
X316000000Y48575000D03*
%TO.P,U9,22*%
X317000000Y48575000D03*
%TO.P,U9,23*%
X318000000Y48575000D03*
%TO.P,U9,24*%
X316000000Y47375000D03*
%TO.P,U9,25*%
X317000000Y47375000D03*
%TO.P,U9,26*%
X318000000Y47375000D03*
%TO.P,U9,27*%
X316000000Y46175000D03*
%TO.P,U9,28*%
X317000000Y46175000D03*
%TO.P,U9,29*%
X318000000Y46175000D03*
%TD*%
D54*
%TO.P,C19,1*%
%TO.N,Net-(JP4-A)*%
X113000000Y-84000000D03*
%TO.P,C19,2*%
%TO.N,GND*%
X114550000Y-84000000D03*
%TD*%
D16*
%TO.P,TP3,1,1*%
%TO.N,/EXT_LOAD2_OUT*%
X129000000Y14500000D03*
%TD*%
D25*
%TO.P,C8,1*%
%TO.N,/LoadCircuit*%
X80500000Y-61550000D03*
%TO.P,C8,2*%
%TO.N,GND*%
X80500000Y-60000000D03*
%TD*%
D16*
%TO.P,TP9,1,1*%
%TO.N,GNDA*%
X83500000Y6950000D03*
%TD*%
D29*
%TO.P,C21,1*%
%TO.N,/ChargingCircuit*%
X215500000Y-128500000D03*
%TO.P,C21,2*%
%TO.N,GND*%
X213950000Y-128500000D03*
%TD*%
D53*
%TO.P,C6,1*%
%TO.N,Net-(U9-VINT)*%
X322100000Y51575000D03*
%TO.P,C6,2*%
%TO.N,GND*%
X322100000Y50025000D03*
%TD*%
D16*
%TO.P,TP1,1,1*%
%TO.N,/FromBattery*%
X279725000Y-32990000D03*
%TD*%
D60*
%TO.P,R12,1*%
%TO.N,Net-(U6-FB)*%
X87500000Y-61325000D03*
%TO.P,R12,2*%
%TO.N,Net-(JP3-B)*%
X87500000Y-59675000D03*
%TD*%
D39*
%TO.P,U5,1,VIN*%
%TO.N,/5V*%
X99245000Y-57550000D03*
%TO.P,U5,2,GND*%
%TO.N,GND*%
X99245000Y-58500000D03*
%TO.P,U5,3,ON*%
%TO.N,/EXT_LOAD1_CTRL*%
X99245000Y-59450000D03*
%TO.P,U5,4,CT*%
%TO.N,unconnected-(U5-CT-Pad4)*%
X101755000Y-59450000D03*
%TO.P,U5,5,QOD*%
%TO.N,unconnected-(U5-QOD-Pad5)*%
X101755000Y-58500000D03*
%TO.P,U5,6,VOUT*%
%TO.N,/EXT_LOAD1_OUT*%
X101755000Y-57550000D03*
%TD*%
D16*
%TO.P,TP13,1,1*%
%TO.N,Net-(U1-VSET)*%
X286825000Y-40090000D03*
%TD*%
D67*
%TO.P,R13,1*%
%TO.N,GNDA*%
X82675000Y-63000000D03*
%TO.P,R13,2*%
%TO.N,Net-(R13-Pad2)*%
X84500000Y-63000000D03*
%TD*%
D16*
%TO.P,TP14,1,1*%
%TO.N,GND*%
X286825000Y-43640000D03*
%TD*%
D64*
%TO.P,U3,1,NSLEEP*%
%TO.N,/3V3*%
X188061834Y31275000D03*
%TO.P,U3,2,AOUT1*%
%TO.N,/Motor1_A_OUT*%
X188061834Y30625000D03*
%TO.P,U3,3,AISEN*%
%TO.N,Net-(JP6-A)*%
X188061834Y29975000D03*
%TO.P,U3,4,AOUT2*%
%TO.N,/Motor1_B_OUT*%
X188061834Y29325000D03*
%TO.P,U3,5,BOUT2*%
%TO.N,/Motor2_B_OUT*%
X188061834Y28675000D03*
%TO.P,U3,6,BISEN*%
%TO.N,Net-(JP5-A)*%
X188061834Y28025000D03*
%TO.P,U3,7,BOUT1*%
%TO.N,/Motor2_A_OUT*%
X188061834Y27375000D03*
%TO.P,U3,8,~{NFAULT}*%
%TO.N,unconnected-(U3-~{NFAULT}-Pad8)*%
X188061834Y26725000D03*
%TO.P,U3,9,BIN1*%
%TO.N,/MOTOR2_CTRL1*%
X193861834Y26725000D03*
%TO.P,U3,10,BIN2*%
%TO.N,/MOTOR2_CTRL2*%
X193861834Y27375000D03*
%TO.P,U3,11,VCP*%
%TO.N,Net-(U3-VCP)*%
X193861834Y28025000D03*
%TO.P,U3,12,VM*%
%TO.N,/LoadCircuit*%
X193861834Y28675000D03*
%TO.P,U3,13,GND*%
%TO.N,GND*%
X193861834Y29325000D03*
%TO.P,U3,14,VINT*%
%TO.N,Net-(U3-VINT)*%
X193861834Y29975000D03*
%TO.P,U3,15,AIN2*%
%TO.N,/MOTOR1_CTRL2*%
X193861834Y30625000D03*
%TO.P,U3,16,AIN1*%
%TO.N,/MOTOR1_CTRL1*%
X193861834Y31275000D03*
D65*
%TO.P,U3,17,EXP*%
%TO.N,GND*%
X190961834Y29000000D03*
D66*
%TO.P,U3,18*%
%TO.N,N/C*%
X189961834Y30800000D03*
%TO.P,U3,19*%
X190961834Y30800000D03*
%TO.P,U3,20*%
X191961834Y30800000D03*
%TO.P,U3,21*%
X189961834Y29600000D03*
%TO.P,U3,22*%
X190961834Y29600000D03*
%TO.P,U3,23*%
X191961834Y29600000D03*
%TO.P,U3,24*%
X189961834Y28400000D03*
%TO.P,U3,25*%
X190961834Y28400000D03*
%TO.P,U3,26*%
X191961834Y28400000D03*
%TO.P,U3,27*%
X189961834Y27200000D03*
%TO.P,U3,28*%
X190961834Y27200000D03*
%TO.P,U3,29*%
X191961834Y27200000D03*
%TD*%
M02*
