%TF.GenerationSoftware,KiCad,Pcbnew,9.0.0*%
%TF.CreationDate,2025-04-08T23:08:21+02:00*%
%TF.ProjectId,MMPOwerBoardKiCAD9Version,4d4d504f-7765-4724-926f-6172644b6943,rev?*%
%TF.SameCoordinates,Original*%
%TF.FileFunction,Soldermask,Top*%
%TF.FilePolarity,Negative*%
%FSLAX46Y46*%
G04 Gerber Fmt 4.6, Leading zero omitted, Abs format (unit mm)*
G04 Created by KiCad (PCBNEW 9.0.0) date 2025-04-08 23:08:21*
%MOMM*%
%LPD*%
G01*
G04 APERTURE LIST*
G04 Aperture macros list*
%AMRoundRect*
0 Rectangle with rounded corners*
0 $1 Rounding radius*
0 $2 $3 $4 $5 $6 $7 $8 $9 X,Y pos of 4 corners*
0 Add a 4 corners polygon primitive as box body*
4,1,4,$2,$3,$4,$5,$6,$7,$8,$9,$2,$3,0*
0 Add four circle primitives for the rounded corners*
1,1,$1+$1,$2,$3*
1,1,$1+$1,$4,$5*
1,1,$1+$1,$6,$7*
1,1,$1+$1,$8,$9*
0 Add four rect primitives between the rounded corners*
20,1,$1+$1,$2,$3,$4,$5,0*
20,1,$1+$1,$4,$5,$6,$7,0*
20,1,$1+$1,$6,$7,$8,$9,0*
20,1,$1+$1,$8,$9,$2,$3,0*%
G04 Aperture macros list end*
%ADD10C,0.010000*%
%ADD11RoundRect,0.081750X-0.770250X-0.245250X0.770250X-0.245250X0.770250X0.245250X-0.770250X0.245250X0*%
%ADD12C,0.650000*%
%ADD13R,1.500000X1.500000*%
%ADD14RoundRect,0.200000X0.275000X-0.200000X0.275000X0.200000X-0.275000X0.200000X-0.275000X-0.200000X0*%
%ADD15RoundRect,0.250000X0.625000X-0.312500X0.625000X0.312500X-0.625000X0.312500X-0.625000X-0.312500X0*%
%ADD16RoundRect,0.243750X0.456250X-0.243750X0.456250X0.243750X-0.456250X0.243750X-0.456250X-0.243750X0*%
%ADD17R,1.500000X1.000000*%
%ADD18RoundRect,0.250000X-0.450000X0.262500X-0.450000X-0.262500X0.450000X-0.262500X0.450000X0.262500X0*%
%ADD19RoundRect,0.102000X-0.450000X0.150000X-0.450000X-0.150000X0.450000X-0.150000X0.450000X0.150000X0*%
%ADD20C,0.844000*%
%ADD21RoundRect,0.102000X-0.150000X0.250000X-0.150000X-0.250000X0.150000X-0.250000X0.150000X0.250000X0*%
%ADD22O,1.904000X1.054000*%
%ADD23RoundRect,0.225000X0.250000X-0.225000X0.250000X0.225000X-0.250000X0.225000X-0.250000X-0.225000X0*%
%ADD24RoundRect,0.237500X0.237500X-0.250000X0.237500X0.250000X-0.237500X0.250000X-0.237500X-0.250000X0*%
%ADD25RoundRect,0.237500X0.250000X0.237500X-0.250000X0.237500X-0.250000X-0.237500X0.250000X-0.237500X0*%
%ADD26RoundRect,0.150000X-0.587500X-0.150000X0.587500X-0.150000X0.587500X0.150000X-0.587500X0.150000X0*%
%ADD27RoundRect,0.225000X0.225000X0.250000X-0.225000X0.250000X-0.225000X-0.250000X0.225000X-0.250000X0*%
%ADD28RoundRect,0.250000X0.312500X0.625000X-0.312500X0.625000X-0.312500X-0.625000X0.312500X-0.625000X0*%
%ADD29RoundRect,0.200000X-0.200000X-0.275000X0.200000X-0.275000X0.200000X0.275000X-0.200000X0.275000X0*%
%ADD30R,1.500000X2.500000*%
%ADD31RoundRect,0.250000X-0.312500X-0.625000X0.312500X-0.625000X0.312500X0.625000X-0.312500X0.625000X0*%
%ADD32RoundRect,0.250000X0.475000X-0.250000X0.475000X0.250000X-0.475000X0.250000X-0.475000X-0.250000X0*%
%ADD33R,0.500000X0.350000*%
%ADD34R,1.000000X1.600000*%
%ADD35RoundRect,0.140000X0.170000X-0.140000X0.170000X0.140000X-0.170000X0.140000X-0.170000X-0.140000X0*%
%ADD36RoundRect,0.098000X-0.609000X-0.294000X0.609000X-0.294000X0.609000X0.294000X-0.609000X0.294000X0*%
%ADD37C,2.300000*%
%ADD38RoundRect,0.100500X0.986500X0.301500X-0.986500X0.301500X-0.986500X-0.301500X0.986500X-0.301500X0*%
%ADD39RoundRect,0.250000X-0.625000X0.312500X-0.625000X-0.312500X0.625000X-0.312500X0.625000X0.312500X0*%
%ADD40RoundRect,0.250000X-0.350000X-0.625000X0.350000X-0.625000X0.350000X0.625000X-0.350000X0.625000X0*%
%ADD41O,1.200000X1.750000*%
%ADD42R,0.800000X0.864000*%
%ADD43RoundRect,0.225000X-0.250000X0.225000X-0.250000X-0.225000X0.250000X-0.225000X0.250000X0.225000X0*%
%ADD44RoundRect,0.225000X-0.225000X-0.250000X0.225000X-0.250000X0.225000X0.250000X-0.225000X0.250000X0*%
%ADD45RoundRect,0.218750X-0.381250X0.218750X-0.381250X-0.218750X0.381250X-0.218750X0.381250X0.218750X0*%
%ADD46R,1.050000X2.465000*%
%ADD47R,3.540000X2.465000*%
%ADD48RoundRect,0.102000X-0.985000X-0.300000X0.985000X-0.300000X0.985000X0.300000X-0.985000X0.300000X0*%
%ADD49RoundRect,0.102000X-1.206500X-1.651000X1.206500X-1.651000X1.206500X1.651000X-1.206500X1.651000X0*%
%ADD50R,4.000000X4.000000*%
%ADD51RoundRect,0.250000X0.450000X-0.350000X0.450000X0.350000X-0.450000X0.350000X-0.450000X-0.350000X0*%
%ADD52RoundRect,0.237500X-0.250000X-0.237500X0.250000X-0.237500X0.250000X0.237500X-0.250000X0.237500X0*%
%ADD53R,1.700000X1.700000*%
%ADD54O,1.700000X1.700000*%
G04 APERTURE END LIST*
D10*
%TO.C,U3*%
X188630000Y-90255000D02*
X186170000Y-90255000D01*
X186170000Y-87945000D01*
X188630000Y-87945000D01*
X188630000Y-90255000D01*
G36*
X188630000Y-90255000D02*
G01*
X186170000Y-90255000D01*
X186170000Y-87945000D01*
X188630000Y-87945000D01*
X188630000Y-90255000D01*
G37*
%TO.C,U9*%
X216130000Y-87380000D02*
X213670000Y-87380000D01*
X213670000Y-85070000D01*
X216130000Y-85070000D01*
X216130000Y-87380000D01*
G36*
X216130000Y-87380000D02*
G01*
X213670000Y-87380000D01*
X213670000Y-85070000D01*
X216130000Y-85070000D01*
X216130000Y-87380000D01*
G37*
%TO.C,JP6*%
G36*
X171250000Y-88950000D02*
G01*
X169750000Y-88950000D01*
X169750000Y-89250000D01*
X171250000Y-89250000D01*
X171250000Y-88950000D01*
G37*
%TO.C,JP1*%
G36*
X184750000Y-72500000D02*
G01*
X183250000Y-72500000D01*
X183250000Y-72800000D01*
X184750000Y-72800000D01*
X184750000Y-72500000D01*
G37*
%TO.C,JP3*%
G36*
X219000000Y-57500000D02*
G01*
X220500000Y-57500000D01*
X220500000Y-57200000D01*
X219000000Y-57200000D01*
X219000000Y-57500000D01*
G37*
%TO.C,JP4*%
G36*
X176750000Y-54000000D02*
G01*
X178250000Y-54000000D01*
X178250000Y-53700000D01*
X176750000Y-53700000D01*
X176750000Y-54000000D01*
G37*
%TO.C,JP5*%
G36*
X173750000Y-88800000D02*
G01*
X172250000Y-88800000D01*
X172250000Y-89100000D01*
X173750000Y-89100000D01*
X173750000Y-88800000D01*
G37*
%TO.C,U4*%
X232263000Y-55806000D02*
X232269000Y-55806000D01*
X232275000Y-55808000D01*
X232281000Y-55809000D01*
X232287000Y-55811000D01*
X232293000Y-55813000D01*
X232299000Y-55815000D01*
X232304000Y-55818000D01*
X232310000Y-55821000D01*
X232315000Y-55824000D01*
X232321000Y-55828000D01*
X232326000Y-55832000D01*
X232330000Y-55836000D01*
X232335000Y-55840000D01*
X232339000Y-55845000D01*
X232343000Y-55849000D01*
X232347000Y-55854000D01*
X232351000Y-55860000D01*
X232354000Y-55865000D01*
X232357000Y-55871000D01*
X232360000Y-55876000D01*
X232362000Y-55882000D01*
X232364000Y-55888000D01*
X232366000Y-55894000D01*
X232367000Y-55900000D01*
X232369000Y-55906000D01*
X232369000Y-55912000D01*
X232370000Y-55919000D01*
X232370000Y-55925000D01*
X232370000Y-56075000D01*
X232370000Y-56081000D01*
X232369000Y-56088000D01*
X232369000Y-56094000D01*
X232367000Y-56100000D01*
X232366000Y-56106000D01*
X232364000Y-56112000D01*
X232362000Y-56118000D01*
X232360000Y-56124000D01*
X232357000Y-56129000D01*
X232354000Y-56135000D01*
X232351000Y-56140000D01*
X232347000Y-56146000D01*
X232343000Y-56151000D01*
X232339000Y-56155000D01*
X232335000Y-56160000D01*
X232330000Y-56164000D01*
X232326000Y-56168000D01*
X232321000Y-56172000D01*
X232315000Y-56176000D01*
X232310000Y-56179000D01*
X232304000Y-56182000D01*
X232299000Y-56185000D01*
X232293000Y-56187000D01*
X232287000Y-56189000D01*
X232281000Y-56191000D01*
X232275000Y-56192000D01*
X232269000Y-56194000D01*
X232263000Y-56194000D01*
X232256000Y-56195000D01*
X232250000Y-56195000D01*
X231750000Y-56195000D01*
X231744000Y-56195000D01*
X231737000Y-56194000D01*
X231731000Y-56194000D01*
X231725000Y-56192000D01*
X231719000Y-56191000D01*
X231713000Y-56189000D01*
X231707000Y-56187000D01*
X231701000Y-56185000D01*
X231696000Y-56182000D01*
X231690000Y-56179000D01*
X231685000Y-56176000D01*
X231679000Y-56172000D01*
X231674000Y-56168000D01*
X231670000Y-56164000D01*
X231665000Y-56160000D01*
X231661000Y-56155000D01*
X231657000Y-56151000D01*
X231653000Y-56146000D01*
X231649000Y-56140000D01*
X231646000Y-56135000D01*
X231643000Y-56129000D01*
X231640000Y-56124000D01*
X231638000Y-56118000D01*
X231636000Y-56112000D01*
X231634000Y-56106000D01*
X231633000Y-56100000D01*
X231631000Y-56094000D01*
X231631000Y-56088000D01*
X231630000Y-56081000D01*
X231630000Y-56075000D01*
X231630000Y-55925000D01*
X231630000Y-55919000D01*
X231631000Y-55912000D01*
X231631000Y-55906000D01*
X231633000Y-55900000D01*
X231634000Y-55894000D01*
X231636000Y-55888000D01*
X231638000Y-55882000D01*
X231640000Y-55876000D01*
X231643000Y-55871000D01*
X231646000Y-55865000D01*
X231649000Y-55860000D01*
X231653000Y-55854000D01*
X231657000Y-55849000D01*
X231661000Y-55845000D01*
X231665000Y-55840000D01*
X231670000Y-55836000D01*
X231674000Y-55832000D01*
X231679000Y-55828000D01*
X231685000Y-55824000D01*
X231690000Y-55821000D01*
X231696000Y-55818000D01*
X231701000Y-55815000D01*
X231707000Y-55813000D01*
X231713000Y-55811000D01*
X231719000Y-55809000D01*
X231725000Y-55808000D01*
X231731000Y-55806000D01*
X231737000Y-55806000D01*
X231744000Y-55805000D01*
X231750000Y-55805000D01*
X232250000Y-55805000D01*
X232256000Y-55805000D01*
X232263000Y-55806000D01*
G36*
X232263000Y-55806000D02*
G01*
X232269000Y-55806000D01*
X232275000Y-55808000D01*
X232281000Y-55809000D01*
X232287000Y-55811000D01*
X232293000Y-55813000D01*
X232299000Y-55815000D01*
X232304000Y-55818000D01*
X232310000Y-55821000D01*
X232315000Y-55824000D01*
X232321000Y-55828000D01*
X232326000Y-55832000D01*
X232330000Y-55836000D01*
X232335000Y-55840000D01*
X232339000Y-55845000D01*
X232343000Y-55849000D01*
X232347000Y-55854000D01*
X232351000Y-55860000D01*
X232354000Y-55865000D01*
X232357000Y-55871000D01*
X232360000Y-55876000D01*
X232362000Y-55882000D01*
X232364000Y-55888000D01*
X232366000Y-55894000D01*
X232367000Y-55900000D01*
X232369000Y-55906000D01*
X232369000Y-55912000D01*
X232370000Y-55919000D01*
X232370000Y-55925000D01*
X232370000Y-56075000D01*
X232370000Y-56081000D01*
X232369000Y-56088000D01*
X232369000Y-56094000D01*
X232367000Y-56100000D01*
X232366000Y-56106000D01*
X232364000Y-56112000D01*
X232362000Y-56118000D01*
X232360000Y-56124000D01*
X232357000Y-56129000D01*
X232354000Y-56135000D01*
X232351000Y-56140000D01*
X232347000Y-56146000D01*
X232343000Y-56151000D01*
X232339000Y-56155000D01*
X232335000Y-56160000D01*
X232330000Y-56164000D01*
X232326000Y-56168000D01*
X232321000Y-56172000D01*
X232315000Y-56176000D01*
X232310000Y-56179000D01*
X232304000Y-56182000D01*
X232299000Y-56185000D01*
X232293000Y-56187000D01*
X232287000Y-56189000D01*
X232281000Y-56191000D01*
X232275000Y-56192000D01*
X232269000Y-56194000D01*
X232263000Y-56194000D01*
X232256000Y-56195000D01*
X232250000Y-56195000D01*
X231750000Y-56195000D01*
X231744000Y-56195000D01*
X231737000Y-56194000D01*
X231731000Y-56194000D01*
X231725000Y-56192000D01*
X231719000Y-56191000D01*
X231713000Y-56189000D01*
X231707000Y-56187000D01*
X231701000Y-56185000D01*
X231696000Y-56182000D01*
X231690000Y-56179000D01*
X231685000Y-56176000D01*
X231679000Y-56172000D01*
X231674000Y-56168000D01*
X231670000Y-56164000D01*
X231665000Y-56160000D01*
X231661000Y-56155000D01*
X231657000Y-56151000D01*
X231653000Y-56146000D01*
X231649000Y-56140000D01*
X231646000Y-56135000D01*
X231643000Y-56129000D01*
X231640000Y-56124000D01*
X231638000Y-56118000D01*
X231636000Y-56112000D01*
X231634000Y-56106000D01*
X231633000Y-56100000D01*
X231631000Y-56094000D01*
X231631000Y-56088000D01*
X231630000Y-56081000D01*
X231630000Y-56075000D01*
X231630000Y-55925000D01*
X231630000Y-55919000D01*
X231631000Y-55912000D01*
X231631000Y-55906000D01*
X231633000Y-55900000D01*
X231634000Y-55894000D01*
X231636000Y-55888000D01*
X231638000Y-55882000D01*
X231640000Y-55876000D01*
X231643000Y-55871000D01*
X231646000Y-55865000D01*
X231649000Y-55860000D01*
X231653000Y-55854000D01*
X231657000Y-55849000D01*
X231661000Y-55845000D01*
X231665000Y-55840000D01*
X231670000Y-55836000D01*
X231674000Y-55832000D01*
X231679000Y-55828000D01*
X231685000Y-55824000D01*
X231690000Y-55821000D01*
X231696000Y-55818000D01*
X231701000Y-55815000D01*
X231707000Y-55813000D01*
X231713000Y-55811000D01*
X231719000Y-55809000D01*
X231725000Y-55808000D01*
X231731000Y-55806000D01*
X231737000Y-55806000D01*
X231744000Y-55805000D01*
X231750000Y-55805000D01*
X232250000Y-55805000D01*
X232256000Y-55805000D01*
X232263000Y-55806000D01*
G37*
X232263000Y-56306000D02*
X232269000Y-56306000D01*
X232275000Y-56308000D01*
X232281000Y-56309000D01*
X232287000Y-56311000D01*
X232293000Y-56313000D01*
X232299000Y-56315000D01*
X232304000Y-56318000D01*
X232310000Y-56321000D01*
X232315000Y-56324000D01*
X232321000Y-56328000D01*
X232326000Y-56332000D01*
X232330000Y-56336000D01*
X232335000Y-56340000D01*
X232339000Y-56345000D01*
X232343000Y-56349000D01*
X232347000Y-56354000D01*
X232351000Y-56360000D01*
X232354000Y-56365000D01*
X232357000Y-56371000D01*
X232360000Y-56376000D01*
X232362000Y-56382000D01*
X232364000Y-56388000D01*
X232366000Y-56394000D01*
X232367000Y-56400000D01*
X232369000Y-56406000D01*
X232369000Y-56412000D01*
X232370000Y-56419000D01*
X232370000Y-56425000D01*
X232370000Y-56575000D01*
X232370000Y-56581000D01*
X232369000Y-56588000D01*
X232369000Y-56594000D01*
X232367000Y-56600000D01*
X232366000Y-56606000D01*
X232364000Y-56612000D01*
X232362000Y-56618000D01*
X232360000Y-56624000D01*
X232357000Y-56629000D01*
X232354000Y-56635000D01*
X232351000Y-56640000D01*
X232347000Y-56646000D01*
X232343000Y-56651000D01*
X232339000Y-56655000D01*
X232335000Y-56660000D01*
X232330000Y-56664000D01*
X232326000Y-56668000D01*
X232321000Y-56672000D01*
X232315000Y-56676000D01*
X232310000Y-56679000D01*
X232304000Y-56682000D01*
X232299000Y-56685000D01*
X232293000Y-56687000D01*
X232287000Y-56689000D01*
X232281000Y-56691000D01*
X232275000Y-56692000D01*
X232269000Y-56694000D01*
X232263000Y-56694000D01*
X232256000Y-56695000D01*
X232250000Y-56695000D01*
X231750000Y-56695000D01*
X231744000Y-56695000D01*
X231737000Y-56694000D01*
X231731000Y-56694000D01*
X231725000Y-56692000D01*
X231719000Y-56691000D01*
X231713000Y-56689000D01*
X231707000Y-56687000D01*
X231701000Y-56685000D01*
X231696000Y-56682000D01*
X231690000Y-56679000D01*
X231685000Y-56676000D01*
X231679000Y-56672000D01*
X231674000Y-56668000D01*
X231670000Y-56664000D01*
X231665000Y-56660000D01*
X231661000Y-56655000D01*
X231657000Y-56651000D01*
X231653000Y-56646000D01*
X231649000Y-56640000D01*
X231646000Y-56635000D01*
X231643000Y-56629000D01*
X231640000Y-56624000D01*
X231638000Y-56618000D01*
X231636000Y-56612000D01*
X231634000Y-56606000D01*
X231633000Y-56600000D01*
X231631000Y-56594000D01*
X231631000Y-56588000D01*
X231630000Y-56581000D01*
X231630000Y-56575000D01*
X231630000Y-56425000D01*
X231630000Y-56419000D01*
X231631000Y-56412000D01*
X231631000Y-56406000D01*
X231633000Y-56400000D01*
X231634000Y-56394000D01*
X231636000Y-56388000D01*
X231638000Y-56382000D01*
X231640000Y-56376000D01*
X231643000Y-56371000D01*
X231646000Y-56365000D01*
X231649000Y-56360000D01*
X231653000Y-56354000D01*
X231657000Y-56349000D01*
X231661000Y-56345000D01*
X231665000Y-56340000D01*
X231670000Y-56336000D01*
X231674000Y-56332000D01*
X231679000Y-56328000D01*
X231685000Y-56324000D01*
X231690000Y-56321000D01*
X231696000Y-56318000D01*
X231701000Y-56315000D01*
X231707000Y-56313000D01*
X231713000Y-56311000D01*
X231719000Y-56309000D01*
X231725000Y-56308000D01*
X231731000Y-56306000D01*
X231737000Y-56306000D01*
X231744000Y-56305000D01*
X231750000Y-56305000D01*
X232250000Y-56305000D01*
X232256000Y-56305000D01*
X232263000Y-56306000D01*
G36*
X232263000Y-56306000D02*
G01*
X232269000Y-56306000D01*
X232275000Y-56308000D01*
X232281000Y-56309000D01*
X232287000Y-56311000D01*
X232293000Y-56313000D01*
X232299000Y-56315000D01*
X232304000Y-56318000D01*
X232310000Y-56321000D01*
X232315000Y-56324000D01*
X232321000Y-56328000D01*
X232326000Y-56332000D01*
X232330000Y-56336000D01*
X232335000Y-56340000D01*
X232339000Y-56345000D01*
X232343000Y-56349000D01*
X232347000Y-56354000D01*
X232351000Y-56360000D01*
X232354000Y-56365000D01*
X232357000Y-56371000D01*
X232360000Y-56376000D01*
X232362000Y-56382000D01*
X232364000Y-56388000D01*
X232366000Y-56394000D01*
X232367000Y-56400000D01*
X232369000Y-56406000D01*
X232369000Y-56412000D01*
X232370000Y-56419000D01*
X232370000Y-56425000D01*
X232370000Y-56575000D01*
X232370000Y-56581000D01*
X232369000Y-56588000D01*
X232369000Y-56594000D01*
X232367000Y-56600000D01*
X232366000Y-56606000D01*
X232364000Y-56612000D01*
X232362000Y-56618000D01*
X232360000Y-56624000D01*
X232357000Y-56629000D01*
X232354000Y-56635000D01*
X232351000Y-56640000D01*
X232347000Y-56646000D01*
X232343000Y-56651000D01*
X232339000Y-56655000D01*
X232335000Y-56660000D01*
X232330000Y-56664000D01*
X232326000Y-56668000D01*
X232321000Y-56672000D01*
X232315000Y-56676000D01*
X232310000Y-56679000D01*
X232304000Y-56682000D01*
X232299000Y-56685000D01*
X232293000Y-56687000D01*
X232287000Y-56689000D01*
X232281000Y-56691000D01*
X232275000Y-56692000D01*
X232269000Y-56694000D01*
X232263000Y-56694000D01*
X232256000Y-56695000D01*
X232250000Y-56695000D01*
X231750000Y-56695000D01*
X231744000Y-56695000D01*
X231737000Y-56694000D01*
X231731000Y-56694000D01*
X231725000Y-56692000D01*
X231719000Y-56691000D01*
X231713000Y-56689000D01*
X231707000Y-56687000D01*
X231701000Y-56685000D01*
X231696000Y-56682000D01*
X231690000Y-56679000D01*
X231685000Y-56676000D01*
X231679000Y-56672000D01*
X231674000Y-56668000D01*
X231670000Y-56664000D01*
X231665000Y-56660000D01*
X231661000Y-56655000D01*
X231657000Y-56651000D01*
X231653000Y-56646000D01*
X231649000Y-56640000D01*
X231646000Y-56635000D01*
X231643000Y-56629000D01*
X231640000Y-56624000D01*
X231638000Y-56618000D01*
X231636000Y-56612000D01*
X231634000Y-56606000D01*
X231633000Y-56600000D01*
X231631000Y-56594000D01*
X231631000Y-56588000D01*
X231630000Y-56581000D01*
X231630000Y-56575000D01*
X231630000Y-56425000D01*
X231630000Y-56419000D01*
X231631000Y-56412000D01*
X231631000Y-56406000D01*
X231633000Y-56400000D01*
X231634000Y-56394000D01*
X231636000Y-56388000D01*
X231638000Y-56382000D01*
X231640000Y-56376000D01*
X231643000Y-56371000D01*
X231646000Y-56365000D01*
X231649000Y-56360000D01*
X231653000Y-56354000D01*
X231657000Y-56349000D01*
X231661000Y-56345000D01*
X231665000Y-56340000D01*
X231670000Y-56336000D01*
X231674000Y-56332000D01*
X231679000Y-56328000D01*
X231685000Y-56324000D01*
X231690000Y-56321000D01*
X231696000Y-56318000D01*
X231701000Y-56315000D01*
X231707000Y-56313000D01*
X231713000Y-56311000D01*
X231719000Y-56309000D01*
X231725000Y-56308000D01*
X231731000Y-56306000D01*
X231737000Y-56306000D01*
X231744000Y-56305000D01*
X231750000Y-56305000D01*
X232250000Y-56305000D01*
X232256000Y-56305000D01*
X232263000Y-56306000D01*
G37*
X232263000Y-56806000D02*
X232269000Y-56806000D01*
X232275000Y-56808000D01*
X232281000Y-56809000D01*
X232287000Y-56811000D01*
X232293000Y-56813000D01*
X232299000Y-56815000D01*
X232304000Y-56818000D01*
X232310000Y-56821000D01*
X232315000Y-56824000D01*
X232321000Y-56828000D01*
X232326000Y-56832000D01*
X232330000Y-56836000D01*
X232335000Y-56840000D01*
X232339000Y-56845000D01*
X232343000Y-56849000D01*
X232347000Y-56854000D01*
X232351000Y-56860000D01*
X232354000Y-56865000D01*
X232357000Y-56871000D01*
X232360000Y-56876000D01*
X232362000Y-56882000D01*
X232364000Y-56888000D01*
X232366000Y-56894000D01*
X232367000Y-56900000D01*
X232369000Y-56906000D01*
X232369000Y-56912000D01*
X232370000Y-56919000D01*
X232370000Y-56925000D01*
X232370000Y-57075000D01*
X232370000Y-57081000D01*
X232369000Y-57088000D01*
X232369000Y-57094000D01*
X232367000Y-57100000D01*
X232366000Y-57106000D01*
X232364000Y-57112000D01*
X232362000Y-57118000D01*
X232360000Y-57124000D01*
X232357000Y-57129000D01*
X232354000Y-57135000D01*
X232351000Y-57140000D01*
X232347000Y-57146000D01*
X232343000Y-57151000D01*
X232339000Y-57155000D01*
X232335000Y-57160000D01*
X232330000Y-57164000D01*
X232326000Y-57168000D01*
X232321000Y-57172000D01*
X232315000Y-57176000D01*
X232310000Y-57179000D01*
X232304000Y-57182000D01*
X232299000Y-57185000D01*
X232293000Y-57187000D01*
X232287000Y-57189000D01*
X232281000Y-57191000D01*
X232275000Y-57192000D01*
X232269000Y-57194000D01*
X232263000Y-57194000D01*
X232256000Y-57195000D01*
X232250000Y-57195000D01*
X231750000Y-57195000D01*
X231744000Y-57195000D01*
X231737000Y-57194000D01*
X231731000Y-57194000D01*
X231725000Y-57192000D01*
X231719000Y-57191000D01*
X231713000Y-57189000D01*
X231707000Y-57187000D01*
X231701000Y-57185000D01*
X231696000Y-57182000D01*
X231690000Y-57179000D01*
X231685000Y-57176000D01*
X231679000Y-57172000D01*
X231674000Y-57168000D01*
X231670000Y-57164000D01*
X231665000Y-57160000D01*
X231661000Y-57155000D01*
X231657000Y-57151000D01*
X231653000Y-57146000D01*
X231649000Y-57140000D01*
X231646000Y-57135000D01*
X231643000Y-57129000D01*
X231640000Y-57124000D01*
X231638000Y-57118000D01*
X231636000Y-57112000D01*
X231634000Y-57106000D01*
X231633000Y-57100000D01*
X231631000Y-57094000D01*
X231631000Y-57088000D01*
X231630000Y-57081000D01*
X231630000Y-57075000D01*
X231630000Y-56925000D01*
X231630000Y-56919000D01*
X231631000Y-56912000D01*
X231631000Y-56906000D01*
X231633000Y-56900000D01*
X231634000Y-56894000D01*
X231636000Y-56888000D01*
X231638000Y-56882000D01*
X231640000Y-56876000D01*
X231643000Y-56871000D01*
X231646000Y-56865000D01*
X231649000Y-56860000D01*
X231653000Y-56854000D01*
X231657000Y-56849000D01*
X231661000Y-56845000D01*
X231665000Y-56840000D01*
X231670000Y-56836000D01*
X231674000Y-56832000D01*
X231679000Y-56828000D01*
X231685000Y-56824000D01*
X231690000Y-56821000D01*
X231696000Y-56818000D01*
X231701000Y-56815000D01*
X231707000Y-56813000D01*
X231713000Y-56811000D01*
X231719000Y-56809000D01*
X231725000Y-56808000D01*
X231731000Y-56806000D01*
X231737000Y-56806000D01*
X231744000Y-56805000D01*
X231750000Y-56805000D01*
X232250000Y-56805000D01*
X232256000Y-56805000D01*
X232263000Y-56806000D01*
G36*
X232263000Y-56806000D02*
G01*
X232269000Y-56806000D01*
X232275000Y-56808000D01*
X232281000Y-56809000D01*
X232287000Y-56811000D01*
X232293000Y-56813000D01*
X232299000Y-56815000D01*
X232304000Y-56818000D01*
X232310000Y-56821000D01*
X232315000Y-56824000D01*
X232321000Y-56828000D01*
X232326000Y-56832000D01*
X232330000Y-56836000D01*
X232335000Y-56840000D01*
X232339000Y-56845000D01*
X232343000Y-56849000D01*
X232347000Y-56854000D01*
X232351000Y-56860000D01*
X232354000Y-56865000D01*
X232357000Y-56871000D01*
X232360000Y-56876000D01*
X232362000Y-56882000D01*
X232364000Y-56888000D01*
X232366000Y-56894000D01*
X232367000Y-56900000D01*
X232369000Y-56906000D01*
X232369000Y-56912000D01*
X232370000Y-56919000D01*
X232370000Y-56925000D01*
X232370000Y-57075000D01*
X232370000Y-57081000D01*
X232369000Y-57088000D01*
X232369000Y-57094000D01*
X232367000Y-57100000D01*
X232366000Y-57106000D01*
X232364000Y-57112000D01*
X232362000Y-57118000D01*
X232360000Y-57124000D01*
X232357000Y-57129000D01*
X232354000Y-57135000D01*
X232351000Y-57140000D01*
X232347000Y-57146000D01*
X232343000Y-57151000D01*
X232339000Y-57155000D01*
X232335000Y-57160000D01*
X232330000Y-57164000D01*
X232326000Y-57168000D01*
X232321000Y-57172000D01*
X232315000Y-57176000D01*
X232310000Y-57179000D01*
X232304000Y-57182000D01*
X232299000Y-57185000D01*
X232293000Y-57187000D01*
X232287000Y-57189000D01*
X232281000Y-57191000D01*
X232275000Y-57192000D01*
X232269000Y-57194000D01*
X232263000Y-57194000D01*
X232256000Y-57195000D01*
X232250000Y-57195000D01*
X231750000Y-57195000D01*
X231744000Y-57195000D01*
X231737000Y-57194000D01*
X231731000Y-57194000D01*
X231725000Y-57192000D01*
X231719000Y-57191000D01*
X231713000Y-57189000D01*
X231707000Y-57187000D01*
X231701000Y-57185000D01*
X231696000Y-57182000D01*
X231690000Y-57179000D01*
X231685000Y-57176000D01*
X231679000Y-57172000D01*
X231674000Y-57168000D01*
X231670000Y-57164000D01*
X231665000Y-57160000D01*
X231661000Y-57155000D01*
X231657000Y-57151000D01*
X231653000Y-57146000D01*
X231649000Y-57140000D01*
X231646000Y-57135000D01*
X231643000Y-57129000D01*
X231640000Y-57124000D01*
X231638000Y-57118000D01*
X231636000Y-57112000D01*
X231634000Y-57106000D01*
X231633000Y-57100000D01*
X231631000Y-57094000D01*
X231631000Y-57088000D01*
X231630000Y-57081000D01*
X231630000Y-57075000D01*
X231630000Y-56925000D01*
X231630000Y-56919000D01*
X231631000Y-56912000D01*
X231631000Y-56906000D01*
X231633000Y-56900000D01*
X231634000Y-56894000D01*
X231636000Y-56888000D01*
X231638000Y-56882000D01*
X231640000Y-56876000D01*
X231643000Y-56871000D01*
X231646000Y-56865000D01*
X231649000Y-56860000D01*
X231653000Y-56854000D01*
X231657000Y-56849000D01*
X231661000Y-56845000D01*
X231665000Y-56840000D01*
X231670000Y-56836000D01*
X231674000Y-56832000D01*
X231679000Y-56828000D01*
X231685000Y-56824000D01*
X231690000Y-56821000D01*
X231696000Y-56818000D01*
X231701000Y-56815000D01*
X231707000Y-56813000D01*
X231713000Y-56811000D01*
X231719000Y-56809000D01*
X231725000Y-56808000D01*
X231731000Y-56806000D01*
X231737000Y-56806000D01*
X231744000Y-56805000D01*
X231750000Y-56805000D01*
X232250000Y-56805000D01*
X232256000Y-56805000D01*
X232263000Y-56806000D01*
G37*
X232263000Y-57306000D02*
X232269000Y-57306000D01*
X232275000Y-57308000D01*
X232281000Y-57309000D01*
X232287000Y-57311000D01*
X232293000Y-57313000D01*
X232299000Y-57315000D01*
X232304000Y-57318000D01*
X232310000Y-57321000D01*
X232315000Y-57324000D01*
X232321000Y-57328000D01*
X232326000Y-57332000D01*
X232330000Y-57336000D01*
X232335000Y-57340000D01*
X232339000Y-57345000D01*
X232343000Y-57349000D01*
X232347000Y-57354000D01*
X232351000Y-57360000D01*
X232354000Y-57365000D01*
X232357000Y-57371000D01*
X232360000Y-57376000D01*
X232362000Y-57382000D01*
X232364000Y-57388000D01*
X232366000Y-57394000D01*
X232367000Y-57400000D01*
X232369000Y-57406000D01*
X232369000Y-57412000D01*
X232370000Y-57419000D01*
X232370000Y-57425000D01*
X232370000Y-57575000D01*
X232370000Y-57581000D01*
X232369000Y-57588000D01*
X232369000Y-57594000D01*
X232367000Y-57600000D01*
X232366000Y-57606000D01*
X232364000Y-57612000D01*
X232362000Y-57618000D01*
X232360000Y-57624000D01*
X232357000Y-57629000D01*
X232354000Y-57635000D01*
X232351000Y-57640000D01*
X232347000Y-57646000D01*
X232343000Y-57651000D01*
X232339000Y-57655000D01*
X232335000Y-57660000D01*
X232330000Y-57664000D01*
X232326000Y-57668000D01*
X232321000Y-57672000D01*
X232315000Y-57676000D01*
X232310000Y-57679000D01*
X232304000Y-57682000D01*
X232299000Y-57685000D01*
X232293000Y-57687000D01*
X232287000Y-57689000D01*
X232281000Y-57691000D01*
X232275000Y-57692000D01*
X232269000Y-57694000D01*
X232263000Y-57694000D01*
X232256000Y-57695000D01*
X232250000Y-57695000D01*
X231750000Y-57695000D01*
X231744000Y-57695000D01*
X231737000Y-57694000D01*
X231731000Y-57694000D01*
X231725000Y-57692000D01*
X231719000Y-57691000D01*
X231713000Y-57689000D01*
X231707000Y-57687000D01*
X231701000Y-57685000D01*
X231696000Y-57682000D01*
X231690000Y-57679000D01*
X231685000Y-57676000D01*
X231679000Y-57672000D01*
X231674000Y-57668000D01*
X231670000Y-57664000D01*
X231665000Y-57660000D01*
X231661000Y-57655000D01*
X231657000Y-57651000D01*
X231653000Y-57646000D01*
X231649000Y-57640000D01*
X231646000Y-57635000D01*
X231643000Y-57629000D01*
X231640000Y-57624000D01*
X231638000Y-57618000D01*
X231636000Y-57612000D01*
X231634000Y-57606000D01*
X231633000Y-57600000D01*
X231631000Y-57594000D01*
X231631000Y-57588000D01*
X231630000Y-57581000D01*
X231630000Y-57575000D01*
X231630000Y-57425000D01*
X231630000Y-57419000D01*
X231631000Y-57412000D01*
X231631000Y-57406000D01*
X231633000Y-57400000D01*
X231634000Y-57394000D01*
X231636000Y-57388000D01*
X231638000Y-57382000D01*
X231640000Y-57376000D01*
X231643000Y-57371000D01*
X231646000Y-57365000D01*
X231649000Y-57360000D01*
X231653000Y-57354000D01*
X231657000Y-57349000D01*
X231661000Y-57345000D01*
X231665000Y-57340000D01*
X231670000Y-57336000D01*
X231674000Y-57332000D01*
X231679000Y-57328000D01*
X231685000Y-57324000D01*
X231690000Y-57321000D01*
X231696000Y-57318000D01*
X231701000Y-57315000D01*
X231707000Y-57313000D01*
X231713000Y-57311000D01*
X231719000Y-57309000D01*
X231725000Y-57308000D01*
X231731000Y-57306000D01*
X231737000Y-57306000D01*
X231744000Y-57305000D01*
X231750000Y-57305000D01*
X232250000Y-57305000D01*
X232256000Y-57305000D01*
X232263000Y-57306000D01*
G36*
X232263000Y-57306000D02*
G01*
X232269000Y-57306000D01*
X232275000Y-57308000D01*
X232281000Y-57309000D01*
X232287000Y-57311000D01*
X232293000Y-57313000D01*
X232299000Y-57315000D01*
X232304000Y-57318000D01*
X232310000Y-57321000D01*
X232315000Y-57324000D01*
X232321000Y-57328000D01*
X232326000Y-57332000D01*
X232330000Y-57336000D01*
X232335000Y-57340000D01*
X232339000Y-57345000D01*
X232343000Y-57349000D01*
X232347000Y-57354000D01*
X232351000Y-57360000D01*
X232354000Y-57365000D01*
X232357000Y-57371000D01*
X232360000Y-57376000D01*
X232362000Y-57382000D01*
X232364000Y-57388000D01*
X232366000Y-57394000D01*
X232367000Y-57400000D01*
X232369000Y-57406000D01*
X232369000Y-57412000D01*
X232370000Y-57419000D01*
X232370000Y-57425000D01*
X232370000Y-57575000D01*
X232370000Y-57581000D01*
X232369000Y-57588000D01*
X232369000Y-57594000D01*
X232367000Y-57600000D01*
X232366000Y-57606000D01*
X232364000Y-57612000D01*
X232362000Y-57618000D01*
X232360000Y-57624000D01*
X232357000Y-57629000D01*
X232354000Y-57635000D01*
X232351000Y-57640000D01*
X232347000Y-57646000D01*
X232343000Y-57651000D01*
X232339000Y-57655000D01*
X232335000Y-57660000D01*
X232330000Y-57664000D01*
X232326000Y-57668000D01*
X232321000Y-57672000D01*
X232315000Y-57676000D01*
X232310000Y-57679000D01*
X232304000Y-57682000D01*
X232299000Y-57685000D01*
X232293000Y-57687000D01*
X232287000Y-57689000D01*
X232281000Y-57691000D01*
X232275000Y-57692000D01*
X232269000Y-57694000D01*
X232263000Y-57694000D01*
X232256000Y-57695000D01*
X232250000Y-57695000D01*
X231750000Y-57695000D01*
X231744000Y-57695000D01*
X231737000Y-57694000D01*
X231731000Y-57694000D01*
X231725000Y-57692000D01*
X231719000Y-57691000D01*
X231713000Y-57689000D01*
X231707000Y-57687000D01*
X231701000Y-57685000D01*
X231696000Y-57682000D01*
X231690000Y-57679000D01*
X231685000Y-57676000D01*
X231679000Y-57672000D01*
X231674000Y-57668000D01*
X231670000Y-57664000D01*
X231665000Y-57660000D01*
X231661000Y-57655000D01*
X231657000Y-57651000D01*
X231653000Y-57646000D01*
X231649000Y-57640000D01*
X231646000Y-57635000D01*
X231643000Y-57629000D01*
X231640000Y-57624000D01*
X231638000Y-57618000D01*
X231636000Y-57612000D01*
X231634000Y-57606000D01*
X231633000Y-57600000D01*
X231631000Y-57594000D01*
X231631000Y-57588000D01*
X231630000Y-57581000D01*
X231630000Y-57575000D01*
X231630000Y-57425000D01*
X231630000Y-57419000D01*
X231631000Y-57412000D01*
X231631000Y-57406000D01*
X231633000Y-57400000D01*
X231634000Y-57394000D01*
X231636000Y-57388000D01*
X231638000Y-57382000D01*
X231640000Y-57376000D01*
X231643000Y-57371000D01*
X231646000Y-57365000D01*
X231649000Y-57360000D01*
X231653000Y-57354000D01*
X231657000Y-57349000D01*
X231661000Y-57345000D01*
X231665000Y-57340000D01*
X231670000Y-57336000D01*
X231674000Y-57332000D01*
X231679000Y-57328000D01*
X231685000Y-57324000D01*
X231690000Y-57321000D01*
X231696000Y-57318000D01*
X231701000Y-57315000D01*
X231707000Y-57313000D01*
X231713000Y-57311000D01*
X231719000Y-57309000D01*
X231725000Y-57308000D01*
X231731000Y-57306000D01*
X231737000Y-57306000D01*
X231744000Y-57305000D01*
X231750000Y-57305000D01*
X232250000Y-57305000D01*
X232256000Y-57305000D01*
X232263000Y-57306000D01*
G37*
X232263000Y-57806000D02*
X232269000Y-57806000D01*
X232275000Y-57808000D01*
X232281000Y-57809000D01*
X232287000Y-57811000D01*
X232293000Y-57813000D01*
X232299000Y-57815000D01*
X232304000Y-57818000D01*
X232310000Y-57821000D01*
X232315000Y-57824000D01*
X232321000Y-57828000D01*
X232326000Y-57832000D01*
X232330000Y-57836000D01*
X232335000Y-57840000D01*
X232339000Y-57845000D01*
X232343000Y-57849000D01*
X232347000Y-57854000D01*
X232351000Y-57860000D01*
X232354000Y-57865000D01*
X232357000Y-57871000D01*
X232360000Y-57876000D01*
X232362000Y-57882000D01*
X232364000Y-57888000D01*
X232366000Y-57894000D01*
X232367000Y-57900000D01*
X232369000Y-57906000D01*
X232369000Y-57912000D01*
X232370000Y-57919000D01*
X232370000Y-57925000D01*
X232370000Y-58075000D01*
X232370000Y-58081000D01*
X232369000Y-58088000D01*
X232369000Y-58094000D01*
X232367000Y-58100000D01*
X232366000Y-58106000D01*
X232364000Y-58112000D01*
X232362000Y-58118000D01*
X232360000Y-58124000D01*
X232357000Y-58129000D01*
X232354000Y-58135000D01*
X232351000Y-58140000D01*
X232347000Y-58146000D01*
X232343000Y-58151000D01*
X232339000Y-58155000D01*
X232335000Y-58160000D01*
X232330000Y-58164000D01*
X232326000Y-58168000D01*
X232321000Y-58172000D01*
X232315000Y-58176000D01*
X232310000Y-58179000D01*
X232304000Y-58182000D01*
X232299000Y-58185000D01*
X232293000Y-58187000D01*
X232287000Y-58189000D01*
X232281000Y-58191000D01*
X232275000Y-58192000D01*
X232269000Y-58194000D01*
X232263000Y-58194000D01*
X232256000Y-58195000D01*
X232250000Y-58195000D01*
X231750000Y-58195000D01*
X231744000Y-58195000D01*
X231737000Y-58194000D01*
X231731000Y-58194000D01*
X231725000Y-58192000D01*
X231719000Y-58191000D01*
X231713000Y-58189000D01*
X231707000Y-58187000D01*
X231701000Y-58185000D01*
X231696000Y-58182000D01*
X231690000Y-58179000D01*
X231685000Y-58176000D01*
X231679000Y-58172000D01*
X231674000Y-58168000D01*
X231670000Y-58164000D01*
X231665000Y-58160000D01*
X231661000Y-58155000D01*
X231657000Y-58151000D01*
X231653000Y-58146000D01*
X231649000Y-58140000D01*
X231646000Y-58135000D01*
X231643000Y-58129000D01*
X231640000Y-58124000D01*
X231638000Y-58118000D01*
X231636000Y-58112000D01*
X231634000Y-58106000D01*
X231633000Y-58100000D01*
X231631000Y-58094000D01*
X231631000Y-58088000D01*
X231630000Y-58081000D01*
X231630000Y-58075000D01*
X231630000Y-57925000D01*
X231630000Y-57919000D01*
X231631000Y-57912000D01*
X231631000Y-57906000D01*
X231633000Y-57900000D01*
X231634000Y-57894000D01*
X231636000Y-57888000D01*
X231638000Y-57882000D01*
X231640000Y-57876000D01*
X231643000Y-57871000D01*
X231646000Y-57865000D01*
X231649000Y-57860000D01*
X231653000Y-57854000D01*
X231657000Y-57849000D01*
X231661000Y-57845000D01*
X231665000Y-57840000D01*
X231670000Y-57836000D01*
X231674000Y-57832000D01*
X231679000Y-57828000D01*
X231685000Y-57824000D01*
X231690000Y-57821000D01*
X231696000Y-57818000D01*
X231701000Y-57815000D01*
X231707000Y-57813000D01*
X231713000Y-57811000D01*
X231719000Y-57809000D01*
X231725000Y-57808000D01*
X231731000Y-57806000D01*
X231737000Y-57806000D01*
X231744000Y-57805000D01*
X231750000Y-57805000D01*
X232250000Y-57805000D01*
X232256000Y-57805000D01*
X232263000Y-57806000D01*
G36*
X232263000Y-57806000D02*
G01*
X232269000Y-57806000D01*
X232275000Y-57808000D01*
X232281000Y-57809000D01*
X232287000Y-57811000D01*
X232293000Y-57813000D01*
X232299000Y-57815000D01*
X232304000Y-57818000D01*
X232310000Y-57821000D01*
X232315000Y-57824000D01*
X232321000Y-57828000D01*
X232326000Y-57832000D01*
X232330000Y-57836000D01*
X232335000Y-57840000D01*
X232339000Y-57845000D01*
X232343000Y-57849000D01*
X232347000Y-57854000D01*
X232351000Y-57860000D01*
X232354000Y-57865000D01*
X232357000Y-57871000D01*
X232360000Y-57876000D01*
X232362000Y-57882000D01*
X232364000Y-57888000D01*
X232366000Y-57894000D01*
X232367000Y-57900000D01*
X232369000Y-57906000D01*
X232369000Y-57912000D01*
X232370000Y-57919000D01*
X232370000Y-57925000D01*
X232370000Y-58075000D01*
X232370000Y-58081000D01*
X232369000Y-58088000D01*
X232369000Y-58094000D01*
X232367000Y-58100000D01*
X232366000Y-58106000D01*
X232364000Y-58112000D01*
X232362000Y-58118000D01*
X232360000Y-58124000D01*
X232357000Y-58129000D01*
X232354000Y-58135000D01*
X232351000Y-58140000D01*
X232347000Y-58146000D01*
X232343000Y-58151000D01*
X232339000Y-58155000D01*
X232335000Y-58160000D01*
X232330000Y-58164000D01*
X232326000Y-58168000D01*
X232321000Y-58172000D01*
X232315000Y-58176000D01*
X232310000Y-58179000D01*
X232304000Y-58182000D01*
X232299000Y-58185000D01*
X232293000Y-58187000D01*
X232287000Y-58189000D01*
X232281000Y-58191000D01*
X232275000Y-58192000D01*
X232269000Y-58194000D01*
X232263000Y-58194000D01*
X232256000Y-58195000D01*
X232250000Y-58195000D01*
X231750000Y-58195000D01*
X231744000Y-58195000D01*
X231737000Y-58194000D01*
X231731000Y-58194000D01*
X231725000Y-58192000D01*
X231719000Y-58191000D01*
X231713000Y-58189000D01*
X231707000Y-58187000D01*
X231701000Y-58185000D01*
X231696000Y-58182000D01*
X231690000Y-58179000D01*
X231685000Y-58176000D01*
X231679000Y-58172000D01*
X231674000Y-58168000D01*
X231670000Y-58164000D01*
X231665000Y-58160000D01*
X231661000Y-58155000D01*
X231657000Y-58151000D01*
X231653000Y-58146000D01*
X231649000Y-58140000D01*
X231646000Y-58135000D01*
X231643000Y-58129000D01*
X231640000Y-58124000D01*
X231638000Y-58118000D01*
X231636000Y-58112000D01*
X231634000Y-58106000D01*
X231633000Y-58100000D01*
X231631000Y-58094000D01*
X231631000Y-58088000D01*
X231630000Y-58081000D01*
X231630000Y-58075000D01*
X231630000Y-57925000D01*
X231630000Y-57919000D01*
X231631000Y-57912000D01*
X231631000Y-57906000D01*
X231633000Y-57900000D01*
X231634000Y-57894000D01*
X231636000Y-57888000D01*
X231638000Y-57882000D01*
X231640000Y-57876000D01*
X231643000Y-57871000D01*
X231646000Y-57865000D01*
X231649000Y-57860000D01*
X231653000Y-57854000D01*
X231657000Y-57849000D01*
X231661000Y-57845000D01*
X231665000Y-57840000D01*
X231670000Y-57836000D01*
X231674000Y-57832000D01*
X231679000Y-57828000D01*
X231685000Y-57824000D01*
X231690000Y-57821000D01*
X231696000Y-57818000D01*
X231701000Y-57815000D01*
X231707000Y-57813000D01*
X231713000Y-57811000D01*
X231719000Y-57809000D01*
X231725000Y-57808000D01*
X231731000Y-57806000D01*
X231737000Y-57806000D01*
X231744000Y-57805000D01*
X231750000Y-57805000D01*
X232250000Y-57805000D01*
X232256000Y-57805000D01*
X232263000Y-57806000D01*
G37*
X234063000Y-55806000D02*
X234069000Y-55806000D01*
X234075000Y-55808000D01*
X234081000Y-55809000D01*
X234087000Y-55811000D01*
X234093000Y-55813000D01*
X234099000Y-55815000D01*
X234104000Y-55818000D01*
X234110000Y-55821000D01*
X234115000Y-55824000D01*
X234121000Y-55828000D01*
X234126000Y-55832000D01*
X234130000Y-55836000D01*
X234135000Y-55840000D01*
X234139000Y-55845000D01*
X234143000Y-55849000D01*
X234147000Y-55854000D01*
X234151000Y-55860000D01*
X234154000Y-55865000D01*
X234157000Y-55871000D01*
X234160000Y-55876000D01*
X234162000Y-55882000D01*
X234164000Y-55888000D01*
X234166000Y-55894000D01*
X234167000Y-55900000D01*
X234169000Y-55906000D01*
X234169000Y-55912000D01*
X234170000Y-55919000D01*
X234170000Y-55925000D01*
X234170000Y-56075000D01*
X234170000Y-56081000D01*
X234169000Y-56088000D01*
X234169000Y-56094000D01*
X234167000Y-56100000D01*
X234166000Y-56106000D01*
X234164000Y-56112000D01*
X234162000Y-56118000D01*
X234160000Y-56124000D01*
X234157000Y-56129000D01*
X234154000Y-56135000D01*
X234151000Y-56140000D01*
X234147000Y-56146000D01*
X234143000Y-56151000D01*
X234139000Y-56155000D01*
X234135000Y-56160000D01*
X234130000Y-56164000D01*
X234126000Y-56168000D01*
X234121000Y-56172000D01*
X234115000Y-56176000D01*
X234110000Y-56179000D01*
X234104000Y-56182000D01*
X234099000Y-56185000D01*
X234093000Y-56187000D01*
X234087000Y-56189000D01*
X234081000Y-56191000D01*
X234075000Y-56192000D01*
X234069000Y-56194000D01*
X234063000Y-56194000D01*
X234056000Y-56195000D01*
X234050000Y-56195000D01*
X233250000Y-56195000D01*
X233244000Y-56195000D01*
X233237000Y-56194000D01*
X233231000Y-56194000D01*
X233225000Y-56192000D01*
X233219000Y-56191000D01*
X233213000Y-56189000D01*
X233207000Y-56187000D01*
X233201000Y-56185000D01*
X233196000Y-56182000D01*
X233190000Y-56179000D01*
X233185000Y-56176000D01*
X233179000Y-56172000D01*
X233174000Y-56168000D01*
X233170000Y-56164000D01*
X233165000Y-56160000D01*
X233161000Y-56155000D01*
X233157000Y-56151000D01*
X233153000Y-56146000D01*
X233149000Y-56140000D01*
X233146000Y-56135000D01*
X233143000Y-56129000D01*
X233140000Y-56124000D01*
X233138000Y-56118000D01*
X233136000Y-56112000D01*
X233134000Y-56106000D01*
X233133000Y-56100000D01*
X233131000Y-56094000D01*
X233131000Y-56088000D01*
X233130000Y-56081000D01*
X233130000Y-56075000D01*
X233130000Y-55925000D01*
X233130000Y-55919000D01*
X233131000Y-55912000D01*
X233131000Y-55906000D01*
X233133000Y-55900000D01*
X233134000Y-55894000D01*
X233136000Y-55888000D01*
X233138000Y-55882000D01*
X233140000Y-55876000D01*
X233143000Y-55871000D01*
X233146000Y-55865000D01*
X233149000Y-55860000D01*
X233153000Y-55854000D01*
X233157000Y-55849000D01*
X233161000Y-55845000D01*
X233165000Y-55840000D01*
X233170000Y-55836000D01*
X233174000Y-55832000D01*
X233179000Y-55828000D01*
X233185000Y-55824000D01*
X233190000Y-55821000D01*
X233196000Y-55818000D01*
X233201000Y-55815000D01*
X233207000Y-55813000D01*
X233213000Y-55811000D01*
X233219000Y-55809000D01*
X233225000Y-55808000D01*
X233231000Y-55806000D01*
X233237000Y-55806000D01*
X233244000Y-55805000D01*
X233250000Y-55805000D01*
X234050000Y-55805000D01*
X234056000Y-55805000D01*
X234063000Y-55806000D01*
G36*
X234063000Y-55806000D02*
G01*
X234069000Y-55806000D01*
X234075000Y-55808000D01*
X234081000Y-55809000D01*
X234087000Y-55811000D01*
X234093000Y-55813000D01*
X234099000Y-55815000D01*
X234104000Y-55818000D01*
X234110000Y-55821000D01*
X234115000Y-55824000D01*
X234121000Y-55828000D01*
X234126000Y-55832000D01*
X234130000Y-55836000D01*
X234135000Y-55840000D01*
X234139000Y-55845000D01*
X234143000Y-55849000D01*
X234147000Y-55854000D01*
X234151000Y-55860000D01*
X234154000Y-55865000D01*
X234157000Y-55871000D01*
X234160000Y-55876000D01*
X234162000Y-55882000D01*
X234164000Y-55888000D01*
X234166000Y-55894000D01*
X234167000Y-55900000D01*
X234169000Y-55906000D01*
X234169000Y-55912000D01*
X234170000Y-55919000D01*
X234170000Y-55925000D01*
X234170000Y-56075000D01*
X234170000Y-56081000D01*
X234169000Y-56088000D01*
X234169000Y-56094000D01*
X234167000Y-56100000D01*
X234166000Y-56106000D01*
X234164000Y-56112000D01*
X234162000Y-56118000D01*
X234160000Y-56124000D01*
X234157000Y-56129000D01*
X234154000Y-56135000D01*
X234151000Y-56140000D01*
X234147000Y-56146000D01*
X234143000Y-56151000D01*
X234139000Y-56155000D01*
X234135000Y-56160000D01*
X234130000Y-56164000D01*
X234126000Y-56168000D01*
X234121000Y-56172000D01*
X234115000Y-56176000D01*
X234110000Y-56179000D01*
X234104000Y-56182000D01*
X234099000Y-56185000D01*
X234093000Y-56187000D01*
X234087000Y-56189000D01*
X234081000Y-56191000D01*
X234075000Y-56192000D01*
X234069000Y-56194000D01*
X234063000Y-56194000D01*
X234056000Y-56195000D01*
X234050000Y-56195000D01*
X233250000Y-56195000D01*
X233244000Y-56195000D01*
X233237000Y-56194000D01*
X233231000Y-56194000D01*
X233225000Y-56192000D01*
X233219000Y-56191000D01*
X233213000Y-56189000D01*
X233207000Y-56187000D01*
X233201000Y-56185000D01*
X233196000Y-56182000D01*
X233190000Y-56179000D01*
X233185000Y-56176000D01*
X233179000Y-56172000D01*
X233174000Y-56168000D01*
X233170000Y-56164000D01*
X233165000Y-56160000D01*
X233161000Y-56155000D01*
X233157000Y-56151000D01*
X233153000Y-56146000D01*
X233149000Y-56140000D01*
X233146000Y-56135000D01*
X233143000Y-56129000D01*
X233140000Y-56124000D01*
X233138000Y-56118000D01*
X233136000Y-56112000D01*
X233134000Y-56106000D01*
X233133000Y-56100000D01*
X233131000Y-56094000D01*
X233131000Y-56088000D01*
X233130000Y-56081000D01*
X233130000Y-56075000D01*
X233130000Y-55925000D01*
X233130000Y-55919000D01*
X233131000Y-55912000D01*
X233131000Y-55906000D01*
X233133000Y-55900000D01*
X233134000Y-55894000D01*
X233136000Y-55888000D01*
X233138000Y-55882000D01*
X233140000Y-55876000D01*
X233143000Y-55871000D01*
X233146000Y-55865000D01*
X233149000Y-55860000D01*
X233153000Y-55854000D01*
X233157000Y-55849000D01*
X233161000Y-55845000D01*
X233165000Y-55840000D01*
X233170000Y-55836000D01*
X233174000Y-55832000D01*
X233179000Y-55828000D01*
X233185000Y-55824000D01*
X233190000Y-55821000D01*
X233196000Y-55818000D01*
X233201000Y-55815000D01*
X233207000Y-55813000D01*
X233213000Y-55811000D01*
X233219000Y-55809000D01*
X233225000Y-55808000D01*
X233231000Y-55806000D01*
X233237000Y-55806000D01*
X233244000Y-55805000D01*
X233250000Y-55805000D01*
X234050000Y-55805000D01*
X234056000Y-55805000D01*
X234063000Y-55806000D01*
G37*
X234063000Y-56306000D02*
X234069000Y-56306000D01*
X234075000Y-56308000D01*
X234081000Y-56309000D01*
X234087000Y-56311000D01*
X234093000Y-56313000D01*
X234099000Y-56315000D01*
X234104000Y-56318000D01*
X234110000Y-56321000D01*
X234115000Y-56324000D01*
X234121000Y-56328000D01*
X234126000Y-56332000D01*
X234130000Y-56336000D01*
X234135000Y-56340000D01*
X234139000Y-56345000D01*
X234143000Y-56349000D01*
X234147000Y-56354000D01*
X234151000Y-56360000D01*
X234154000Y-56365000D01*
X234157000Y-56371000D01*
X234160000Y-56376000D01*
X234162000Y-56382000D01*
X234164000Y-56388000D01*
X234166000Y-56394000D01*
X234167000Y-56400000D01*
X234169000Y-56406000D01*
X234169000Y-56412000D01*
X234170000Y-56419000D01*
X234170000Y-56425000D01*
X234170000Y-56575000D01*
X234170000Y-56581000D01*
X234169000Y-56588000D01*
X234169000Y-56594000D01*
X234167000Y-56600000D01*
X234166000Y-56606000D01*
X234164000Y-56612000D01*
X234162000Y-56618000D01*
X234160000Y-56624000D01*
X234157000Y-56629000D01*
X234154000Y-56635000D01*
X234151000Y-56640000D01*
X234147000Y-56646000D01*
X234143000Y-56651000D01*
X234139000Y-56655000D01*
X234135000Y-56660000D01*
X234130000Y-56664000D01*
X234126000Y-56668000D01*
X234121000Y-56672000D01*
X234115000Y-56676000D01*
X234110000Y-56679000D01*
X234104000Y-56682000D01*
X234099000Y-56685000D01*
X234093000Y-56687000D01*
X234087000Y-56689000D01*
X234081000Y-56691000D01*
X234075000Y-56692000D01*
X234069000Y-56694000D01*
X234063000Y-56694000D01*
X234056000Y-56695000D01*
X234050000Y-56695000D01*
X233250000Y-56695000D01*
X233244000Y-56695000D01*
X233237000Y-56694000D01*
X233231000Y-56694000D01*
X233225000Y-56692000D01*
X233219000Y-56691000D01*
X233213000Y-56689000D01*
X233207000Y-56687000D01*
X233201000Y-56685000D01*
X233196000Y-56682000D01*
X233190000Y-56679000D01*
X233185000Y-56676000D01*
X233179000Y-56672000D01*
X233174000Y-56668000D01*
X233170000Y-56664000D01*
X233165000Y-56660000D01*
X233161000Y-56655000D01*
X233157000Y-56651000D01*
X233153000Y-56646000D01*
X233149000Y-56640000D01*
X233146000Y-56635000D01*
X233143000Y-56629000D01*
X233140000Y-56624000D01*
X233138000Y-56618000D01*
X233136000Y-56612000D01*
X233134000Y-56606000D01*
X233133000Y-56600000D01*
X233131000Y-56594000D01*
X233131000Y-56588000D01*
X233130000Y-56581000D01*
X233130000Y-56575000D01*
X233130000Y-56425000D01*
X233130000Y-56419000D01*
X233131000Y-56412000D01*
X233131000Y-56406000D01*
X233133000Y-56400000D01*
X233134000Y-56394000D01*
X233136000Y-56388000D01*
X233138000Y-56382000D01*
X233140000Y-56376000D01*
X233143000Y-56371000D01*
X233146000Y-56365000D01*
X233149000Y-56360000D01*
X233153000Y-56354000D01*
X233157000Y-56349000D01*
X233161000Y-56345000D01*
X233165000Y-56340000D01*
X233170000Y-56336000D01*
X233174000Y-56332000D01*
X233179000Y-56328000D01*
X233185000Y-56324000D01*
X233190000Y-56321000D01*
X233196000Y-56318000D01*
X233201000Y-56315000D01*
X233207000Y-56313000D01*
X233213000Y-56311000D01*
X233219000Y-56309000D01*
X233225000Y-56308000D01*
X233231000Y-56306000D01*
X233237000Y-56306000D01*
X233244000Y-56305000D01*
X233250000Y-56305000D01*
X234050000Y-56305000D01*
X234056000Y-56305000D01*
X234063000Y-56306000D01*
G36*
X234063000Y-56306000D02*
G01*
X234069000Y-56306000D01*
X234075000Y-56308000D01*
X234081000Y-56309000D01*
X234087000Y-56311000D01*
X234093000Y-56313000D01*
X234099000Y-56315000D01*
X234104000Y-56318000D01*
X234110000Y-56321000D01*
X234115000Y-56324000D01*
X234121000Y-56328000D01*
X234126000Y-56332000D01*
X234130000Y-56336000D01*
X234135000Y-56340000D01*
X234139000Y-56345000D01*
X234143000Y-56349000D01*
X234147000Y-56354000D01*
X234151000Y-56360000D01*
X234154000Y-56365000D01*
X234157000Y-56371000D01*
X234160000Y-56376000D01*
X234162000Y-56382000D01*
X234164000Y-56388000D01*
X234166000Y-56394000D01*
X234167000Y-56400000D01*
X234169000Y-56406000D01*
X234169000Y-56412000D01*
X234170000Y-56419000D01*
X234170000Y-56425000D01*
X234170000Y-56575000D01*
X234170000Y-56581000D01*
X234169000Y-56588000D01*
X234169000Y-56594000D01*
X234167000Y-56600000D01*
X234166000Y-56606000D01*
X234164000Y-56612000D01*
X234162000Y-56618000D01*
X234160000Y-56624000D01*
X234157000Y-56629000D01*
X234154000Y-56635000D01*
X234151000Y-56640000D01*
X234147000Y-56646000D01*
X234143000Y-56651000D01*
X234139000Y-56655000D01*
X234135000Y-56660000D01*
X234130000Y-56664000D01*
X234126000Y-56668000D01*
X234121000Y-56672000D01*
X234115000Y-56676000D01*
X234110000Y-56679000D01*
X234104000Y-56682000D01*
X234099000Y-56685000D01*
X234093000Y-56687000D01*
X234087000Y-56689000D01*
X234081000Y-56691000D01*
X234075000Y-56692000D01*
X234069000Y-56694000D01*
X234063000Y-56694000D01*
X234056000Y-56695000D01*
X234050000Y-56695000D01*
X233250000Y-56695000D01*
X233244000Y-56695000D01*
X233237000Y-56694000D01*
X233231000Y-56694000D01*
X233225000Y-56692000D01*
X233219000Y-56691000D01*
X233213000Y-56689000D01*
X233207000Y-56687000D01*
X233201000Y-56685000D01*
X233196000Y-56682000D01*
X233190000Y-56679000D01*
X233185000Y-56676000D01*
X233179000Y-56672000D01*
X233174000Y-56668000D01*
X233170000Y-56664000D01*
X233165000Y-56660000D01*
X233161000Y-56655000D01*
X233157000Y-56651000D01*
X233153000Y-56646000D01*
X233149000Y-56640000D01*
X233146000Y-56635000D01*
X233143000Y-56629000D01*
X233140000Y-56624000D01*
X233138000Y-56618000D01*
X233136000Y-56612000D01*
X233134000Y-56606000D01*
X233133000Y-56600000D01*
X233131000Y-56594000D01*
X233131000Y-56588000D01*
X233130000Y-56581000D01*
X233130000Y-56575000D01*
X233130000Y-56425000D01*
X233130000Y-56419000D01*
X233131000Y-56412000D01*
X233131000Y-56406000D01*
X233133000Y-56400000D01*
X233134000Y-56394000D01*
X233136000Y-56388000D01*
X233138000Y-56382000D01*
X233140000Y-56376000D01*
X233143000Y-56371000D01*
X233146000Y-56365000D01*
X233149000Y-56360000D01*
X233153000Y-56354000D01*
X233157000Y-56349000D01*
X233161000Y-56345000D01*
X233165000Y-56340000D01*
X233170000Y-56336000D01*
X233174000Y-56332000D01*
X233179000Y-56328000D01*
X233185000Y-56324000D01*
X233190000Y-56321000D01*
X233196000Y-56318000D01*
X233201000Y-56315000D01*
X233207000Y-56313000D01*
X233213000Y-56311000D01*
X233219000Y-56309000D01*
X233225000Y-56308000D01*
X233231000Y-56306000D01*
X233237000Y-56306000D01*
X233244000Y-56305000D01*
X233250000Y-56305000D01*
X234050000Y-56305000D01*
X234056000Y-56305000D01*
X234063000Y-56306000D01*
G37*
X234063000Y-56806000D02*
X234069000Y-56806000D01*
X234075000Y-56808000D01*
X234081000Y-56809000D01*
X234087000Y-56811000D01*
X234093000Y-56813000D01*
X234099000Y-56815000D01*
X234104000Y-56818000D01*
X234110000Y-56821000D01*
X234115000Y-56824000D01*
X234121000Y-56828000D01*
X234126000Y-56832000D01*
X234130000Y-56836000D01*
X234135000Y-56840000D01*
X234139000Y-56845000D01*
X234143000Y-56849000D01*
X234147000Y-56854000D01*
X234151000Y-56860000D01*
X234154000Y-56865000D01*
X234157000Y-56871000D01*
X234160000Y-56876000D01*
X234162000Y-56882000D01*
X234164000Y-56888000D01*
X234166000Y-56894000D01*
X234167000Y-56900000D01*
X234169000Y-56906000D01*
X234169000Y-56912000D01*
X234170000Y-56919000D01*
X234170000Y-56925000D01*
X234170000Y-57075000D01*
X234170000Y-57081000D01*
X234169000Y-57088000D01*
X234169000Y-57094000D01*
X234167000Y-57100000D01*
X234166000Y-57106000D01*
X234164000Y-57112000D01*
X234162000Y-57118000D01*
X234160000Y-57124000D01*
X234157000Y-57129000D01*
X234154000Y-57135000D01*
X234151000Y-57140000D01*
X234147000Y-57146000D01*
X234143000Y-57151000D01*
X234139000Y-57155000D01*
X234135000Y-57160000D01*
X234130000Y-57164000D01*
X234126000Y-57168000D01*
X234121000Y-57172000D01*
X234115000Y-57176000D01*
X234110000Y-57179000D01*
X234104000Y-57182000D01*
X234099000Y-57185000D01*
X234093000Y-57187000D01*
X234087000Y-57189000D01*
X234081000Y-57191000D01*
X234075000Y-57192000D01*
X234069000Y-57194000D01*
X234063000Y-57194000D01*
X234056000Y-57195000D01*
X234050000Y-57195000D01*
X232850000Y-57195000D01*
X232844000Y-57195000D01*
X232837000Y-57194000D01*
X232831000Y-57194000D01*
X232825000Y-57192000D01*
X232819000Y-57191000D01*
X232813000Y-57189000D01*
X232807000Y-57187000D01*
X232801000Y-57185000D01*
X232796000Y-57182000D01*
X232790000Y-57179000D01*
X232785000Y-57176000D01*
X232779000Y-57172000D01*
X232774000Y-57168000D01*
X232770000Y-57164000D01*
X232765000Y-57160000D01*
X232761000Y-57155000D01*
X232757000Y-57151000D01*
X232753000Y-57146000D01*
X232749000Y-57140000D01*
X232746000Y-57135000D01*
X232743000Y-57129000D01*
X232740000Y-57124000D01*
X232738000Y-57118000D01*
X232736000Y-57112000D01*
X232734000Y-57106000D01*
X232733000Y-57100000D01*
X232731000Y-57094000D01*
X232731000Y-57088000D01*
X232730000Y-57081000D01*
X232730000Y-57075000D01*
X232730000Y-56925000D01*
X232730000Y-56919000D01*
X232731000Y-56912000D01*
X232731000Y-56906000D01*
X232733000Y-56900000D01*
X232734000Y-56894000D01*
X232736000Y-56888000D01*
X232738000Y-56882000D01*
X232740000Y-56876000D01*
X232743000Y-56871000D01*
X232746000Y-56865000D01*
X232749000Y-56860000D01*
X232753000Y-56854000D01*
X232757000Y-56849000D01*
X232761000Y-56845000D01*
X232765000Y-56840000D01*
X232770000Y-56836000D01*
X232774000Y-56832000D01*
X232779000Y-56828000D01*
X232785000Y-56824000D01*
X232790000Y-56821000D01*
X232796000Y-56818000D01*
X232801000Y-56815000D01*
X232807000Y-56813000D01*
X232813000Y-56811000D01*
X232819000Y-56809000D01*
X232825000Y-56808000D01*
X232831000Y-56806000D01*
X232837000Y-56806000D01*
X232844000Y-56805000D01*
X232850000Y-56805000D01*
X234050000Y-56805000D01*
X234056000Y-56805000D01*
X234063000Y-56806000D01*
G36*
X234063000Y-56806000D02*
G01*
X234069000Y-56806000D01*
X234075000Y-56808000D01*
X234081000Y-56809000D01*
X234087000Y-56811000D01*
X234093000Y-56813000D01*
X234099000Y-56815000D01*
X234104000Y-56818000D01*
X234110000Y-56821000D01*
X234115000Y-56824000D01*
X234121000Y-56828000D01*
X234126000Y-56832000D01*
X234130000Y-56836000D01*
X234135000Y-56840000D01*
X234139000Y-56845000D01*
X234143000Y-56849000D01*
X234147000Y-56854000D01*
X234151000Y-56860000D01*
X234154000Y-56865000D01*
X234157000Y-56871000D01*
X234160000Y-56876000D01*
X234162000Y-56882000D01*
X234164000Y-56888000D01*
X234166000Y-56894000D01*
X234167000Y-56900000D01*
X234169000Y-56906000D01*
X234169000Y-56912000D01*
X234170000Y-56919000D01*
X234170000Y-56925000D01*
X234170000Y-57075000D01*
X234170000Y-57081000D01*
X234169000Y-57088000D01*
X234169000Y-57094000D01*
X234167000Y-57100000D01*
X234166000Y-57106000D01*
X234164000Y-57112000D01*
X234162000Y-57118000D01*
X234160000Y-57124000D01*
X234157000Y-57129000D01*
X234154000Y-57135000D01*
X234151000Y-57140000D01*
X234147000Y-57146000D01*
X234143000Y-57151000D01*
X234139000Y-57155000D01*
X234135000Y-57160000D01*
X234130000Y-57164000D01*
X234126000Y-57168000D01*
X234121000Y-57172000D01*
X234115000Y-57176000D01*
X234110000Y-57179000D01*
X234104000Y-57182000D01*
X234099000Y-57185000D01*
X234093000Y-57187000D01*
X234087000Y-57189000D01*
X234081000Y-57191000D01*
X234075000Y-57192000D01*
X234069000Y-57194000D01*
X234063000Y-57194000D01*
X234056000Y-57195000D01*
X234050000Y-57195000D01*
X232850000Y-57195000D01*
X232844000Y-57195000D01*
X232837000Y-57194000D01*
X232831000Y-57194000D01*
X232825000Y-57192000D01*
X232819000Y-57191000D01*
X232813000Y-57189000D01*
X232807000Y-57187000D01*
X232801000Y-57185000D01*
X232796000Y-57182000D01*
X232790000Y-57179000D01*
X232785000Y-57176000D01*
X232779000Y-57172000D01*
X232774000Y-57168000D01*
X232770000Y-57164000D01*
X232765000Y-57160000D01*
X232761000Y-57155000D01*
X232757000Y-57151000D01*
X232753000Y-57146000D01*
X232749000Y-57140000D01*
X232746000Y-57135000D01*
X232743000Y-57129000D01*
X232740000Y-57124000D01*
X232738000Y-57118000D01*
X232736000Y-57112000D01*
X232734000Y-57106000D01*
X232733000Y-57100000D01*
X232731000Y-57094000D01*
X232731000Y-57088000D01*
X232730000Y-57081000D01*
X232730000Y-57075000D01*
X232730000Y-56925000D01*
X232730000Y-56919000D01*
X232731000Y-56912000D01*
X232731000Y-56906000D01*
X232733000Y-56900000D01*
X232734000Y-56894000D01*
X232736000Y-56888000D01*
X232738000Y-56882000D01*
X232740000Y-56876000D01*
X232743000Y-56871000D01*
X232746000Y-56865000D01*
X232749000Y-56860000D01*
X232753000Y-56854000D01*
X232757000Y-56849000D01*
X232761000Y-56845000D01*
X232765000Y-56840000D01*
X232770000Y-56836000D01*
X232774000Y-56832000D01*
X232779000Y-56828000D01*
X232785000Y-56824000D01*
X232790000Y-56821000D01*
X232796000Y-56818000D01*
X232801000Y-56815000D01*
X232807000Y-56813000D01*
X232813000Y-56811000D01*
X232819000Y-56809000D01*
X232825000Y-56808000D01*
X232831000Y-56806000D01*
X232837000Y-56806000D01*
X232844000Y-56805000D01*
X232850000Y-56805000D01*
X234050000Y-56805000D01*
X234056000Y-56805000D01*
X234063000Y-56806000D01*
G37*
X234063000Y-57306000D02*
X234069000Y-57306000D01*
X234075000Y-57308000D01*
X234081000Y-57309000D01*
X234087000Y-57311000D01*
X234093000Y-57313000D01*
X234099000Y-57315000D01*
X234104000Y-57318000D01*
X234110000Y-57321000D01*
X234115000Y-57324000D01*
X234121000Y-57328000D01*
X234126000Y-57332000D01*
X234130000Y-57336000D01*
X234135000Y-57340000D01*
X234139000Y-57345000D01*
X234143000Y-57349000D01*
X234147000Y-57354000D01*
X234151000Y-57360000D01*
X234154000Y-57365000D01*
X234157000Y-57371000D01*
X234160000Y-57376000D01*
X234162000Y-57382000D01*
X234164000Y-57388000D01*
X234166000Y-57394000D01*
X234167000Y-57400000D01*
X234169000Y-57406000D01*
X234169000Y-57412000D01*
X234170000Y-57419000D01*
X234170000Y-57425000D01*
X234170000Y-57575000D01*
X234170000Y-57581000D01*
X234169000Y-57588000D01*
X234169000Y-57594000D01*
X234167000Y-57600000D01*
X234166000Y-57606000D01*
X234164000Y-57612000D01*
X234162000Y-57618000D01*
X234160000Y-57624000D01*
X234157000Y-57629000D01*
X234154000Y-57635000D01*
X234151000Y-57640000D01*
X234147000Y-57646000D01*
X234143000Y-57651000D01*
X234139000Y-57655000D01*
X234135000Y-57660000D01*
X234130000Y-57664000D01*
X234126000Y-57668000D01*
X234121000Y-57672000D01*
X234115000Y-57676000D01*
X234110000Y-57679000D01*
X234104000Y-57682000D01*
X234099000Y-57685000D01*
X234093000Y-57687000D01*
X234087000Y-57689000D01*
X234081000Y-57691000D01*
X234075000Y-57692000D01*
X234069000Y-57694000D01*
X234063000Y-57694000D01*
X234056000Y-57695000D01*
X234050000Y-57695000D01*
X233250000Y-57695000D01*
X233244000Y-57695000D01*
X233237000Y-57694000D01*
X233231000Y-57694000D01*
X233225000Y-57692000D01*
X233219000Y-57691000D01*
X233213000Y-57689000D01*
X233207000Y-57687000D01*
X233201000Y-57685000D01*
X233196000Y-57682000D01*
X233190000Y-57679000D01*
X233185000Y-57676000D01*
X233179000Y-57672000D01*
X233174000Y-57668000D01*
X233170000Y-57664000D01*
X233165000Y-57660000D01*
X233161000Y-57655000D01*
X233157000Y-57651000D01*
X233153000Y-57646000D01*
X233149000Y-57640000D01*
X233146000Y-57635000D01*
X233143000Y-57629000D01*
X233140000Y-57624000D01*
X233138000Y-57618000D01*
X233136000Y-57612000D01*
X233134000Y-57606000D01*
X233133000Y-57600000D01*
X233131000Y-57594000D01*
X233131000Y-57588000D01*
X233130000Y-57581000D01*
X233130000Y-57575000D01*
X233130000Y-57425000D01*
X233130000Y-57419000D01*
X233131000Y-57412000D01*
X233131000Y-57406000D01*
X233133000Y-57400000D01*
X233134000Y-57394000D01*
X233136000Y-57388000D01*
X233138000Y-57382000D01*
X233140000Y-57376000D01*
X233143000Y-57371000D01*
X233146000Y-57365000D01*
X233149000Y-57360000D01*
X233153000Y-57354000D01*
X233157000Y-57349000D01*
X233161000Y-57345000D01*
X233165000Y-57340000D01*
X233170000Y-57336000D01*
X233174000Y-57332000D01*
X233179000Y-57328000D01*
X233185000Y-57324000D01*
X233190000Y-57321000D01*
X233196000Y-57318000D01*
X233201000Y-57315000D01*
X233207000Y-57313000D01*
X233213000Y-57311000D01*
X233219000Y-57309000D01*
X233225000Y-57308000D01*
X233231000Y-57306000D01*
X233237000Y-57306000D01*
X233244000Y-57305000D01*
X233250000Y-57305000D01*
X234050000Y-57305000D01*
X234056000Y-57305000D01*
X234063000Y-57306000D01*
G36*
X234063000Y-57306000D02*
G01*
X234069000Y-57306000D01*
X234075000Y-57308000D01*
X234081000Y-57309000D01*
X234087000Y-57311000D01*
X234093000Y-57313000D01*
X234099000Y-57315000D01*
X234104000Y-57318000D01*
X234110000Y-57321000D01*
X234115000Y-57324000D01*
X234121000Y-57328000D01*
X234126000Y-57332000D01*
X234130000Y-57336000D01*
X234135000Y-57340000D01*
X234139000Y-57345000D01*
X234143000Y-57349000D01*
X234147000Y-57354000D01*
X234151000Y-57360000D01*
X234154000Y-57365000D01*
X234157000Y-57371000D01*
X234160000Y-57376000D01*
X234162000Y-57382000D01*
X234164000Y-57388000D01*
X234166000Y-57394000D01*
X234167000Y-57400000D01*
X234169000Y-57406000D01*
X234169000Y-57412000D01*
X234170000Y-57419000D01*
X234170000Y-57425000D01*
X234170000Y-57575000D01*
X234170000Y-57581000D01*
X234169000Y-57588000D01*
X234169000Y-57594000D01*
X234167000Y-57600000D01*
X234166000Y-57606000D01*
X234164000Y-57612000D01*
X234162000Y-57618000D01*
X234160000Y-57624000D01*
X234157000Y-57629000D01*
X234154000Y-57635000D01*
X234151000Y-57640000D01*
X234147000Y-57646000D01*
X234143000Y-57651000D01*
X234139000Y-57655000D01*
X234135000Y-57660000D01*
X234130000Y-57664000D01*
X234126000Y-57668000D01*
X234121000Y-57672000D01*
X234115000Y-57676000D01*
X234110000Y-57679000D01*
X234104000Y-57682000D01*
X234099000Y-57685000D01*
X234093000Y-57687000D01*
X234087000Y-57689000D01*
X234081000Y-57691000D01*
X234075000Y-57692000D01*
X234069000Y-57694000D01*
X234063000Y-57694000D01*
X234056000Y-57695000D01*
X234050000Y-57695000D01*
X233250000Y-57695000D01*
X233244000Y-57695000D01*
X233237000Y-57694000D01*
X233231000Y-57694000D01*
X233225000Y-57692000D01*
X233219000Y-57691000D01*
X233213000Y-57689000D01*
X233207000Y-57687000D01*
X233201000Y-57685000D01*
X233196000Y-57682000D01*
X233190000Y-57679000D01*
X233185000Y-57676000D01*
X233179000Y-57672000D01*
X233174000Y-57668000D01*
X233170000Y-57664000D01*
X233165000Y-57660000D01*
X233161000Y-57655000D01*
X233157000Y-57651000D01*
X233153000Y-57646000D01*
X233149000Y-57640000D01*
X233146000Y-57635000D01*
X233143000Y-57629000D01*
X233140000Y-57624000D01*
X233138000Y-57618000D01*
X233136000Y-57612000D01*
X233134000Y-57606000D01*
X233133000Y-57600000D01*
X233131000Y-57594000D01*
X233131000Y-57588000D01*
X233130000Y-57581000D01*
X233130000Y-57575000D01*
X233130000Y-57425000D01*
X233130000Y-57419000D01*
X233131000Y-57412000D01*
X233131000Y-57406000D01*
X233133000Y-57400000D01*
X233134000Y-57394000D01*
X233136000Y-57388000D01*
X233138000Y-57382000D01*
X233140000Y-57376000D01*
X233143000Y-57371000D01*
X233146000Y-57365000D01*
X233149000Y-57360000D01*
X233153000Y-57354000D01*
X233157000Y-57349000D01*
X233161000Y-57345000D01*
X233165000Y-57340000D01*
X233170000Y-57336000D01*
X233174000Y-57332000D01*
X233179000Y-57328000D01*
X233185000Y-57324000D01*
X233190000Y-57321000D01*
X233196000Y-57318000D01*
X233201000Y-57315000D01*
X233207000Y-57313000D01*
X233213000Y-57311000D01*
X233219000Y-57309000D01*
X233225000Y-57308000D01*
X233231000Y-57306000D01*
X233237000Y-57306000D01*
X233244000Y-57305000D01*
X233250000Y-57305000D01*
X234050000Y-57305000D01*
X234056000Y-57305000D01*
X234063000Y-57306000D01*
G37*
X234063000Y-57806000D02*
X234069000Y-57806000D01*
X234075000Y-57808000D01*
X234081000Y-57809000D01*
X234087000Y-57811000D01*
X234093000Y-57813000D01*
X234099000Y-57815000D01*
X234104000Y-57818000D01*
X234110000Y-57821000D01*
X234115000Y-57824000D01*
X234121000Y-57828000D01*
X234126000Y-57832000D01*
X234130000Y-57836000D01*
X234135000Y-57840000D01*
X234139000Y-57845000D01*
X234143000Y-57849000D01*
X234147000Y-57854000D01*
X234151000Y-57860000D01*
X234154000Y-57865000D01*
X234157000Y-57871000D01*
X234160000Y-57876000D01*
X234162000Y-57882000D01*
X234164000Y-57888000D01*
X234166000Y-57894000D01*
X234167000Y-57900000D01*
X234169000Y-57906000D01*
X234169000Y-57912000D01*
X234170000Y-57919000D01*
X234170000Y-57925000D01*
X234170000Y-58075000D01*
X234170000Y-58081000D01*
X234169000Y-58088000D01*
X234169000Y-58094000D01*
X234167000Y-58100000D01*
X234166000Y-58106000D01*
X234164000Y-58112000D01*
X234162000Y-58118000D01*
X234160000Y-58124000D01*
X234157000Y-58129000D01*
X234154000Y-58135000D01*
X234151000Y-58140000D01*
X234147000Y-58146000D01*
X234143000Y-58151000D01*
X234139000Y-58155000D01*
X234135000Y-58160000D01*
X234130000Y-58164000D01*
X234126000Y-58168000D01*
X234121000Y-58172000D01*
X234115000Y-58176000D01*
X234110000Y-58179000D01*
X234104000Y-58182000D01*
X234099000Y-58185000D01*
X234093000Y-58187000D01*
X234087000Y-58189000D01*
X234081000Y-58191000D01*
X234075000Y-58192000D01*
X234069000Y-58194000D01*
X234063000Y-58194000D01*
X234056000Y-58195000D01*
X234050000Y-58195000D01*
X233250000Y-58195000D01*
X233244000Y-58195000D01*
X233237000Y-58194000D01*
X233231000Y-58194000D01*
X233225000Y-58192000D01*
X233219000Y-58191000D01*
X233213000Y-58189000D01*
X233207000Y-58187000D01*
X233201000Y-58185000D01*
X233196000Y-58182000D01*
X233190000Y-58179000D01*
X233185000Y-58176000D01*
X233179000Y-58172000D01*
X233174000Y-58168000D01*
X233170000Y-58164000D01*
X233165000Y-58160000D01*
X233161000Y-58155000D01*
X233157000Y-58151000D01*
X233153000Y-58146000D01*
X233149000Y-58140000D01*
X233146000Y-58135000D01*
X233143000Y-58129000D01*
X233140000Y-58124000D01*
X233138000Y-58118000D01*
X233136000Y-58112000D01*
X233134000Y-58106000D01*
X233133000Y-58100000D01*
X233131000Y-58094000D01*
X233131000Y-58088000D01*
X233130000Y-58081000D01*
X233130000Y-58075000D01*
X233130000Y-57925000D01*
X233130000Y-57919000D01*
X233131000Y-57912000D01*
X233131000Y-57906000D01*
X233133000Y-57900000D01*
X233134000Y-57894000D01*
X233136000Y-57888000D01*
X233138000Y-57882000D01*
X233140000Y-57876000D01*
X233143000Y-57871000D01*
X233146000Y-57865000D01*
X233149000Y-57860000D01*
X233153000Y-57854000D01*
X233157000Y-57849000D01*
X233161000Y-57845000D01*
X233165000Y-57840000D01*
X233170000Y-57836000D01*
X233174000Y-57832000D01*
X233179000Y-57828000D01*
X233185000Y-57824000D01*
X233190000Y-57821000D01*
X233196000Y-57818000D01*
X233201000Y-57815000D01*
X233207000Y-57813000D01*
X233213000Y-57811000D01*
X233219000Y-57809000D01*
X233225000Y-57808000D01*
X233231000Y-57806000D01*
X233237000Y-57806000D01*
X233244000Y-57805000D01*
X233250000Y-57805000D01*
X234050000Y-57805000D01*
X234056000Y-57805000D01*
X234063000Y-57806000D01*
G36*
X234063000Y-57806000D02*
G01*
X234069000Y-57806000D01*
X234075000Y-57808000D01*
X234081000Y-57809000D01*
X234087000Y-57811000D01*
X234093000Y-57813000D01*
X234099000Y-57815000D01*
X234104000Y-57818000D01*
X234110000Y-57821000D01*
X234115000Y-57824000D01*
X234121000Y-57828000D01*
X234126000Y-57832000D01*
X234130000Y-57836000D01*
X234135000Y-57840000D01*
X234139000Y-57845000D01*
X234143000Y-57849000D01*
X234147000Y-57854000D01*
X234151000Y-57860000D01*
X234154000Y-57865000D01*
X234157000Y-57871000D01*
X234160000Y-57876000D01*
X234162000Y-57882000D01*
X234164000Y-57888000D01*
X234166000Y-57894000D01*
X234167000Y-57900000D01*
X234169000Y-57906000D01*
X234169000Y-57912000D01*
X234170000Y-57919000D01*
X234170000Y-57925000D01*
X234170000Y-58075000D01*
X234170000Y-58081000D01*
X234169000Y-58088000D01*
X234169000Y-58094000D01*
X234167000Y-58100000D01*
X234166000Y-58106000D01*
X234164000Y-58112000D01*
X234162000Y-58118000D01*
X234160000Y-58124000D01*
X234157000Y-58129000D01*
X234154000Y-58135000D01*
X234151000Y-58140000D01*
X234147000Y-58146000D01*
X234143000Y-58151000D01*
X234139000Y-58155000D01*
X234135000Y-58160000D01*
X234130000Y-58164000D01*
X234126000Y-58168000D01*
X234121000Y-58172000D01*
X234115000Y-58176000D01*
X234110000Y-58179000D01*
X234104000Y-58182000D01*
X234099000Y-58185000D01*
X234093000Y-58187000D01*
X234087000Y-58189000D01*
X234081000Y-58191000D01*
X234075000Y-58192000D01*
X234069000Y-58194000D01*
X234063000Y-58194000D01*
X234056000Y-58195000D01*
X234050000Y-58195000D01*
X233250000Y-58195000D01*
X233244000Y-58195000D01*
X233237000Y-58194000D01*
X233231000Y-58194000D01*
X233225000Y-58192000D01*
X233219000Y-58191000D01*
X233213000Y-58189000D01*
X233207000Y-58187000D01*
X233201000Y-58185000D01*
X233196000Y-58182000D01*
X233190000Y-58179000D01*
X233185000Y-58176000D01*
X233179000Y-58172000D01*
X233174000Y-58168000D01*
X233170000Y-58164000D01*
X233165000Y-58160000D01*
X233161000Y-58155000D01*
X233157000Y-58151000D01*
X233153000Y-58146000D01*
X233149000Y-58140000D01*
X233146000Y-58135000D01*
X233143000Y-58129000D01*
X233140000Y-58124000D01*
X233138000Y-58118000D01*
X233136000Y-58112000D01*
X233134000Y-58106000D01*
X233133000Y-58100000D01*
X233131000Y-58094000D01*
X233131000Y-58088000D01*
X233130000Y-58081000D01*
X233130000Y-58075000D01*
X233130000Y-57925000D01*
X233130000Y-57919000D01*
X233131000Y-57912000D01*
X233131000Y-57906000D01*
X233133000Y-57900000D01*
X233134000Y-57894000D01*
X233136000Y-57888000D01*
X233138000Y-57882000D01*
X233140000Y-57876000D01*
X233143000Y-57871000D01*
X233146000Y-57865000D01*
X233149000Y-57860000D01*
X233153000Y-57854000D01*
X233157000Y-57849000D01*
X233161000Y-57845000D01*
X233165000Y-57840000D01*
X233170000Y-57836000D01*
X233174000Y-57832000D01*
X233179000Y-57828000D01*
X233185000Y-57824000D01*
X233190000Y-57821000D01*
X233196000Y-57818000D01*
X233201000Y-57815000D01*
X233207000Y-57813000D01*
X233213000Y-57811000D01*
X233219000Y-57809000D01*
X233225000Y-57808000D01*
X233231000Y-57806000D01*
X233237000Y-57806000D01*
X233244000Y-57805000D01*
X233250000Y-57805000D01*
X234050000Y-57805000D01*
X234056000Y-57805000D01*
X234063000Y-57806000D01*
G37*
%TO.C,U6*%
X211970000Y-57521834D02*
X211225840Y-57521834D01*
X211225840Y-57130000D01*
X211970000Y-57130000D01*
X211970000Y-57521834D01*
G36*
X211970000Y-57521834D02*
G01*
X211225840Y-57521834D01*
X211225840Y-57130000D01*
X211970000Y-57130000D01*
X211970000Y-57521834D01*
G37*
X214200000Y-56829964D02*
X211297410Y-56829964D01*
X211297410Y-56530000D01*
X214200000Y-56530000D01*
X214200000Y-56829964D01*
G36*
X214200000Y-56829964D02*
G01*
X211297410Y-56829964D01*
X211297410Y-56530000D01*
X214200000Y-56530000D01*
X214200000Y-56829964D01*
G37*
X212400000Y-56229000D02*
X211297660Y-56229000D01*
X211297660Y-55930000D01*
X212400000Y-55930000D01*
X212400000Y-56229000D01*
G36*
X212400000Y-56229000D02*
G01*
X211297660Y-56229000D01*
X211297660Y-55930000D01*
X212400000Y-55930000D01*
X212400000Y-56229000D01*
G37*
X212195000Y-58372480D02*
X211803457Y-58372480D01*
X211803457Y-57630000D01*
X212195000Y-57630000D01*
X212195000Y-58372480D01*
G36*
X212195000Y-58372480D02*
G01*
X211803457Y-58372480D01*
X211803457Y-57630000D01*
X212195000Y-57630000D01*
X212195000Y-58372480D01*
G37*
X213237500Y-56980344D02*
X212261210Y-56980344D01*
X212261210Y-56830000D01*
X213237500Y-56830000D01*
X213237500Y-56980344D01*
G36*
X213237500Y-56980344D02*
G01*
X212261210Y-56980344D01*
X212261210Y-56830000D01*
X213237500Y-56830000D01*
X213237500Y-56980344D01*
G37*
X212695000Y-58372310D02*
X212304324Y-58372310D01*
X212304324Y-57630000D01*
X212695000Y-57630000D01*
X212695000Y-58372310D01*
G36*
X212695000Y-58372310D02*
G01*
X212304324Y-58372310D01*
X212304324Y-57630000D01*
X212695000Y-57630000D01*
X212695000Y-58372310D01*
G37*
X214200000Y-56228233D02*
X212750000Y-56228233D01*
X212750000Y-55930000D01*
X214200000Y-55930000D01*
X214200000Y-56228233D01*
G36*
X214200000Y-56228233D02*
G01*
X212750000Y-56228233D01*
X212750000Y-55930000D01*
X214200000Y-55930000D01*
X214200000Y-56228233D01*
G37*
X213195000Y-58374640D02*
X212805168Y-58374640D01*
X212805168Y-57630000D01*
X213195000Y-57630000D01*
X213195000Y-58374640D01*
G36*
X213195000Y-58374640D02*
G01*
X212805168Y-58374640D01*
X212805168Y-57630000D01*
X213195000Y-57630000D01*
X213195000Y-58374640D01*
G37*
X213695000Y-58373330D02*
X213306216Y-58373330D01*
X213306216Y-57630000D01*
X213695000Y-57630000D01*
X213695000Y-58373330D01*
G36*
X213695000Y-58373330D02*
G01*
X213306216Y-58373330D01*
X213306216Y-57630000D01*
X213695000Y-57630000D01*
X213695000Y-58373330D01*
G37*
X214270000Y-57520934D02*
X213531087Y-57520934D01*
X213531087Y-57130000D01*
X214270000Y-57130000D01*
X214270000Y-57520934D01*
G36*
X214270000Y-57520934D02*
G01*
X213531087Y-57520934D01*
X213531087Y-57130000D01*
X214270000Y-57130000D01*
X214270000Y-57520934D01*
G37*
%TO.C,JP2*%
G36*
X235250000Y-63350000D02*
G01*
X233750000Y-63350000D01*
X233750000Y-63650000D01*
X235250000Y-63650000D01*
X235250000Y-63350000D01*
G37*
%TO.C,JP7*%
G36*
X195250000Y-68350000D02*
G01*
X193750000Y-68350000D01*
X193750000Y-68650000D01*
X195250000Y-68650000D01*
X195250000Y-68350000D01*
G37*
%TD*%
D11*
%TO.C,U3*%
X184500000Y-86825000D03*
X184500000Y-87475000D03*
X184500000Y-88125000D03*
X184500000Y-88775000D03*
X184500000Y-89425000D03*
X184500000Y-90075000D03*
X184500000Y-90725000D03*
X184500000Y-91375000D03*
X190300000Y-91375000D03*
X190300000Y-90725000D03*
X190300000Y-90075000D03*
X190300000Y-89425000D03*
X190300000Y-88775000D03*
X190300000Y-88125000D03*
X190300000Y-87475000D03*
X190300000Y-86825000D03*
%TD*%
%TO.C,U9*%
X212000000Y-83950000D03*
X212000000Y-84600000D03*
X212000000Y-85250000D03*
X212000000Y-85900000D03*
X212000000Y-86550000D03*
X212000000Y-87200000D03*
X212000000Y-87850000D03*
X212000000Y-88500000D03*
X217800000Y-88500000D03*
X217800000Y-87850000D03*
X217800000Y-87200000D03*
X217800000Y-86550000D03*
X217800000Y-85900000D03*
X217800000Y-85250000D03*
X217800000Y-84600000D03*
X217800000Y-83950000D03*
D12*
X215900000Y-87725000D03*
%TD*%
D13*
%TO.C,TP19*%
X198000000Y-82500000D03*
%TD*%
D14*
%TO.C,R20*%
X175500000Y-70500000D03*
X175500000Y-68850000D03*
%TD*%
D15*
%TO.C,R32*%
X223470000Y-76135000D03*
X223470000Y-73210000D03*
%TD*%
D13*
%TO.C,TP12*%
X231500000Y-62500000D03*
%TD*%
D16*
%TO.C,D1*%
X211000000Y-68500000D03*
X211000000Y-66625000D03*
%TD*%
D17*
%TO.C,JP6*%
X170500000Y-88450000D03*
X170500000Y-89750000D03*
%TD*%
D18*
%TO.C,R25*%
X197000000Y-67675000D03*
X197000000Y-69500000D03*
%TD*%
D15*
%TO.C,R30*%
X218470000Y-76097500D03*
X218470000Y-73172500D03*
%TD*%
D19*
%TO.C,J1*%
X174552500Y-73750000D03*
X174552500Y-74250000D03*
X174552500Y-74750000D03*
X174552500Y-75250000D03*
X174552500Y-75750000D03*
X174552500Y-76250000D03*
X174552500Y-76750000D03*
X174552500Y-77250000D03*
X174552500Y-77750000D03*
X174552500Y-78250000D03*
X174552500Y-78750000D03*
X174552500Y-79250000D03*
D20*
X173342500Y-79300000D03*
X172642500Y-78900000D03*
X172642500Y-78100000D03*
X173342500Y-77700000D03*
X172642500Y-77300000D03*
X173342500Y-76900000D03*
X173342500Y-76100000D03*
X172642500Y-75700000D03*
X173342500Y-75300000D03*
X172642500Y-74900000D03*
X172642500Y-74100000D03*
X173342500Y-73700000D03*
D21*
X175542500Y-73130000D03*
X175542500Y-75250000D03*
X175542500Y-77750000D03*
X175542500Y-79880000D03*
D22*
X172752500Y-72380000D03*
X172752500Y-80620000D03*
X168352500Y-72010000D03*
X168352500Y-80980000D03*
%TD*%
D23*
%TO.C,C5*%
X221000000Y-87400000D03*
X221000000Y-85850000D03*
%TD*%
D24*
%TO.C,R26*%
X192000000Y-69500000D03*
X192000000Y-67675000D03*
%TD*%
D15*
%TO.C,R31*%
X220970000Y-76097500D03*
X220970000Y-73172500D03*
%TD*%
D17*
%TO.C,JP1*%
X184000000Y-72000000D03*
X184000000Y-73300000D03*
%TD*%
%TO.C,JP3*%
X219750000Y-58000000D03*
X219750000Y-56700000D03*
%TD*%
D25*
%TO.C,R14*%
X231912500Y-59500000D03*
X230087500Y-59500000D03*
%TD*%
D17*
%TO.C,JP4*%
X177500000Y-54500000D03*
X177500000Y-53200000D03*
%TD*%
D16*
%TO.C,D2*%
X208500000Y-68500000D03*
X208500000Y-66625000D03*
%TD*%
D13*
%TO.C,TP2*%
X224470000Y-70635000D03*
%TD*%
D26*
%TO.C,Q1*%
X187625000Y-67550000D03*
X187625000Y-69450000D03*
X189500000Y-68500000D03*
%TD*%
D27*
%TO.C,C12*%
X213750000Y-54350000D03*
X212200000Y-54350000D03*
%TD*%
D28*
%TO.C,R28*%
X210462500Y-70500000D03*
X207537500Y-70500000D03*
%TD*%
D29*
%TO.C,R36*%
X213750000Y-61000000D03*
X215400000Y-61000000D03*
%TD*%
D23*
%TO.C,C15*%
X174010000Y-70615000D03*
X174010000Y-69065000D03*
%TD*%
D30*
%TO.C,L3*%
X237650000Y-61000000D03*
X241350000Y-61000000D03*
%TD*%
D31*
%TO.C,R6*%
X206500000Y-93000000D03*
X209425000Y-93000000D03*
%TD*%
D32*
%TO.C,C3*%
X195500000Y-91100000D03*
X195500000Y-89200000D03*
%TD*%
D17*
%TO.C,JP5*%
X173000000Y-88300000D03*
X173000000Y-89600000D03*
%TD*%
D13*
%TO.C,TP6*%
X186500000Y-93500000D03*
%TD*%
D33*
%TO.C,U1*%
X179000000Y-77150000D03*
X179000000Y-76500000D03*
X179000000Y-75850000D03*
X177000000Y-75850000D03*
X177000000Y-76500000D03*
X177000000Y-77150000D03*
D34*
X178000000Y-76500000D03*
%TD*%
D13*
%TO.C,TP11*%
X226000000Y-59000000D03*
%TD*%
D35*
%TO.C,C16*%
X179000000Y-74000000D03*
X179000000Y-73040000D03*
%TD*%
D36*
%TO.C,U10*%
X195245000Y-51550000D03*
X195245000Y-52500000D03*
X195245000Y-53450000D03*
X197755000Y-53450000D03*
X197755000Y-52500000D03*
X197755000Y-51550000D03*
%TD*%
D31*
%TO.C,R4*%
X201700775Y-81851910D03*
X204625775Y-81851910D03*
%TD*%
D35*
%TO.C,C9*%
X208500000Y-57850000D03*
X208500000Y-56890000D03*
%TD*%
D37*
%TO.C,SW1*%
X232136500Y-79300000D03*
X232136500Y-84000000D03*
X232136500Y-88700000D03*
X240536500Y-90600000D03*
X240536500Y-77400000D03*
%TD*%
D15*
%TO.C,R15*%
X228500000Y-57462500D03*
X228500000Y-54537500D03*
%TD*%
D38*
%TO.C,U7*%
X233940000Y-75040000D03*
X233940000Y-73770000D03*
X233940000Y-72500000D03*
X233940000Y-71230000D03*
X229000000Y-71230000D03*
X229000000Y-72500000D03*
X229000000Y-73770000D03*
X229000000Y-75040000D03*
%TD*%
D39*
%TO.C,R37*%
X192037500Y-71445000D03*
X192037500Y-74370000D03*
%TD*%
D40*
%TO.C,J3*%
X227500000Y-93000000D03*
D41*
X229500000Y-93000000D03*
%TD*%
D13*
%TO.C,TP16*%
X211900000Y-90700000D03*
%TD*%
D39*
%TO.C,R1*%
X175500000Y-87675000D03*
X175500000Y-90600000D03*
%TD*%
D28*
%TO.C,R16*%
X234925000Y-51500000D03*
X232000000Y-51500000D03*
%TD*%
D17*
%TO.C,JP2*%
X234500000Y-62850000D03*
X234500000Y-64150000D03*
%TD*%
D13*
%TO.C,TP10*%
X226000000Y-55000000D03*
%TD*%
D42*
%TO.C,FB1*%
X222800000Y-63500000D03*
X224200000Y-63500000D03*
%TD*%
D15*
%TO.C,R17*%
X192500000Y-60462500D03*
X192500000Y-57537500D03*
%TD*%
D13*
%TO.C,TP5*%
X179500000Y-91000000D03*
%TD*%
D27*
%TO.C,C11*%
X213750000Y-52850000D03*
X212200000Y-52850000D03*
%TD*%
%TO.C,C10*%
X213750000Y-51350000D03*
X212200000Y-51350000D03*
%TD*%
D43*
%TO.C,C13*%
X235500000Y-53500000D03*
X235500000Y-55050000D03*
%TD*%
D31*
%TO.C,R3*%
X201537500Y-84500000D03*
X204462500Y-84500000D03*
%TD*%
D44*
%TO.C,C14*%
X233725000Y-59500000D03*
X235275000Y-59500000D03*
%TD*%
D31*
%TO.C,R34*%
X206537500Y-95500000D03*
X209462500Y-95500000D03*
%TD*%
D13*
%TO.C,TP4*%
X202000000Y-55000000D03*
%TD*%
D45*
%TO.C,L1*%
X210250000Y-52287500D03*
X210250000Y-54412500D03*
%TD*%
D31*
%TO.C,R8*%
X201000000Y-95500000D03*
X203925000Y-95500000D03*
%TD*%
D18*
%TO.C,R10*%
X239500000Y-70087500D03*
X239500000Y-71912500D03*
%TD*%
D46*
%TO.C,U11*%
X181800000Y-57642500D03*
X179500000Y-57642500D03*
X177200000Y-57642500D03*
D47*
X179500000Y-63357500D03*
%TD*%
D15*
%TO.C,R18*%
X192500000Y-54462500D03*
X192500000Y-51537500D03*
%TD*%
D39*
%TO.C,R2*%
X168000000Y-87637500D03*
X168000000Y-90562500D03*
%TD*%
D48*
%TO.C,U2*%
X200025000Y-71500000D03*
X200025000Y-72770000D03*
X200025000Y-74040000D03*
X200025000Y-75310000D03*
X204975000Y-75310000D03*
X204975000Y-74040000D03*
X204975000Y-72770000D03*
X204975000Y-71500000D03*
D49*
X202500000Y-73405000D03*
%TD*%
D30*
%TO.C,L2*%
X241350000Y-56500000D03*
X237650000Y-56500000D03*
%TD*%
D31*
%TO.C,R35*%
X209500000Y-79500000D03*
X212425000Y-79500000D03*
%TD*%
D28*
%TO.C,R29*%
X210462500Y-73000000D03*
X207537500Y-73000000D03*
%TD*%
D50*
%TO.C,TP20*%
X203000000Y-63500000D03*
%TD*%
D39*
%TO.C,R24*%
X194500000Y-71575000D03*
X194500000Y-74500000D03*
%TD*%
D43*
%TO.C,C7*%
X226470000Y-69860000D03*
X226470000Y-71410000D03*
%TD*%
D32*
%TO.C,C4*%
X223000000Y-87400000D03*
X223000000Y-85500000D03*
%TD*%
D23*
%TO.C,C2*%
X193500000Y-90600000D03*
X193500000Y-89050000D03*
%TD*%
D13*
%TO.C,TP7*%
X219750000Y-54350000D03*
%TD*%
D15*
%TO.C,R33*%
X225970000Y-76097500D03*
X225970000Y-73172500D03*
%TD*%
D18*
%TO.C,R11*%
X241500000Y-70087500D03*
X241500000Y-71912500D03*
%TD*%
D13*
%TO.C,TP17*%
X202500000Y-93000000D03*
%TD*%
D51*
%TO.C,R27*%
X185500000Y-69500000D03*
X185500000Y-67500000D03*
%TD*%
D13*
%TO.C,TP15*%
X207500000Y-88000000D03*
%TD*%
%TO.C,TP8*%
X217750000Y-60350000D03*
%TD*%
D17*
%TO.C,JP7*%
X194500000Y-67850000D03*
X194500000Y-69150000D03*
%TD*%
D31*
%TO.C,R7*%
X206537500Y-90500000D03*
X209462500Y-90500000D03*
%TD*%
D51*
%TO.C,R19*%
X177500000Y-74500000D03*
X177500000Y-72500000D03*
%TD*%
D43*
%TO.C,C18*%
X175000000Y-59725000D03*
X175000000Y-61275000D03*
%TD*%
D15*
%TO.C,R9*%
X215970000Y-76097500D03*
X215970000Y-73172500D03*
%TD*%
D13*
%TO.C,TP18*%
X212000000Y-93500000D03*
%TD*%
D43*
%TO.C,C1*%
X193000000Y-86050000D03*
X193000000Y-87600000D03*
%TD*%
D44*
%TO.C,C20*%
X200700000Y-77405000D03*
X202250000Y-77405000D03*
%TD*%
%TO.C,C19*%
X180000000Y-54500000D03*
X181550000Y-54500000D03*
%TD*%
D13*
%TO.C,TP3*%
X202500000Y-52000000D03*
%TD*%
D23*
%TO.C,C8*%
X207000000Y-58400000D03*
X207000000Y-56850000D03*
%TD*%
D13*
%TO.C,TP9*%
X210000000Y-63000000D03*
%TD*%
D27*
%TO.C,C21*%
X205475000Y-77405000D03*
X203925000Y-77405000D03*
%TD*%
D43*
%TO.C,C6*%
X221500000Y-81500000D03*
X221500000Y-83050000D03*
%TD*%
D39*
%TO.C,R23*%
X197000000Y-71575000D03*
X197000000Y-74500000D03*
%TD*%
D13*
%TO.C,TP1*%
X228470000Y-77135000D03*
%TD*%
D14*
%TO.C,R12*%
X215750000Y-58175000D03*
X215750000Y-56525000D03*
%TD*%
D36*
%TO.C,U5*%
X195245000Y-57550000D03*
X195245000Y-58500000D03*
X195245000Y-59450000D03*
X197755000Y-59450000D03*
X197755000Y-58500000D03*
X197755000Y-57550000D03*
%TD*%
D13*
%TO.C,TP13*%
X184000000Y-76000000D03*
%TD*%
D52*
%TO.C,R13*%
X210162500Y-61000000D03*
X211987500Y-61000000D03*
%TD*%
D31*
%TO.C,R5*%
X201700775Y-79351910D03*
X204625775Y-79351910D03*
%TD*%
D13*
%TO.C,TP14*%
X181500000Y-82000000D03*
%TD*%
D53*
%TO.C,J2*%
X222660000Y-101040000D03*
D54*
X222660000Y-98500000D03*
X220120000Y-101040000D03*
X220120000Y-98500000D03*
X217580000Y-101040000D03*
X217580000Y-98500000D03*
X215040000Y-101040000D03*
X215040000Y-98500000D03*
X212500000Y-101040000D03*
X212500000Y-98500000D03*
X209960000Y-101040000D03*
X209960000Y-98500000D03*
X207420000Y-101040000D03*
X207420000Y-98500000D03*
X204880000Y-101040000D03*
X204880000Y-98500000D03*
X202340000Y-101040000D03*
X202340000Y-98500000D03*
X199800000Y-101040000D03*
X199800000Y-98500000D03*
X197260000Y-101040000D03*
X197260000Y-98500000D03*
X194720000Y-101040000D03*
X194720000Y-98500000D03*
X192180000Y-101040000D03*
X192180000Y-98500000D03*
X189640000Y-101040000D03*
X189640000Y-98500000D03*
X187100000Y-101040000D03*
X187100000Y-98500000D03*
X184560000Y-101040000D03*
X184560000Y-98500000D03*
%TD*%
M02*
