M48
; DRILL file {KiCad 9.0.0} date 2025-03-28T01:21:01+0200
; FORMAT={-:-/ absolute / inch / decimal}
; #@! TF.CreationDate,2025-03-28T01:21:01+02:00
; #@! TF.GenerationSoftware,Kicad,Pcbnew,9.0.0
; #@! TF.FileFunction,Plated,1,2,PTH
FMAT,2
INCH
; #@! TA.AperFunction,Plated,PTH,ComponentDrill
T1C0.0079
; #@! TA.AperFunction,Plated,PTH,ViaDrill
T2C0.0118
; #@! TA.AperFunction,Plated,PTH,ComponentDrill
T3C0.0157
; #@! TA.AperFunction,Plated,PTH,ComponentDrill
T4C0.0217
; #@! TA.AperFunction,Plated,PTH,ComponentDrill
T5C0.0295
; #@! TA.AperFunction,Plated,PTH,ComponentDrill
T6C0.0394
; #@! TA.AperFunction,Plated,PTH,ComponentDrill
T7C0.0591
%
G90
G05
T1
X7.3386Y-3.437
X7.3386Y-3.4843
X7.3386Y-3.5315
X7.3386Y-3.5787
X7.378Y-3.437
X7.378Y-3.4843
X7.378Y-3.5315
X7.378Y-3.5787
X7.4173Y-3.437
X7.4173Y-3.4843
X7.4173Y-3.5315
X7.4173Y-3.5787
X8.4213Y-3.3238
X8.4213Y-3.3711
X8.4213Y-3.4183
X8.4213Y-3.4656
X8.4606Y-3.3238
X8.4606Y-3.3711
X8.4606Y-3.4183
X8.4606Y-3.4656
X8.5Y-3.3238
X8.5Y-3.3711
X8.5Y-3.4183
X8.5Y-3.4656
T2
X6.7717Y-2.7165
X6.9232Y-3.0226
X6.9685Y-3.189
X6.9685Y-3.4449
X7.0079Y-3.0118
X7.0472Y-2.8756
X7.0669Y-3.6811
X7.0866Y-3.0709
X7.1063Y-2.9528
X7.1457Y-3.0512
X7.1457Y-3.4276
X7.1457Y-3.563
X7.1457Y-3.8189
X7.1457Y-4.0354
X7.2047Y-2.1457
X7.2047Y-3.1102
X7.2047Y-3.4449
X7.2244Y-2.0472
X7.3819Y-3.3661
X7.4359Y-3.3833
X7.4606Y-2.815
X7.4606Y-2.8937
X7.4617Y-2.6389
X7.5591Y-3.5236
X7.5591Y-3.7205
X7.6181Y-3.7598
X7.6378Y-3.3071
X7.6575Y-2.5394
X7.7165Y-3.3071
X7.815Y-2.2835
X7.8248Y-2.9626
X7.9035Y-2.2736
X8.0298Y-3.4053
X8.0315Y-2.5
X8.0709Y-2.6969
X8.0709Y-3.7008
X8.1102Y-3.4843
X8.2087Y-2.4016
X8.248Y-3.4843
X8.2596Y-3.3398
X8.2677Y-3.248
X8.3071Y-2.3228
X8.3071Y-3.7795
X8.3465Y-3.6811
X8.3465Y-3.7598
X8.3661Y-2.3228
X8.3661Y-2.9528
X8.4252Y-3.563
X8.4449Y-2.3228
X8.4449Y-3.189
X8.4646Y-3.1102
X8.5236Y-3.2283
X8.58Y-3.7572
X8.622Y-3.2677
X8.6614Y-2.0276
X8.7008Y-3.3268
X8.7205Y-3.2697
X8.8386Y-2.6378
X8.8386Y-3.0709
X8.8386Y-3.189
X8.9161Y-2.8114
X9.0551Y-2.5394
X9.0748Y-2.0276
X9.0748Y-2.2835
X9.1732Y-2.126
X9.2913Y-2.2638
X9.2913Y-2.4016
X9.311Y-2.8043
X9.3386Y-2.8691
X9.3504Y-2.1063
X9.3504Y-2.6772
T3
X6.7969Y-2.9173
X6.7969Y-2.9488
X6.7969Y-2.9803
X6.7969Y-3.0433
X6.7969Y-3.0748
X6.7969Y-3.1063
X6.8245Y-2.9016
X6.8245Y-2.9646
X6.8245Y-2.9961
X6.8245Y-3.0276
X6.8245Y-3.0591
X6.8245Y-3.122
T5
X8.9567Y-3.6614
X9.0354Y-3.6614
T6
X7.2661Y-3.878
X7.2661Y-3.978
X7.3661Y-3.878
X7.3661Y-3.978
X7.4661Y-3.878
X7.4661Y-3.978
X7.5661Y-3.878
X7.5661Y-3.978
X7.6661Y-3.878
X7.6661Y-3.978
X7.7661Y-3.878
X7.7661Y-3.978
X7.8661Y-3.878
X7.8661Y-3.978
X7.9661Y-3.878
X7.9661Y-3.978
X8.0661Y-3.878
X8.0661Y-3.978
X8.1661Y-3.878
X8.1661Y-3.978
X8.2661Y-3.878
X8.2661Y-3.978
X8.3661Y-3.878
X8.3661Y-3.978
X8.4661Y-3.878
X8.4661Y-3.978
X8.5661Y-3.878
X8.5661Y-3.978
X8.6661Y-3.878
X8.6661Y-3.978
X8.7661Y-3.878
X8.7661Y-3.978
T7
X9.1392Y-3.122
X9.1392Y-3.3071
X9.1392Y-3.4921
X9.4699Y-3.0472
X9.4699Y-3.5669
T4
G00X6.6399Y-2.835
M15
G01X6.6162Y-2.835
M16
G05
G00X6.6399Y-3.1882
M15
G01X6.6162Y-3.1882
M16
G05
G00X6.8131Y-2.8496
M15
G01X6.7895Y-2.8496
M16
G05
G00X6.8131Y-3.174
M15
G01X6.7895Y-3.174
M16
G05
M30
