%TF.GenerationSoftware,KiCad,Pcbnew,9.0.0*%
%TF.CreationDate,2025-04-09T16:26:40+02:00*%
%TF.ProjectId,MMPOwerBoardKiCAD9Version,4d4d504f-7765-4724-926f-6172644b6943,rev?*%
%TF.SameCoordinates,Original*%
%TF.FileFunction,Legend,Bot*%
%TF.FilePolarity,Positive*%
%FSLAX46Y46*%
G04 Gerber Fmt 4.6, Leading zero omitted, Abs format (unit mm)*
G04 Created by KiCad (PCBNEW 9.0.0) date 2025-04-09 16:26:40*
%MOMM*%
%LPD*%
G01*
G04 APERTURE LIST*
G04 Aperture macros list*
%AMRoundRect*
0 Rectangle with rounded corners*
0 $1 Rounding radius*
0 $2 $3 $4 $5 $6 $7 $8 $9 X,Y pos of 4 corners*
0 Add a 4 corners polygon primitive as box body*
4,1,4,$2,$3,$4,$5,$6,$7,$8,$9,$2,$3,0*
0 Add four circle primitives for the rounded corners*
1,1,$1+$1,$2,$3*
1,1,$1+$1,$4,$5*
1,1,$1+$1,$6,$7*
1,1,$1+$1,$8,$9*
0 Add four rect primitives between the rounded corners*
20,1,$1+$1,$2,$3,$4,$5,0*
20,1,$1+$1,$4,$5,$6,$7,0*
20,1,$1+$1,$6,$7,$8,$9,0*
20,1,$1+$1,$8,$9,$2,$3,0*%
G04 Aperture macros list end*
%ADD10C,0.150000*%
%ADD11C,0.120000*%
%ADD12O,2.000000X1.200000*%
%ADD13O,1.800000X1.200000*%
%ADD14C,0.600000*%
%ADD15C,2.300000*%
%ADD16RoundRect,0.250000X-0.350000X-0.625000X0.350000X-0.625000X0.350000X0.625000X-0.350000X0.625000X0*%
%ADD17O,1.200000X1.750000*%
%ADD18R,1.700000X1.700000*%
%ADD19O,1.700000X1.700000*%
G04 APERTURE END LIST*
D10*
X224914819Y-99166666D02*
X225629104Y-99166666D01*
X225629104Y-99166666D02*
X225771961Y-99119047D01*
X225771961Y-99119047D02*
X225867200Y-99023809D01*
X225867200Y-99023809D02*
X225914819Y-98880952D01*
X225914819Y-98880952D02*
X225914819Y-98785714D01*
X225010057Y-99595238D02*
X224962438Y-99642857D01*
X224962438Y-99642857D02*
X224914819Y-99738095D01*
X224914819Y-99738095D02*
X224914819Y-99976190D01*
X224914819Y-99976190D02*
X224962438Y-100071428D01*
X224962438Y-100071428D02*
X225010057Y-100119047D01*
X225010057Y-100119047D02*
X225105295Y-100166666D01*
X225105295Y-100166666D02*
X225200533Y-100166666D01*
X225200533Y-100166666D02*
X225343390Y-100119047D01*
X225343390Y-100119047D02*
X225914819Y-99547619D01*
X225914819Y-99547619D02*
X225914819Y-100166666D01*
D11*
%TO.C,J2*%
X183230000Y-102370000D02*
X183230000Y-97170000D01*
X221390000Y-99770000D02*
X223990000Y-99770000D01*
X221390000Y-102370000D02*
X183230000Y-102370000D01*
X221390000Y-102370000D02*
X221390000Y-99770000D01*
X222660000Y-102370000D02*
X223990000Y-102370000D01*
X223990000Y-97170000D02*
X183230000Y-97170000D01*
X223990000Y-99770000D02*
X223990000Y-97170000D01*
X223990000Y-102370000D02*
X223990000Y-101040000D01*
%TD*%
%LPC*%
D12*
%TO.C,J1*%
X170754500Y-71675000D03*
X170754500Y-80325000D03*
D13*
X166574500Y-80325000D03*
X166574500Y-71675000D03*
D14*
X170248500Y-78900000D03*
X170248500Y-73100000D03*
%TD*%
D15*
%TO.C,SW1*%
X232136500Y-79300000D03*
X232136500Y-84000000D03*
X232136500Y-88700000D03*
X240536500Y-90600000D03*
X240536500Y-77400000D03*
%TD*%
D16*
%TO.C,J3*%
X227500000Y-93000000D03*
D17*
X229500000Y-93000000D03*
%TD*%
D18*
%TO.C,J2*%
X222660000Y-101040000D03*
D19*
X222660000Y-98500000D03*
X220120000Y-101040000D03*
X220120000Y-98500000D03*
X217580000Y-101040000D03*
X217580000Y-98500000D03*
X215040000Y-101040000D03*
X215040000Y-98500000D03*
X212500000Y-101040000D03*
X212500000Y-98500000D03*
X209960000Y-101040000D03*
X209960000Y-98500000D03*
X207420000Y-101040000D03*
X207420000Y-98500000D03*
X204880000Y-101040000D03*
X204880000Y-98500000D03*
X202340000Y-101040000D03*
X202340000Y-98500000D03*
X199800000Y-101040000D03*
X199800000Y-98500000D03*
X197260000Y-101040000D03*
X197260000Y-98500000D03*
X194720000Y-101040000D03*
X194720000Y-98500000D03*
X192180000Y-101040000D03*
X192180000Y-98500000D03*
X189640000Y-101040000D03*
X189640000Y-98500000D03*
X187100000Y-101040000D03*
X187100000Y-98500000D03*
X184560000Y-101040000D03*
X184560000Y-98500000D03*
%TD*%
%LPD*%
M02*
