%TF.GenerationSoftware,KiCad,Pcbnew,9.0.0*%
%TF.CreationDate,2025-04-09T15:57:12+02:00*%
%TF.ProjectId,MMPOwerBoardKiCAD9Version,4d4d504f-7765-4724-926f-6172644b6943,rev?*%
%TF.SameCoordinates,Original*%
%TF.FileFunction,Copper,L2,Bot*%
%TF.FilePolarity,Positive*%
%FSLAX46Y46*%
G04 Gerber Fmt 4.6, Leading zero omitted, Abs format (unit mm)*
G04 Created by KiCad (PCBNEW 9.0.0) date 2025-04-09 15:57:12*
%MOMM*%
%LPD*%
G01*
G04 APERTURE LIST*
G04 Aperture macros list*
%AMRoundRect*
0 Rectangle with rounded corners*
0 $1 Rounding radius*
0 $2 $3 $4 $5 $6 $7 $8 $9 X,Y pos of 4 corners*
0 Add a 4 corners polygon primitive as box body*
4,1,4,$2,$3,$4,$5,$6,$7,$8,$9,$2,$3,0*
0 Add four circle primitives for the rounded corners*
1,1,$1+$1,$2,$3*
1,1,$1+$1,$4,$5*
1,1,$1+$1,$6,$7*
1,1,$1+$1,$8,$9*
0 Add four rect primitives between the rounded corners*
20,1,$1+$1,$2,$3,$4,$5,0*
20,1,$1+$1,$4,$5,$6,$7,0*
20,1,$1+$1,$6,$7,$8,$9,0*
20,1,$1+$1,$8,$9,$2,$3,0*%
G04 Aperture macros list end*
%TA.AperFunction,ComponentPad*%
%ADD10O,1.800000X1.200000*%
%TD*%
%TA.AperFunction,ComponentPad*%
%ADD11O,2.000000X1.200000*%
%TD*%
%TA.AperFunction,ComponentPad*%
%ADD12C,2.300000*%
%TD*%
%TA.AperFunction,ComponentPad*%
%ADD13RoundRect,0.250000X-0.350000X-0.625000X0.350000X-0.625000X0.350000X0.625000X-0.350000X0.625000X0*%
%TD*%
%TA.AperFunction,ComponentPad*%
%ADD14O,1.200000X1.750000*%
%TD*%
%TA.AperFunction,ComponentPad*%
%ADD15R,1.700000X1.700000*%
%TD*%
%TA.AperFunction,ComponentPad*%
%ADD16O,1.700000X1.700000*%
%TD*%
%TA.AperFunction,ViaPad*%
%ADD17C,0.600000*%
%TD*%
%TA.AperFunction,Conductor*%
%ADD18C,0.200000*%
%TD*%
%TA.AperFunction,Conductor*%
%ADD19C,0.300000*%
%TD*%
%TA.AperFunction,Conductor*%
%ADD20C,0.140000*%
%TD*%
%TA.AperFunction,Conductor*%
%ADD21C,0.400000*%
%TD*%
%TA.AperFunction,Conductor*%
%ADD22C,0.250000*%
%TD*%
%TA.AperFunction,Conductor*%
%ADD23C,0.500000*%
%TD*%
%TA.AperFunction,Conductor*%
%ADD24C,1.000000*%
%TD*%
G04 APERTURE END LIST*
D10*
%TO.P,J1,S2*%
%TO.N,Net-(C15-Pad1)*%
X166574500Y-71675000D03*
%TO.P,J1,S3*%
X166574500Y-80325000D03*
D11*
%TO.P,J1,S4*%
X170754500Y-80325000D03*
%TO.P,J1,S1*%
X170754500Y-71675000D03*
%TD*%
D12*
%TO.P,SW1,1,1*%
%TO.N,/ChargingCircuit*%
X232136500Y-79300000D03*
%TO.P,SW1,2,2*%
%TO.N,/Battery*%
X232136500Y-84000000D03*
%TO.P,SW1,3,3*%
%TO.N,/FromBattery*%
X232136500Y-88700000D03*
%TO.P,SW1,4,4*%
%TO.N,unconnected-(SW1-Pad4)*%
X240536500Y-90600000D03*
%TO.P,SW1,5,5*%
%TO.N,unconnected-(SW1-Pad5)*%
X240536500Y-77400000D03*
%TD*%
D13*
%TO.P,J3,1,Pin_1*%
%TO.N,/Battery*%
X227500000Y-93000000D03*
D14*
%TO.P,J3,2,Pin_2*%
%TO.N,GND*%
X229500000Y-93000000D03*
%TD*%
D15*
%TO.P,J2,1,Pin_1*%
%TO.N,/Motor2_B_OUT*%
X222660000Y-101040000D03*
D16*
%TO.P,J2,2,Pin_2*%
%TO.N,/Motor2_A_OUT*%
X222660000Y-98500000D03*
%TO.P,J2,3,Pin_3*%
%TO.N,/Motor4_A_OUT*%
X220120000Y-101040000D03*
%TO.P,J2,4,Pin_4*%
%TO.N,/MOTOR2_CTRL1*%
X220120000Y-98500000D03*
%TO.P,J2,5,Pin_5*%
%TO.N,/Motor4_B_OUT*%
X217580000Y-101040000D03*
%TO.P,J2,6,Pin_6*%
%TO.N,/MOTOR2_CTRL2*%
X217580000Y-98500000D03*
%TO.P,J2,7,Pin_7*%
%TO.N,/EXT_LOAD2_CTRL*%
X215040000Y-101040000D03*
%TO.P,J2,8,Pin_8*%
%TO.N,/MOTOR4_CTRL1*%
X215040000Y-98500000D03*
%TO.P,J2,9,Pin_9*%
%TO.N,unconnected-(J2-Pin_9-Pad9)*%
X212500000Y-101040000D03*
%TO.P,J2,10,Pin_10*%
%TO.N,/MOTOR4_CTRL2*%
X212500000Y-98500000D03*
%TO.P,J2,11,Pin_11*%
%TO.N,/EXT_LOAD2_OUT*%
X209960000Y-101040000D03*
%TO.P,J2,12,Pin_12*%
%TO.N,unconnected-(J2-Pin_12-Pad12)*%
X209960000Y-98500000D03*
%TO.P,J2,13,Pin_13*%
%TO.N,/FAST_CHARGE_CTRL*%
X207420000Y-101040000D03*
%TO.P,J2,14,Pin_14*%
%TO.N,/Battery*%
X207420000Y-98500000D03*
%TO.P,J2,15,Pin_15*%
%TO.N,unconnected-(J2-Pin_15-Pad15)*%
X204880000Y-101040000D03*
%TO.P,J2,16,Pin_16*%
%TO.N,/I2C1_SCL*%
X204880000Y-98500000D03*
%TO.P,J2,17,Pin_17*%
%TO.N,/I2C1_SDA*%
X202340000Y-101040000D03*
%TO.P,J2,18,Pin_18*%
%TO.N,/3V3*%
X202340000Y-98500000D03*
%TO.P,J2,19,Pin_19*%
%TO.N,GND*%
X199800000Y-101040000D03*
%TO.P,J2,20,Pin_20*%
%TO.N,/5V*%
X199800000Y-98500000D03*
%TO.P,J2,21,Pin_21*%
%TO.N,/EXT_LOAD1_OUT*%
X197260000Y-101040000D03*
%TO.P,J2,22,Pin_22*%
%TO.N,/9V*%
X197260000Y-98500000D03*
%TO.P,J2,23,Pin_23*%
%TO.N,GND*%
X194720000Y-101040000D03*
%TO.P,J2,24,Pin_24*%
%TO.N,/MOTOR3_CTRL1*%
X194720000Y-98500000D03*
%TO.P,J2,25,Pin_25*%
%TO.N,/EXT_LOAD1_CTRL*%
X192180000Y-101040000D03*
%TO.P,J2,26,Pin_26*%
%TO.N,/MOTOR3_CTRL2*%
X192180000Y-98500000D03*
%TO.P,J2,27,Pin_27*%
%TO.N,/Motor3_A_OUT*%
X189640000Y-101040000D03*
%TO.P,J2,28,Pin_28*%
%TO.N,/MOTOR1_CTRL1*%
X189640000Y-98500000D03*
%TO.P,J2,29,Pin_29*%
%TO.N,/Motor3_B_OUT*%
X187100000Y-101040000D03*
%TO.P,J2,30,Pin_30*%
%TO.N,/MOTOR1_CTRL2*%
X187100000Y-98500000D03*
%TO.P,J2,31,Pin_31*%
%TO.N,/Motor1_B_OUT*%
X184560000Y-101040000D03*
%TO.P,J2,32,Pin_32*%
%TO.N,/Motor1_A_OUT*%
X184560000Y-98500000D03*
%TD*%
D17*
%TO.N,GND*%
X223500000Y-83500000D03*
X233000000Y-92500000D03*
X178000000Y-79000000D03*
X216000000Y-86225000D03*
X187400000Y-89100000D03*
X188500000Y-89100000D03*
X215000000Y-86225000D03*
%TO.N,/MOTOR1_CTRL1*%
X189000000Y-85500000D03*
%TO.N,Net-(J1-DN1)*%
X169500000Y-75500000D03*
%TO.N,GND*%
X183000000Y-54500000D03*
X212000000Y-93500000D03*
X236000000Y-57500000D03*
X204500000Y-92500000D03*
X183000000Y-79000000D03*
X194000000Y-84000000D03*
X236000000Y-61000000D03*
X216500000Y-82000000D03*
X237500000Y-53500000D03*
X210000000Y-82500000D03*
X230000000Y-64500000D03*
X190000000Y-66250000D03*
X196250000Y-103250000D03*
X196500000Y-107000000D03*
X225000000Y-77500000D03*
X196000000Y-84000000D03*
X183500000Y-52000000D03*
X226000000Y-81000000D03*
X214500000Y-81000000D03*
%TO.N,/LoadCircuit*%
X224500000Y-67000000D03*
X233000000Y-54000000D03*
X221000000Y-84500000D03*
X192000000Y-89500000D03*
%TO.N,/3V3*%
X181500000Y-87062075D03*
X237500000Y-68000000D03*
%TO.N,Net-(JP1-B)*%
X181500000Y-77500000D03*
%TO.N,/9V*%
X181500000Y-102500000D03*
%TO.N,Net-(U2-CE)*%
X198750000Y-76500000D03*
X206000000Y-70500000D03*
%TO.N,/ChargingCircuit*%
X215000000Y-79000000D03*
%TO.N,Net-(J1-DN1)*%
X174534471Y-76942384D03*
%TO.N,Net-(J1-CC1)*%
X180500000Y-75000000D03*
X179500000Y-78800000D03*
%TO.N,Net-(J1-CC2)*%
X177000000Y-81000000D03*
%TO.N,/MOTOR3_CTRL2*%
X219000000Y-83000000D03*
X217932855Y-95432855D03*
%TO.N,/Motor4_B_OUT*%
X211000000Y-96000000D03*
%TO.N,/Motor3_B_OUT*%
X193500000Y-95500000D03*
%TO.N,/FAST_CHARGE_CTRL*%
X189500000Y-71500000D03*
X189500000Y-73500000D03*
%TO.N,/Motor3_A_OUT*%
X192000000Y-94500000D03*
%TO.N,/EXT_LOAD1_CTRL*%
X190500000Y-61000000D03*
X194000000Y-103500000D03*
%TO.N,/EXT_LOAD1_OUT*%
X199500000Y-57000000D03*
%TO.N,/MOTOR1_CTRL2*%
X189500000Y-83500000D03*
%TO.N,/Motor4_A_OUT*%
X214000000Y-90500000D03*
%TO.N,/Motor2_A_OUT*%
X230500000Y-97500000D03*
X224250000Y-104250000D03*
%TO.N,/EXT_LOAD2_CTRL*%
X196010000Y-55750000D03*
%TO.N,/I2C1_SDA*%
X237200000Y-72876000D03*
%TO.N,/EXT_LOAD2_OUT*%
X212500000Y-75000000D03*
%TO.N,/I2C1_SCL*%
X236500000Y-71230000D03*
%TO.N,/MOTOR4_CTRL1*%
X214000000Y-95000000D03*
%TO.N,/5V*%
X205500000Y-106500000D03*
X200000000Y-54000000D03*
X220000000Y-51500000D03*
X201948000Y-106500000D03*
%TO.N,/Motor1_A_OUT*%
X183000000Y-87500000D03*
%TO.N,/Motor2_B_OUT*%
X181500000Y-97000000D03*
X179500000Y-93500000D03*
%TO.N,Net-(JP5-A)*%
X181500000Y-90500000D03*
X177000000Y-87500000D03*
%TO.N,Net-(U9-AISEN)*%
X209463676Y-84500000D03*
X202153051Y-86346949D03*
%TO.N,Net-(U9-BISEN)*%
X210000000Y-87500000D03*
X205520000Y-88000000D03*
%TO.N,Net-(U6-FB)*%
X212500000Y-59000000D03*
X214500000Y-59000000D03*
%TO.N,GNDA*%
X211000000Y-59000000D03*
X208500000Y-61000000D03*
%TO.N,Net-(U4-PG)*%
X230500000Y-58000000D03*
X230500000Y-51500000D03*
%TD*%
D18*
%TO.N,GND*%
X226000000Y-81000000D02*
X223500000Y-83500000D01*
X182649000Y-79351000D02*
X183000000Y-79000000D01*
X178351000Y-79351000D02*
X182649000Y-79351000D01*
X178000000Y-79000000D02*
X178351000Y-79351000D01*
%TO.N,/MOTOR3_CTRL2*%
X219000000Y-91865710D02*
X219000000Y-83000000D01*
X217932855Y-92932855D02*
X219000000Y-91865710D01*
X217932855Y-95432855D02*
X217932855Y-92932855D01*
%TO.N,/MOTOR1_CTRL2*%
X186000000Y-97400000D02*
X187100000Y-98500000D01*
X189500000Y-83500000D02*
X186000000Y-87000000D01*
X186000000Y-87000000D02*
X186000000Y-97400000D01*
D19*
%TO.N,/EXT_LOAD2_CTRL*%
X216241000Y-99839000D02*
X215040000Y-101040000D01*
X212809562Y-92303438D02*
X216241000Y-95734876D01*
X212809562Y-89500000D02*
X212809562Y-92303438D01*
X214000000Y-83000000D02*
X214000000Y-89000000D01*
X216241000Y-95734876D02*
X216241000Y-99839000D01*
X213351000Y-68351000D02*
X213351000Y-82351000D01*
X214000000Y-89000000D02*
X213309562Y-89000000D01*
X203750000Y-58750000D02*
X213351000Y-68351000D01*
X203750000Y-57250000D02*
X203750000Y-58750000D01*
X213351000Y-82351000D02*
X214000000Y-83000000D01*
X213309562Y-89000000D02*
X212809562Y-89500000D01*
X202500000Y-56000000D02*
X203750000Y-57250000D01*
X198500000Y-56000000D02*
X202500000Y-56000000D01*
X198250000Y-55750000D02*
X198500000Y-56000000D01*
X196010000Y-55750000D02*
X198250000Y-55750000D01*
D18*
%TO.N,/MOTOR1_CTRL1*%
X189500000Y-86565240D02*
X189500000Y-97000000D01*
X189000000Y-86065240D02*
X189500000Y-86565240D01*
X189000000Y-85500000D02*
X189000000Y-86065240D01*
D20*
%TO.N,Net-(J1-DN1)*%
X170774000Y-76774000D02*
X169500000Y-75500000D01*
X174366087Y-76774000D02*
X170774000Y-76774000D01*
X174534471Y-76942384D02*
X174366087Y-76774000D01*
D18*
%TO.N,/MOTOR4_CTRL1*%
X213000000Y-96460000D02*
X215040000Y-98500000D01*
X213000000Y-96000000D02*
X213000000Y-96460000D01*
X214000000Y-95000000D02*
X213000000Y-96000000D01*
D21*
%TO.N,/Motor4_A_OUT*%
X217703855Y-96083855D02*
X218831000Y-97211000D01*
X218831000Y-97211000D02*
X218831000Y-99751000D01*
X217663201Y-96083855D02*
X217703855Y-96083855D01*
X217281855Y-95702509D02*
X217663201Y-96083855D01*
X217281855Y-95661855D02*
X217281855Y-95702509D01*
X214000000Y-90500000D02*
X214000000Y-92380000D01*
X214000000Y-92380000D02*
X217281855Y-95661855D01*
X218831000Y-99751000D02*
X220120000Y-101040000D01*
D20*
%TO.N,GND*%
X236000000Y-57500000D02*
X236000000Y-61000000D01*
D18*
X183000000Y-54500000D02*
X183500000Y-54000000D01*
D22*
X204500000Y-94500000D02*
X200976000Y-98024000D01*
D18*
X196250000Y-103250000D02*
X196500000Y-103500000D01*
X196500000Y-103500000D02*
X196500000Y-107000000D01*
X204500000Y-92500000D02*
X204300000Y-92700000D01*
D20*
X194000000Y-84000000D02*
X196000000Y-84000000D01*
X209413595Y-83086405D02*
X210000000Y-82500000D01*
X201000000Y-84500000D02*
X202413595Y-83086405D01*
X237500000Y-56000000D02*
X237500000Y-54000000D01*
X237500000Y-54000000D02*
X237500000Y-53500000D01*
X201000000Y-86000000D02*
X201000000Y-84500000D01*
D22*
X199800000Y-100163116D02*
X199800000Y-101040000D01*
D18*
X216500000Y-82000000D02*
X215500000Y-82000000D01*
X215500000Y-82000000D02*
X214500000Y-81000000D01*
D22*
X200976000Y-98024000D02*
X200976000Y-98987116D01*
D20*
X205000000Y-92000000D02*
X205000000Y-88000000D01*
X236000000Y-57500000D02*
X237500000Y-56000000D01*
D22*
X200976000Y-98987116D02*
X199800000Y-100163116D01*
X204500000Y-92500000D02*
X204500000Y-94500000D01*
D20*
X224500000Y-77000000D02*
X224500000Y-73500000D01*
X225000000Y-77500000D02*
X224500000Y-77000000D01*
X202064916Y-87064916D02*
X201000000Y-86000000D01*
X202413595Y-83086405D02*
X209413595Y-83086405D01*
X182049000Y-79951000D02*
X183000000Y-79000000D01*
X204500000Y-92500000D02*
X205000000Y-92000000D01*
X224500000Y-73500000D02*
X226500000Y-71500000D01*
X199800000Y-89872809D02*
X199836405Y-89836405D01*
X204064916Y-87064916D02*
X202064916Y-87064916D01*
D18*
X183500000Y-54000000D02*
X183500000Y-52000000D01*
D20*
X205000000Y-88000000D02*
X204064916Y-87064916D01*
D18*
X204300000Y-92700000D02*
X204300000Y-94000000D01*
D23*
%TO.N,/LoadCircuit*%
X204437925Y-58000000D02*
X216437925Y-70000000D01*
X195500000Y-55000000D02*
X203500000Y-55000000D01*
X233000000Y-54000000D02*
X233000000Y-58500000D01*
X192000000Y-89500000D02*
X192000000Y-58500000D01*
X233000000Y-58500000D02*
X224500000Y-67000000D01*
X216437925Y-70000000D02*
X221500000Y-70000000D01*
X214000000Y-72437925D02*
X214000000Y-79474201D01*
X217313075Y-80251000D02*
X221000000Y-83937925D01*
X204437925Y-55937925D02*
X204437925Y-58000000D01*
X214000000Y-79474201D02*
X214776799Y-80251000D01*
X203500000Y-55000000D02*
X204437925Y-55937925D01*
X221500000Y-70000000D02*
X224500000Y-67000000D01*
X192000000Y-58500000D02*
X195500000Y-55000000D01*
X214776799Y-80251000D02*
X217313075Y-80251000D01*
X221000000Y-83937925D02*
X221000000Y-84500000D01*
X216437925Y-70000000D02*
X214000000Y-72437925D01*
D21*
%TO.N,/3V3*%
X205769654Y-105849000D02*
X206151000Y-106230346D01*
D23*
X202259075Y-107251000D02*
X201636925Y-107251000D01*
X201197000Y-106669654D02*
X197027346Y-102500000D01*
D21*
X206151000Y-106477834D02*
X206673166Y-107000000D01*
D23*
X204411000Y-106069000D02*
X203980000Y-106500000D01*
X181813925Y-103876000D02*
X180749000Y-102811075D01*
X193197704Y-102500000D02*
X192159116Y-103538587D01*
X197027346Y-102500000D02*
X193197704Y-102500000D01*
D21*
X237951000Y-93549000D02*
X237951000Y-68451000D01*
D23*
X191821704Y-103876000D02*
X181813925Y-103876000D01*
D21*
X201089000Y-101911000D02*
X204829000Y-105651000D01*
D23*
X204411000Y-105988413D02*
X204411000Y-106069000D01*
D21*
X224500000Y-107000000D02*
X237951000Y-93549000D01*
X237951000Y-68451000D02*
X237500000Y-68000000D01*
D23*
X201197000Y-106811075D02*
X201197000Y-106669654D01*
X201636925Y-107251000D02*
X201197000Y-106811075D01*
D21*
X205128673Y-105950673D02*
X205230346Y-105849000D01*
X201089000Y-99751000D02*
X201089000Y-101911000D01*
D23*
X204829000Y-105651000D02*
X204748413Y-105651000D01*
X202699000Y-106500000D02*
X202699000Y-106811075D01*
D21*
X201164000Y-99676000D02*
X201089000Y-99751000D01*
D23*
X180749000Y-102811075D02*
X180749000Y-100600000D01*
X192159116Y-103538587D02*
X191821704Y-103876000D01*
D21*
X205230346Y-105849000D02*
X205769654Y-105849000D01*
D23*
X180749000Y-100600000D02*
X182349000Y-99000000D01*
X202340000Y-98500000D02*
X201164000Y-99676000D01*
D21*
X206673166Y-107000000D02*
X224500000Y-107000000D01*
D23*
X182349000Y-87911075D02*
X181500000Y-87062075D01*
D21*
X204829000Y-105651000D02*
X205128673Y-105950673D01*
X206151000Y-106230346D02*
X206151000Y-106477834D01*
D23*
X182349000Y-99000000D02*
X182349000Y-87911075D01*
X204748413Y-105651000D02*
X204411000Y-105988413D01*
X202699000Y-106811075D02*
X202259075Y-107251000D01*
X203980000Y-106500000D02*
X202699000Y-106500000D01*
D21*
%TO.N,Net-(JP1-B)*%
X183500000Y-75500000D02*
X183500000Y-70000000D01*
X183500000Y-70000000D02*
X178642500Y-70000000D01*
D22*
%TO.N,/9V*%
X181500000Y-102637810D02*
X182162190Y-103300000D01*
X193544000Y-101339116D02*
X193544000Y-100456000D01*
X181500000Y-102500000D02*
X181500000Y-102637810D01*
X191583116Y-103300000D02*
X193544000Y-101339116D01*
X196760000Y-99000000D02*
X197260000Y-98500000D01*
X193544000Y-100456000D02*
X194324000Y-99676000D01*
X182162190Y-103300000D02*
X191583116Y-103300000D01*
X195207116Y-99676000D02*
X195883116Y-99000000D01*
X194324000Y-99676000D02*
X195207116Y-99676000D01*
X195883116Y-99000000D02*
X196760000Y-99000000D01*
D19*
%TO.N,Net-(U2-CE)*%
X202500000Y-70500000D02*
X198750000Y-74250000D01*
X198750000Y-74250000D02*
X198750000Y-76500000D01*
X206000000Y-70500000D02*
X202500000Y-70500000D01*
D24*
%TO.N,/ChargingCircuit*%
X215300000Y-79300000D02*
X215000000Y-79000000D01*
X215096740Y-79096740D02*
X215096740Y-79125069D01*
X215096740Y-79158719D02*
X215063088Y-79192371D01*
X215000000Y-79000000D02*
X215096740Y-79096740D01*
X232136500Y-79300000D02*
X215300000Y-79300000D01*
X215096740Y-79125069D02*
X215096740Y-79158719D01*
D20*
%TO.N,Net-(J1-CC1)*%
X179500000Y-75000000D02*
X180500000Y-75000000D01*
X179500000Y-78800000D02*
X179500000Y-75000000D01*
D19*
%TO.N,/MOTOR3_CTRL2*%
X192180000Y-98500000D02*
X192651000Y-98029000D01*
D21*
%TO.N,/Motor4_B_OUT*%
X214521818Y-102291000D02*
X216329000Y-102291000D01*
X213018182Y-99789000D02*
X213789000Y-100559818D01*
X211249000Y-99056182D02*
X211981818Y-99789000D01*
X211981818Y-99789000D02*
X213018182Y-99789000D01*
X211249000Y-96249000D02*
X211249000Y-99056182D01*
X213789000Y-100559818D02*
X213789000Y-101558182D01*
X213789000Y-101558182D02*
X214521818Y-102291000D01*
X216329000Y-102291000D02*
X217580000Y-101040000D01*
X211000000Y-96000000D02*
X211249000Y-96249000D01*
%TO.N,/Motor3_B_OUT*%
X190158182Y-102291000D02*
X188791000Y-102291000D01*
X190929000Y-101520182D02*
X190158182Y-102291000D01*
X188791000Y-102291000D02*
X188351000Y-102291000D01*
X193469000Y-95531000D02*
X193469000Y-99018182D01*
X192698182Y-99789000D02*
X191623818Y-99789000D01*
X191623818Y-99789000D02*
X190929000Y-100483818D01*
X190929000Y-100483818D02*
X190929000Y-101520182D01*
X193500000Y-95500000D02*
X193469000Y-95531000D01*
X193469000Y-99018182D02*
X192698182Y-99789000D01*
X188351000Y-102291000D02*
X187100000Y-101040000D01*
D18*
%TO.N,/MOTOR1_CTRL1*%
X189500000Y-97000000D02*
X189500000Y-97012240D01*
X189500000Y-97000000D02*
X189640000Y-97140000D01*
X189640000Y-97140000D02*
X189640000Y-98500000D01*
D19*
%TO.N,/FAST_CHARGE_CTRL*%
X189500000Y-73500000D02*
X189500000Y-71500000D01*
D21*
%TO.N,/Motor3_A_OUT*%
X192000000Y-94500000D02*
X192000000Y-96140000D01*
X190929000Y-97211000D02*
X190929000Y-99571000D01*
X192000000Y-96140000D02*
X190929000Y-97211000D01*
X190929000Y-99571000D02*
X189640000Y-100860000D01*
X189640000Y-100860000D02*
X189640000Y-101040000D01*
D18*
%TO.N,/EXT_LOAD1_CTRL*%
X190101000Y-73748943D02*
X189748943Y-74101000D01*
X190500000Y-61000000D02*
X191449000Y-61949000D01*
X191449000Y-72201058D02*
X190101000Y-73549058D01*
X189549058Y-74101000D02*
X175989928Y-87660130D01*
X192000000Y-105500000D02*
X194000000Y-103500000D01*
X190101000Y-73549058D02*
X190101000Y-73748943D01*
X175989928Y-99989928D02*
X181500000Y-105500000D01*
X191449000Y-61949000D02*
X191449000Y-72201058D01*
X175989928Y-87660130D02*
X175989928Y-99989928D01*
X181500000Y-105500000D02*
X192000000Y-105500000D01*
X189748943Y-74101000D02*
X189549058Y-74101000D01*
D24*
%TO.N,/EXT_LOAD1_OUT*%
X198500000Y-85001000D02*
X198500000Y-94740000D01*
X197001000Y-84414628D02*
X196414628Y-85001000D01*
D21*
X198511000Y-97511000D02*
X198511000Y-99018182D01*
D23*
X198500000Y-94740000D02*
X198500000Y-97500000D01*
D21*
X197260000Y-100269182D02*
X197260000Y-101040000D01*
D24*
X196414628Y-85001000D02*
X198500000Y-85001000D01*
X197001000Y-83585372D02*
X197001000Y-84414628D01*
X199500000Y-57000000D02*
X196000000Y-60500000D01*
D21*
X198500000Y-97500000D02*
X198511000Y-97511000D01*
X198511000Y-99018182D02*
X197260000Y-100269182D01*
D24*
X196000000Y-82999000D02*
X196414628Y-82999000D01*
X196414628Y-82999000D02*
X197001000Y-83585372D01*
X196000000Y-60500000D02*
X196000000Y-82999000D01*
D21*
%TO.N,/Motor2_A_OUT*%
X224250000Y-104250000D02*
X230500000Y-98000000D01*
X230500000Y-98000000D02*
X230500000Y-97500000D01*
%TO.N,/I2C1_SDA*%
X237000000Y-93500000D02*
X224551000Y-105949000D01*
X203591000Y-101520182D02*
X202820182Y-101520182D01*
D23*
X237200000Y-72876000D02*
X237151000Y-72925000D01*
X237151000Y-72925000D02*
X237151000Y-73775000D01*
D21*
X237101000Y-92248942D02*
X237000000Y-92349942D01*
X202820182Y-101520182D02*
X202340000Y-101040000D01*
X237000000Y-92349942D02*
X237000000Y-93500000D01*
X208019818Y-105949000D02*
X203591000Y-101520182D01*
X224551000Y-105949000D02*
X208019818Y-105949000D01*
X237101000Y-73775000D02*
X237101000Y-92248942D01*
%TO.N,/EXT_LOAD2_OUT*%
X208709000Y-97981818D02*
X208709000Y-99018182D01*
X209500000Y-95500000D02*
X209500000Y-97190818D01*
X209960000Y-99751000D02*
X209960000Y-101040000D01*
D24*
X209960000Y-94960000D02*
X210000000Y-95000000D01*
X212500000Y-75000000D02*
X212500000Y-86915628D01*
D21*
X210000000Y-95000000D02*
X209500000Y-95500000D01*
X209500000Y-97190818D02*
X208709000Y-97981818D01*
X209441818Y-99751000D02*
X209960000Y-99751000D01*
X208709000Y-99018182D02*
X209441818Y-99751000D01*
D24*
X209960000Y-89455628D02*
X209960000Y-94960000D01*
X212500000Y-86915628D02*
X209960000Y-89455628D01*
D21*
%TO.N,/I2C1_SCL*%
X236500000Y-71230000D02*
X236500000Y-92070710D01*
X206169000Y-99789000D02*
X204880000Y-98500000D01*
X224500000Y-105000000D02*
X224420654Y-105000000D01*
X224420654Y-105000000D02*
X224269654Y-105151000D01*
X224269654Y-105151000D02*
X223730346Y-105151000D01*
X223579346Y-105000000D02*
X208840000Y-105000000D01*
X208840000Y-105000000D02*
X206169000Y-102329000D01*
X236449000Y-93051000D02*
X224500000Y-105000000D01*
X223730346Y-105151000D02*
X223579346Y-105000000D01*
X236500000Y-92070710D02*
X236449000Y-92121710D01*
X206169000Y-102329000D02*
X206169000Y-99789000D01*
X236449000Y-92121710D02*
X236449000Y-93051000D01*
%TO.N,/Battery*%
X207420000Y-98920000D02*
X207420000Y-98500000D01*
X208709000Y-102329000D02*
X208709000Y-100209000D01*
X208709000Y-100209000D02*
X207420000Y-98920000D01*
D24*
X227500000Y-88636500D02*
X232136500Y-84000000D01*
X223808001Y-103191999D02*
X227500000Y-99500000D01*
X227500000Y-93000000D02*
X227500000Y-88636500D01*
D21*
X209571999Y-103191999D02*
X208709000Y-102329000D01*
D24*
X227500000Y-99500000D02*
X227500000Y-93000000D01*
X209571999Y-103191999D02*
X223808001Y-103191999D01*
D22*
%TO.N,/5V*%
X225000000Y-108000000D02*
X238527000Y-94473000D01*
X238527000Y-94473000D02*
X238527000Y-52027000D01*
X220626000Y-50874000D02*
X220000000Y-51500000D01*
D21*
X199500000Y-99719240D02*
X199500000Y-98908520D01*
X198549000Y-100951000D02*
X198549000Y-100521818D01*
D23*
X207000000Y-51500000D02*
X220000000Y-51500000D01*
D21*
X198549000Y-100521818D02*
X199281818Y-99789000D01*
X201948000Y-106500000D02*
X201250000Y-105802000D01*
X199430240Y-99789000D02*
X199500000Y-99719240D01*
X198511000Y-103011000D02*
X198511000Y-100989000D01*
D22*
X237374000Y-50874000D02*
X220626000Y-50874000D01*
D21*
X201250000Y-105750000D02*
X198511000Y-103011000D01*
X201250000Y-105802000D02*
X201250000Y-105750000D01*
X199500000Y-98908520D02*
X199445740Y-98854260D01*
D22*
X207000000Y-108000000D02*
X225000000Y-108000000D01*
D21*
X199281818Y-99789000D02*
X199430240Y-99789000D01*
D22*
X238527000Y-52027000D02*
X237374000Y-50874000D01*
X205500000Y-106500000D02*
X207000000Y-108000000D01*
D23*
X200000000Y-54000000D02*
X204500000Y-54000000D01*
X204500000Y-54000000D02*
X207000000Y-51500000D01*
D21*
X198511000Y-100989000D02*
X198549000Y-100951000D01*
%TO.N,/Motor1_A_OUT*%
X183000000Y-87500000D02*
X183000000Y-96500000D01*
X183000000Y-96940000D02*
X183000000Y-96500000D01*
X184560000Y-98500000D02*
X183000000Y-96940000D01*
%TO.N,/Motor2_B_OUT*%
X179500000Y-93500000D02*
X181500000Y-95500000D01*
X181500000Y-95500000D02*
X181500000Y-97000000D01*
D18*
%TO.N,Net-(JP5-A)*%
X180000000Y-90500000D02*
X177000000Y-87500000D01*
X181500000Y-90500000D02*
X180500000Y-90500000D01*
X180500000Y-90500000D02*
X180000000Y-90500000D01*
%TO.N,Net-(U9-AISEN)*%
X209463676Y-84500000D02*
X204000000Y-84500000D01*
X204000000Y-84500000D02*
X202153051Y-86346949D01*
%TO.N,Net-(U9-BISEN)*%
X210000000Y-87500000D02*
X209500000Y-87500000D01*
X209500000Y-87500000D02*
X209000000Y-88000000D01*
X209000000Y-88000000D02*
X205520000Y-88000000D01*
D22*
%TO.N,Net-(U6-FB)*%
X212500000Y-59000000D02*
X214500000Y-59000000D01*
%TO.N,GNDA*%
X210500000Y-59500000D02*
X209000000Y-59500000D01*
X208500000Y-60000000D02*
X208500000Y-61000000D01*
X211000000Y-59000000D02*
X210500000Y-59500000D01*
X209000000Y-59500000D02*
X208500000Y-60000000D01*
%TO.N,Net-(U4-PG)*%
X230500000Y-58000000D02*
X230500000Y-51500000D01*
D21*
%TO.N,Net-(JP1-B)*%
X181500000Y-77500000D02*
X183500000Y-75500000D01*
%TD*%
%TA.AperFunction,Conductor*%
%TO.N,GND*%
G36*
X242942539Y-49520185D02*
G01*
X242988294Y-49572989D01*
X242999500Y-49624500D01*
X242999500Y-93218890D01*
X242979815Y-93285929D01*
X242957716Y-93311715D01*
X232402291Y-102660807D01*
X225857395Y-108457716D01*
X225845417Y-108468325D01*
X225820913Y-108479839D01*
X225798136Y-108494477D01*
X225786069Y-108496211D01*
X225782181Y-108498039D01*
X225763201Y-108499500D01*
X225684451Y-108499500D01*
X225617412Y-108479815D01*
X225571657Y-108427011D01*
X225561713Y-108357853D01*
X225590738Y-108294297D01*
X225596770Y-108287819D01*
X232249188Y-101635401D01*
X238925729Y-94958860D01*
X238925733Y-94958858D01*
X239012858Y-94871733D01*
X239081311Y-94769286D01*
X239081312Y-94769285D01*
X239124060Y-94666082D01*
X239128463Y-94655452D01*
X239140481Y-94595029D01*
X239152500Y-94534607D01*
X239152500Y-94411393D01*
X239152500Y-91849522D01*
X239172185Y-91782483D01*
X239224989Y-91736728D01*
X239294147Y-91726784D01*
X239357703Y-91755809D01*
X239364181Y-91761841D01*
X239461271Y-91858931D01*
X239671449Y-92011634D01*
X239818945Y-92086787D01*
X239902923Y-92129577D01*
X239902925Y-92129577D01*
X239902928Y-92129579D01*
X240150007Y-92209860D01*
X240282206Y-92230797D01*
X240406598Y-92250500D01*
X240406603Y-92250500D01*
X240666402Y-92250500D01*
X240779798Y-92232539D01*
X240922993Y-92209860D01*
X241170072Y-92129579D01*
X241401551Y-92011634D01*
X241611729Y-91858931D01*
X241795431Y-91675229D01*
X241948134Y-91465051D01*
X242066079Y-91233572D01*
X242146360Y-90986493D01*
X242169039Y-90843298D01*
X242187000Y-90729902D01*
X242187000Y-90470097D01*
X242165447Y-90334021D01*
X242146360Y-90213507D01*
X242066079Y-89966428D01*
X242066077Y-89966425D01*
X242066077Y-89966423D01*
X241976494Y-89790609D01*
X241948134Y-89734949D01*
X241795431Y-89524771D01*
X241611729Y-89341069D01*
X241601410Y-89333572D01*
X241401553Y-89188367D01*
X241170076Y-89070422D01*
X240922993Y-88990140D01*
X240666402Y-88949500D01*
X240666397Y-88949500D01*
X240406603Y-88949500D01*
X240406598Y-88949500D01*
X240150006Y-88990140D01*
X239902923Y-89070422D01*
X239671447Y-89188367D01*
X239461274Y-89341066D01*
X239461268Y-89341071D01*
X239364181Y-89438159D01*
X239302858Y-89471644D01*
X239233166Y-89466660D01*
X239177233Y-89424788D01*
X239152816Y-89359324D01*
X239152500Y-89350478D01*
X239152500Y-78649522D01*
X239172185Y-78582483D01*
X239224989Y-78536728D01*
X239294147Y-78526784D01*
X239357703Y-78555809D01*
X239364181Y-78561841D01*
X239461271Y-78658931D01*
X239671449Y-78811634D01*
X239818945Y-78886787D01*
X239902923Y-78929577D01*
X239902925Y-78929577D01*
X239902928Y-78929579D01*
X240150007Y-79009860D01*
X240282206Y-79030797D01*
X240406598Y-79050500D01*
X240406603Y-79050500D01*
X240666402Y-79050500D01*
X240779798Y-79032539D01*
X240922993Y-79009860D01*
X241170072Y-78929579D01*
X241401551Y-78811634D01*
X241611729Y-78658931D01*
X241795431Y-78475229D01*
X241948134Y-78265051D01*
X242066079Y-78033572D01*
X242146360Y-77786493D01*
X242169039Y-77643298D01*
X242187000Y-77529902D01*
X242187000Y-77270097D01*
X242163357Y-77120827D01*
X242146360Y-77013507D01*
X242066079Y-76766428D01*
X242066077Y-76766425D01*
X242066077Y-76766423D01*
X242023287Y-76682445D01*
X241948134Y-76534949D01*
X241795431Y-76324771D01*
X241611729Y-76141069D01*
X241583860Y-76120821D01*
X241401554Y-75988368D01*
X241401553Y-75988367D01*
X241401551Y-75988366D01*
X241319469Y-75946543D01*
X241170076Y-75870422D01*
X240922993Y-75790140D01*
X240666402Y-75749500D01*
X240666397Y-75749500D01*
X240406603Y-75749500D01*
X240406598Y-75749500D01*
X240150006Y-75790140D01*
X239902923Y-75870422D01*
X239671445Y-75988368D01*
X239461274Y-76141066D01*
X239461268Y-76141071D01*
X239364181Y-76238159D01*
X239302858Y-76271644D01*
X239233166Y-76266660D01*
X239177233Y-76224788D01*
X239152816Y-76159324D01*
X239152500Y-76150478D01*
X239152500Y-51965393D01*
X239149977Y-51952712D01*
X239142410Y-51914669D01*
X239128463Y-51844549D01*
X239104887Y-51787631D01*
X239081313Y-51730718D01*
X239081312Y-51730717D01*
X239081311Y-51730714D01*
X239073425Y-51718912D01*
X239012858Y-51628267D01*
X239012856Y-51628264D01*
X238922637Y-51538045D01*
X238922606Y-51538016D01*
X237867150Y-50482560D01*
X237859860Y-50475270D01*
X237859858Y-50475267D01*
X237772733Y-50388142D01*
X237721509Y-50353915D01*
X237670286Y-50319688D01*
X237670283Y-50319686D01*
X237670280Y-50319685D01*
X237596603Y-50289168D01*
X237596601Y-50289167D01*
X237589792Y-50286347D01*
X237556452Y-50272537D01*
X237496029Y-50260518D01*
X237491306Y-50259578D01*
X237491304Y-50259578D01*
X237435610Y-50248500D01*
X237435607Y-50248500D01*
X237435606Y-50248500D01*
X220693741Y-50248500D01*
X220693721Y-50248499D01*
X220687607Y-50248499D01*
X220564394Y-50248499D01*
X220463597Y-50268548D01*
X220463592Y-50268548D01*
X220443549Y-50272536D01*
X220443547Y-50272536D01*
X220396397Y-50292067D01*
X220329719Y-50319685D01*
X220329717Y-50319686D01*
X220227266Y-50388141D01*
X220227263Y-50388144D01*
X219941203Y-50674205D01*
X219926505Y-50682494D01*
X219915916Y-50693683D01*
X219887808Y-50704320D01*
X219883198Y-50706921D01*
X219880474Y-50707592D01*
X219766503Y-50730263D01*
X219734176Y-50743652D01*
X219725072Y-50745897D01*
X219715603Y-50745480D01*
X219695396Y-50749500D01*
X206926080Y-50749500D01*
X206781092Y-50778340D01*
X206781086Y-50778342D01*
X206644508Y-50834914D01*
X206644496Y-50834921D01*
X206595269Y-50867813D01*
X206521588Y-50917044D01*
X206521580Y-50917050D01*
X204225451Y-53213181D01*
X204164128Y-53246666D01*
X204137770Y-53249500D01*
X200304604Y-53249500D01*
X200257155Y-53240062D01*
X200233497Y-53230263D01*
X200233493Y-53230262D01*
X200233488Y-53230260D01*
X200078845Y-53199500D01*
X200078842Y-53199500D01*
X199921158Y-53199500D01*
X199921155Y-53199500D01*
X199766510Y-53230261D01*
X199766498Y-53230264D01*
X199620827Y-53290602D01*
X199620814Y-53290609D01*
X199489711Y-53378210D01*
X199489707Y-53378213D01*
X199378213Y-53489707D01*
X199378210Y-53489711D01*
X199290609Y-53620814D01*
X199290602Y-53620827D01*
X199230264Y-53766498D01*
X199230261Y-53766510D01*
X199199500Y-53921153D01*
X199199500Y-53921158D01*
X199199500Y-54078842D01*
X199199501Y-54078846D01*
X199203969Y-54101310D01*
X199197740Y-54170901D01*
X199154877Y-54226078D01*
X199088987Y-54249322D01*
X199082351Y-54249500D01*
X195426080Y-54249500D01*
X195281092Y-54278340D01*
X195281082Y-54278343D01*
X195144511Y-54334912D01*
X195144498Y-54334919D01*
X195021584Y-54417048D01*
X195021580Y-54417051D01*
X191417050Y-58021580D01*
X191417044Y-58021588D01*
X191367812Y-58095268D01*
X191367813Y-58095269D01*
X191334921Y-58144496D01*
X191334914Y-58144508D01*
X191278342Y-58281086D01*
X191278340Y-58281092D01*
X191249500Y-58426079D01*
X191249500Y-60318059D01*
X191229815Y-60385098D01*
X191177011Y-60430853D01*
X191107853Y-60440797D01*
X191044297Y-60411772D01*
X191037819Y-60405740D01*
X191010292Y-60378213D01*
X191010288Y-60378210D01*
X190879185Y-60290609D01*
X190879172Y-60290602D01*
X190733501Y-60230264D01*
X190733489Y-60230261D01*
X190578845Y-60199500D01*
X190578842Y-60199500D01*
X190421158Y-60199500D01*
X190421155Y-60199500D01*
X190266510Y-60230261D01*
X190266498Y-60230264D01*
X190120827Y-60290602D01*
X190120814Y-60290609D01*
X189989711Y-60378210D01*
X189989707Y-60378213D01*
X189878213Y-60489707D01*
X189878210Y-60489711D01*
X189790609Y-60620814D01*
X189790602Y-60620827D01*
X189730264Y-60766498D01*
X189730261Y-60766510D01*
X189699500Y-60921153D01*
X189699500Y-61078846D01*
X189730261Y-61233489D01*
X189730264Y-61233501D01*
X189790602Y-61379172D01*
X189790609Y-61379185D01*
X189878210Y-61510288D01*
X189878213Y-61510292D01*
X189989707Y-61621786D01*
X189989711Y-61621789D01*
X190120814Y-61709390D01*
X190120827Y-61709397D01*
X190266498Y-61769735D01*
X190266503Y-61769737D01*
X190331147Y-61782595D01*
X190421849Y-61800638D01*
X190483760Y-61833023D01*
X190485339Y-61834574D01*
X190812181Y-62161416D01*
X190845666Y-62222739D01*
X190848500Y-62249097D01*
X190848500Y-71900961D01*
X190828815Y-71968000D01*
X190812181Y-71988642D01*
X190362181Y-72438642D01*
X190300858Y-72472127D01*
X190231166Y-72467143D01*
X190175233Y-72425271D01*
X190150816Y-72359807D01*
X190150500Y-72350961D01*
X190150500Y-72004935D01*
X190170185Y-71937896D01*
X190171366Y-71936090D01*
X190209394Y-71879179D01*
X190269737Y-71733497D01*
X190300500Y-71578842D01*
X190300500Y-71421158D01*
X190300500Y-71421155D01*
X190300499Y-71421153D01*
X190291330Y-71375057D01*
X190269737Y-71266503D01*
X190246082Y-71209394D01*
X190209397Y-71120827D01*
X190209390Y-71120814D01*
X190121789Y-70989711D01*
X190121786Y-70989707D01*
X190010292Y-70878213D01*
X190010288Y-70878210D01*
X189879185Y-70790609D01*
X189879172Y-70790602D01*
X189733501Y-70730264D01*
X189733489Y-70730261D01*
X189578845Y-70699500D01*
X189578842Y-70699500D01*
X189421158Y-70699500D01*
X189421155Y-70699500D01*
X189266510Y-70730261D01*
X189266498Y-70730264D01*
X189120827Y-70790602D01*
X189120814Y-70790609D01*
X188989711Y-70878210D01*
X188989707Y-70878213D01*
X188878213Y-70989707D01*
X188878210Y-70989711D01*
X188790609Y-71120814D01*
X188790602Y-71120827D01*
X188730264Y-71266498D01*
X188730261Y-71266510D01*
X188699500Y-71421153D01*
X188699500Y-71578846D01*
X188730261Y-71733489D01*
X188730264Y-71733501D01*
X188790602Y-71879172D01*
X188790606Y-71879179D01*
X188828602Y-71936044D01*
X188849480Y-72002721D01*
X188849500Y-72004935D01*
X188849500Y-72995064D01*
X188829815Y-73062103D01*
X188828603Y-73063954D01*
X188790608Y-73120817D01*
X188790602Y-73120828D01*
X188730264Y-73266498D01*
X188730261Y-73266510D01*
X188699500Y-73421153D01*
X188699500Y-73578846D01*
X188730261Y-73733489D01*
X188730264Y-73733501D01*
X188790604Y-73879177D01*
X188792896Y-73883464D01*
X188807139Y-73951867D01*
X188782140Y-74017111D01*
X188771220Y-74029600D01*
X175621214Y-87179608D01*
X175509409Y-87291412D01*
X175509408Y-87291414D01*
X175464778Y-87368716D01*
X175458370Y-87379815D01*
X175432852Y-87424014D01*
X175430351Y-87428345D01*
X175389427Y-87581073D01*
X175389427Y-87581075D01*
X175389427Y-87749176D01*
X175389428Y-87749189D01*
X175389428Y-99903258D01*
X175389427Y-99903276D01*
X175389427Y-100068982D01*
X175389426Y-100068982D01*
X175430351Y-100221713D01*
X175446972Y-100250501D01*
X175446971Y-100250501D01*
X175446972Y-100250502D01*
X175509403Y-100358637D01*
X175509409Y-100358645D01*
X175628277Y-100477513D01*
X175628282Y-100477517D01*
X181131284Y-105980520D01*
X181131286Y-105980521D01*
X181131290Y-105980524D01*
X181268209Y-106059573D01*
X181268216Y-106059577D01*
X181420943Y-106100501D01*
X181420945Y-106100501D01*
X181586654Y-106100501D01*
X181586670Y-106100500D01*
X191913331Y-106100500D01*
X191913347Y-106100501D01*
X191920943Y-106100501D01*
X192079054Y-106100501D01*
X192079057Y-106100501D01*
X192231785Y-106059577D01*
X192297590Y-106021584D01*
X192368716Y-105980520D01*
X192480520Y-105868716D01*
X192480520Y-105868714D01*
X192490724Y-105858511D01*
X192490727Y-105858506D01*
X194014662Y-104334572D01*
X194075983Y-104301089D01*
X194078150Y-104300638D01*
X194136085Y-104289113D01*
X194233497Y-104269737D01*
X194379179Y-104209394D01*
X194510289Y-104121789D01*
X194621789Y-104010289D01*
X194709394Y-103879179D01*
X194769737Y-103733497D01*
X194800500Y-103578842D01*
X194800500Y-103421158D01*
X194796031Y-103398690D01*
X194802260Y-103329099D01*
X194845123Y-103273922D01*
X194911013Y-103250678D01*
X194917649Y-103250500D01*
X196665116Y-103250500D01*
X196732155Y-103270185D01*
X196752797Y-103286819D01*
X200444398Y-106978419D01*
X200472149Y-107024718D01*
X200473011Y-107024361D01*
X200475342Y-107029988D01*
X200531916Y-107166570D01*
X200547096Y-107189289D01*
X200554586Y-107200499D01*
X200614049Y-107289493D01*
X200614052Y-107289496D01*
X201158509Y-107833952D01*
X201158511Y-107833954D01*
X201187983Y-107853645D01*
X201232195Y-107883186D01*
X201281430Y-107916084D01*
X201281431Y-107916084D01*
X201281432Y-107916085D01*
X201281434Y-107916086D01*
X201418007Y-107972656D01*
X201418012Y-107972658D01*
X201418016Y-107972658D01*
X201418017Y-107972659D01*
X201563004Y-108001500D01*
X201563007Y-108001500D01*
X202332995Y-108001500D01*
X202430537Y-107982096D01*
X202477988Y-107972658D01*
X202614570Y-107916084D01*
X202663804Y-107883186D01*
X202663809Y-107883183D01*
X202688146Y-107866921D01*
X202737491Y-107833952D01*
X203281952Y-107289491D01*
X203281952Y-107289490D01*
X203284624Y-107286819D01*
X203345947Y-107253334D01*
X203372305Y-107250500D01*
X204053920Y-107250500D01*
X204151462Y-107231096D01*
X204198913Y-107221658D01*
X204335495Y-107165084D01*
X204400291Y-107121789D01*
X204400294Y-107121786D01*
X204400296Y-107121786D01*
X204429547Y-107102240D01*
X204458416Y-107082952D01*
X204632331Y-106909036D01*
X204693651Y-106875553D01*
X204763343Y-106880537D01*
X204819277Y-106922408D01*
X204823112Y-106927828D01*
X204878210Y-107010288D01*
X204878213Y-107010292D01*
X204989707Y-107121786D01*
X204989711Y-107121789D01*
X205120814Y-107209390D01*
X205120827Y-107209397D01*
X205208230Y-107245599D01*
X205266503Y-107269737D01*
X205377716Y-107291858D01*
X205439623Y-107324241D01*
X205441203Y-107325793D01*
X206403228Y-108287819D01*
X206436713Y-108349142D01*
X206431729Y-108418834D01*
X206389857Y-108474767D01*
X206324393Y-108499184D01*
X206315547Y-108499500D01*
X180281109Y-108499500D01*
X180214070Y-108479815D01*
X180188284Y-108457716D01*
X180136038Y-108398729D01*
X173471765Y-100874549D01*
X165031675Y-91345415D01*
X165001961Y-91282179D01*
X165000500Y-91263199D01*
X165000500Y-80748226D01*
X165020185Y-80681187D01*
X165072989Y-80635432D01*
X165142147Y-80625488D01*
X165205703Y-80654513D01*
X165242429Y-80709906D01*
X165254627Y-80747445D01*
X165333268Y-80901788D01*
X165435086Y-81041928D01*
X165557572Y-81164414D01*
X165697712Y-81266232D01*
X165852055Y-81344873D01*
X166016799Y-81398402D01*
X166187889Y-81425500D01*
X166187890Y-81425500D01*
X166961110Y-81425500D01*
X166961111Y-81425500D01*
X167132201Y-81398402D01*
X167296945Y-81344873D01*
X167451288Y-81266232D01*
X167591428Y-81164414D01*
X167713914Y-81041928D01*
X167815732Y-80901788D01*
X167894373Y-80747445D01*
X167947902Y-80582701D01*
X167975000Y-80411611D01*
X167975000Y-80238389D01*
X169254000Y-80238389D01*
X169254000Y-80411610D01*
X169277333Y-80558933D01*
X169281098Y-80582701D01*
X169334627Y-80747445D01*
X169413268Y-80901788D01*
X169515086Y-81041928D01*
X169637572Y-81164414D01*
X169777712Y-81266232D01*
X169932055Y-81344873D01*
X170096799Y-81398402D01*
X170267889Y-81425500D01*
X170267890Y-81425500D01*
X171241110Y-81425500D01*
X171241111Y-81425500D01*
X171412201Y-81398402D01*
X171576945Y-81344873D01*
X171731288Y-81266232D01*
X171871428Y-81164414D01*
X171993914Y-81041928D01*
X172081662Y-80921153D01*
X176199500Y-80921153D01*
X176199500Y-81078846D01*
X176230261Y-81233489D01*
X176230264Y-81233501D01*
X176290602Y-81379172D01*
X176290609Y-81379185D01*
X176378210Y-81510288D01*
X176378213Y-81510292D01*
X176489707Y-81621786D01*
X176489711Y-81621789D01*
X176620814Y-81709390D01*
X176620827Y-81709397D01*
X176766498Y-81769735D01*
X176766503Y-81769737D01*
X176921153Y-81800499D01*
X176921156Y-81800500D01*
X176921158Y-81800500D01*
X177078844Y-81800500D01*
X177078845Y-81800499D01*
X177233497Y-81769737D01*
X177379179Y-81709394D01*
X177510289Y-81621789D01*
X177621789Y-81510289D01*
X177709394Y-81379179D01*
X177769737Y-81233497D01*
X177800500Y-81078842D01*
X177800500Y-80921158D01*
X177800500Y-80921155D01*
X177800499Y-80921153D01*
X177783646Y-80836430D01*
X177769737Y-80766503D01*
X177762383Y-80748749D01*
X177709397Y-80620827D01*
X177709390Y-80620814D01*
X177621789Y-80489711D01*
X177621786Y-80489707D01*
X177510292Y-80378213D01*
X177510288Y-80378210D01*
X177379185Y-80290609D01*
X177379172Y-80290602D01*
X177233501Y-80230264D01*
X177233489Y-80230261D01*
X177078845Y-80199500D01*
X177078842Y-80199500D01*
X176921158Y-80199500D01*
X176921155Y-80199500D01*
X176766510Y-80230261D01*
X176766498Y-80230264D01*
X176620827Y-80290602D01*
X176620814Y-80290609D01*
X176489711Y-80378210D01*
X176489707Y-80378213D01*
X176378213Y-80489707D01*
X176378210Y-80489711D01*
X176290609Y-80620814D01*
X176290602Y-80620827D01*
X176230264Y-80766498D01*
X176230261Y-80766510D01*
X176199500Y-80921153D01*
X172081662Y-80921153D01*
X172095732Y-80901788D01*
X172174373Y-80747445D01*
X172227902Y-80582701D01*
X172255000Y-80411611D01*
X172255000Y-80238389D01*
X172227902Y-80067299D01*
X172174373Y-79902555D01*
X172095732Y-79748212D01*
X171993914Y-79608072D01*
X171871428Y-79485586D01*
X171731288Y-79383768D01*
X171576945Y-79305127D01*
X171412201Y-79251598D01*
X171412199Y-79251597D01*
X171412198Y-79251597D01*
X171280771Y-79230781D01*
X171241111Y-79224500D01*
X171241110Y-79224500D01*
X170893069Y-79224500D01*
X170826030Y-79204815D01*
X170780275Y-79152011D01*
X170770331Y-79082853D01*
X170773290Y-79068423D01*
X170799000Y-78972475D01*
X170799000Y-78827525D01*
X170770497Y-78721153D01*
X178699500Y-78721153D01*
X178699500Y-78878846D01*
X178730261Y-79033489D01*
X178730264Y-79033501D01*
X178790602Y-79179172D01*
X178790609Y-79179185D01*
X178878210Y-79310288D01*
X178878213Y-79310292D01*
X178989707Y-79421786D01*
X178989711Y-79421789D01*
X179120814Y-79509390D01*
X179120827Y-79509397D01*
X179266498Y-79569735D01*
X179266503Y-79569737D01*
X179421153Y-79600499D01*
X179421156Y-79600500D01*
X179421158Y-79600500D01*
X179578844Y-79600500D01*
X179578845Y-79600499D01*
X179733497Y-79569737D01*
X179879179Y-79509394D01*
X180010289Y-79421789D01*
X180121789Y-79310289D01*
X180209394Y-79179179D01*
X180269737Y-79033497D01*
X180300500Y-78878842D01*
X180300500Y-78721158D01*
X180300500Y-78721155D01*
X180300499Y-78721153D01*
X180289612Y-78666423D01*
X180269737Y-78566503D01*
X180267806Y-78561841D01*
X180209397Y-78420827D01*
X180209390Y-78420814D01*
X180121789Y-78289711D01*
X180121786Y-78289707D01*
X180106819Y-78274740D01*
X180073334Y-78213417D01*
X180070500Y-78187059D01*
X180070500Y-75874129D01*
X180090185Y-75807090D01*
X180142989Y-75761335D01*
X180212147Y-75751391D01*
X180241952Y-75759568D01*
X180266498Y-75769735D01*
X180266503Y-75769737D01*
X180421153Y-75800499D01*
X180421156Y-75800500D01*
X180421158Y-75800500D01*
X180578844Y-75800500D01*
X180578845Y-75800499D01*
X180733497Y-75769737D01*
X180879179Y-75709394D01*
X181010289Y-75621789D01*
X181121789Y-75510289D01*
X181209394Y-75379179D01*
X181269737Y-75233497D01*
X181300500Y-75078842D01*
X181300500Y-74921158D01*
X181300500Y-74921155D01*
X181300499Y-74921153D01*
X181274531Y-74790606D01*
X181269737Y-74766503D01*
X181257038Y-74735844D01*
X181209397Y-74620827D01*
X181209390Y-74620814D01*
X181121789Y-74489711D01*
X181121786Y-74489707D01*
X181010292Y-74378213D01*
X181010288Y-74378210D01*
X180879185Y-74290609D01*
X180879172Y-74290602D01*
X180733501Y-74230264D01*
X180733489Y-74230261D01*
X180578845Y-74199500D01*
X180578842Y-74199500D01*
X180421158Y-74199500D01*
X180421155Y-74199500D01*
X180266510Y-74230261D01*
X180266498Y-74230264D01*
X180120827Y-74290602D01*
X180120814Y-74290609D01*
X179989711Y-74378210D01*
X179989707Y-74378213D01*
X179974740Y-74393181D01*
X179913417Y-74426666D01*
X179887059Y-74429500D01*
X179424892Y-74429500D01*
X179279793Y-74468378D01*
X179149705Y-74543486D01*
X179149702Y-74543488D01*
X179043488Y-74649702D01*
X179043486Y-74649705D01*
X178968378Y-74779793D01*
X178929500Y-74924892D01*
X178929500Y-78187059D01*
X178909815Y-78254098D01*
X178893181Y-78274740D01*
X178878213Y-78289707D01*
X178878210Y-78289711D01*
X178790609Y-78420814D01*
X178790602Y-78420827D01*
X178730264Y-78566498D01*
X178730261Y-78566510D01*
X178699500Y-78721153D01*
X170770497Y-78721153D01*
X170761484Y-78687515D01*
X170749309Y-78666428D01*
X170689011Y-78561988D01*
X170689006Y-78561982D01*
X170586517Y-78459493D01*
X170586511Y-78459488D01*
X170460988Y-78387017D01*
X170460989Y-78387017D01*
X170449506Y-78383940D01*
X170320975Y-78349500D01*
X170176025Y-78349500D01*
X170047493Y-78383940D01*
X170036011Y-78387017D01*
X169910488Y-78459488D01*
X169910482Y-78459493D01*
X169807993Y-78561982D01*
X169807988Y-78561988D01*
X169735517Y-78687511D01*
X169735516Y-78687515D01*
X169698000Y-78827525D01*
X169698000Y-78972475D01*
X169735516Y-79112485D01*
X169802501Y-79228506D01*
X169818974Y-79296406D01*
X169796122Y-79362433D01*
X169768000Y-79390824D01*
X169637570Y-79485587D01*
X169515088Y-79608069D01*
X169515088Y-79608070D01*
X169515086Y-79608072D01*
X169471359Y-79668256D01*
X169413268Y-79748211D01*
X169334628Y-79902552D01*
X169281097Y-80067302D01*
X169254000Y-80238389D01*
X167975000Y-80238389D01*
X167947902Y-80067299D01*
X167894373Y-79902555D01*
X167815732Y-79748212D01*
X167713914Y-79608072D01*
X167591428Y-79485586D01*
X167451288Y-79383768D01*
X167296945Y-79305127D01*
X167132201Y-79251598D01*
X167132199Y-79251597D01*
X167132198Y-79251597D01*
X167000771Y-79230781D01*
X166961111Y-79224500D01*
X166187889Y-79224500D01*
X166148228Y-79230781D01*
X166016802Y-79251597D01*
X165852052Y-79305128D01*
X165697711Y-79383768D01*
X165634221Y-79429897D01*
X165557572Y-79485586D01*
X165557570Y-79485588D01*
X165557569Y-79485588D01*
X165435088Y-79608069D01*
X165435088Y-79608070D01*
X165435086Y-79608072D01*
X165391359Y-79668256D01*
X165333268Y-79748211D01*
X165254628Y-79902552D01*
X165242431Y-79940091D01*
X165202993Y-79997767D01*
X165138635Y-80024965D01*
X165069788Y-80013050D01*
X165018313Y-79965806D01*
X165000500Y-79901773D01*
X165000500Y-75421153D01*
X168699500Y-75421153D01*
X168699500Y-75578846D01*
X168730261Y-75733489D01*
X168730264Y-75733501D01*
X168790602Y-75879172D01*
X168790609Y-75879185D01*
X168878210Y-76010288D01*
X168878213Y-76010292D01*
X168989707Y-76121786D01*
X168989711Y-76121789D01*
X169120814Y-76209390D01*
X169120827Y-76209397D01*
X169177794Y-76232993D01*
X169266503Y-76269737D01*
X169421153Y-76300499D01*
X169421156Y-76300500D01*
X169421158Y-76300500D01*
X169442329Y-76300500D01*
X169509368Y-76320185D01*
X169530010Y-76336819D01*
X170317486Y-77124295D01*
X170423705Y-77230514D01*
X170553795Y-77305622D01*
X170698892Y-77344500D01*
X173774124Y-77344500D01*
X173841163Y-77364185D01*
X173877225Y-77399608D01*
X173900188Y-77433974D01*
X173912683Y-77452675D01*
X174024178Y-77564170D01*
X174024182Y-77564173D01*
X174155285Y-77651774D01*
X174155298Y-77651781D01*
X174258633Y-77694583D01*
X174300974Y-77712121D01*
X174408438Y-77733497D01*
X174455624Y-77742883D01*
X174455627Y-77742884D01*
X174455629Y-77742884D01*
X174613315Y-77742884D01*
X174613316Y-77742883D01*
X174767968Y-77712121D01*
X174913650Y-77651778D01*
X175044760Y-77564173D01*
X175156260Y-77452673D01*
X175243865Y-77321563D01*
X175304208Y-77175881D01*
X175334971Y-77021226D01*
X175334971Y-76863542D01*
X175334971Y-76863539D01*
X175334970Y-76863537D01*
X175304208Y-76708887D01*
X175250342Y-76578842D01*
X175243868Y-76563211D01*
X175243861Y-76563198D01*
X175156260Y-76432095D01*
X175156257Y-76432091D01*
X175044763Y-76320597D01*
X175044759Y-76320594D01*
X174913656Y-76232993D01*
X174913643Y-76232986D01*
X174767972Y-76172648D01*
X174767960Y-76172645D01*
X174613316Y-76141884D01*
X174613313Y-76141884D01*
X174455629Y-76141884D01*
X174455626Y-76141884D01*
X174300981Y-76172645D01*
X174300969Y-76172648D01*
X174249275Y-76194061D01*
X174201823Y-76203500D01*
X171061671Y-76203500D01*
X170994632Y-76183815D01*
X170973990Y-76167181D01*
X170336819Y-75530010D01*
X170303334Y-75468687D01*
X170300500Y-75442329D01*
X170300500Y-75421155D01*
X170300499Y-75421153D01*
X170269738Y-75266510D01*
X170269737Y-75266503D01*
X170224993Y-75158480D01*
X170209397Y-75120827D01*
X170209390Y-75120814D01*
X170121789Y-74989711D01*
X170121786Y-74989707D01*
X170010292Y-74878213D01*
X170010288Y-74878210D01*
X169879185Y-74790609D01*
X169879172Y-74790602D01*
X169733501Y-74730264D01*
X169733489Y-74730261D01*
X169578845Y-74699500D01*
X169578842Y-74699500D01*
X169421158Y-74699500D01*
X169421155Y-74699500D01*
X169266510Y-74730261D01*
X169266498Y-74730264D01*
X169120827Y-74790602D01*
X169120814Y-74790609D01*
X168989711Y-74878210D01*
X168989707Y-74878213D01*
X168878213Y-74989707D01*
X168878210Y-74989711D01*
X168790609Y-75120814D01*
X168790602Y-75120827D01*
X168730264Y-75266498D01*
X168730261Y-75266510D01*
X168699500Y-75421153D01*
X165000500Y-75421153D01*
X165000500Y-72098226D01*
X165020185Y-72031187D01*
X165072989Y-71985432D01*
X165142147Y-71975488D01*
X165205703Y-72004513D01*
X165242429Y-72059906D01*
X165254627Y-72097445D01*
X165333268Y-72251788D01*
X165435086Y-72391928D01*
X165557572Y-72514414D01*
X165697712Y-72616232D01*
X165852055Y-72694873D01*
X166016799Y-72748402D01*
X166187889Y-72775500D01*
X166187890Y-72775500D01*
X166961110Y-72775500D01*
X166961111Y-72775500D01*
X167132201Y-72748402D01*
X167296945Y-72694873D01*
X167451288Y-72616232D01*
X167591428Y-72514414D01*
X167713914Y-72391928D01*
X167815732Y-72251788D01*
X167894373Y-72097445D01*
X167947902Y-71932701D01*
X167975000Y-71761611D01*
X167975000Y-71588389D01*
X169254000Y-71588389D01*
X169254000Y-71761611D01*
X169281098Y-71932701D01*
X169334627Y-72097445D01*
X169413268Y-72251788D01*
X169515086Y-72391928D01*
X169637572Y-72514414D01*
X169637575Y-72514416D01*
X169767999Y-72609175D01*
X169810665Y-72664505D01*
X169816644Y-72734118D01*
X169802501Y-72771493D01*
X169735517Y-72887511D01*
X169735516Y-72887515D01*
X169698000Y-73027525D01*
X169698000Y-73172475D01*
X169718718Y-73249793D01*
X169735517Y-73312488D01*
X169807988Y-73438011D01*
X169807990Y-73438013D01*
X169807991Y-73438015D01*
X169910485Y-73540509D01*
X169910486Y-73540510D01*
X169910488Y-73540511D01*
X170036011Y-73612982D01*
X170036012Y-73612982D01*
X170036015Y-73612984D01*
X170176025Y-73650500D01*
X170176028Y-73650500D01*
X170320972Y-73650500D01*
X170320975Y-73650500D01*
X170460985Y-73612984D01*
X170586515Y-73540509D01*
X170689009Y-73438015D01*
X170761484Y-73312485D01*
X170799000Y-73172475D01*
X170799000Y-73027525D01*
X170773294Y-72931590D01*
X170774957Y-72861744D01*
X170814119Y-72803882D01*
X170878347Y-72776377D01*
X170893069Y-72775500D01*
X171241110Y-72775500D01*
X171241111Y-72775500D01*
X171412201Y-72748402D01*
X171576945Y-72694873D01*
X171731288Y-72616232D01*
X171871428Y-72514414D01*
X171993914Y-72391928D01*
X172095732Y-72251788D01*
X172174373Y-72097445D01*
X172227902Y-71932701D01*
X172255000Y-71761611D01*
X172255000Y-71588389D01*
X172227902Y-71417299D01*
X172174373Y-71252555D01*
X172095732Y-71098212D01*
X171993914Y-70958072D01*
X171871428Y-70835586D01*
X171731288Y-70733768D01*
X171576945Y-70655127D01*
X171412201Y-70601598D01*
X171412199Y-70601597D01*
X171412198Y-70601597D01*
X171280771Y-70580781D01*
X171241111Y-70574500D01*
X170267889Y-70574500D01*
X170228228Y-70580781D01*
X170096802Y-70601597D01*
X170014427Y-70628362D01*
X169970080Y-70642772D01*
X169932052Y-70655128D01*
X169777711Y-70733768D01*
X169723729Y-70772989D01*
X169637572Y-70835586D01*
X169637570Y-70835588D01*
X169637569Y-70835588D01*
X169515088Y-70958069D01*
X169515088Y-70958070D01*
X169515086Y-70958072D01*
X169492102Y-70989707D01*
X169413268Y-71098211D01*
X169334628Y-71252552D01*
X169281097Y-71417302D01*
X169273782Y-71463489D01*
X169254000Y-71588389D01*
X167975000Y-71588389D01*
X167947902Y-71417299D01*
X167894373Y-71252555D01*
X167815732Y-71098212D01*
X167713914Y-70958072D01*
X167591428Y-70835586D01*
X167451288Y-70733768D01*
X167296945Y-70655127D01*
X167132201Y-70601598D01*
X167132199Y-70601597D01*
X167132198Y-70601597D01*
X167000771Y-70580781D01*
X166961111Y-70574500D01*
X166187889Y-70574500D01*
X166148228Y-70580781D01*
X166016802Y-70601597D01*
X165934427Y-70628362D01*
X165890080Y-70642772D01*
X165852052Y-70655128D01*
X165697711Y-70733768D01*
X165643729Y-70772989D01*
X165557572Y-70835586D01*
X165557570Y-70835588D01*
X165557569Y-70835588D01*
X165435088Y-70958069D01*
X165435088Y-70958070D01*
X165435086Y-70958072D01*
X165412102Y-70989707D01*
X165333268Y-71098211D01*
X165254628Y-71252552D01*
X165242431Y-71290091D01*
X165202993Y-71347767D01*
X165138635Y-71374965D01*
X165069788Y-71363050D01*
X165018313Y-71315806D01*
X165000500Y-71251773D01*
X165000500Y-70068995D01*
X177941999Y-70068995D01*
X177968918Y-70204322D01*
X177968921Y-70204332D01*
X178021721Y-70331804D01*
X178021728Y-70331817D01*
X178098385Y-70446541D01*
X178098388Y-70446545D01*
X178195954Y-70544111D01*
X178195958Y-70544114D01*
X178310682Y-70620771D01*
X178310695Y-70620778D01*
X178433867Y-70671797D01*
X178438172Y-70673580D01*
X178438176Y-70673580D01*
X178438177Y-70673581D01*
X178573504Y-70700500D01*
X178573507Y-70700500D01*
X182675500Y-70700500D01*
X182742539Y-70720185D01*
X182788294Y-70772989D01*
X182799500Y-70824500D01*
X182799500Y-75158480D01*
X182779815Y-75225519D01*
X182763181Y-75246161D01*
X181305412Y-76703929D01*
X181265184Y-76730809D01*
X181120823Y-76790604D01*
X181120814Y-76790609D01*
X180989711Y-76878210D01*
X180989707Y-76878213D01*
X180878213Y-76989707D01*
X180878210Y-76989711D01*
X180790609Y-77120814D01*
X180790602Y-77120827D01*
X180730264Y-77266498D01*
X180730261Y-77266510D01*
X180699500Y-77421153D01*
X180699500Y-77578846D01*
X180730261Y-77733489D01*
X180730264Y-77733501D01*
X180790602Y-77879172D01*
X180790609Y-77879185D01*
X180878210Y-78010288D01*
X180878213Y-78010292D01*
X180989707Y-78121786D01*
X180989711Y-78121789D01*
X181120814Y-78209390D01*
X181120827Y-78209397D01*
X181250673Y-78263180D01*
X181266503Y-78269737D01*
X181416131Y-78299500D01*
X181421153Y-78300499D01*
X181421156Y-78300500D01*
X181421158Y-78300500D01*
X181578844Y-78300500D01*
X181578845Y-78300499D01*
X181733497Y-78269737D01*
X181879179Y-78209394D01*
X182010289Y-78121789D01*
X182121789Y-78010289D01*
X182209394Y-77879179D01*
X182209395Y-77879176D01*
X182209397Y-77879173D01*
X182246566Y-77789435D01*
X182269192Y-77734810D01*
X182296069Y-77694586D01*
X184044114Y-75946543D01*
X184120775Y-75831811D01*
X184133745Y-75800500D01*
X184171480Y-75709397D01*
X184173580Y-75704328D01*
X184184287Y-75650500D01*
X184200500Y-75568993D01*
X184200500Y-69931007D01*
X184200500Y-69931004D01*
X184173581Y-69795677D01*
X184173580Y-69795676D01*
X184173580Y-69795672D01*
X184171480Y-69790602D01*
X184120778Y-69668195D01*
X184120771Y-69668182D01*
X184044114Y-69553458D01*
X184044111Y-69553454D01*
X183946545Y-69455888D01*
X183946541Y-69455885D01*
X183831817Y-69379228D01*
X183831804Y-69379221D01*
X183704332Y-69326421D01*
X183704322Y-69326418D01*
X183568995Y-69299500D01*
X183568993Y-69299500D01*
X178573507Y-69299500D01*
X178573505Y-69299500D01*
X178438177Y-69326418D01*
X178438167Y-69326421D01*
X178310695Y-69379221D01*
X178310682Y-69379228D01*
X178195958Y-69455885D01*
X178195954Y-69455888D01*
X178098388Y-69553454D01*
X178098385Y-69553458D01*
X178021728Y-69668182D01*
X178021721Y-69668195D01*
X177968921Y-69795667D01*
X177968918Y-69795677D01*
X177942000Y-69931004D01*
X177942000Y-69931007D01*
X177942000Y-70068993D01*
X177942000Y-70068995D01*
X177941999Y-70068995D01*
X165000500Y-70068995D01*
X165000500Y-49624500D01*
X165020185Y-49557461D01*
X165072989Y-49511706D01*
X165124500Y-49500500D01*
X242434108Y-49500500D01*
X242875500Y-49500500D01*
X242942539Y-49520185D01*
G37*
%TD.AperFunction*%
%TA.AperFunction,Conductor*%
G36*
X200050000Y-102367230D02*
G01*
X200116126Y-102356757D01*
X200116129Y-102356757D01*
X200318219Y-102291093D01*
X200356012Y-102271837D01*
X200424681Y-102258940D01*
X200489422Y-102285215D01*
X200515410Y-102313430D01*
X200544885Y-102357542D01*
X200544888Y-102357546D01*
X203709103Y-105521760D01*
X203718681Y-105539301D01*
X203732303Y-105553931D01*
X203735083Y-105569340D01*
X203742588Y-105583083D01*
X203741162Y-105603020D01*
X203744712Y-105622690D01*
X203737825Y-105649676D01*
X203737604Y-105652775D01*
X203735985Y-105656889D01*
X203729334Y-105672948D01*
X203685496Y-105727353D01*
X203619202Y-105749421D01*
X203614771Y-105749500D01*
X202625080Y-105749500D01*
X202480088Y-105778341D01*
X202480086Y-105778342D01*
X202435192Y-105796937D01*
X202404400Y-105800246D01*
X202373886Y-105805599D01*
X202368932Y-105804059D01*
X202365723Y-105804404D01*
X202339731Y-105796704D01*
X202330510Y-105792832D01*
X202327179Y-105790606D01*
X202182498Y-105730677D01*
X202182256Y-105730576D01*
X202181294Y-105729793D01*
X202142585Y-105703928D01*
X201898065Y-105459408D01*
X201873989Y-105423375D01*
X201873645Y-105423560D01*
X201871776Y-105420064D01*
X201871185Y-105419179D01*
X201870775Y-105418189D01*
X201794114Y-105303457D01*
X201794112Y-105303454D01*
X199247819Y-102757161D01*
X199233115Y-102730233D01*
X199216523Y-102704415D01*
X199215631Y-102698214D01*
X199214334Y-102695838D01*
X199211500Y-102669480D01*
X199211500Y-102438929D01*
X199231185Y-102371890D01*
X199283989Y-102326135D01*
X199353147Y-102316191D01*
X199373819Y-102320998D01*
X199483874Y-102356758D01*
X199550000Y-102367231D01*
X199550000Y-101473012D01*
X199607007Y-101505925D01*
X199734174Y-101540000D01*
X199865826Y-101540000D01*
X199992993Y-101505925D01*
X200050000Y-101473012D01*
X200050000Y-102367230D01*
G37*
%TD.AperFunction*%
%TA.AperFunction,Conductor*%
G36*
X229612415Y-51508444D02*
G01*
X229643314Y-51515746D01*
X229645699Y-51518217D01*
X229648993Y-51519185D01*
X229669774Y-51543167D01*
X229691830Y-51566025D01*
X229693374Y-51570404D01*
X229694748Y-51571989D01*
X229703571Y-51599309D01*
X229730261Y-51733489D01*
X229730264Y-51733501D01*
X229790602Y-51879172D01*
X229790609Y-51879184D01*
X229853602Y-51973459D01*
X229874480Y-52040136D01*
X229874500Y-52042350D01*
X229874500Y-57457650D01*
X229854815Y-57524689D01*
X229853602Y-57526541D01*
X229790609Y-57620815D01*
X229790602Y-57620828D01*
X229730264Y-57766498D01*
X229730261Y-57766510D01*
X229699500Y-57921153D01*
X229699500Y-58078846D01*
X229730261Y-58233489D01*
X229730264Y-58233501D01*
X229790602Y-58379172D01*
X229790609Y-58379185D01*
X229878210Y-58510288D01*
X229878213Y-58510292D01*
X229989707Y-58621786D01*
X229989711Y-58621789D01*
X230120814Y-58709390D01*
X230120827Y-58709397D01*
X230258693Y-58766502D01*
X230266503Y-58769737D01*
X230394458Y-58795189D01*
X230421153Y-58800499D01*
X230421156Y-58800500D01*
X230421158Y-58800500D01*
X230578844Y-58800500D01*
X230578845Y-58800499D01*
X230733497Y-58769737D01*
X230879179Y-58709394D01*
X231010289Y-58621789D01*
X231121789Y-58510289D01*
X231209394Y-58379179D01*
X231269737Y-58233497D01*
X231300500Y-58078842D01*
X231300500Y-57921158D01*
X231300500Y-57921155D01*
X231300499Y-57921153D01*
X231269738Y-57766510D01*
X231269737Y-57766503D01*
X231216421Y-57637785D01*
X231209397Y-57620828D01*
X231209396Y-57620827D01*
X231209394Y-57620821D01*
X231146397Y-57526539D01*
X231125520Y-57459863D01*
X231125500Y-57457650D01*
X231125500Y-52042350D01*
X231145185Y-51975311D01*
X231146398Y-51973459D01*
X231151787Y-51965394D01*
X231209394Y-51879179D01*
X231269737Y-51733497D01*
X231296429Y-51599309D01*
X231328814Y-51537398D01*
X231389529Y-51502824D01*
X231418046Y-51499500D01*
X237063548Y-51499500D01*
X237130587Y-51519185D01*
X237151229Y-51535819D01*
X237865181Y-52249771D01*
X237898666Y-52311094D01*
X237901500Y-52337452D01*
X237901500Y-67114273D01*
X237881815Y-67181312D01*
X237829011Y-67227067D01*
X237759853Y-67237011D01*
X237739506Y-67231429D01*
X237739324Y-67232031D01*
X237733500Y-67230264D01*
X237733497Y-67230263D01*
X237733492Y-67230262D01*
X237733489Y-67230261D01*
X237578845Y-67199500D01*
X237578842Y-67199500D01*
X237421158Y-67199500D01*
X237421155Y-67199500D01*
X237266510Y-67230261D01*
X237266498Y-67230264D01*
X237120827Y-67290602D01*
X237120814Y-67290609D01*
X236989711Y-67378210D01*
X236989707Y-67378213D01*
X236878213Y-67489707D01*
X236878210Y-67489711D01*
X236790609Y-67620814D01*
X236790602Y-67620827D01*
X236730264Y-67766498D01*
X236730261Y-67766510D01*
X236699500Y-67921153D01*
X236699500Y-68078846D01*
X236730261Y-68233489D01*
X236730264Y-68233501D01*
X236790602Y-68379172D01*
X236790609Y-68379185D01*
X236878210Y-68510288D01*
X236878213Y-68510292D01*
X236989707Y-68621786D01*
X236989711Y-68621789D01*
X237120816Y-68709391D01*
X237120817Y-68709391D01*
X237120821Y-68709394D01*
X237173953Y-68731401D01*
X237228355Y-68775241D01*
X237250421Y-68841535D01*
X237250500Y-68845962D01*
X237250500Y-70549059D01*
X237230815Y-70616098D01*
X237178011Y-70661853D01*
X237108853Y-70671797D01*
X237045297Y-70642772D01*
X237038819Y-70636740D01*
X237010292Y-70608213D01*
X237010288Y-70608210D01*
X236879185Y-70520609D01*
X236879172Y-70520602D01*
X236733501Y-70460264D01*
X236733489Y-70460261D01*
X236578845Y-70429500D01*
X236578842Y-70429500D01*
X236421158Y-70429500D01*
X236421155Y-70429500D01*
X236266510Y-70460261D01*
X236266498Y-70460264D01*
X236120827Y-70520602D01*
X236120814Y-70520609D01*
X235989711Y-70608210D01*
X235989707Y-70608213D01*
X235878213Y-70719707D01*
X235878210Y-70719711D01*
X235790609Y-70850814D01*
X235790602Y-70850827D01*
X235730264Y-70996498D01*
X235730261Y-70996510D01*
X235699500Y-71151153D01*
X235699500Y-71308846D01*
X235730261Y-71463489D01*
X235730264Y-71463501D01*
X235790061Y-71607864D01*
X235799500Y-71655316D01*
X235799500Y-91834583D01*
X235795743Y-91864875D01*
X235793529Y-91873661D01*
X235775420Y-91917382D01*
X235749401Y-92048189D01*
X235748797Y-92051223D01*
X235748789Y-92051256D01*
X235748501Y-92052705D01*
X235748500Y-92052721D01*
X235748500Y-92709480D01*
X235728815Y-92776519D01*
X235712181Y-92797161D01*
X231387982Y-97121359D01*
X231326659Y-97154844D01*
X231256967Y-97149860D01*
X231201034Y-97107988D01*
X231197199Y-97102569D01*
X231121789Y-96989711D01*
X231121786Y-96989707D01*
X231010292Y-96878213D01*
X231010288Y-96878210D01*
X230879185Y-96790609D01*
X230879172Y-96790602D01*
X230733501Y-96730264D01*
X230733489Y-96730261D01*
X230578845Y-96699500D01*
X230578842Y-96699500D01*
X230421158Y-96699500D01*
X230421155Y-96699500D01*
X230266510Y-96730261D01*
X230266498Y-96730264D01*
X230120827Y-96790602D01*
X230120814Y-96790609D01*
X229989711Y-96878210D01*
X229989707Y-96878213D01*
X229878213Y-96989707D01*
X229878210Y-96989711D01*
X229790609Y-97120814D01*
X229790602Y-97120827D01*
X229730264Y-97266498D01*
X229730261Y-97266510D01*
X229699500Y-97421153D01*
X229699500Y-97578846D01*
X229724894Y-97706511D01*
X229718667Y-97776103D01*
X229690958Y-97818383D01*
X228712181Y-98797161D01*
X228650858Y-98830646D01*
X228581167Y-98825662D01*
X228525233Y-98783790D01*
X228500816Y-98718326D01*
X228500500Y-98709480D01*
X228500500Y-94130497D01*
X228520185Y-94063458D01*
X228572989Y-94017703D01*
X228642147Y-94007759D01*
X228705703Y-94036784D01*
X228712181Y-94042816D01*
X228783397Y-94114032D01*
X228923475Y-94215804D01*
X229077744Y-94294408D01*
X229242415Y-94347914D01*
X229242414Y-94347914D01*
X229249999Y-94349115D01*
X229250000Y-94349114D01*
X229250000Y-93280330D01*
X229269745Y-93300075D01*
X229355255Y-93349444D01*
X229450630Y-93375000D01*
X229549370Y-93375000D01*
X229644745Y-93349444D01*
X229730255Y-93300075D01*
X229750000Y-93280330D01*
X229750000Y-94349115D01*
X229757584Y-94347914D01*
X229922255Y-94294408D01*
X230076524Y-94215804D01*
X230216602Y-94114032D01*
X230339032Y-93991602D01*
X230440804Y-93851524D01*
X230519408Y-93697257D01*
X230572914Y-93532584D01*
X230600000Y-93361571D01*
X230600000Y-93250000D01*
X229780330Y-93250000D01*
X229800075Y-93230255D01*
X229849444Y-93144745D01*
X229875000Y-93049370D01*
X229875000Y-92950630D01*
X229849444Y-92855255D01*
X229800075Y-92769745D01*
X229780330Y-92750000D01*
X230600000Y-92750000D01*
X230600000Y-92638428D01*
X230572914Y-92467415D01*
X230519408Y-92302742D01*
X230440804Y-92148475D01*
X230339032Y-92008397D01*
X230216602Y-91885967D01*
X230076524Y-91784195D01*
X229922257Y-91705591D01*
X229757589Y-91652087D01*
X229757581Y-91652085D01*
X229750000Y-91650884D01*
X229750000Y-92719670D01*
X229730255Y-92699925D01*
X229644745Y-92650556D01*
X229549370Y-92625000D01*
X229450630Y-92625000D01*
X229355255Y-92650556D01*
X229269745Y-92699925D01*
X229250000Y-92719670D01*
X229250000Y-91650884D01*
X229249999Y-91650884D01*
X229242418Y-91652085D01*
X229242410Y-91652087D01*
X229077742Y-91705591D01*
X228923475Y-91784195D01*
X228783397Y-91885967D01*
X228712181Y-91957184D01*
X228650858Y-91990669D01*
X228581166Y-91985685D01*
X228525233Y-91943813D01*
X228500816Y-91878349D01*
X228500500Y-91869503D01*
X228500500Y-89102281D01*
X228520185Y-89035242D01*
X228536814Y-89014605D01*
X228981322Y-88570097D01*
X230486000Y-88570097D01*
X230486000Y-88829902D01*
X230526640Y-89086493D01*
X230606922Y-89333576D01*
X230688034Y-89492764D01*
X230723109Y-89561603D01*
X230724868Y-89565054D01*
X230844898Y-89730261D01*
X230877569Y-89775229D01*
X231061271Y-89958931D01*
X231271449Y-90111634D01*
X231418945Y-90186787D01*
X231502923Y-90229577D01*
X231502925Y-90229577D01*
X231502928Y-90229579D01*
X231750007Y-90309860D01*
X231882206Y-90330797D01*
X232006598Y-90350500D01*
X232006603Y-90350500D01*
X232266402Y-90350500D01*
X232379798Y-90332539D01*
X232522993Y-90309860D01*
X232770072Y-90229579D01*
X233001551Y-90111634D01*
X233211729Y-89958931D01*
X233395431Y-89775229D01*
X233548134Y-89565051D01*
X233666079Y-89333572D01*
X233746360Y-89086493D01*
X233769039Y-88943298D01*
X233787000Y-88829902D01*
X233787000Y-88570097D01*
X233763786Y-88423534D01*
X233746360Y-88313507D01*
X233666079Y-88066428D01*
X233666077Y-88066425D01*
X233666077Y-88066423D01*
X233623287Y-87982445D01*
X233548134Y-87834949D01*
X233395431Y-87624771D01*
X233211729Y-87441069D01*
X233154514Y-87399500D01*
X233001554Y-87288368D01*
X233001553Y-87288367D01*
X233001551Y-87288366D01*
X232923771Y-87248735D01*
X232770076Y-87170422D01*
X232522993Y-87090140D01*
X232266402Y-87049500D01*
X232266397Y-87049500D01*
X232006603Y-87049500D01*
X232006598Y-87049500D01*
X231750006Y-87090140D01*
X231502923Y-87170422D01*
X231271445Y-87288368D01*
X231061274Y-87441066D01*
X231061268Y-87441071D01*
X230877571Y-87624768D01*
X230877566Y-87624774D01*
X230724868Y-87834945D01*
X230606922Y-88066423D01*
X230526640Y-88313506D01*
X230486000Y-88570097D01*
X228981322Y-88570097D01*
X231870694Y-85680724D01*
X231932015Y-85647241D01*
X231977772Y-85645934D01*
X232006599Y-85650500D01*
X232006603Y-85650500D01*
X232266402Y-85650500D01*
X232379798Y-85632539D01*
X232522993Y-85609860D01*
X232770072Y-85529579D01*
X233001551Y-85411634D01*
X233211729Y-85258931D01*
X233395431Y-85075229D01*
X233548134Y-84865051D01*
X233666079Y-84633572D01*
X233746360Y-84386493D01*
X233772118Y-84223858D01*
X233787000Y-84129902D01*
X233787000Y-83870097D01*
X233763069Y-83719007D01*
X233746360Y-83613507D01*
X233666079Y-83366428D01*
X233666077Y-83366425D01*
X233666077Y-83366423D01*
X233589568Y-83216268D01*
X233548134Y-83134949D01*
X233395431Y-82924771D01*
X233211729Y-82741069D01*
X233001551Y-82588366D01*
X232929264Y-82551534D01*
X232770076Y-82470422D01*
X232522993Y-82390140D01*
X232266402Y-82349500D01*
X232266397Y-82349500D01*
X232006603Y-82349500D01*
X232006598Y-82349500D01*
X231750006Y-82390140D01*
X231502923Y-82470422D01*
X231271445Y-82588368D01*
X231061274Y-82741066D01*
X231061268Y-82741071D01*
X230877571Y-82924768D01*
X230877566Y-82924774D01*
X230724868Y-83134945D01*
X230606922Y-83366423D01*
X230526640Y-83613506D01*
X230486000Y-83870097D01*
X230486000Y-83870103D01*
X230486000Y-84129897D01*
X230490566Y-84158727D01*
X230481610Y-84228021D01*
X230455773Y-84265805D01*
X228658133Y-86063446D01*
X226862221Y-87859358D01*
X226862218Y-87859361D01*
X226800426Y-87921153D01*
X226722859Y-87998719D01*
X226613371Y-88162580D01*
X226613366Y-88162589D01*
X226583996Y-88233497D01*
X226537950Y-88344660D01*
X226537947Y-88344672D01*
X226531083Y-88379180D01*
X226531083Y-88379181D01*
X226499500Y-88537956D01*
X226499500Y-91964867D01*
X226481040Y-92029961D01*
X226465187Y-92055663D01*
X226465186Y-92055665D01*
X226445958Y-92113693D01*
X226410001Y-92222203D01*
X226410001Y-92222204D01*
X226410000Y-92222204D01*
X226399500Y-92324983D01*
X226399500Y-93675001D01*
X226399501Y-93675018D01*
X226410000Y-93777796D01*
X226410001Y-93777799D01*
X226450661Y-93900500D01*
X226465186Y-93944334D01*
X226481039Y-93970036D01*
X226499500Y-94035132D01*
X226499500Y-99034217D01*
X226479815Y-99101256D01*
X226463181Y-99121898D01*
X224222180Y-101362899D01*
X224160857Y-101396384D01*
X224091165Y-101391400D01*
X224035232Y-101349528D01*
X224010815Y-101284064D01*
X224010499Y-101275218D01*
X224010499Y-100142129D01*
X224010498Y-100142123D01*
X224008290Y-100121584D01*
X224004091Y-100082517D01*
X224002810Y-100079083D01*
X223953797Y-99947671D01*
X223953793Y-99947664D01*
X223867547Y-99832455D01*
X223867544Y-99832452D01*
X223752335Y-99746206D01*
X223752328Y-99746202D01*
X223620917Y-99697189D01*
X223564983Y-99655318D01*
X223540566Y-99589853D01*
X223555418Y-99521580D01*
X223576563Y-99493332D01*
X223690104Y-99379792D01*
X223760142Y-99283393D01*
X223815048Y-99207820D01*
X223815049Y-99207819D01*
X223815051Y-99207816D01*
X223911557Y-99018412D01*
X223977246Y-98816243D01*
X224010500Y-98606287D01*
X224010500Y-98393713D01*
X223977246Y-98183757D01*
X223911557Y-97981588D01*
X223815051Y-97792184D01*
X223815049Y-97792181D01*
X223815048Y-97792179D01*
X223690109Y-97620213D01*
X223539786Y-97469890D01*
X223367820Y-97344951D01*
X223178414Y-97248444D01*
X223178413Y-97248443D01*
X223178412Y-97248443D01*
X222976243Y-97182754D01*
X222976241Y-97182753D01*
X222976240Y-97182753D01*
X222800027Y-97154844D01*
X222766287Y-97149500D01*
X222553713Y-97149500D01*
X222519973Y-97154844D01*
X222343760Y-97182753D01*
X222343757Y-97182754D01*
X222187612Y-97233489D01*
X222141585Y-97248444D01*
X221952179Y-97344951D01*
X221780213Y-97469890D01*
X221629890Y-97620213D01*
X221504949Y-97792182D01*
X221500484Y-97800946D01*
X221452509Y-97851742D01*
X221384688Y-97868536D01*
X221318553Y-97845998D01*
X221279516Y-97800946D01*
X221275050Y-97792182D01*
X221150109Y-97620213D01*
X220999786Y-97469890D01*
X220827820Y-97344951D01*
X220638414Y-97248444D01*
X220638413Y-97248443D01*
X220638412Y-97248443D01*
X220436243Y-97182754D01*
X220436241Y-97182753D01*
X220436240Y-97182753D01*
X220260027Y-97154844D01*
X220226287Y-97149500D01*
X220013713Y-97149500D01*
X219979973Y-97154844D01*
X219803759Y-97182753D01*
X219803755Y-97182754D01*
X219688352Y-97220250D01*
X219672052Y-97220715D01*
X219656674Y-97226141D01*
X219637848Y-97221692D01*
X219618511Y-97222245D01*
X219604545Y-97213823D01*
X219588677Y-97210074D01*
X219575245Y-97196154D01*
X219558678Y-97186164D01*
X219551000Y-97171028D01*
X219540161Y-97159796D01*
X219528418Y-97126513D01*
X219523252Y-97100544D01*
X219516074Y-97064458D01*
X219504580Y-97006672D01*
X219451775Y-96879189D01*
X219375114Y-96764457D01*
X219375112Y-96764454D01*
X219375111Y-96764453D01*
X218626264Y-96015607D01*
X218592779Y-95954284D01*
X218597763Y-95884593D01*
X218610839Y-95859040D01*
X218642249Y-95812034D01*
X218702592Y-95666352D01*
X218733355Y-95511697D01*
X218733355Y-95354013D01*
X218733355Y-95354010D01*
X218733354Y-95354008D01*
X218715947Y-95266498D01*
X218702592Y-95199358D01*
X218689683Y-95168192D01*
X218642252Y-95053682D01*
X218642245Y-95053669D01*
X218554253Y-94921980D01*
X218533375Y-94855302D01*
X218533355Y-94853089D01*
X218533355Y-93232951D01*
X218553040Y-93165912D01*
X218569670Y-93145274D01*
X219358506Y-92356437D01*
X219358511Y-92356434D01*
X219368714Y-92346230D01*
X219368716Y-92346230D01*
X219480520Y-92234426D01*
X219550224Y-92113694D01*
X219559577Y-92097495D01*
X219600501Y-91944767D01*
X219600501Y-91786653D01*
X219600501Y-91779058D01*
X219600500Y-91779040D01*
X219600500Y-83899154D01*
X219620185Y-83832115D01*
X219672989Y-83786360D01*
X219742147Y-83776416D01*
X219805703Y-83805441D01*
X219812181Y-83811473D01*
X220189526Y-84188818D01*
X220223011Y-84250141D01*
X220223462Y-84300690D01*
X220199500Y-84421153D01*
X220199500Y-84578846D01*
X220230261Y-84733489D01*
X220230263Y-84733497D01*
X220290602Y-84879172D01*
X220290609Y-84879185D01*
X220378210Y-85010288D01*
X220378213Y-85010292D01*
X220489707Y-85121786D01*
X220489711Y-85121789D01*
X220620814Y-85209390D01*
X220620827Y-85209397D01*
X220758683Y-85266498D01*
X220766503Y-85269737D01*
X220882629Y-85292836D01*
X220921153Y-85300499D01*
X220921156Y-85300500D01*
X220921158Y-85300500D01*
X221078844Y-85300500D01*
X221078845Y-85300499D01*
X221233497Y-85269737D01*
X221379179Y-85209394D01*
X221510289Y-85121789D01*
X221621789Y-85010289D01*
X221709394Y-84879179D01*
X221769737Y-84733497D01*
X221800500Y-84578842D01*
X221800500Y-84421158D01*
X221800500Y-84421155D01*
X221800499Y-84421153D01*
X221769739Y-84266511D01*
X221769738Y-84266508D01*
X221769737Y-84266503D01*
X221759937Y-84242844D01*
X221750500Y-84195396D01*
X221750500Y-83864004D01*
X221721659Y-83719017D01*
X221721658Y-83719016D01*
X221721658Y-83719012D01*
X221687599Y-83636785D01*
X221665087Y-83582436D01*
X221665080Y-83582423D01*
X221582952Y-83459510D01*
X221544595Y-83421153D01*
X221478416Y-83354974D01*
X218635624Y-80512181D01*
X218602139Y-80450858D01*
X218607123Y-80381166D01*
X218648995Y-80325233D01*
X218714459Y-80300816D01*
X218723305Y-80300500D01*
X230760094Y-80300500D01*
X230827133Y-80320185D01*
X230860411Y-80351614D01*
X230875518Y-80372407D01*
X230877569Y-80375229D01*
X231061271Y-80558931D01*
X231271449Y-80711634D01*
X231379135Y-80766503D01*
X231502923Y-80829577D01*
X231502925Y-80829577D01*
X231502928Y-80829579D01*
X231750007Y-80909860D01*
X231882206Y-80930797D01*
X232006598Y-80950500D01*
X232006603Y-80950500D01*
X232266402Y-80950500D01*
X232379798Y-80932539D01*
X232522993Y-80909860D01*
X232770072Y-80829579D01*
X233001551Y-80711634D01*
X233211729Y-80558931D01*
X233395431Y-80375229D01*
X233548134Y-80165051D01*
X233666079Y-79933572D01*
X233746360Y-79686493D01*
X233778180Y-79485586D01*
X233787000Y-79429902D01*
X233787000Y-79170097D01*
X233765363Y-79033489D01*
X233746360Y-78913507D01*
X233666079Y-78666428D01*
X233666077Y-78666425D01*
X233666077Y-78666423D01*
X233612789Y-78561841D01*
X233548134Y-78434949D01*
X233395431Y-78224771D01*
X233211729Y-78041069D01*
X233155336Y-78000097D01*
X233001554Y-77888368D01*
X233001553Y-77888367D01*
X233001551Y-77888366D01*
X232929264Y-77851534D01*
X232770076Y-77770422D01*
X232522993Y-77690140D01*
X232266402Y-77649500D01*
X232266397Y-77649500D01*
X232006603Y-77649500D01*
X232006598Y-77649500D01*
X231750006Y-77690140D01*
X231502923Y-77770422D01*
X231271445Y-77888368D01*
X231061274Y-78041066D01*
X231061268Y-78041071D01*
X230877571Y-78224768D01*
X230877564Y-78224777D01*
X230860411Y-78248386D01*
X230805081Y-78291052D01*
X230760094Y-78299500D01*
X215765782Y-78299500D01*
X215698743Y-78279815D01*
X215678100Y-78263180D01*
X215637784Y-78222863D01*
X215637780Y-78222860D01*
X215473920Y-78113372D01*
X215473910Y-78113367D01*
X215291836Y-78037949D01*
X215291828Y-78037947D01*
X215098543Y-77999500D01*
X215098540Y-77999500D01*
X214901460Y-77999500D01*
X214901456Y-77999500D01*
X214898687Y-78000051D01*
X214897208Y-77999918D01*
X214895397Y-78000097D01*
X214895363Y-77999753D01*
X214829096Y-77993821D01*
X214773920Y-77950957D01*
X214750678Y-77885066D01*
X214750500Y-77878433D01*
X214750500Y-72800154D01*
X214770185Y-72733115D01*
X214786819Y-72712473D01*
X216712473Y-70786819D01*
X216773796Y-70753334D01*
X216800154Y-70750500D01*
X221573920Y-70750500D01*
X221675664Y-70730261D01*
X221718913Y-70721658D01*
X221855495Y-70665084D01*
X221904729Y-70632186D01*
X221921808Y-70620775D01*
X221929071Y-70615921D01*
X221978416Y-70582952D01*
X224815295Y-67746070D01*
X224855519Y-67719193D01*
X224879179Y-67709394D01*
X225010289Y-67621789D01*
X225121789Y-67510289D01*
X225209394Y-67379179D01*
X225219191Y-67355524D01*
X225246069Y-67315297D01*
X233582951Y-58978416D01*
X233665084Y-58855495D01*
X233721658Y-58718913D01*
X233750500Y-58573918D01*
X233750500Y-58426083D01*
X233750500Y-58426082D01*
X233750500Y-54304604D01*
X233759939Y-54257151D01*
X233763182Y-54249322D01*
X233769737Y-54233497D01*
X233800500Y-54078842D01*
X233800500Y-53921158D01*
X233800500Y-53921155D01*
X233800499Y-53921153D01*
X233769738Y-53766510D01*
X233769737Y-53766503D01*
X233769735Y-53766498D01*
X233709397Y-53620827D01*
X233709390Y-53620814D01*
X233621789Y-53489711D01*
X233621786Y-53489707D01*
X233510292Y-53378213D01*
X233510288Y-53378210D01*
X233379185Y-53290609D01*
X233379172Y-53290602D01*
X233233501Y-53230264D01*
X233233489Y-53230261D01*
X233078845Y-53199500D01*
X233078842Y-53199500D01*
X232921158Y-53199500D01*
X232921155Y-53199500D01*
X232766510Y-53230261D01*
X232766498Y-53230264D01*
X232620827Y-53290602D01*
X232620814Y-53290609D01*
X232489711Y-53378210D01*
X232489707Y-53378213D01*
X232378213Y-53489707D01*
X232378210Y-53489711D01*
X232290609Y-53620814D01*
X232290602Y-53620827D01*
X232230264Y-53766498D01*
X232230261Y-53766510D01*
X232199500Y-53921153D01*
X232199500Y-54078846D01*
X232230261Y-54233489D01*
X232230263Y-54233497D01*
X232240061Y-54257151D01*
X232249500Y-54304604D01*
X232249500Y-58137769D01*
X232229815Y-58204808D01*
X232213181Y-58225450D01*
X224184703Y-66253927D01*
X224144480Y-66280805D01*
X224120819Y-66290606D01*
X224120818Y-66290607D01*
X223989715Y-66378207D01*
X223989707Y-66378213D01*
X223878213Y-66489707D01*
X223878207Y-66489715D01*
X223790607Y-66620818D01*
X223790605Y-66620822D01*
X223780805Y-66644480D01*
X223753927Y-66684704D01*
X221225451Y-69213181D01*
X221164128Y-69246666D01*
X221137770Y-69249500D01*
X216800155Y-69249500D01*
X216733116Y-69229815D01*
X216712474Y-69213181D01*
X209148803Y-61649510D01*
X209115318Y-61588187D01*
X209120302Y-61518495D01*
X209133377Y-61492944D01*
X209209394Y-61379179D01*
X209269737Y-61233497D01*
X209300500Y-61078842D01*
X209300500Y-60921158D01*
X209300500Y-60921155D01*
X209300499Y-60921153D01*
X209269738Y-60766510D01*
X209269737Y-60766503D01*
X209209394Y-60620821D01*
X209146397Y-60526539D01*
X209140747Y-60508494D01*
X209130523Y-60492585D01*
X209126071Y-60461623D01*
X209125520Y-60459863D01*
X209125500Y-60457650D01*
X209125500Y-60310452D01*
X209145185Y-60243413D01*
X209161819Y-60222771D01*
X209222771Y-60161819D01*
X209284094Y-60128334D01*
X209310452Y-60125500D01*
X210561607Y-60125500D01*
X210622029Y-60113481D01*
X210682452Y-60101463D01*
X210715792Y-60087652D01*
X210796286Y-60054312D01*
X210847509Y-60020084D01*
X210898733Y-59985858D01*
X210985858Y-59898733D01*
X210985859Y-59898731D01*
X210992925Y-59891665D01*
X210992928Y-59891661D01*
X211058797Y-59825791D01*
X211120118Y-59792308D01*
X211122128Y-59791889D01*
X211233497Y-59769737D01*
X211379179Y-59709394D01*
X211510289Y-59621789D01*
X211621789Y-59510289D01*
X211629145Y-59499279D01*
X211646898Y-59472712D01*
X211700510Y-59427906D01*
X211769835Y-59419199D01*
X211832862Y-59449353D01*
X211853102Y-59472712D01*
X211878207Y-59510284D01*
X211878213Y-59510292D01*
X211989707Y-59621786D01*
X211989711Y-59621789D01*
X212120814Y-59709390D01*
X212120827Y-59709397D01*
X212266498Y-59769735D01*
X212266503Y-59769737D01*
X212421153Y-59800499D01*
X212421156Y-59800500D01*
X212421158Y-59800500D01*
X212578844Y-59800500D01*
X212578845Y-59800499D01*
X212733497Y-59769737D01*
X212879179Y-59709394D01*
X212973459Y-59646398D01*
X213040136Y-59625520D01*
X213042350Y-59625500D01*
X213957650Y-59625500D01*
X214024689Y-59645185D01*
X214026541Y-59646398D01*
X214120821Y-59709394D01*
X214120823Y-59709395D01*
X214120827Y-59709397D01*
X214266498Y-59769735D01*
X214266503Y-59769737D01*
X214421153Y-59800499D01*
X214421156Y-59800500D01*
X214421158Y-59800500D01*
X214578844Y-59800500D01*
X214578845Y-59800499D01*
X214733497Y-59769737D01*
X214879179Y-59709394D01*
X215010289Y-59621789D01*
X215121789Y-59510289D01*
X215209394Y-59379179D01*
X215269737Y-59233497D01*
X215300500Y-59078842D01*
X215300500Y-58921158D01*
X215300500Y-58921155D01*
X215300499Y-58921153D01*
X215279199Y-58814071D01*
X215269737Y-58766503D01*
X215269735Y-58766498D01*
X215209397Y-58620827D01*
X215209390Y-58620814D01*
X215121789Y-58489711D01*
X215121786Y-58489707D01*
X215010292Y-58378213D01*
X215010288Y-58378210D01*
X214879185Y-58290609D01*
X214879172Y-58290602D01*
X214733501Y-58230264D01*
X214733489Y-58230261D01*
X214578845Y-58199500D01*
X214578842Y-58199500D01*
X214421158Y-58199500D01*
X214421155Y-58199500D01*
X214266510Y-58230261D01*
X214266498Y-58230264D01*
X214120827Y-58290602D01*
X214120815Y-58290609D01*
X214026541Y-58353602D01*
X213959864Y-58374480D01*
X213957650Y-58374500D01*
X213042350Y-58374500D01*
X212975311Y-58354815D01*
X212973459Y-58353602D01*
X212879184Y-58290609D01*
X212879172Y-58290602D01*
X212733501Y-58230264D01*
X212733489Y-58230261D01*
X212578845Y-58199500D01*
X212578842Y-58199500D01*
X212421158Y-58199500D01*
X212421155Y-58199500D01*
X212266510Y-58230261D01*
X212266498Y-58230264D01*
X212120827Y-58290602D01*
X212120814Y-58290609D01*
X211989711Y-58378210D01*
X211989707Y-58378213D01*
X211878213Y-58489707D01*
X211853102Y-58527289D01*
X211799489Y-58572093D01*
X211730164Y-58580800D01*
X211667137Y-58550645D01*
X211646898Y-58527289D01*
X211621786Y-58489707D01*
X211510292Y-58378213D01*
X211510288Y-58378210D01*
X211379185Y-58290609D01*
X211379172Y-58290602D01*
X211233501Y-58230264D01*
X211233489Y-58230261D01*
X211078845Y-58199500D01*
X211078842Y-58199500D01*
X210921158Y-58199500D01*
X210921155Y-58199500D01*
X210766510Y-58230261D01*
X210766498Y-58230264D01*
X210620827Y-58290602D01*
X210620814Y-58290609D01*
X210489711Y-58378210D01*
X210489707Y-58378213D01*
X210378213Y-58489707D01*
X210378210Y-58489711D01*
X210290609Y-58620814D01*
X210290602Y-58620827D01*
X210230263Y-58766501D01*
X210230263Y-58766502D01*
X210229799Y-58768831D01*
X210228634Y-58774691D01*
X210196250Y-58836601D01*
X210135535Y-58871176D01*
X210107017Y-58874500D01*
X208938389Y-58874500D01*
X208887535Y-58884615D01*
X208887530Y-58884616D01*
X208877971Y-58886518D01*
X208817548Y-58898537D01*
X208770397Y-58918067D01*
X208703715Y-58945688D01*
X208703714Y-58945689D01*
X208681347Y-58960633D01*
X208681344Y-58960635D01*
X208601268Y-59014140D01*
X208557705Y-59057703D01*
X208514142Y-59101267D01*
X208104234Y-59511174D01*
X208104227Y-59511181D01*
X208101270Y-59514139D01*
X208101267Y-59514142D01*
X208014142Y-59601267D01*
X207981246Y-59650500D01*
X207976816Y-59657128D01*
X207976812Y-59657134D01*
X207945688Y-59703712D01*
X207929669Y-59742387D01*
X207918341Y-59769736D01*
X207898539Y-59817541D01*
X207898535Y-59817555D01*
X207874500Y-59938389D01*
X207874500Y-60075845D01*
X207854815Y-60142884D01*
X207802011Y-60188639D01*
X207732853Y-60198583D01*
X207669297Y-60169558D01*
X207662819Y-60163526D01*
X205224744Y-57725451D01*
X205191259Y-57664128D01*
X205188425Y-57637770D01*
X205188425Y-55864004D01*
X205159584Y-55719017D01*
X205159583Y-55719016D01*
X205159583Y-55719012D01*
X205159581Y-55719007D01*
X205103012Y-55582436D01*
X205103005Y-55582423D01*
X205020877Y-55459510D01*
X205020876Y-55459509D01*
X204916341Y-55354974D01*
X204519383Y-54958015D01*
X204485899Y-54896694D01*
X204490883Y-54827002D01*
X204532755Y-54771069D01*
X204582873Y-54748719D01*
X204665950Y-54732193D01*
X204718913Y-54721658D01*
X204855495Y-54665084D01*
X204920291Y-54621789D01*
X204920294Y-54621786D01*
X204920296Y-54621786D01*
X204949547Y-54602240D01*
X204978416Y-54582952D01*
X207274549Y-52286819D01*
X207335872Y-52253334D01*
X207362230Y-52250500D01*
X219695396Y-52250500D01*
X219742844Y-52259937D01*
X219766503Y-52269737D01*
X219766508Y-52269738D01*
X219766511Y-52269739D01*
X219921153Y-52300499D01*
X219921156Y-52300500D01*
X219921158Y-52300500D01*
X220078844Y-52300500D01*
X220078845Y-52300499D01*
X220233497Y-52269737D01*
X220379179Y-52209394D01*
X220510289Y-52121789D01*
X220621789Y-52010289D01*
X220709394Y-51879179D01*
X220769737Y-51733497D01*
X220791858Y-51622282D01*
X220824240Y-51560375D01*
X220825703Y-51558885D01*
X220848775Y-51535814D01*
X220910099Y-51502333D01*
X220936452Y-51499500D01*
X229581954Y-51499500D01*
X229612415Y-51508444D01*
G37*
%TD.AperFunction*%
%TA.AperFunction,Conductor*%
G36*
X188185551Y-85754454D02*
G01*
X188196509Y-85755238D01*
X188216174Y-85769960D01*
X188238087Y-85781055D01*
X188248619Y-85794248D01*
X188252442Y-85797110D01*
X188256268Y-85803830D01*
X188260107Y-85808638D01*
X188264453Y-85816041D01*
X188290606Y-85879179D01*
X188378211Y-86010289D01*
X188378914Y-86010992D01*
X188382431Y-86016982D01*
X188395062Y-86063446D01*
X188399479Y-86077550D01*
X188399186Y-86078615D01*
X188399499Y-86079764D01*
X188399499Y-86144294D01*
X188399498Y-86144294D01*
X188440423Y-86297026D01*
X188444475Y-86304042D01*
X188448820Y-86311568D01*
X188448822Y-86311577D01*
X188448825Y-86311576D01*
X188514766Y-86425791D01*
X188519479Y-86433954D01*
X188519481Y-86433957D01*
X188631285Y-86545761D01*
X188863181Y-86777656D01*
X188896666Y-86838979D01*
X188899500Y-86865337D01*
X188899500Y-96920939D01*
X188899499Y-96920943D01*
X188899499Y-97079057D01*
X188899500Y-97079060D01*
X188899500Y-97091297D01*
X188924958Y-97186309D01*
X188939659Y-97241173D01*
X188937996Y-97311023D01*
X188898833Y-97368885D01*
X188892769Y-97373584D01*
X188760214Y-97469890D01*
X188760209Y-97469894D01*
X188609890Y-97620213D01*
X188484949Y-97792182D01*
X188480484Y-97800946D01*
X188432509Y-97851742D01*
X188364688Y-97868536D01*
X188298553Y-97845998D01*
X188259516Y-97800946D01*
X188255050Y-97792182D01*
X188130109Y-97620213D01*
X187979786Y-97469890D01*
X187807820Y-97344951D01*
X187618414Y-97248444D01*
X187618413Y-97248443D01*
X187618412Y-97248443D01*
X187416243Y-97182754D01*
X187416241Y-97182753D01*
X187416240Y-97182753D01*
X187240027Y-97154844D01*
X187206287Y-97149500D01*
X186993713Y-97149500D01*
X186959973Y-97154844D01*
X186783753Y-97182754D01*
X186762817Y-97189557D01*
X186692976Y-97191552D01*
X186633144Y-97155471D01*
X186602316Y-97092770D01*
X186600500Y-97071626D01*
X186600500Y-87300096D01*
X186620185Y-87233057D01*
X186636814Y-87212420D01*
X188065496Y-85783737D01*
X188087051Y-85771967D01*
X188106250Y-85756642D01*
X188117176Y-85755518D01*
X188126817Y-85750254D01*
X188151319Y-85752006D01*
X188175753Y-85749493D01*
X188185551Y-85754454D01*
G37*
%TD.AperFunction*%
%TA.AperFunction,Conductor*%
G36*
X195387977Y-56275902D02*
G01*
X195432324Y-56304403D01*
X195499707Y-56371786D01*
X195499711Y-56371789D01*
X195630814Y-56459390D01*
X195630827Y-56459397D01*
X195741593Y-56505277D01*
X195776503Y-56519737D01*
X195931153Y-56550499D01*
X195931156Y-56550500D01*
X195931158Y-56550500D01*
X196088844Y-56550500D01*
X196088845Y-56550499D01*
X196243497Y-56519737D01*
X196389179Y-56459394D01*
X196446044Y-56421397D01*
X196512721Y-56400520D01*
X196514935Y-56400500D01*
X197929192Y-56400500D01*
X197996231Y-56420185D01*
X198016868Y-56436814D01*
X198085330Y-56505276D01*
X198085331Y-56505277D01*
X198191871Y-56576464D01*
X198244389Y-56598218D01*
X198298792Y-56642059D01*
X198320857Y-56708353D01*
X198303578Y-56776052D01*
X198284617Y-56800460D01*
X196070939Y-59014140D01*
X195362220Y-59722859D01*
X195362218Y-59722861D01*
X195315344Y-59769735D01*
X195222859Y-59862219D01*
X195113371Y-60026079D01*
X195113364Y-60026092D01*
X195037950Y-60208160D01*
X195037947Y-60208170D01*
X194999500Y-60401456D01*
X194999500Y-60401459D01*
X194999500Y-83097541D01*
X194999500Y-83097543D01*
X194999499Y-83097543D01*
X195037947Y-83290829D01*
X195037950Y-83290839D01*
X195113364Y-83472907D01*
X195113371Y-83472920D01*
X195222860Y-83636781D01*
X195222863Y-83636785D01*
X195362214Y-83776136D01*
X195362218Y-83776139D01*
X195526079Y-83885628D01*
X195526092Y-83885635D01*
X195658364Y-83940423D01*
X195708165Y-83961051D01*
X195708169Y-83961051D01*
X195708170Y-83961052D01*
X195757129Y-83970791D01*
X195766133Y-83975500D01*
X195776271Y-83976226D01*
X195796572Y-83991423D01*
X195819039Y-84003176D01*
X195824068Y-84012007D01*
X195832204Y-84018098D01*
X195841065Y-84041855D01*
X195853614Y-84063892D01*
X195853069Y-84074041D01*
X195856621Y-84083562D01*
X195851231Y-84108336D01*
X195849874Y-84133661D01*
X195843533Y-84143722D01*
X195841769Y-84151835D01*
X195820617Y-84180089D01*
X195776849Y-84223858D01*
X195776846Y-84223861D01*
X195734902Y-84265805D01*
X195637487Y-84363219D01*
X195527999Y-84527079D01*
X195527992Y-84527092D01*
X195482145Y-84637780D01*
X195482145Y-84637781D01*
X195452578Y-84709161D01*
X195452576Y-84709168D01*
X195447736Y-84733499D01*
X195414128Y-84902454D01*
X195414128Y-84902459D01*
X195414128Y-85099541D01*
X195414128Y-85099543D01*
X195414127Y-85099543D01*
X195431968Y-85189229D01*
X195432473Y-85191767D01*
X195452577Y-85292836D01*
X195459793Y-85310256D01*
X195463472Y-85319139D01*
X195463474Y-85319145D01*
X195527992Y-85474907D01*
X195527999Y-85474920D01*
X195637488Y-85638781D01*
X195637491Y-85638785D01*
X195776845Y-85778139D01*
X195928063Y-85879179D01*
X195940714Y-85887632D01*
X196048505Y-85932280D01*
X196122792Y-85963051D01*
X196199117Y-85978233D01*
X196251014Y-85988556D01*
X196316084Y-86001500D01*
X196316087Y-86001500D01*
X196316088Y-86001500D01*
X196513168Y-86001500D01*
X197375500Y-86001500D01*
X197442539Y-86021185D01*
X197488294Y-86073989D01*
X197499500Y-86125500D01*
X197499500Y-94838541D01*
X197499500Y-94838543D01*
X197499499Y-94838543D01*
X197537947Y-95031829D01*
X197537950Y-95031839D01*
X197613364Y-95213907D01*
X197613371Y-95213920D01*
X197726245Y-95382847D01*
X197724717Y-95383867D01*
X197748666Y-95440255D01*
X197749500Y-95454610D01*
X197749500Y-97068376D01*
X197729815Y-97135415D01*
X197677011Y-97181170D01*
X197607853Y-97191114D01*
X197587189Y-97186309D01*
X197576247Y-97182754D01*
X197400027Y-97154844D01*
X197366287Y-97149500D01*
X197153713Y-97149500D01*
X197119973Y-97154844D01*
X196943760Y-97182753D01*
X196943757Y-97182754D01*
X196787612Y-97233489D01*
X196741585Y-97248444D01*
X196552179Y-97344951D01*
X196380213Y-97469890D01*
X196229890Y-97620213D01*
X196104949Y-97792182D01*
X196100484Y-97800946D01*
X196052509Y-97851742D01*
X195984688Y-97868536D01*
X195918553Y-97845998D01*
X195879516Y-97800946D01*
X195875050Y-97792182D01*
X195750109Y-97620213D01*
X195599786Y-97469890D01*
X195427820Y-97344951D01*
X195238414Y-97248444D01*
X195238413Y-97248443D01*
X195238412Y-97248443D01*
X195036243Y-97182754D01*
X195036241Y-97182753D01*
X195036240Y-97182753D01*
X194860027Y-97154844D01*
X194826287Y-97149500D01*
X194613713Y-97149500D01*
X194579973Y-97154844D01*
X194403759Y-97182753D01*
X194403755Y-97182754D01*
X194331817Y-97206128D01*
X194261976Y-97208123D01*
X194202143Y-97172042D01*
X194171316Y-97109341D01*
X194169500Y-97088197D01*
X194169500Y-95976498D01*
X194189185Y-95909459D01*
X194190399Y-95907606D01*
X194209394Y-95879179D01*
X194269737Y-95733497D01*
X194300500Y-95578842D01*
X194300500Y-95421158D01*
X194300500Y-95421155D01*
X194300499Y-95421153D01*
X194291872Y-95377782D01*
X194269737Y-95266503D01*
X194256066Y-95233497D01*
X194209397Y-95120827D01*
X194209390Y-95120814D01*
X194121789Y-94989711D01*
X194121786Y-94989707D01*
X194010292Y-94878213D01*
X194010288Y-94878210D01*
X193879185Y-94790609D01*
X193879172Y-94790602D01*
X193733501Y-94730264D01*
X193733489Y-94730261D01*
X193578845Y-94699500D01*
X193578842Y-94699500D01*
X193421158Y-94699500D01*
X193421155Y-94699500D01*
X193266510Y-94730261D01*
X193266498Y-94730264D01*
X193120827Y-94790602D01*
X193120814Y-94790609D01*
X192989711Y-94878210D01*
X192989706Y-94878214D01*
X192952666Y-94915254D01*
X192891343Y-94948739D01*
X192821651Y-94943753D01*
X192765718Y-94901881D01*
X192741302Y-94836417D01*
X192750424Y-94780121D01*
X192769737Y-94733497D01*
X192800500Y-94578842D01*
X192800500Y-94421158D01*
X192800500Y-94421155D01*
X192800499Y-94421153D01*
X192791422Y-94375520D01*
X192769737Y-94266503D01*
X192746080Y-94209390D01*
X192709397Y-94120827D01*
X192709390Y-94120814D01*
X192621789Y-93989711D01*
X192621786Y-93989707D01*
X192510292Y-93878213D01*
X192510288Y-93878210D01*
X192379185Y-93790609D01*
X192379172Y-93790602D01*
X192233501Y-93730264D01*
X192233489Y-93730261D01*
X192078845Y-93699500D01*
X192078842Y-93699500D01*
X191921158Y-93699500D01*
X191921155Y-93699500D01*
X191766510Y-93730261D01*
X191766498Y-93730264D01*
X191620827Y-93790602D01*
X191620814Y-93790609D01*
X191489711Y-93878210D01*
X191489707Y-93878213D01*
X191378213Y-93989707D01*
X191378210Y-93989711D01*
X191290609Y-94120814D01*
X191290602Y-94120827D01*
X191230264Y-94266498D01*
X191230261Y-94266510D01*
X191199500Y-94421153D01*
X191199500Y-94578846D01*
X191230261Y-94733489D01*
X191230264Y-94733501D01*
X191290061Y-94877864D01*
X191299500Y-94925316D01*
X191299500Y-95798480D01*
X191279815Y-95865519D01*
X191263181Y-95886161D01*
X190384888Y-96764453D01*
X190384885Y-96764457D01*
X190351734Y-96814072D01*
X190350265Y-96815299D01*
X190349639Y-96817109D01*
X190323571Y-96837608D01*
X190298122Y-96858877D01*
X190296221Y-96859115D01*
X190294717Y-96860299D01*
X190261701Y-96863451D01*
X190228797Y-96867584D01*
X190227070Y-96866757D01*
X190225163Y-96866940D01*
X190195678Y-96851739D01*
X190165770Y-96837430D01*
X190164223Y-96835522D01*
X190163061Y-96834923D01*
X190141246Y-96807182D01*
X190120520Y-96771284D01*
X190117112Y-96765381D01*
X190100500Y-96703382D01*
X190100500Y-86654300D01*
X190100501Y-86654287D01*
X190100501Y-86486184D01*
X190100501Y-86486183D01*
X190059577Y-86333456D01*
X190046944Y-86311575D01*
X189980524Y-86196530D01*
X189980518Y-86196522D01*
X189754443Y-85970447D01*
X189720958Y-85909124D01*
X189725942Y-85839432D01*
X189727548Y-85835349D01*
X189769737Y-85733497D01*
X189800500Y-85578842D01*
X189800500Y-85421158D01*
X189800500Y-85421155D01*
X189800499Y-85421153D01*
X189769738Y-85266510D01*
X189769737Y-85266503D01*
X189769735Y-85266498D01*
X189709397Y-85120827D01*
X189709390Y-85120814D01*
X189621789Y-84989711D01*
X189621786Y-84989707D01*
X189510292Y-84878213D01*
X189510288Y-84878210D01*
X189379185Y-84790609D01*
X189379175Y-84790604D01*
X189323967Y-84767736D01*
X189269564Y-84723895D01*
X189247499Y-84657600D01*
X189264778Y-84589901D01*
X189283734Y-84565500D01*
X189514662Y-84334572D01*
X189575983Y-84301089D01*
X189578150Y-84300638D01*
X189636085Y-84289113D01*
X189733497Y-84269737D01*
X189879179Y-84209394D01*
X190010289Y-84121789D01*
X190121789Y-84010289D01*
X190209394Y-83879179D01*
X190269737Y-83733497D01*
X190300500Y-83578842D01*
X190300500Y-83421158D01*
X190300500Y-83421155D01*
X190300499Y-83421153D01*
X190275114Y-83293535D01*
X190269737Y-83266503D01*
X190248929Y-83216267D01*
X190209397Y-83120827D01*
X190209390Y-83120814D01*
X190121789Y-82989711D01*
X190121786Y-82989707D01*
X190010292Y-82878213D01*
X190010288Y-82878210D01*
X189879185Y-82790609D01*
X189879172Y-82790602D01*
X189733501Y-82730264D01*
X189733489Y-82730261D01*
X189578845Y-82699500D01*
X189578842Y-82699500D01*
X189421158Y-82699500D01*
X189421155Y-82699500D01*
X189266510Y-82730261D01*
X189266498Y-82730264D01*
X189120827Y-82790602D01*
X189120814Y-82790609D01*
X188989711Y-82878210D01*
X188989707Y-82878213D01*
X188878213Y-82989707D01*
X188878210Y-82989711D01*
X188790609Y-83120814D01*
X188790602Y-83120827D01*
X188730264Y-83266498D01*
X188730261Y-83266508D01*
X188699361Y-83421850D01*
X188666976Y-83483761D01*
X188665425Y-83485339D01*
X185519481Y-86631282D01*
X185519479Y-86631285D01*
X185506199Y-86654287D01*
X185489682Y-86682896D01*
X185440423Y-86768215D01*
X185399499Y-86920943D01*
X185399499Y-86920945D01*
X185399499Y-87089046D01*
X185399500Y-87089059D01*
X185399500Y-97209695D01*
X185379815Y-97276734D01*
X185327011Y-97322489D01*
X185257853Y-97332433D01*
X185219205Y-97320180D01*
X185078414Y-97248444D01*
X185078413Y-97248443D01*
X185078412Y-97248443D01*
X184876243Y-97182754D01*
X184876241Y-97182753D01*
X184876240Y-97182753D01*
X184700027Y-97154844D01*
X184666287Y-97149500D01*
X184453713Y-97149500D01*
X184297227Y-97174284D01*
X184227934Y-97165329D01*
X184190149Y-97139492D01*
X183736819Y-96686162D01*
X183703334Y-96624839D01*
X183700500Y-96598481D01*
X183700500Y-87925316D01*
X183709939Y-87877864D01*
X183746041Y-87790705D01*
X183769737Y-87733497D01*
X183800500Y-87578842D01*
X183800500Y-87421158D01*
X183800500Y-87421155D01*
X183800499Y-87421153D01*
X183790069Y-87368717D01*
X183769737Y-87266503D01*
X183755883Y-87233057D01*
X183709397Y-87120827D01*
X183709390Y-87120814D01*
X183621789Y-86989711D01*
X183621786Y-86989707D01*
X183510292Y-86878213D01*
X183510288Y-86878210D01*
X183379185Y-86790609D01*
X183379172Y-86790602D01*
X183233501Y-86730264D01*
X183233489Y-86730261D01*
X183078845Y-86699500D01*
X183078842Y-86699500D01*
X182921158Y-86699500D01*
X182921155Y-86699500D01*
X182766510Y-86730261D01*
X182766498Y-86730264D01*
X182620827Y-86790602D01*
X182620814Y-86790609D01*
X182507061Y-86866617D01*
X182476769Y-86876101D01*
X182447017Y-86887199D01*
X182443660Y-86886468D01*
X182440383Y-86887495D01*
X182409764Y-86879095D01*
X182378744Y-86872347D01*
X182375028Y-86869565D01*
X182373003Y-86869010D01*
X182350491Y-86851199D01*
X182246069Y-86746777D01*
X182219191Y-86706548D01*
X182209397Y-86682903D01*
X182209394Y-86682897D01*
X182209394Y-86682896D01*
X182140934Y-86580438D01*
X182121789Y-86551785D01*
X182010292Y-86440288D01*
X182010288Y-86440285D01*
X181879185Y-86352684D01*
X181879172Y-86352677D01*
X181733501Y-86292339D01*
X181733489Y-86292336D01*
X181578845Y-86261575D01*
X181578842Y-86261575D01*
X181421158Y-86261575D01*
X181421155Y-86261575D01*
X181266510Y-86292336D01*
X181266498Y-86292339D01*
X181120827Y-86352677D01*
X181120814Y-86352684D01*
X180989711Y-86440285D01*
X180989707Y-86440288D01*
X180878213Y-86551782D01*
X180878210Y-86551786D01*
X180790609Y-86682889D01*
X180790602Y-86682902D01*
X180730264Y-86828573D01*
X180730261Y-86828585D01*
X180699500Y-86983228D01*
X180699500Y-87140921D01*
X180730261Y-87295564D01*
X180730264Y-87295576D01*
X180790602Y-87441247D01*
X180790609Y-87441260D01*
X180878210Y-87572363D01*
X180878213Y-87572367D01*
X180989710Y-87683864D01*
X181063980Y-87733489D01*
X181120821Y-87771469D01*
X181120826Y-87771471D01*
X181120828Y-87771472D01*
X181144473Y-87781266D01*
X181184705Y-87808147D01*
X181562181Y-88185623D01*
X181595666Y-88246946D01*
X181598500Y-88273304D01*
X181598500Y-89575500D01*
X181578815Y-89642539D01*
X181526011Y-89688294D01*
X181474500Y-89699500D01*
X181421155Y-89699500D01*
X181266510Y-89730261D01*
X181266498Y-89730264D01*
X181120827Y-89790602D01*
X181120814Y-89790609D01*
X180989125Y-89878602D01*
X180922447Y-89899480D01*
X180920234Y-89899500D01*
X180300098Y-89899500D01*
X180233059Y-89879815D01*
X180212417Y-89863181D01*
X177834573Y-87485337D01*
X177801088Y-87424014D01*
X177800637Y-87421847D01*
X177790069Y-87368717D01*
X177769737Y-87266503D01*
X177755883Y-87233057D01*
X177709397Y-87120827D01*
X177709390Y-87120814D01*
X177633382Y-87007060D01*
X177612504Y-86940382D01*
X177630989Y-86873002D01*
X177648799Y-86850492D01*
X189763451Y-74735842D01*
X189820448Y-74704720D01*
X189820149Y-74703604D01*
X189824749Y-74702371D01*
X189824772Y-74702359D01*
X189824838Y-74702347D01*
X189827995Y-74701501D01*
X189828000Y-74701501D01*
X189980728Y-74660577D01*
X190049587Y-74620821D01*
X190117659Y-74581520D01*
X190229463Y-74469716D01*
X190229464Y-74469714D01*
X190581520Y-74117659D01*
X190660577Y-73980728D01*
X190701501Y-73828000D01*
X190701501Y-73827997D01*
X190703604Y-73820149D01*
X190706767Y-73820996D01*
X190728806Y-73771102D01*
X190735832Y-73763460D01*
X191037819Y-73461474D01*
X191099142Y-73427989D01*
X191168834Y-73432973D01*
X191224767Y-73474845D01*
X191249184Y-73540309D01*
X191249500Y-73549155D01*
X191249500Y-89195396D01*
X191240062Y-89242844D01*
X191230263Y-89266503D01*
X191230262Y-89266506D01*
X191230260Y-89266511D01*
X191199500Y-89421153D01*
X191199500Y-89578846D01*
X191230261Y-89733489D01*
X191230264Y-89733501D01*
X191290602Y-89879172D01*
X191290609Y-89879185D01*
X191378210Y-90010288D01*
X191378213Y-90010292D01*
X191489707Y-90121786D01*
X191489711Y-90121789D01*
X191620814Y-90209390D01*
X191620827Y-90209397D01*
X191758683Y-90266498D01*
X191766503Y-90269737D01*
X191921153Y-90300499D01*
X191921156Y-90300500D01*
X191921158Y-90300500D01*
X192078844Y-90300500D01*
X192078845Y-90300499D01*
X192233497Y-90269737D01*
X192379179Y-90209394D01*
X192510289Y-90121789D01*
X192621789Y-90010289D01*
X192709394Y-89879179D01*
X192769737Y-89733497D01*
X192800500Y-89578842D01*
X192800500Y-89421158D01*
X192800500Y-89421155D01*
X192800499Y-89421153D01*
X192769739Y-89266511D01*
X192769738Y-89266508D01*
X192769737Y-89266503D01*
X192759937Y-89242844D01*
X192750500Y-89195396D01*
X192750500Y-58862228D01*
X192770185Y-58795189D01*
X192786814Y-58774552D01*
X195256964Y-56304401D01*
X195318285Y-56270918D01*
X195387977Y-56275902D01*
G37*
%TD.AperFunction*%
%TA.AperFunction,Conductor*%
G36*
X202246231Y-56670185D02*
G01*
X202266873Y-56686819D01*
X203063181Y-57483127D01*
X203096666Y-57544450D01*
X203099500Y-57570808D01*
X203099500Y-58814071D01*
X203111521Y-58874500D01*
X203120802Y-58921158D01*
X203124499Y-58939744D01*
X203140517Y-58978416D01*
X203173535Y-59058127D01*
X203187379Y-59078846D01*
X203244726Y-59164673D01*
X203244727Y-59164674D01*
X212664181Y-68584127D01*
X212697666Y-68645450D01*
X212700500Y-68671808D01*
X212700500Y-73875500D01*
X212680815Y-73942539D01*
X212628011Y-73988294D01*
X212576500Y-73999500D01*
X212401457Y-73999500D01*
X212208170Y-74037947D01*
X212208160Y-74037950D01*
X212026092Y-74113364D01*
X212026079Y-74113371D01*
X211862218Y-74222860D01*
X211862214Y-74222863D01*
X211722863Y-74362214D01*
X211722860Y-74362218D01*
X211613371Y-74526079D01*
X211613364Y-74526092D01*
X211537950Y-74708160D01*
X211537947Y-74708170D01*
X211499500Y-74901456D01*
X211499500Y-86449844D01*
X211479815Y-86516883D01*
X211463181Y-86537525D01*
X210884523Y-87116183D01*
X210823200Y-87149668D01*
X210753508Y-87144684D01*
X210697575Y-87102812D01*
X210693740Y-87097393D01*
X210621789Y-86989710D01*
X210510292Y-86878213D01*
X210510288Y-86878210D01*
X210379185Y-86790609D01*
X210379172Y-86790602D01*
X210233501Y-86730264D01*
X210233489Y-86730261D01*
X210078845Y-86699500D01*
X210078842Y-86699500D01*
X209921158Y-86699500D01*
X209921155Y-86699500D01*
X209766510Y-86730261D01*
X209766498Y-86730264D01*
X209620827Y-86790602D01*
X209620814Y-86790609D01*
X209489127Y-86878601D01*
X209428874Y-86897467D01*
X209429002Y-86898438D01*
X209423432Y-86899171D01*
X209422450Y-86899479D01*
X209420996Y-86899492D01*
X209420945Y-86899498D01*
X209268214Y-86940423D01*
X209268209Y-86940426D01*
X209131290Y-87019475D01*
X209131282Y-87019481D01*
X208787584Y-87363181D01*
X208726261Y-87396666D01*
X208699903Y-87399500D01*
X206099766Y-87399500D01*
X206032727Y-87379815D01*
X206030875Y-87378602D01*
X205899185Y-87290609D01*
X205899172Y-87290602D01*
X205753501Y-87230264D01*
X205753489Y-87230261D01*
X205598845Y-87199500D01*
X205598842Y-87199500D01*
X205441158Y-87199500D01*
X205441155Y-87199500D01*
X205286510Y-87230261D01*
X205286498Y-87230264D01*
X205140827Y-87290602D01*
X205140814Y-87290609D01*
X205009711Y-87378210D01*
X205009707Y-87378213D01*
X204898213Y-87489707D01*
X204898210Y-87489711D01*
X204810609Y-87620814D01*
X204810602Y-87620827D01*
X204750264Y-87766498D01*
X204750261Y-87766510D01*
X204719500Y-87921153D01*
X204719500Y-88078846D01*
X204750261Y-88233489D01*
X204750263Y-88233497D01*
X204810602Y-88379172D01*
X204810607Y-88379181D01*
X204898210Y-88510288D01*
X204898213Y-88510292D01*
X205009707Y-88621786D01*
X205009711Y-88621789D01*
X205140814Y-88709390D01*
X205140827Y-88709397D01*
X205286498Y-88769735D01*
X205286503Y-88769737D01*
X205441073Y-88800483D01*
X205441153Y-88800499D01*
X205441156Y-88800500D01*
X205441158Y-88800500D01*
X205598844Y-88800500D01*
X205598845Y-88800499D01*
X205753497Y-88769737D01*
X205899179Y-88709394D01*
X205899185Y-88709390D01*
X206030875Y-88621398D01*
X206097553Y-88600520D01*
X206099766Y-88600500D01*
X208920939Y-88600500D01*
X208920943Y-88600501D01*
X209079057Y-88600501D01*
X209086134Y-88598604D01*
X209101560Y-88598436D01*
X209128309Y-88605973D01*
X209155755Y-88610252D01*
X209161462Y-88615316D01*
X209168810Y-88617387D01*
X209187233Y-88638185D01*
X209208015Y-88656627D01*
X209210078Y-88663976D01*
X209215139Y-88669689D01*
X209219393Y-88697144D01*
X209226905Y-88723895D01*
X209224668Y-88731192D01*
X209225837Y-88738734D01*
X209214573Y-88764128D01*
X209206430Y-88790697D01*
X209198448Y-88800483D01*
X209197508Y-88802603D01*
X209195805Y-88803723D01*
X209190599Y-88810107D01*
X209182860Y-88817845D01*
X209182860Y-88817846D01*
X209073371Y-88981707D01*
X209073364Y-88981720D01*
X208997950Y-89163788D01*
X208997947Y-89163798D01*
X208959500Y-89357084D01*
X208959500Y-95010433D01*
X208939815Y-95077472D01*
X208938603Y-95079323D01*
X208879223Y-95168192D01*
X208826421Y-95295668D01*
X208826421Y-95295669D01*
X208826420Y-95295672D01*
X208811891Y-95368716D01*
X208809519Y-95380641D01*
X208799500Y-95431005D01*
X208799500Y-96849298D01*
X208779815Y-96916337D01*
X208763181Y-96936979D01*
X208334408Y-97365751D01*
X208273085Y-97399236D01*
X208203393Y-97394252D01*
X208173843Y-97378389D01*
X208127816Y-97344949D01*
X208127814Y-97344948D01*
X207938414Y-97248444D01*
X207938413Y-97248443D01*
X207938412Y-97248443D01*
X207736243Y-97182754D01*
X207736241Y-97182753D01*
X207736240Y-97182753D01*
X207560027Y-97154844D01*
X207526287Y-97149500D01*
X207313713Y-97149500D01*
X207279973Y-97154844D01*
X207103760Y-97182753D01*
X207103757Y-97182754D01*
X206947612Y-97233489D01*
X206901585Y-97248444D01*
X206712179Y-97344951D01*
X206540213Y-97469890D01*
X206389890Y-97620213D01*
X206264949Y-97792182D01*
X206260484Y-97800946D01*
X206212509Y-97851742D01*
X206144688Y-97868536D01*
X206078553Y-97845998D01*
X206039516Y-97800946D01*
X206035050Y-97792182D01*
X205910109Y-97620213D01*
X205759786Y-97469890D01*
X205587820Y-97344951D01*
X205398414Y-97248444D01*
X205398413Y-97248443D01*
X205398412Y-97248443D01*
X205196243Y-97182754D01*
X205196241Y-97182753D01*
X205196240Y-97182753D01*
X205020027Y-97154844D01*
X204986287Y-97149500D01*
X204773713Y-97149500D01*
X204739973Y-97154844D01*
X204563760Y-97182753D01*
X204563757Y-97182754D01*
X204407612Y-97233489D01*
X204361585Y-97248444D01*
X204172179Y-97344951D01*
X204000213Y-97469890D01*
X203849890Y-97620213D01*
X203724949Y-97792182D01*
X203720484Y-97800946D01*
X203672509Y-97851742D01*
X203604688Y-97868536D01*
X203538553Y-97845998D01*
X203499516Y-97800946D01*
X203495050Y-97792182D01*
X203370109Y-97620213D01*
X203219786Y-97469890D01*
X203047820Y-97344951D01*
X202858414Y-97248444D01*
X202858413Y-97248443D01*
X202858412Y-97248443D01*
X202656243Y-97182754D01*
X202656241Y-97182753D01*
X202656240Y-97182753D01*
X202480027Y-97154844D01*
X202446287Y-97149500D01*
X202233713Y-97149500D01*
X202199973Y-97154844D01*
X202023760Y-97182753D01*
X202023757Y-97182754D01*
X201867612Y-97233489D01*
X201821585Y-97248444D01*
X201632179Y-97344951D01*
X201460213Y-97469890D01*
X201309890Y-97620213D01*
X201184949Y-97792182D01*
X201180484Y-97800946D01*
X201132509Y-97851742D01*
X201064688Y-97868536D01*
X200998553Y-97845998D01*
X200959516Y-97800946D01*
X200955050Y-97792182D01*
X200830109Y-97620213D01*
X200679786Y-97469890D01*
X200507820Y-97344951D01*
X200318414Y-97248444D01*
X200318413Y-97248443D01*
X200318412Y-97248443D01*
X200116243Y-97182754D01*
X200116241Y-97182753D01*
X200116240Y-97182753D01*
X199940027Y-97154844D01*
X199906287Y-97149500D01*
X199693713Y-97149500D01*
X199659973Y-97154844D01*
X199483759Y-97182753D01*
X199483755Y-97182754D01*
X199412817Y-97205803D01*
X199342976Y-97207798D01*
X199283143Y-97171717D01*
X199252316Y-97109016D01*
X199250500Y-97087872D01*
X199250500Y-95454610D01*
X199270185Y-95387571D01*
X199275228Y-95380641D01*
X199277136Y-95377784D01*
X199277139Y-95377782D01*
X199386632Y-95213914D01*
X199462051Y-95031835D01*
X199487901Y-94901881D01*
X199500500Y-94838543D01*
X199500500Y-86268102D01*
X201352551Y-86268102D01*
X201352551Y-86425795D01*
X201383312Y-86580438D01*
X201383315Y-86580450D01*
X201443653Y-86726121D01*
X201443660Y-86726134D01*
X201531261Y-86857237D01*
X201531264Y-86857241D01*
X201642758Y-86968735D01*
X201642762Y-86968738D01*
X201773865Y-87056339D01*
X201773878Y-87056346D01*
X201919549Y-87116684D01*
X201919554Y-87116686D01*
X202041371Y-87140917D01*
X202074204Y-87147448D01*
X202074207Y-87147449D01*
X202074209Y-87147449D01*
X202231895Y-87147449D01*
X202231896Y-87147448D01*
X202386548Y-87116686D01*
X202532230Y-87056343D01*
X202663340Y-86968738D01*
X202774840Y-86857238D01*
X202862445Y-86726128D01*
X202922788Y-86580446D01*
X202948767Y-86449844D01*
X202953689Y-86425099D01*
X202986074Y-86363188D01*
X202987569Y-86361665D01*
X204212416Y-85136819D01*
X204273739Y-85103334D01*
X204300097Y-85100500D01*
X208883910Y-85100500D01*
X208950949Y-85120185D01*
X208952801Y-85121398D01*
X209084490Y-85209390D01*
X209084503Y-85209397D01*
X209222359Y-85266498D01*
X209230179Y-85269737D01*
X209346305Y-85292836D01*
X209384829Y-85300499D01*
X209384832Y-85300500D01*
X209384834Y-85300500D01*
X209542520Y-85300500D01*
X209542521Y-85300499D01*
X209697173Y-85269737D01*
X209842855Y-85209394D01*
X209973965Y-85121789D01*
X210085465Y-85010289D01*
X210173070Y-84879179D01*
X210233413Y-84733497D01*
X210264176Y-84578842D01*
X210264176Y-84421158D01*
X210264176Y-84421155D01*
X210264175Y-84421153D01*
X210246953Y-84334574D01*
X210233413Y-84266503D01*
X210226636Y-84250141D01*
X210173073Y-84120827D01*
X210173066Y-84120814D01*
X210085465Y-83989711D01*
X210085462Y-83989707D01*
X209973968Y-83878213D01*
X209973964Y-83878210D01*
X209842861Y-83790609D01*
X209842848Y-83790602D01*
X209697177Y-83730264D01*
X209697165Y-83730261D01*
X209542521Y-83699500D01*
X209542518Y-83699500D01*
X209384834Y-83699500D01*
X209384831Y-83699500D01*
X209230186Y-83730261D01*
X209230174Y-83730264D01*
X209084503Y-83790602D01*
X209084490Y-83790609D01*
X208952801Y-83878602D01*
X208886123Y-83899480D01*
X208883910Y-83899500D01*
X203920940Y-83899500D01*
X203880019Y-83910464D01*
X203880019Y-83910465D01*
X203842751Y-83920451D01*
X203768214Y-83940423D01*
X203768209Y-83940426D01*
X203631290Y-84019475D01*
X203631282Y-84019481D01*
X202138390Y-85512374D01*
X202077067Y-85545859D01*
X202074901Y-85546310D01*
X201919559Y-85577210D01*
X201919549Y-85577213D01*
X201773878Y-85637551D01*
X201773865Y-85637558D01*
X201642762Y-85725159D01*
X201642758Y-85725162D01*
X201531264Y-85836656D01*
X201531261Y-85836660D01*
X201443660Y-85967763D01*
X201443653Y-85967776D01*
X201383315Y-86113447D01*
X201383312Y-86113459D01*
X201352551Y-86268102D01*
X199500500Y-86268102D01*
X199500500Y-84902456D01*
X199462052Y-84709170D01*
X199462051Y-84709169D01*
X199462051Y-84709165D01*
X199432483Y-84637780D01*
X199386635Y-84527092D01*
X199386628Y-84527079D01*
X199277139Y-84363218D01*
X199277136Y-84363214D01*
X199137784Y-84223862D01*
X199137781Y-84223860D01*
X198973920Y-84114371D01*
X198973907Y-84114364D01*
X198791839Y-84038950D01*
X198791829Y-84038947D01*
X198598543Y-84000500D01*
X198598541Y-84000500D01*
X198125500Y-84000500D01*
X198058461Y-83980815D01*
X198012706Y-83928011D01*
X198001500Y-83876500D01*
X198001500Y-83486828D01*
X197975272Y-83354975D01*
X197963051Y-83293537D01*
X197961932Y-83290836D01*
X197931045Y-83216267D01*
X197891513Y-83120827D01*
X197887635Y-83111464D01*
X197887628Y-83111451D01*
X197778139Y-82947590D01*
X197778136Y-82947586D01*
X197635686Y-82805136D01*
X197635655Y-82805107D01*
X197196471Y-82365923D01*
X197191769Y-82361221D01*
X197191767Y-82361218D01*
X197052410Y-82221861D01*
X197045834Y-82217467D01*
X197037460Y-82209214D01*
X197025965Y-82188523D01*
X197010795Y-82170364D01*
X197007750Y-82155736D01*
X197003529Y-82148137D01*
X197004151Y-82138441D01*
X197000500Y-82120896D01*
X197000500Y-76421153D01*
X197949500Y-76421153D01*
X197949500Y-76578846D01*
X197980261Y-76733489D01*
X197980264Y-76733501D01*
X198040602Y-76879172D01*
X198040609Y-76879185D01*
X198128210Y-77010288D01*
X198128213Y-77010292D01*
X198239707Y-77121786D01*
X198239711Y-77121789D01*
X198370814Y-77209390D01*
X198370827Y-77209397D01*
X198508683Y-77266498D01*
X198516503Y-77269737D01*
X198671153Y-77300499D01*
X198671156Y-77300500D01*
X198671158Y-77300500D01*
X198828844Y-77300500D01*
X198828845Y-77300499D01*
X198983497Y-77269737D01*
X199129179Y-77209394D01*
X199260289Y-77121789D01*
X199371789Y-77010289D01*
X199459394Y-76879179D01*
X199519737Y-76733497D01*
X199550500Y-76578842D01*
X199550500Y-76421158D01*
X199550500Y-76421155D01*
X199550499Y-76421153D01*
X199531327Y-76324771D01*
X199519737Y-76266503D01*
X199459394Y-76120821D01*
X199421396Y-76063953D01*
X199400520Y-75997276D01*
X199400500Y-75995064D01*
X199400500Y-74570808D01*
X199420185Y-74503769D01*
X199436819Y-74483127D01*
X202733127Y-71186819D01*
X202794450Y-71153334D01*
X202820808Y-71150500D01*
X205495065Y-71150500D01*
X205562104Y-71170185D01*
X205563909Y-71171366D01*
X205620821Y-71209394D01*
X205620823Y-71209395D01*
X205620827Y-71209397D01*
X205758683Y-71266498D01*
X205766503Y-71269737D01*
X205868829Y-71290091D01*
X205921153Y-71300499D01*
X205921156Y-71300500D01*
X205921158Y-71300500D01*
X206078844Y-71300500D01*
X206078845Y-71300499D01*
X206233497Y-71269737D01*
X206379179Y-71209394D01*
X206510289Y-71121789D01*
X206621789Y-71010289D01*
X206709394Y-70879179D01*
X206769737Y-70733497D01*
X206800500Y-70578842D01*
X206800500Y-70421158D01*
X206800500Y-70421155D01*
X206800499Y-70421153D01*
X206782729Y-70331817D01*
X206769737Y-70266503D01*
X206743985Y-70204332D01*
X206709397Y-70120827D01*
X206709390Y-70120814D01*
X206621789Y-69989711D01*
X206621786Y-69989707D01*
X206510292Y-69878213D01*
X206510288Y-69878210D01*
X206379185Y-69790609D01*
X206379172Y-69790602D01*
X206233501Y-69730264D01*
X206233489Y-69730261D01*
X206078845Y-69699500D01*
X206078842Y-69699500D01*
X205921158Y-69699500D01*
X205921155Y-69699500D01*
X205766510Y-69730261D01*
X205766498Y-69730264D01*
X205620827Y-69790602D01*
X205620820Y-69790606D01*
X205591928Y-69809911D01*
X205563955Y-69828602D01*
X205497279Y-69849480D01*
X205495065Y-69849500D01*
X202435929Y-69849500D01*
X202310261Y-69874497D01*
X202310255Y-69874499D01*
X202191874Y-69923534D01*
X202085326Y-69994726D01*
X198244727Y-73835325D01*
X198244721Y-73835332D01*
X198191711Y-73914668D01*
X198191712Y-73914669D01*
X198173534Y-73941874D01*
X198124499Y-74060255D01*
X198124497Y-74060261D01*
X198099500Y-74185928D01*
X198099500Y-75995064D01*
X198079815Y-76062103D01*
X198078603Y-76063954D01*
X198040608Y-76120817D01*
X198040602Y-76120828D01*
X197980264Y-76266498D01*
X197980261Y-76266510D01*
X197949500Y-76421153D01*
X197000500Y-76421153D01*
X197000500Y-60965782D01*
X197020185Y-60898743D01*
X197036819Y-60878101D01*
X200277136Y-57637785D01*
X200277136Y-57637784D01*
X200277139Y-57637782D01*
X200386631Y-57473915D01*
X200462051Y-57291836D01*
X200500500Y-57098541D01*
X200500500Y-56901460D01*
X200500500Y-56901457D01*
X200480058Y-56798692D01*
X200486285Y-56729100D01*
X200529148Y-56673923D01*
X200595037Y-56650678D01*
X200601675Y-56650500D01*
X202179192Y-56650500D01*
X202246231Y-56670185D01*
G37*
%TD.AperFunction*%
%TA.AperFunction,Conductor*%
G36*
X213268834Y-87664229D02*
G01*
X213324767Y-87706101D01*
X213349184Y-87771565D01*
X213349500Y-87780411D01*
X213349500Y-88227047D01*
X213329815Y-88294086D01*
X213277011Y-88339841D01*
X213249692Y-88348664D01*
X213119823Y-88374497D01*
X213119817Y-88374499D01*
X213001436Y-88423534D01*
X212894888Y-88494726D01*
X212304288Y-89085326D01*
X212286844Y-89111432D01*
X212235440Y-89188366D01*
X212233670Y-89191014D01*
X212233094Y-89191877D01*
X212184062Y-89310251D01*
X212184059Y-89310261D01*
X212159062Y-89435928D01*
X212159062Y-89435931D01*
X212159062Y-92367507D01*
X212175936Y-92452335D01*
X212178936Y-92467415D01*
X212184061Y-92493183D01*
X212213452Y-92564139D01*
X212233097Y-92611565D01*
X212298521Y-92709480D01*
X212304288Y-92718111D01*
X212304289Y-92718112D01*
X213670590Y-94084411D01*
X213704075Y-94145734D01*
X213699091Y-94215425D01*
X213657220Y-94271359D01*
X213630367Y-94286651D01*
X213620825Y-94290603D01*
X213620814Y-94290609D01*
X213489711Y-94378210D01*
X213489707Y-94378213D01*
X213378213Y-94489707D01*
X213378210Y-94489711D01*
X213290609Y-94620814D01*
X213290602Y-94620827D01*
X213230264Y-94766498D01*
X213230261Y-94766508D01*
X213199362Y-94921848D01*
X213166977Y-94983759D01*
X213165426Y-94985337D01*
X212631286Y-95519478D01*
X212519481Y-95631282D01*
X212519475Y-95631290D01*
X212476986Y-95704885D01*
X212476986Y-95704886D01*
X212440423Y-95768215D01*
X212399499Y-95920943D01*
X212399499Y-95920945D01*
X212399499Y-96089046D01*
X212399500Y-96089059D01*
X212399500Y-96373330D01*
X212399499Y-96373348D01*
X212399499Y-96539054D01*
X212399498Y-96539054D01*
X212423324Y-96627972D01*
X212440423Y-96691785D01*
X212462639Y-96730264D01*
X212469358Y-96741900D01*
X212469359Y-96741904D01*
X212469360Y-96741904D01*
X212511025Y-96814072D01*
X212519479Y-96828714D01*
X212519481Y-96828717D01*
X212628583Y-96937819D01*
X212662068Y-96999142D01*
X212657084Y-97068834D01*
X212615212Y-97124767D01*
X212549748Y-97149184D01*
X212540902Y-97149500D01*
X212393713Y-97149500D01*
X212359973Y-97154844D01*
X212183759Y-97182753D01*
X212183755Y-97182754D01*
X212111817Y-97206128D01*
X212041976Y-97208123D01*
X211982143Y-97172042D01*
X211951316Y-97109341D01*
X211949500Y-97088197D01*
X211949500Y-96180004D01*
X211949499Y-96180002D01*
X211922582Y-96044679D01*
X211922580Y-96044674D01*
X211922580Y-96044672D01*
X211917892Y-96033355D01*
X211869775Y-95917189D01*
X211793114Y-95802457D01*
X211793112Y-95802454D01*
X211789249Y-95797747D01*
X211790346Y-95796846D01*
X211769191Y-95765184D01*
X211709397Y-95620827D01*
X211709390Y-95620814D01*
X211621789Y-95489711D01*
X211621786Y-95489707D01*
X211510292Y-95378213D01*
X211510288Y-95378210D01*
X211379185Y-95290609D01*
X211379172Y-95290602D01*
X211233501Y-95230264D01*
X211233491Y-95230261D01*
X211100309Y-95203769D01*
X211038398Y-95171384D01*
X211003824Y-95110668D01*
X211000501Y-95082152D01*
X211000501Y-94901457D01*
X211000500Y-94901455D01*
X210962883Y-94712340D01*
X210960500Y-94688149D01*
X210960500Y-89921410D01*
X210980185Y-89854371D01*
X210996819Y-89833729D01*
X213137819Y-87692730D01*
X213199142Y-87659245D01*
X213268834Y-87664229D01*
G37*
%TD.AperFunction*%
%TA.AperFunction,Conductor*%
G36*
X214129815Y-80715608D02*
G01*
X214143147Y-80713692D01*
X214163290Y-80722891D01*
X214184927Y-80727598D01*
X214202653Y-80740867D01*
X214206703Y-80742717D01*
X214213167Y-80748735D01*
X214257528Y-80793096D01*
X214298384Y-80833952D01*
X214421297Y-80916080D01*
X214421310Y-80916087D01*
X214463053Y-80933377D01*
X214469219Y-80935931D01*
X214557887Y-80972659D01*
X214674040Y-80995763D01*
X214697883Y-81000505D01*
X214702880Y-81001500D01*
X214702881Y-81001500D01*
X214702882Y-81001500D01*
X214850717Y-81001500D01*
X216950845Y-81001500D01*
X217017884Y-81021185D01*
X217038526Y-81037819D01*
X218351196Y-82350489D01*
X218384681Y-82411812D01*
X218379697Y-82481504D01*
X218366617Y-82507061D01*
X218290609Y-82620814D01*
X218290602Y-82620827D01*
X218230264Y-82766498D01*
X218230261Y-82766510D01*
X218199500Y-82921153D01*
X218199500Y-83078846D01*
X218230261Y-83233489D01*
X218230264Y-83233501D01*
X218290602Y-83379172D01*
X218290609Y-83379185D01*
X218378602Y-83510874D01*
X218399480Y-83577551D01*
X218399500Y-83579765D01*
X218399500Y-91565612D01*
X218379815Y-91632651D01*
X218363181Y-91653293D01*
X217452336Y-92564137D01*
X217452335Y-92564139D01*
X217402443Y-92650556D01*
X217402216Y-92650949D01*
X217402214Y-92650951D01*
X217373280Y-92701064D01*
X217373279Y-92701065D01*
X217365455Y-92730264D01*
X217332354Y-92853798D01*
X217332354Y-92853800D01*
X217332354Y-93021901D01*
X217332355Y-93021914D01*
X217332355Y-94422336D01*
X217312670Y-94489375D01*
X217259866Y-94535130D01*
X217190708Y-94545074D01*
X217127152Y-94516049D01*
X217120674Y-94510017D01*
X214736819Y-92126162D01*
X214703334Y-92064839D01*
X214700500Y-92038481D01*
X214700500Y-90925316D01*
X214709939Y-90877864D01*
X214769735Y-90733501D01*
X214769737Y-90733497D01*
X214800500Y-90578842D01*
X214800500Y-90421158D01*
X214800500Y-90421155D01*
X214800499Y-90421153D01*
X214769738Y-90266510D01*
X214769737Y-90266503D01*
X214709794Y-90121786D01*
X214709397Y-90120827D01*
X214709390Y-90120814D01*
X214621789Y-89989711D01*
X214621786Y-89989707D01*
X214510292Y-89878213D01*
X214510288Y-89878210D01*
X214379185Y-89790609D01*
X214379175Y-89790604D01*
X214351805Y-89779267D01*
X214297402Y-89735426D01*
X214275337Y-89669131D01*
X214292616Y-89601432D01*
X214330365Y-89561605D01*
X214414669Y-89505276D01*
X214505276Y-89414669D01*
X214576465Y-89308127D01*
X214625501Y-89189744D01*
X214642899Y-89102281D01*
X214650500Y-89064071D01*
X214650500Y-82935928D01*
X214625502Y-82810261D01*
X214625501Y-82810260D01*
X214625501Y-82810256D01*
X214592367Y-82730263D01*
X214576466Y-82691874D01*
X214528994Y-82620827D01*
X214505278Y-82585332D01*
X214505272Y-82585325D01*
X214037819Y-82117872D01*
X214004334Y-82056549D01*
X214001500Y-82030191D01*
X214001500Y-80836430D01*
X214007738Y-80815184D01*
X214009318Y-80793096D01*
X214017390Y-80782311D01*
X214021185Y-80769391D01*
X214037916Y-80754892D01*
X214051190Y-80737162D01*
X214063811Y-80732454D01*
X214073989Y-80723636D01*
X214095905Y-80720484D01*
X214116655Y-80712746D01*
X214129815Y-80715608D01*
G37*
%TD.AperFunction*%
%TD*%
M02*
